<svg id="圖層_1" data-name="圖層 1" xmlns="http://www.w3.org/2000/svg" xmlns:xlink="http://www.w3.org/1999/xlink" viewBox="0 0 460.17 169.45"><defs><style>.cls-1{fill:url(#未命名漸層_295);}.cls-2,.cls-4,.cls-5,.cls-8{isolation:isolate;}.cls-11,.cls-2,.cls-3,.cls-8{font-size:12px;letter-spacing:0.08em;}.cls-11,.cls-2,.cls-5,.cls-9{fill:#fff;}.cls-11,.cls-2,.cls-3,.cls-5,.cls-8{font-family:MicrosoftJhengHeiRegular, Microsoft JhengHei;}.cls-3,.cls-6{fill:#90d3f4;}.cls-5{font-size:25px;letter-spacing:0.28em;}.cls-12,.cls-7{fill:none;stroke-miterlimit:10;stroke-width:2px;}.cls-7{stroke:#90d3f4;}.cls-8{fill:#2ca6e0;}.cls-10{fill:url(#未命名漸層_295-2);}.cls-12{stroke:#fff;}.cls-13{fill:url(#新增漸層色票_1);}</style><linearGradient id="未命名漸層_295" y1="84.73" x2="460.17" y2="84.73" gradientUnits="userSpaceOnUse"><stop offset="0.23" stop-color="#31bced"/><stop offset="0.57" stop-color="#27afe4"/><stop offset="0.9" stop-color="#1b9ed8"/></linearGradient><linearGradient id="未命名漸層_295-2" x1="0" y1="84.72" x2="460.17" y2="84.72" xlink:href="#未命名漸層_295"/><linearGradient id="新增漸層色票_1" x1="67.36" y1="100.26" x2="67.63" y2="108.12" gradientUnits="userSpaceOnUse"><stop offset="0.23" stop-color="#31bced"/><stop offset="0.46" stop-color="#24b7ec"/><stop offset="0.9" stop-color="#01abe9"/><stop offset="0.9" stop-color="#00abe9"/></linearGradient></defs><title>BNPic03</title><rect class="cls-1" y="0.02" width="460.17" height="169.43"/><text class="cls-2" transform="translate(68.35 136.68)">同意書</text><text class="cls-3" transform="translate(157.18 136.68)">螢幕校準</text><text class="cls-3" transform="translate(249.92 136.68)">檢測說明</text><text class="cls-3" transform="translate(352.83 136.68)">測驗</text><g id="視力自檢" class="cls-4"><text class="cls-5" transform="translate(168.83 62.34)">視力自檢</text></g><circle class="cls-6" cx="180.27" cy="102.95" r="11.35"/><circle class="cls-6" cx="273.01" cy="102.95" r="11.35"/><circle class="cls-6" cx="365.75" cy="102.95" r="11.35"/><line class="cls-7" x1="96.53" y1="102.95" x2="176.35" y2="102.95"/><line class="cls-7" x1="186.53" y1="102.95" x2="266.35" y2="102.95"/><line class="cls-7" x1="282.4" y1="102.95" x2="362.22" y2="102.95"/><text class="cls-8" transform="translate(176.92 107.94)">2</text><text class="cls-8" transform="translate(269.66 107.94)">3</text><text class="cls-8" transform="translate(362.4 107.94)">4</text><circle class="cls-9" cx="87.53" cy="102.95" r="11.35"/><text class="cls-8" transform="translate(83.79 107.94)">1</text><rect class="cls-10" width="460.17" height="169.43"/><text class="cls-2" transform="translate(68.35 136.67)">同意書</text><text class="cls-11" transform="translate(157.18 136.67)">螢幕校準</text><text class="cls-3" transform="translate(249.92 136.67)">檢測說明</text><text class="cls-3" transform="translate(352.83 136.67)">測驗</text><g id="視力自檢-2" data-name="視力自檢" class="cls-4"><text class="cls-5" transform="translate(168.83 62.32)">視力自檢</text></g><circle class="cls-6" cx="273.01" cy="102.94" r="11.35"/><circle class="cls-6" cx="365.75" cy="102.94" r="11.35"/><line class="cls-12" x1="96.53" y1="102.94" x2="176.35" y2="102.94"/><line class="cls-7" x1="186.53" y1="102.94" x2="266.35" y2="102.94"/><line class="cls-7" x1="282.4" y1="102.94" x2="362.22" y2="102.94"/><text class="cls-8" transform="translate(269.66 107.93)">3</text><text class="cls-8" transform="translate(362.4 107.93)">4</text><circle class="cls-9" cx="87.53" cy="102.94" r="11.35"/><circle class="cls-9" cx="180.27" cy="102.94" r="11.35"/><text class="cls-8" transform="translate(176.92 107.93)">2</text><path class="cls-13" d="M65.84,108.18h0a.82.82,0,0,1-.58-.28l-3.6-4.21a.82.82,0,0,1,1.25-1.07l3,3.54L72,100.31a.82.82,0,0,1,1.16,0,.81.81,0,0,1,0,1.16L66.41,108A.79.79,0,0,1,65.84,108.18Z" transform="translate(20.11 -0.38)"/></svg>