<svg id="圖層_1" data-name="圖層 1" xmlns="http://www.w3.org/2000/svg" xmlns:xlink="http://www.w3.org/1999/xlink" viewBox="0 0 460.17 169.43"><defs><style>.cls-1{fill:url(#未命名漸層_298);}.cls-2{isolation:isolate;}.cls-3{fill:#fff;}.cls-4,.cls-5{fill:none;stroke-miterlimit:10;stroke-width:2px;}.cls-4{stroke:#fff;}.cls-5{stroke:#94d1d4;}.cls-6{fill:#00a199;}.cls-7{fill:#94d1d4;}</style><linearGradient id="未命名漸層_298" x1="460.17" y1="84.72" x2="0" y2="84.72" gradientUnits="userSpaceOnUse"><stop offset="0" stop-color="#1fa8af"/><stop offset="0.26" stop-color="#27b0be"/><stop offset="0.61" stop-color="#2eb7cc"/><stop offset="0.91" stop-color="#30b9d1"/></linearGradient></defs><title>BNPic06</title><rect class="cls-1" width="460.17" height="169.43"/><g id="視力自檢" class="cls-2"><g class="cls-2"><path class="cls-3" d="M171.55,48a10.2,10.2,0,0,1-.38,2.61,4.84,4.84,0,0,1-.72,1.68,2.32,2.32,0,0,1-1,.7,9.42,9.42,0,0,1-2.51.26c-1.28,0-2.82,0-4.62,0-1.43,0-3,0-4.83,0s-2.82-.06-3.1-.11a1.87,1.87,0,0,1-.8-.37A2,2,0,0,1,153,52a2.32,2.32,0,0,1-.2-1V38.49H161l3.83-3.6h-8.13a23.48,23.48,0,0,1-6.1,4.54l-.82-1a21.59,21.59,0,0,0,8-7l1.36.5a17.58,17.58,0,0,1-1.26,1.65h9v1.12q-1.5,1.57-4,3.81h6.8v7.12H154.14V51a1,1,0,0,0,.29.59,1.43,1.43,0,0,0,1,.41q.72.08,6.28.07,6,0,6.68-.11a1.71,1.71,0,0,0,1.08-.56,3.4,3.4,0,0,0,.58-1.52,15.54,15.54,0,0,0,.25-2.43Zm-11-3.67V39.79h-6.4v4.53Zm7.83,0V39.79h-6.45v4.53Z" transform="translate(28.6 -0.89)"/><path class="cls-3" d="M203.75,49.89a6.42,6.42,0,0,1-.44,2.22,1.65,1.65,0,0,1-1.06,1,16.94,16.94,0,0,1-3.52.21,26.41,26.41,0,0,1-3-.1,1.32,1.32,0,0,1-.9-.58,1.94,1.94,0,0,1-.34-1.16V50h-2.85a5.2,5.2,0,0,1-2.15,2.23q-1.54.93-6.9,1.31l-.42-1.13a33,33,0,0,0,5.64-.72A3.2,3.2,0,0,0,190.29,50h-3.91V42.39h13.14V50H195.7v1.6a.55.55,0,0,0,.34.54,13.26,13.26,0,0,0,2.84.15,12.44,12.44,0,0,0,3-.2c.42-.13.67-1,.76-2.52Zm-.55-5.28H202V41.19H183.83v3.44h-1.19V40.12H184l-.2-7.35a26.23,26.23,0,0,0,5.09-1.19l.61.93a25.32,25.32,0,0,1-4.45,1.17v1.26H189v1h-3.91l0,1.45H189v1h-3.86l0,1.7h15.45l0-1.53h-3.89V37.52h3.94l.05-1.6h-4v-1h4l.07-1.5h-4.39v-1.1h5.62l-.25,7.83h1.38Zm-4.93-.1v-1h-10.7v1Zm0,2.1V45.54h-10.7v1.07Zm0,2.26V47.61h-10.7v1.26Zm-2.1-9.93-.7.77c-.81-.54-1.64-1-2.48-1.5-1.1.55-2,1-2.74,1.26l-.63-.83a20.29,20.29,0,0,0,2.35-1l-1.72-1,.64-.77c.6.31,1.31.72,2.13,1.22a11.94,11.94,0,0,0,2.18-1.4l.75.64a10.35,10.35,0,0,1-2,1.36C194.54,37.93,195.27,38.37,196.17,38.94ZM196,32.08a12.43,12.43,0,0,1-2,1.48,14.46,14.46,0,0,1,1.5,1.15l-.74.73A20.8,20.8,0,0,0,193,34.16c-.77.41-1.67.83-2.7,1.28l-.55-.88a20.18,20.18,0,0,0,2.22-1,12.26,12.26,0,0,0-1.82-1l.65-.8A25.45,25.45,0,0,1,193,33a12.45,12.45,0,0,0,2.1-1.48Z" transform="translate(28.6 -0.89)"/><path class="cls-3" d="M233.5,53.48h-1.35V51.74H217.69v1.74h-1.34v-19h6.87a11.86,11.86,0,0,0,1.36-3l1.32.3a15.83,15.83,0,0,1-1.22,2.7h8.82Zm-1.35-14V35.84H217.69v3.68Zm0,5.27V40.86H217.69v3.93Zm0,5.65V46.11H217.69v4.33Z" transform="translate(28.6 -0.89)"/><path class="cls-3" d="M253.39,42.39l-.89,1a21.37,21.37,0,0,0-2.12-3v13h-1.26V40.89a28.8,28.8,0,0,1-2.44,5.72l-.93-1A27.67,27.67,0,0,0,249,37.09h-3V35.94h3.08V31.67h1.26v4.27h2.15v1.15h-2.15v1.6A25.65,25.65,0,0,1,253.39,42.39ZM260,51.24l-.82.9a23.76,23.76,0,0,0-2.83-2.38,16.43,16.43,0,0,1-3.23,3.86l-.92-.91a15.71,15.71,0,0,0,4.34-6.17l1.16.47-.81,1.7A20.19,20.19,0,0,1,260,51.24Zm8.05-13.65-.71,1.1a21.35,21.35,0,0,1-7-5.18,25.49,25.49,0,0,1-6.84,5.3l-1-1a20.76,20.76,0,0,0,7.71-6.28l1.22.46a2.65,2.65,0,0,1-.41.57A19.84,19.84,0,0,0,268.05,37.59ZM259.35,46h-5.18V40.07h5.18Zm-1.26-1.19V41.26h-2.67v3.56Zm5.73-6.56h-7V37h7Zm3.93,14.26-.83.87a25.5,25.5,0,0,0-3.57-3.25,16,16,0,0,1-2.52,3.34l-1.05-.72a16.61,16.61,0,0,0,3.74-6.25l1.15.41a18.22,18.22,0,0,1-.85,2.17A24.86,24.86,0,0,1,267.75,52.52ZM266.37,46h-5.15V40.07h5.15Zm-1.22-1.19V41.26h-2.7v3.56Z" transform="translate(28.6 -0.89)"/></g></g><line class="cls-4" x1="118.61" y1="91.95" x2="234.88" y2="91.95"/><line class="cls-5" x1="245.4" y1="91.95" x2="356.49" y2="91.95"/><path class="cls-3" d="M187.9,121.84l-.43.48a9.32,9.32,0,0,0-1-1.41v6.24h-.6v-6a13.22,13.22,0,0,1-1.17,2.75l-.45-.46a13.14,13.14,0,0,0,1.56-4.11h-1.42v-.55h1.48v-2h.6v2h1v.55h-1v.77A11.86,11.86,0,0,1,187.9,121.84Zm3.17,4.25-.39.44a12.64,12.64,0,0,0-1.36-1.15,7.63,7.63,0,0,1-1.55,1.85l-.44-.43a7.52,7.52,0,0,0,2.08-3l.56.22-.39.82A10.14,10.14,0,0,1,191.07,126.09Zm3.87-6.55-.34.53a10.19,10.19,0,0,1-3.35-2.49,12.19,12.19,0,0,1-3.29,2.55l-.45-.48a9.91,9.91,0,0,0,3.69-3l.59.22a1.52,1.52,0,0,1-.19.28A9.47,9.47,0,0,0,194.94,119.54Zm-4.18,4h-2.48v-2.85h2.48Zm-.6-.57V121.3h-1.29V123Zm2.74-3.15h-3.34v-.58h3.34Zm1.89,6.85-.4.41a12.74,12.74,0,0,0-1.71-1.56,7.71,7.71,0,0,1-1.21,1.61l-.51-.35a7.75,7.75,0,0,0,1.8-3l.55.2a6.83,6.83,0,0,1-.41,1A11.75,11.75,0,0,1,194.79,126.71Zm-.66-3.13h-2.47v-2.85h2.47Zm-.59-.57V121.3h-1.29V123Z" transform="translate(28.6 -0.89)"/><path class="cls-3" d="M199.49,121.3l-.44.44a9.71,9.71,0,0,0-1.79-1.66l.41-.48A11.49,11.49,0,0,1,199.49,121.3Zm.07,2a21.14,21.14,0,0,1-1.78,3.89l-.47-.4A17.87,17.87,0,0,0,199,123Zm.34-5.07-.43.46a9.56,9.56,0,0,0-1.82-1.51l.34-.45A7.14,7.14,0,0,1,199.9,118.21Zm3.83,6.33h-2.39l.35.24a9.23,9.23,0,0,1-1.69,2.44l-.49-.41a7.88,7.88,0,0,0,1.61-2.27h-.83V117h3.44Zm-.59-5.34v-1.66h-2.25v1.66Zm0,2.33v-1.74h-2.25v1.74Zm0,2.42v-1.83h-2.25V124Zm.9,2.66-.51.31a7.42,7.42,0,0,0-1.18-1.88l.49-.34A7.47,7.47,0,0,1,204,126.61Zm1.41-1.6h-.61v-7.53h.61Zm1.92,1.31a.75.75,0,0,1-.3.7,2.62,2.62,0,0,1-1.12.17c-.3,0-.59,0-.89,0l-.15-.6a14.31,14.31,0,0,0,1.69,0c.12,0,.18-.16.18-.37v-9.43h.59Z" transform="translate(28.6 -0.89)"/><path class="cls-3" d="M214.22,118.57h-3.9l0-.61h1.81a8.5,8.5,0,0,0-.49-1.14l.59-.19a11.05,11.05,0,0,1,.58,1.33h1.44Zm-.31,1.74H210.6v-.63h3.31Zm0,1.64H210.6v-.61h3.31Zm-.11,4.93h-.64v-.62h-1.85v.91h-.64v-4h3.13Zm-.64-1.25V123.8h-1.85v1.83Zm7.57-1.11a4.84,4.84,0,0,1-.32,2.08.93.93,0,0,1-.84.42h-1a.65.65,0,0,1-.48-.23.69.69,0,0,1-.22-.52v-3.65h-1.11a5.11,5.11,0,0,1-2.22,4.67l-.49-.45a4.06,4.06,0,0,0,1.59-1.76,5.32,5.32,0,0,0,.53-2.46H215v-3.19h4.86v3.19h-1.32v3.57a.17.17,0,0,0,.08.13.25.25,0,0,0,.16.07h.79c.22,0,.36-.14.41-.42a15.2,15.2,0,0,0,.14-1.62ZM216.88,117a9.61,9.61,0,0,1-2.23,2.35l-.51-.46a8.76,8.76,0,0,0,2.24-2.23ZM219.2,122V120.1h-3.56V122Zm1.55-3.07-.5.47a12.4,12.4,0,0,0-2.31-2.19l.43-.46A18.73,18.73,0,0,1,220.75,118.88Z" transform="translate(28.6 -0.89)"/><path class="cls-3" d="M227.19,125.49h-.62v-.8h-2.35v1.1h-.62v-8.62h3.59Zm-.62-4.94v-2.76h-2.35v2.76Zm0,3.53v-2.91h-2.35v2.91Zm6.72,2.12a1,1,0,0,1-.18.61.89.89,0,0,1-.47.32,10.61,10.61,0,0,1-1.78,0l-.26-.61.88,0a4.34,4.34,0,0,0,1.07-.07.27.27,0,0,0,.14-.25v-2.93h-3.56a9,9,0,0,1-1.3,3.88l-.57-.36a9.66,9.66,0,0,0,1.37-5.63V117h4.66Zm-.6-3.48v-2.36h-3.41c0,.8,0,1.59-.08,2.36Zm0-3v-2.21h-3.41v2.21Z" transform="translate(28.6 -0.89)"/><circle class="cls-3" cx="238.23" cy="91.95" r="11.35"/><path class="cls-6" d="M212.32,97.82h-5.43v-.88l2.64-2.66a10.48,10.48,0,0,0,1.62-1.92,2.78,2.78,0,0,0,.3-1.26,1.61,1.61,0,0,0-.46-1.24,1.79,1.79,0,0,0-1.3-.43,3.41,3.41,0,0,0-2.33,1v-1a3.82,3.82,0,0,1,2.46-.84,2.69,2.69,0,0,1,1.88.65,2.31,2.31,0,0,1,.7,1.77,3.38,3.38,0,0,1-.46,1.68,11.3,11.3,0,0,1-1.76,2.13l-2.12,2.09v0h4.26Z" transform="translate(28.6 -0.89)"/><path class="cls-7" d="M321.32,121.3l-.45.44a10,10,0,0,0-1.78-1.66l.41-.48A12,12,0,0,1,321.32,121.3Zm.07,2a21,21,0,0,1-1.79,3.89l-.47-.4a17.38,17.38,0,0,0,1.71-3.78Zm.34-5.07-.44.46a9.26,9.26,0,0,0-1.82-1.51l.35-.45A7.3,7.3,0,0,1,321.73,118.21Zm3.82,6.33h-2.39l.36.24a9.26,9.26,0,0,1-1.7,2.44l-.49-.41a8.11,8.11,0,0,0,1.62-2.27h-.84V117h3.44ZM325,119.2v-1.66h-2.26v1.66Zm0,2.33v-1.74h-2.26v1.74Zm0,2.42v-1.83h-2.26V124Zm.9,2.66-.52.31a7.15,7.15,0,0,0-1.18-1.88l.49-.34A7.82,7.82,0,0,1,325.87,126.61Zm1.4-1.6h-.6v-7.53h.6Zm1.93,1.31a.73.73,0,0,1-.31.7,2.57,2.57,0,0,1-1.11.17q-.45,0-.9,0l-.15-.6a14.31,14.31,0,0,0,1.69,0c.12,0,.18-.16.18-.37v-9.43h.6Z" transform="translate(28.6 -0.89)"/><path class="cls-7" d="M333,123.47a17.43,17.43,0,0,1-.33,2.91l-.56-.13a14.67,14.67,0,0,0,.37-2.84Zm3.47-5.9h-1.36v1.16h1.13v.56h-1.13v1.12h1.13v.6h-1.13v1.19h1.13c0,.66,0,1.2,0,1.62a18.68,18.68,0,0,1-.08,2,2.13,2.13,0,0,1-.25,1,.79.79,0,0,1-.45.29,4.53,4.53,0,0,1-1,.07l-.18-.61H335a.53.53,0,0,0,.52-.33,9.38,9.38,0,0,0,.15-2.34c0-.43,0-.82,0-1.16h-2.95V117h3.75Zm-2.64,8.66-.5.07c0-.38,0-.74,0-1.1,0-.62,0-1.18-.07-1.67l.45-.08c.07,1.13.1,1.84.1,2.14S333.8,126,333.79,126.23Zm.67-7.52v-1.14h-1.17v1.14Zm0,1.7V119.3h-1.17v1.11Zm0,1.79V121h-1.17v1.19Zm.25,3.55-.48.07a13.87,13.87,0,0,0-.25-2.34l.44-.1A16.66,16.66,0,0,1,334.71,125.75Zm.75-.64-.41.1a16.7,16.7,0,0,0-.36-1.88l.38-.09A16.3,16.3,0,0,1,335.46,125.11Zm7.13-5.55-.31.52a8.35,8.35,0,0,1-2.9-2.54,11,11,0,0,1-2.73,2.49l-.37-.5a9,9,0,0,0,3-2.91l.6.2a1.25,1.25,0,0,1-.1.21A8.2,8.2,0,0,0,342.59,119.56Zm-3.33,6.5-.43.44a7.38,7.38,0,0,0-.89-1,8.49,8.49,0,0,1-1.13,1.7l-.49-.33a8.4,8.4,0,0,0,1.58-2.94l.57.19q-.18.51-.3.81A11,11,0,0,1,339.26,126.06Zm-.16-2.44h-2.29v-2.85h2.29Zm-.57-.56v-1.73h-1.16v1.73Zm2.42-3.14h-3.2v-.57H341Zm1.63,6.83-.44.42a8.21,8.21,0,0,0-1.46-1.52,9.23,9.23,0,0,1-1.1,1.6l-.49-.38a8.16,8.16,0,0,0,1.67-3l.58.2a10.63,10.63,0,0,1-.41,1A10.62,10.62,0,0,1,342.58,126.75Zm-.54-3.13h-2.31v-2.85H342Zm-.56-.56v-1.73h-1.19v1.73Z" transform="translate(28.6 -0.89)"/><circle class="cls-7" cx="359.84" cy="91.95" r="11.35"/><path class="cls-6" d="M328.72,96.4a3.24,3.24,0,0,0,2.09.74,2.39,2.39,0,0,0,1.53-.47,1.6,1.6,0,0,0,.59-1.31c0-1.21-.85-1.82-2.56-1.82h-.75v-.83h.71c1.52,0,2.28-.57,2.28-1.7s-.58-1.58-1.74-1.58a2.86,2.86,0,0,0-1.8.66v-1a3.89,3.89,0,0,1,2.05-.53,2.64,2.64,0,0,1,1.78.6,1.93,1.93,0,0,1,.71,1.57,2.23,2.23,0,0,1-1.82,2.3v0a2.34,2.34,0,0,1,1.55.68,2,2,0,0,1,.59,1.49,2.47,2.47,0,0,1-.89,2,3.49,3.49,0,0,1-2.29.73,3.74,3.74,0,0,1-2-.48Z" transform="translate(28.6 -0.89)"/><g class="cls-2"><path class="cls-3" d="M82.15,126.26a.72.72,0,0,1-.42.76,3.27,3.27,0,0,1-.86.11l-1.38,0-.25-.64c.21,0,.87,0,2,0a.28.28,0,0,0,.32-.31v-8.67H73.46v9.61h-.61V117h9.3Zm-1.63-6.61h-6V119h6Zm-.68,5.06H75.15v-3.55h4.69Zm-.65-.63v-2.31H75.8v2.31Z" transform="translate(28.6 -0.89)"/><path class="cls-3" d="M87,124.8a7.9,7.9,0,0,1-1.31,1.91l-.5-.4a7.16,7.16,0,0,0,1.29-1.81Zm8.41-5H85.37v-.6h3a7.67,7.67,0,0,0-.48-1.05h-2v-.59H90a3.18,3.18,0,0,0-.54-.68l.61-.27a9.36,9.36,0,0,1,.71,1h4.1v.59H93a10.17,10.17,0,0,1-.53,1.05h3ZM94.12,124H86.66v-3.43h7.46Zm-.63-2v-.83H87.28V122Zm0,1.44v-.86H87.28v.86Zm-.28,2.12a2.44,2.44,0,0,1-.28,1.15.87.87,0,0,1-.49.4,6.1,6.1,0,0,1-1.22.07c-.53,0-1.06,0-1.58,0a3.67,3.67,0,0,1-.94-.1,1,1,0,0,1-.31-.27.79.79,0,0,1-.13-.47v-1.74h.62v1.7a.27.27,0,0,0,.21.27,10.8,10.8,0,0,0,1.8.07,9.91,9.91,0,0,0,1.24,0c.16,0,.27-.15.34-.37a2.89,2.89,0,0,0,.1-.86Zm-.92-7.41H88.62a7.89,7.89,0,0,1,.46,1.05h2.63A9.31,9.31,0,0,0,92.29,118.1Zm-.88,7.39-.52.31a8.13,8.13,0,0,0-.87-1.3l.5-.27A4.44,4.44,0,0,1,91.41,125.49Zm4.2.91-.55.37a8.46,8.46,0,0,0-1.41-2.14l.52-.31A12.64,12.64,0,0,1,95.61,126.4Z" transform="translate(28.6 -0.89)"/><path class="cls-3" d="M108.6,119.07h-1.09v1.29h-3.84v.74h4v.5h-4v.79h4.93v.52H98.17v-.52h4.9v-.79h-4v-.5h4v-.74h-3.8v-.49h3.8v-.8h-4.9v-.49h4.9v-.78h-3.8v-.52h3.8v-.61h.6v.61h3.84v1.3h1.09Zm-1.16,8.09h-.62v-.39H100v.39h-.63v-3.49h8.08Zm-.62-2.21v-.78H100V125Zm0,1.3v-.79H100v.79Zm.08-7.67v-.78h-3.23v.78Zm0,1.29v-.8h-3.23v.8Z" transform="translate(28.6 -0.89)"/></g><circle class="cls-3" cx="119.19" cy="91.95" r="11.35"/><path class="cls-6" d="M89,97.82h0a.8.8,0,0,1-.58-.29l-3.6-4.2A.82.82,0,0,1,86,92.26l3,3.54L95.2,90a.82.82,0,1,1,1.14,1.19l-6.75,6.45A.83.83,0,0,1,89,97.82Z" transform="translate(28.6 -0.89)"/></svg>