<svg id="圖層_1" data-name="圖層 1" xmlns="http://www.w3.org/2000/svg" xmlns:xlink="http://www.w3.org/1999/xlink" viewBox="0 0 460.17 169.43"><defs><style>.cls-1{fill:url(#未命名漸層_295);}.cls-10,.cls-2,.cls-5,.cls-6{isolation:isolate;}.cls-10,.cls-2,.cls-3,.cls-4{font-size:12px;letter-spacing:0.08em;}.cls-11,.cls-2,.cls-3,.cls-6{fill:#fff;}.cls-10,.cls-2,.cls-3,.cls-4,.cls-6{font-family:MicrosoftJhengHeiRegular, Microsoft JhengHei;}.cls-4,.cls-7{fill:#90d3f4;}.cls-6{font-size:25px;letter-spacing:0.28em;}.cls-8,.cls-9{fill:none;stroke-miterlimit:10;stroke-width:2px;}.cls-8{stroke:#fff;}.cls-9{stroke:#90d3f4;}.cls-10{fill:#2ca6e0;}.cls-12{fill:url(#新增漸層色票_1);}.cls-13{fill:url(#新增漸層色票_1-2);}</style><linearGradient id="未命名漸層_295" y1="84.72" x2="460.17" y2="84.72" gradientUnits="userSpaceOnUse"><stop offset="0.23" stop-color="#31bced"/><stop offset="0.57" stop-color="#27afe4"/><stop offset="0.9" stop-color="#1b9ed8"/></linearGradient><linearGradient id="新增漸層色票_1" x1="69.77" y1="100.27" x2="70.03" y2="108.13" gradientUnits="userSpaceOnUse"><stop offset="0.23" stop-color="#31bced"/><stop offset="0.46" stop-color="#24b7ec"/><stop offset="0.9" stop-color="#01abe9"/><stop offset="0.9" stop-color="#00abe9"/></linearGradient><linearGradient id="新增漸層色票_1-2" x1="162.5" y1="100.27" x2="162.77" y2="108.13" xlink:href="#新增漸層色票_1"/></defs><title>BNPic04</title><rect class="cls-1" width="460.17" height="169.43"/><text class="cls-2" transform="translate(68.36 136.67)">同意書</text><text class="cls-3" transform="translate(157.18 136.67)">螢幕校準</text><text class="cls-3" transform="translate(249.92 136.67)">檢測說明</text><text class="cls-4" transform="translate(352.83 136.67)">測驗</text><g id="視力自檢" class="cls-5"><text class="cls-6" transform="translate(168.83 62.32)">視力自檢</text></g><circle class="cls-7" cx="365.75" cy="102.94" r="11.35"/><line class="cls-8" x1="96.53" y1="102.94" x2="176.35" y2="102.94"/><line class="cls-8" x1="186.53" y1="102.94" x2="266.35" y2="102.94"/><line class="cls-9" x1="282.4" y1="102.94" x2="362.22" y2="102.94"/><text class="cls-10" transform="translate(362.4 107.93)">4</text><circle class="cls-11" cx="87.53" cy="102.94" r="11.35"/><circle class="cls-11" cx="180.27" cy="102.94" r="11.35"/><path class="cls-12" d="M68.25,108.19h0a.84.84,0,0,1-.59-.29L64,103.7a.83.83,0,0,1,.09-1.16.81.81,0,0,1,1.16.09l3,3.54,6.12-5.85a.82.82,0,0,1,1.17,0,.83.83,0,0,1,0,1.17L68.82,108A.81.81,0,0,1,68.25,108.19Z" transform="translate(17.7 -0.39)"/><path class="cls-13" d="M161,108.19h0a.84.84,0,0,1-.59-.29l-3.6-4.2a.82.82,0,1,1,1.25-1.07l3,3.54,6.12-5.85a.82.82,0,0,1,1.17,0,.83.83,0,0,1,0,1.17L161.56,108A.81.81,0,0,1,161,108.19Z" transform="translate(17.7 -0.39)"/><circle class="cls-11" cx="273.01" cy="102.94" r="11.35"/><text class="cls-10" transform="translate(269.66 107.93)">3</text></svg>