<svg id="圖層_1" data-name="圖層 1" xmlns="http://www.w3.org/2000/svg" xmlns:xlink="http://www.w3.org/1999/xlink" viewBox="0 0 461.35 169.43"><defs><style>.cls-1{fill:url(#未命名漸層_298);}.cls-2{isolation:isolate;}.cls-3{fill:#fff;}.cls-4{fill:none;stroke:#94d1d4;stroke-miterlimit:10;stroke-width:2px;}.cls-5{fill:#94d1d4;}.cls-6{fill:#00a199;}</style><linearGradient id="未命名漸層_298" x1="1162.88" y1="3347.22" x2="1624.23" y2="3347.22" gradientTransform="translate(-1185.16 -3262.22)" gradientUnits="userSpaceOnUse"><stop offset="0" stop-color="#1fa8af"/><stop offset="0.26" stop-color="#27b0be"/><stop offset="0.61" stop-color="#2eb7cc"/><stop offset="0.91" stop-color="#30b9d1"/></linearGradient></defs><title>BNPic05</title><rect class="cls-1" x="-22.27" y="0.28" width="461.35" height="169.43" transform="translate(439.07 169.72) rotate(180)"/><g id="視力自檢" class="cls-2"><g class="cls-2"><path class="cls-3" d="M173.87,49.39A10.81,10.81,0,0,1,173.5,52a5,5,0,0,1-.73,1.68,2.3,2.3,0,0,1-1,.69,9.28,9.28,0,0,1-2.51.27c-1.27,0-2.82,0-4.62,0l-4.82,0c-1.79,0-2.83-.07-3.11-.11a1.81,1.81,0,0,1-.79-.38,1.85,1.85,0,0,1-.59-.74,2.54,2.54,0,0,1-.2-1V39.89h8.21l3.84-3.6h-8.13A23.93,23.93,0,0,1,153,40.83l-.81-1a21.76,21.76,0,0,0,8-7l1.35.5A15.7,15.7,0,0,1,160.26,35h9v1.12c-1,1-2.32,2.31-4,3.81H172V47H156.47v5.35a1,1,0,0,0,.28.6,1.45,1.45,0,0,0,1,.41c.48,0,2.57.07,6.28.07q6,0,6.68-.12a1.71,1.71,0,0,0,1.09-.55,3.54,3.54,0,0,0,.57-1.52,16.76,16.76,0,0,0,.26-2.44Zm-11-3.68V41.18h-6.39v4.53Zm7.83,0V41.18h-6.45v4.53Z" transform="translate(22.27 -0.28)"/><path class="cls-3" d="M206.07,51.29a6.45,6.45,0,0,1-.43,2.22,1.66,1.66,0,0,1-1.07,1,18,18,0,0,1-3.52.2,27.15,27.15,0,0,1-3-.09,1.35,1.35,0,0,1-.91-.58,2,2,0,0,1-.34-1.16V51.36H194a5.25,5.25,0,0,1-2.16,2.24q-1.54.93-6.9,1.3l-.42-1.12a32.54,32.54,0,0,0,5.64-.73,3.21,3.21,0,0,0,2.46-1.69H188.7V43.78h13.15v7.58H198V53a.57.57,0,0,0,.35.55,24.1,24.1,0,0,0,5.79,0c.42-.14.67-1,.76-2.52ZM205.52,46H204.3V42.59H186.15V46H185V41.51h1.36l-.2-7.35A25.39,25.39,0,0,0,191.21,33l.61.93a25.09,25.09,0,0,1-4.45,1.17v1.26h3.95v1h-3.9l0,1.45h3.88v1h-3.85l0,1.69h15.45L203,40H199.1V38.91H203l.05-1.6h-4v-1h4l.07-1.5h-4.39v-1.1h5.63l-.26,7.82h1.38Zm-4.93-.09v-1H189.9v1Zm0,2.1V46.93H189.9V48Zm0,2.26V49H189.9v1.26Zm-2.1-9.93-.7.77c-.81-.54-1.64-1-2.48-1.5-1.1.54-2,1-2.74,1.26L192,40q.86-.32,2.34-1l-1.72-1,.65-.77c.6.31,1.3.71,2.12,1.22A12.49,12.49,0,0,0,197.52,37l.75.65a10.78,10.78,0,0,1-2,1.35C196.86,39.33,197.59,39.76,198.49,40.34Zm-.17-6.86a12.43,12.43,0,0,1-2,1.48,13.19,13.19,0,0,1,1.5,1.15l-.74.73a17.15,17.15,0,0,0-1.76-1.28c-.77.4-1.67.83-2.7,1.28l-.55-.88a22.4,22.4,0,0,0,2.22-1,11.94,11.94,0,0,0-1.82-1l.65-.79c.8.4,1.54.81,2.22,1.24a11.9,11.9,0,0,0,2.1-1.47Z" transform="translate(22.27 -0.28)"/><path class="cls-3" d="M235.82,54.88h-1.35V53.13H220v1.75h-1.35v-19h6.87a11.59,11.59,0,0,0,1.36-3l1.32.31a15.83,15.83,0,0,1-1.22,2.7h8.82Zm-1.35-14V37.24H220v3.67Zm0,5.28V42.26H220v3.93Zm0,5.65V47.51H220v4.33Z" transform="translate(22.27 -0.28)"/><path class="cls-3" d="M255.71,43.78l-.89,1a21.79,21.79,0,0,0-2.12-3v13h-1.26V42.28A28,28,0,0,1,249,48l-.93-.95a27.67,27.67,0,0,0,3.25-8.57h-3V37.34h3.08V33.07h1.26v4.27h2.15v1.15H252.7v1.59A26.22,26.22,0,0,1,255.71,43.78Zm6.61,8.85-.82.91a22.76,22.76,0,0,0-2.83-2.38A16.12,16.12,0,0,1,255.44,55l-.92-.9a15.74,15.74,0,0,0,4.34-6.18l1.16.48-.8,1.7A21.16,21.16,0,0,1,262.32,52.63ZM270.37,39l-.7,1.09a21,21,0,0,1-7-5.17,25.89,25.89,0,0,1-6.85,5.3l-.95-1a20.81,20.81,0,0,0,7.7-6.28l1.22.45a3.2,3.2,0,0,1-.4.58A19.7,19.7,0,0,0,270.37,39Zm-8.7,8.42h-5.18V41.46h5.18Zm-1.26-1.2V42.66h-2.67v3.55Zm5.73-6.55h-7V38.44h7Zm3.93,14.25-.83.87a26.21,26.21,0,0,0-3.57-3.25,15.86,15.86,0,0,1-2.52,3.35l-1-.72a16.83,16.83,0,0,0,3.75-6.25l1.14.4a16.28,16.28,0,0,1-.85,2.18A24.77,24.77,0,0,1,270.07,53.91Zm-1.38-6.5h-5.15V41.46h5.15Zm-1.22-1.2V42.66h-2.7v3.55Z" transform="translate(22.27 -0.28)"/></g></g><line class="cls-4" x1="113.61" y1="93.95" x2="229.88" y2="93.95"/><line class="cls-4" x1="240.4" y1="93.95" x2="351.49" y2="93.95"/><path class="cls-5" d="M190.22,123.24l-.43.48a10.06,10.06,0,0,0-1-1.42v6.24h-.6v-6a13.45,13.45,0,0,1-1.17,2.75l-.45-.46a13.33,13.33,0,0,0,1.56-4.11h-1.42v-.55h1.48V118.1h.6v2.05h1v.55h-1v.77A11.86,11.86,0,0,1,190.22,123.24Zm3.17,4.25-.39.43a10.29,10.29,0,0,0-1.36-1.14,7.63,7.63,0,0,1-1.55,1.85l-.44-.43a7.56,7.56,0,0,0,2.08-3l.56.23-.39.82A9.53,9.53,0,0,1,193.39,127.49Zm3.87-6.55-.34.53a10.3,10.3,0,0,1-3.35-2.49,12.26,12.26,0,0,1-3.28,2.54l-.46-.48a9.92,9.92,0,0,0,3.7-3l.58.22a1.13,1.13,0,0,1-.19.27A9.57,9.57,0,0,0,197.26,120.94Zm-4.18,4H190.6v-2.85h2.48Zm-.6-.57V122.7h-1.29v1.71Zm2.75-3.15h-3.35v-.59h3.35Zm1.88,6.84-.4.42A12.74,12.74,0,0,0,195,127a7.63,7.63,0,0,1-1.21,1.61l-.5-.35a8,8,0,0,0,1.8-3l.55.19a10.05,10.05,0,0,1-.41,1A11.68,11.68,0,0,1,197.11,128.1Zm-.66-3.12H194v-2.85h2.47Zm-.59-.57V122.7h-1.29v1.71Z" transform="translate(22.27 -0.28)"/><path class="cls-5" d="M201.82,122.7l-.45.44a9.38,9.38,0,0,0-1.79-1.66L200,121A11.18,11.18,0,0,1,201.82,122.7Zm.07,2a21.33,21.33,0,0,1-1.79,3.89l-.47-.41a17.87,17.87,0,0,0,1.71-3.78Zm.34-5.07-.44.46a9.2,9.2,0,0,0-1.82-1.51l.35-.45A7.3,7.3,0,0,1,202.23,119.61Zm3.82,6.33h-2.39l.35.24a9.4,9.4,0,0,1-1.69,2.44l-.49-.41a8.11,8.11,0,0,0,1.62-2.27h-.84v-7.59h3.44Zm-.58-5.35v-1.66h-2.26v1.66Zm0,2.34v-1.74h-2.26v1.74Zm0,2.41v-1.82h-2.26v1.82Zm.89,2.66-.51.32a7.2,7.2,0,0,0-1.18-1.89l.49-.33A7.6,7.6,0,0,1,206.36,128Zm1.41-1.59h-.6v-7.53h.6Zm1.93,1.31a.7.7,0,0,1-.31.69,2.44,2.44,0,0,1-1.12.17l-.89,0-.15-.6a11.27,11.27,0,0,0,1.69-.06q.18,0,.18-.36v-9.43h.6Z" transform="translate(22.27 -0.28)"/><path class="cls-5" d="M216.54,120h-3.9l0-.61h1.81a9.24,9.24,0,0,0-.49-1.15l.59-.18a11.05,11.05,0,0,1,.58,1.33h1.44Zm-.31,1.74h-3.31v-.63h3.31Zm0,1.64h-3.31v-.61h3.31Zm-.11,4.93h-.63v-.62h-1.86v.91H213v-4h3.13Zm-.63-1.25V125.2h-1.86V127Zm7.57-1.11a5,5,0,0,1-.33,2.08.92.92,0,0,1-.84.41h-1a.66.66,0,0,1-.49-.22.7.7,0,0,1-.22-.52V124h-1.1a5.15,5.15,0,0,1-2.23,4.67l-.49-.46a4,4,0,0,0,1.59-1.75,5.2,5.2,0,0,0,.53-2.46h-1.19v-3.19h4.86V124h-1.32v3.57a.19.19,0,0,0,.08.12.27.27,0,0,0,.16.08h.79c.22,0,.36-.14.41-.42a14.65,14.65,0,0,0,.15-1.62Zm-3.85-7.48a9.87,9.87,0,0,1-2.24,2.35l-.51-.47a8.58,8.58,0,0,0,2.24-2.22Zm2.31,4.91V121.5H218v1.85Zm1.55-3.07-.49.46a12.5,12.5,0,0,0-2.32-2.18l.43-.46A18.73,18.73,0,0,1,223.07,120.28Z" transform="translate(22.27 -0.28)"/><path class="cls-5" d="M229.51,126.89h-.62v-.8h-2.34v1.1h-.62v-8.62h3.58Zm-.62-4.94v-2.76h-2.34V122Zm0,3.52v-2.9h-2.34v2.9Zm6.73,2.13a.94.94,0,0,1-.19.6.82.82,0,0,1-.47.33,10.53,10.53,0,0,1-1.77,0l-.27-.61.89,0a3.74,3.74,0,0,0,1.07-.08.27.27,0,0,0,.13-.24v-2.93h-3.55a9.13,9.13,0,0,1-1.31,3.88l-.57-.37a9.53,9.53,0,0,0,1.37-5.62v-4.27h4.67Zm-.61-3.48v-2.37H231.6c0,.81,0,1.6-.07,2.37Zm0-3V119H231.6v2.2Z" transform="translate(22.27 -0.28)"/><circle class="cls-5" cx="233.23" cy="93.95" r="11.35"/><path class="cls-6" d="M213.64,99.22h-5.43v-.89l2.64-2.66a9.47,9.47,0,0,0,1.62-1.92,2.72,2.72,0,0,0,.3-1.26,1.62,1.62,0,0,0-.45-1.23,1.84,1.84,0,0,0-1.31-.44,3.39,3.39,0,0,0-2.33,1.05v-1a3.82,3.82,0,0,1,2.46-.84,2.69,2.69,0,0,1,1.88.65,2.28,2.28,0,0,1,.71,1.76,3.43,3.43,0,0,1-.47,1.69,11,11,0,0,1-1.76,2.12l-2.12,2.09v0h4.26Z" transform="translate(22.27 -0.28)"/><path class="cls-5" d="M323.64,122.7l-.45.44a9.3,9.3,0,0,0-1.78-1.66l.41-.48A11.47,11.47,0,0,1,323.64,122.7Zm.07,2a20.65,20.65,0,0,1-1.79,3.89l-.47-.41a17.38,17.38,0,0,0,1.71-3.78Zm.34-5.07-.43.46a9,9,0,0,0-1.83-1.51l.35-.45A7.14,7.14,0,0,1,324.05,119.61Zm3.83,6.33h-2.39l.35.24a9.43,9.43,0,0,1-1.7,2.44l-.49-.41a8.11,8.11,0,0,0,1.62-2.27h-.84v-7.59h3.45Zm-.59-5.35v-1.66H325v1.66Zm0,2.34v-1.74H325v1.74Zm0,2.41v-1.82H325v1.82Zm.9,2.66-.52.32a7.2,7.2,0,0,0-1.18-1.89l.5-.33A8.23,8.23,0,0,1,328.19,128Zm1.4-1.59H329v-7.53h.6Zm1.93,1.31a.7.7,0,0,1-.31.69,2.39,2.39,0,0,1-1.11.17l-.89,0-.16-.6a11.17,11.17,0,0,0,1.69-.06q.18,0,.18-.36v-9.43h.6Z" transform="translate(22.27 -0.28)"/><path class="cls-5" d="M335.28,124.86a17.43,17.43,0,0,1-.33,2.92l-.56-.13a15.41,15.41,0,0,0,.38-2.84Zm3.47-5.89h-1.36v1.15h1.13v.57h-1.13v1.12h1.13v.59h-1.13v1.19h1.13c0,.67,0,1.21,0,1.63,0,.84,0,1.52-.08,2a2.24,2.24,0,0,1-.26,1,.79.79,0,0,1-.45.29,4.41,4.41,0,0,1-1,.07l-.18-.62h.72a.52.52,0,0,0,.52-.32,9.38,9.38,0,0,0,.15-2.34c0-.44,0-.82,0-1.16H335v-5.8h3.74Zm-2.64,8.65-.49.07c0-.37,0-.74,0-1.09,0-.63,0-1.19-.07-1.68l.46-.07c.06,1.12.1,1.83.1,2.14S336.12,127.42,336.11,127.62Zm.67-7.51V119h-1.16v1.14Zm0,1.7V120.7h-1.16v1.11Zm0,1.78V122.4h-1.16v1.19Zm.25,3.55-.48.07a12.69,12.69,0,0,0-.25-2.33l.45-.1A16.46,16.46,0,0,1,337,127.14Zm.75-.64-.41.1a16.61,16.61,0,0,0-.36-1.87l.38-.09A15.94,15.94,0,0,1,337.78,126.5Zm7.13-5.54-.31.52a8.38,8.38,0,0,1-2.9-2.55,11,11,0,0,1-2.73,2.5l-.37-.5a9,9,0,0,0,3-2.91l.61.19c0,.06-.06.13-.11.22A8.3,8.3,0,0,0,344.91,121Zm-3.33,6.49-.43.45a6.75,6.75,0,0,0-.89-1,8.79,8.79,0,0,1-1.13,1.7l-.49-.34a8.23,8.23,0,0,0,1.58-2.94l.57.2q-.18.51-.3.81A9.14,9.14,0,0,1,341.58,127.45Zm-.16-2.43h-2.29v-2.86h2.29Zm-.57-.57v-1.72h-1.16v1.72Zm2.42-3.13h-3.2v-.58h3.2Zm1.63,6.83-.44.42A8.62,8.62,0,0,0,343,127a8.86,8.86,0,0,1-1.1,1.6l-.49-.37a8.1,8.1,0,0,0,1.67-3l.59.2c-.12.33-.26.68-.42,1A10.63,10.63,0,0,1,344.9,128.15Zm-.54-3.13h-2.31v-2.86h2.31Zm-.56-.57v-1.72h-1.19v1.72Z" transform="translate(22.27 -0.28)"/><circle class="cls-5" cx="354.84" cy="93.95" r="11.35"/><path class="cls-6" d="M330,97.8a3.3,3.3,0,0,0,2.1.74,2.33,2.33,0,0,0,1.52-.48,1.58,1.58,0,0,0,.59-1.3c0-1.21-.85-1.82-2.56-1.82h-.75V94.1h.71c1.52,0,2.28-.56,2.28-1.7s-.58-1.57-1.74-1.57a2.86,2.86,0,0,0-1.8.66v-1a3.88,3.88,0,0,1,2.05-.52,2.69,2.69,0,0,1,1.78.59,2,2,0,0,1,.71,1.57,2.24,2.24,0,0,1-1.82,2.31v0a2.44,2.44,0,0,1,1.55.68,2,2,0,0,1,.59,1.49,2.44,2.44,0,0,1-.89,2,3.49,3.49,0,0,1-2.28.74,3.71,3.71,0,0,1-2-.49Z" transform="translate(22.27 -0.28)"/><g class="cls-2"><path class="cls-3" d="M83.47,127.66a.73.73,0,0,1-.42.76,3.76,3.76,0,0,1-.86.11H80.81l-.25-.63c.21,0,.87,0,2,0,.22,0,.32-.1.32-.31V119H74.78v9.61h-.61V118.36h9.3ZM81.85,121h-6v-.61h6Zm-.68,5.07h-4.7v-3.55h4.7Zm-.65-.64v-2.3h-3.4v2.3Z" transform="translate(22.27 -0.28)"/><path class="cls-3" d="M88.36,126.19a7.45,7.45,0,0,1-1.31,1.91l-.5-.39a7.16,7.16,0,0,0,1.29-1.81Zm8.41-5H86.69v-.59h3a6.71,6.71,0,0,0-.48-1h-2v-.59h4.1a2.89,2.89,0,0,0-.54-.68l.62-.27a9.61,9.61,0,0,1,.7,1h4.11v.59h-2q-.28.61-.54,1h3Zm-1.33,4.24H88V122h7.46Zm-.62-2v-.83H88.6v.83Zm0,1.44v-.86H88.6v.86Zm-.29,2.11a2.45,2.45,0,0,1-.28,1.16,1,1,0,0,1-.48.4,6.22,6.22,0,0,1-1.23.07l-1.57,0a3.58,3.58,0,0,1-1-.11.81.81,0,0,1-.3-.26.75.75,0,0,1-.14-.47v-1.74h.62v1.69a.28.28,0,0,0,.21.28,10.89,10.89,0,0,0,1.8.07,9.91,9.91,0,0,0,1.24,0c.16,0,.27-.15.34-.37a2.9,2.9,0,0,0,.11-.86Zm-.92-7.4H90a9.65,9.65,0,0,1,.45,1H93A9.31,9.31,0,0,0,93.61,119.5Zm-.88,7.39-.52.31a6.66,6.66,0,0,0-.87-1.3l.51-.27A4.61,4.61,0,0,1,92.73,126.89Zm4.2.91-.55.36A8.82,8.82,0,0,0,95,126l.52-.31A12.75,12.75,0,0,1,96.93,127.8Z" transform="translate(22.27 -0.28)"/><path class="cls-3" d="M109.93,120.47h-1.09v1.28H105v.75h4v.5h-4v.79h4.94v.52H99.5v-.52h4.9V123h-4v-.5h4v-.75h-3.81v-.48h3.81v-.8H99.5V120h4.9v-.78h-3.81v-.52h3.81v-.61H105v.61h3.85V120h1.09Zm-1.17,8.09h-.62v-.4h-6.83v.4h-.62v-3.5h8.07Zm-.62-2.21v-.78h-6.83v.78Zm0,1.3v-.79h-6.83v.79Zm.08-7.67v-.78H105V120Zm0,1.29v-.8H105v.8Z" transform="translate(22.27 -0.28)"/></g><circle class="cls-3" cx="114.19" cy="93.95" r="11.35"/><path class="cls-6" d="M94.39,99.22h-5.1v-.87h2.06V91.21l-2.12.64V90.9l3.1-1v8.41h2.06Z" transform="translate(22.27 -0.28)"/></svg>