<svg id="圖層_1" data-name="圖層 1" xmlns="http://www.w3.org/2000/svg" xmlns:xlink="http://www.w3.org/1999/xlink" viewBox="0 0 300.15 288.55"><defs><style>.cls-1,.cls-13{fill:none;}.cls-16,.cls-2{fill:#fff;}.cls-3{fill:#d8eef6;}.cls-4{clip-path:url(#clip-path);}.cls-19,.cls-5{fill:#f3a782;}.cls-10,.cls-11,.cls-12,.cls-14,.cls-15,.cls-16,.cls-17,.cls-18,.cls-20,.cls-21,.cls-22,.cls-23,.cls-24,.cls-28,.cls-5,.cls-6,.cls-7,.cls-8,.cls-9{fill-rule:evenodd;}.cls-6{fill:#ef8b70;}.cls-7{fill:#250505;}.cls-8{fill:#1d0305;}.cls-9{fill:#b36135;}.cls-10{fill:#6a1817;}.cls-11{fill:#eeebec;}.cls-12{fill:#cfcbcb;}.cls-13{stroke:#040000;stroke-linecap:round;stroke-linejoin:round;stroke-width:0.33px;}.cls-14{fill:#eb685c;}.cls-15{fill:#e8433e;}.cls-17{fill:#dad3d5;}.cls-18{fill:#ec7861;}.cls-20{fill:#3f211d;}.cls-21{fill:#543331;}.cls-22{fill:#36130d;}.cls-23{fill:#530b0e;}.cls-24{fill:#cb5e4b;}.cls-25{isolation:isolate;}.cls-26{fill:#717071;}.cls-27{fill:#f29600;}.cls-28{fill:#00adaf;}.cls-29{fill:#717070;}</style><clipPath id="clip-path" transform="translate(-1.84 -1.56)"><path class="cls-1" d="M310.51,125.18a81.49,81.49,0,1,0-146.16,0Z"/></clipPath></defs><title>colorResult02</title><rect class="cls-2" y="123.35" width="300.15" height="118.32" rx="8"/><path class="cls-3" d="M277.58,125.18a77.48,77.48,0,1,0-139,0Z" transform="translate(-1.84 -1.56)"/><g class="cls-4"><path class="cls-5" d="M261.5,109.71s2.91,5.58,3.4,8.37-2.77,19.91-10.81,24.27,1.22,3.53,1.22,3.53,8.37-3.16,14.44-17.12-2.06-26.09-2.06-26.09Z" transform="translate(-1.84 -1.56)"/><path class="cls-6" d="M261.5,109.71s2.91,5.58,3.4,8.37-2.77,19.91-10.81,24.27,1.22,3.53,1.22,3.53a20.59,20.59,0,0,0,6.6-4.93c-1.07-.89-.91-3.06.92-6.3,3.4-6,3.77-14.75,4-20.09a8.74,8.74,0,0,1,3.4-6.5,26.38,26.38,0,0,0-2.55-5.39Z" transform="translate(-1.84 -1.56)"/><path class="cls-5" d="M212.06,109.71s-2.92,5.58-3.4,8.37,2.76,19.91,10.8,24.27-1.21,3.53-1.21,3.53-8.38-3.16-14.45-17.12,2.07-26.09,2.07-26.09Z" transform="translate(-1.84 -1.56)"/><path class="cls-6" d="M212.06,109.71s-2.92,5.58-3.4,8.37,2.76,19.91,10.8,24.27-1.21,3.53-1.21,3.53a20.55,20.55,0,0,1-6.61-4.93c1.07-.89.92-3.06-.92-6.3-3.4-6-3.76-14.75-4-20.09a8.71,8.71,0,0,0-3.41-6.5,26.69,26.69,0,0,1,2.56-5.39Z" transform="translate(-1.84 -1.56)"/><path class="cls-7" d="M240.68,185.32c3.07,10.39,3,33.55,3.95,46,1.46,19.18,4.14,48.49,3.94,50s6,3.11,7.23.62a3.08,3.08,0,0,0,.17-1.69c-.09-1.33,1.24-121.9-.34-125.17-.82-1.69-10-2.93-19.28-2.61-9.25-.32-18.46.92-19.28,2.61-1.57,3.27.7,124,.61,125.28a3.08,3.08,0,0,0,.17,1.69c1.24,2.49,6.47.82,6.28-.73s2.48-30.86,4-50c.95-12.49,2.24-35.58,4.61-46.15C234.81,175.75,239,179.66,240.68,185.32Z" transform="translate(-1.84 -1.56)"/><path class="cls-8" d="M236.35,168.45c8.9,3.08,14.65,11.6,15.57,24.06,1.13,15.35,2.49,75.36,1.8,81.36s-4.38,5.49-5.58.43c.31,4,.49,6.67.43,7.1-.19,1.55,6,3.11,7.23.62a3.08,3.08,0,0,0,.17-1.69c-.09-1.32,1.24-121.9-.34-125.17-.72-1.5-8.06-2.64-16.16-2.66h-3.12c-9.25-.32-18.46.92-19.28,2.61-.37.76-.45,7.7-.55,18.32,3.14-7.13,19.83-5,19.83-5ZM217.67,276.54c7-.82,3.76-4.93,5.05-18.72s5.46-74.47,7.92-77.59c1.88-2.4,5-1.26,6.3-.6-1.55-.59-3.17.76-4.25,5.58-2.37,10.57-3.66,33.66-4.61,46.15-1.47,19.18-4.15,48.49-4,50s-5,3.22-6.28.73a7.68,7.68,0,0,1-.17-1.69c0-.73,0-1.53,0-3.9ZM237.58,180h0Z" transform="translate(-1.84 -1.56)"/><path class="cls-9" d="M216.16,152.85s-.64,3.31-.09,4.34,5.76,4.64,20.31,4.64,19.75-3.61,20.31-4.64-.09-4.34-.09-4.34l-20.22,4.49Z" transform="translate(-1.84 -1.56)"/><path class="cls-10" d="M218.58,155.26s-.42,3.58-.06,4.07a1.18,1.18,0,0,0,1.06.36s-.06-4,.27-4.22S218.58,155.26,218.58,155.26Z" transform="translate(-1.84 -1.56)"/><path class="cls-10" d="M225.28,157.05s-.42,3.58-.05,4.07a1.18,1.18,0,0,0,1.06.36s-.06-4,.27-4.22S225.28,157.05,225.28,157.05Z" transform="translate(-1.84 -1.56)"/><path class="cls-10" d="M254.18,155.26s.43,3.58.06,4.07a1.18,1.18,0,0,1-1.06.36s.06-4-.27-4.22S254.18,155.26,254.18,155.26Z" transform="translate(-1.84 -1.56)"/><path class="cls-10" d="M247.48,157.05s.42,3.58.05,4.07a1.18,1.18,0,0,1-1.06.36s.07-4-.27-4.22S247.48,157.05,247.48,157.05Z" transform="translate(-1.84 -1.56)"/><rect class="cls-2" x="229.88" y="155.63" width="9.33" height="5.61" rx="0.85"/><path class="cls-11" d="M225.24,81.3l-6.75-6.58s-7.82,4.63-15.83,28.79l-.42,1.26h0a1.51,1.51,0,0,0,.45,1.73c.88.58,6.37,3.43,7.86,5.8,0,0,.67.76,1.61-.18h0c2.56-4.75,4.75-9.14,5.92-12C222.2,89.92,225.24,81.3,225.24,81.3Z" transform="translate(-1.84 -1.56)"/><path class="cls-12" d="M225.24,81.3l-6.75-6.58s-3.69,2.19-8.61,11.41c1.38,5.76,3.16,14.92,1.84,19.2-.91,2.94-3.28,3.52-5.61,3.27a15.32,15.32,0,0,1,4.43,3.74s.67.76,1.61-.18h0c2.56-4.75,4.75-9.14,5.92-12C222.2,89.92,225.24,81.3,225.24,81.3Z" transform="translate(-1.84 -1.56)"/><line class="cls-13" x1="234.62" y1="64.6" x2="234.62" y2="76.77"/><path class="cls-11" d="M247.68,81.3l6.74-6.58s7.82,4.63,15.83,28.79l.42,1.26h0a1.51,1.51,0,0,1-.46,1.73c-.88.58-6.37,3.43-7.85,5.8,0,0-.67.76-1.61-.18h0c-2.57-4.75-4.75-9.14-5.93-12C250.71,89.92,247.68,81.3,247.68,81.3Z" transform="translate(-1.84 -1.56)"/><path class="cls-12" d="M247.68,81.3l6.74-6.58s3.7,2.19,8.61,11.41c-1.37,5.76-3.15,14.92-1.84,19.2.91,2.94,3.29,3.52,5.62,3.27a15.19,15.19,0,0,0-4.43,3.74s-.67.76-1.61-.18h0c-2.57-4.75-4.75-9.14-5.93-12C250.71,89.92,247.68,81.3,247.68,81.3Z" transform="translate(-1.84 -1.56)"/><path class="cls-14" d="M249.23,281.42s2.7-3.1,6-.63a4.73,4.73,0,0,1,2.46,2.24c.68,1.57,1.95,2.28,2.17,4s-.3,3.07-2.65,3.07h-3.82c-1.68,0-4.19.26-5-1.83s0-4-.3-5.09S249.23,281.42,249.23,281.42Z" transform="translate(-1.84 -1.56)"/><path class="cls-15" d="M249.23,281.42s2.69-3.1,6-.63a4.73,4.73,0,0,1,2.46,2.24c.68,1.57,1.95,2.29,2.17,4s-.3,3.07-2.65,3.07h-2.11c3.36-2.75.47-8.12-2.22-8.59-1.79-.31-3.67.73-4.86,1.58C247.82,282.06,249.23,281.42,249.23,281.42Z" transform="translate(-1.84 -1.56)"/><path class="cls-16" d="M259.89,287.36c.11,1.56-.49,2.74-2.69,2.74h-3.82c-1.68,0-4.19.26-5-1.83a5.35,5.35,0,0,1-.35-1.39s1,1.35,4.23,1.55S259.33,288.68,259.89,287.36Z" transform="translate(-1.84 -1.56)"/><path class="cls-17" d="M259.89,287.36c.11,1.56-.49,2.74-2.69,2.74h-2.11a4,4,0,0,0,1.2-1.58C258.1,288.44,259.56,288.13,259.89,287.36Z" transform="translate(-1.84 -1.56)"/><path class="cls-11" d="M247.93,72.11l.27.08h0a33.91,33.91,0,0,1,6.21,2.53c1.52,1,7.69,6.65,4.46,35.31-.46,2.86-.86,6.1-1.14,9.83-1,13.84-.65,16.53,1,29.77,1.08,8.51-13.76,9.1-22.22,9.1h-.16c-8.46,0-23.3-.59-22.22-9.1,1.67-13.24,2-15.93,1-29.77-.28-3.73-.68-7-1.13-9.83-3.24-28.66,2.93-34.36,4.45-35.31a33.91,33.91,0,0,1,6.21-2.53h0l.27-.08v0a31.81,31.81,0,0,1,4.7-.58l6.68,1h.16l6.68-1a31.81,31.81,0,0,1,4.7.58Z" transform="translate(-1.84 -1.56)"/><path class="cls-12" d="M247.93,72.11l.27.08h0a33.91,33.91,0,0,1,6.21,2.53c1.52,1,7.69,6.65,4.46,35.31-.46,2.86-.86,6.1-1.14,9.83-1,13.84-.65,16.53,1,29.77,1.08,8.51-13.76,9.1-22.22,9.1h-.16c-2,0-4.31,0-6.71-.19,17.05-3.76,21.94-17.65,22.54-47.44S244.84,74.54,241,71.88l2.27-.33a31.81,31.81,0,0,1,4.7.58Z" transform="translate(-1.84 -1.56)"/><path class="cls-14" d="M223.74,281.31s-2.7-3.1-6-.63a4.77,4.77,0,0,0-2.47,2.24c-.67,1.57-1.94,2.28-2.16,4s.29,3.07,2.65,3.07h3.81c1.69,0,4.19.26,5.06-1.83s0-4,.29-5.09S223.74,281.31,223.74,281.31Z" transform="translate(-1.84 -1.56)"/><path class="cls-15" d="M223.74,281.31s-2.39-2.75-5.42-1c2,.45,4.19,1.65,4.45,4.67.23,2.57-1.42,4.11-3.29,5h.1c1.69,0,4.19.26,5.06-1.83s0-4,.29-5.09S223.74,281.31,223.74,281.31Z" transform="translate(-1.84 -1.56)"/><path class="cls-16" d="M213.08,287.25c-.12,1.56.48,2.74,2.69,2.74h3.81c1.69,0,4.19.26,5.06-1.83a5.35,5.35,0,0,0,.35-1.39s-1,1.35-4.23,1.55S213.64,288.57,213.08,287.25Z" transform="translate(-1.84 -1.56)"/><path class="cls-17" d="M219.48,290h.1c1.69,0,4.19.26,5.06-1.83a5.35,5.35,0,0,0,.35-1.39,4.91,4.91,0,0,1-3.15,1.43A6.85,6.85,0,0,1,219.48,290Z" transform="translate(-1.84 -1.56)"/><path class="cls-6" d="M241.92,56.86l-.16,3.75v8.85a3.2,3.2,0,0,0,1.46,2.09c-4.82,5.23-8.7,5.23-13.52,0a3.2,3.2,0,0,0,1.46-2.09V60.61L231,56.86s2.68.48,5.46,1.16C239.24,57.34,241.92,56.86,241.92,56.86Z" transform="translate(-1.84 -1.56)"/><path class="cls-16" d="M242.74,71.14s-1.46,2.9-6.28,4.33a12.67,12.67,0,0,1,2.4,4.13c.54,2,5.29-4,5.8-6.37C244.66,73.23,244.08,71.17,242.74,71.14Z" transform="translate(-1.84 -1.56)"/><path class="cls-16" d="M230.17,71.14s1.46,2.9,6.29,4.33a12.49,12.49,0,0,0-2.4,4.13c-.55,2-5.29-4-5.8-6.37C228.26,73.23,228.84,71.17,230.17,71.14Z" transform="translate(-1.84 -1.56)"/><path class="cls-8" d="M216.59,33.12a9.5,9.5,0,0,0-.94,3.69c0,1.77,3.76,2.5,5,2.5s35.76,1.28,35.76,1.28a1.31,1.31,0,0,0,1.07-1.24c0-1-5.91-13.92-5.91-13.92Z" transform="translate(-1.84 -1.56)"/><path class="cls-18" d="M217.64,55a5.49,5.49,0,1,0-5.49-5.49A5.5,5.5,0,0,0,217.64,55Z" transform="translate(-1.84 -1.56)"/><path class="cls-18" d="M255.37,55a5.49,5.49,0,1,0-5.49-5.49A5.5,5.5,0,0,0,255.37,55Z" transform="translate(-1.84 -1.56)"/><rect class="cls-19" x="215.94" y="13.39" width="37.61" height="54.69" rx="18.8"/><path class="cls-6" d="M244.6,16.94a18.88,18.88,0,0,1,10.79,17V51a18.86,18.86,0,0,1-18.81,18.8h0a18.65,18.65,0,0,1-6.18-1c17.76-.19,19.75-12.43,19.75-22.82s-3.46-9.29-7.35-9.29h-25V32.8c6.23-5.24,17.41-14.09,23.08-15.25C249,15.9,243.44,17.08,244.6,16.94Z" transform="translate(-1.84 -1.56)"/><path class="cls-20" d="M253.23,33.48v5.9c0,2.31.42,3,1.58,3.84,0,0-.71,2.24.58,2.76a2.1,2.1,0,0,1,1-1.74V29.93a7.93,7.93,0,0,1-3.31,2.23A6.14,6.14,0,0,1,253.23,33.48Z" transform="translate(-1.84 -1.56)"/><path class="cls-20" d="M220.07,32.49v4.25c0,1.67-.31,2.17-1.14,2.78,0,0-.21,1.42-1.14,1.8L217,30.14c.58.67,2.18,1,3.21,1.4A4.69,4.69,0,0,0,220.07,32.49Z" transform="translate(-1.84 -1.56)"/><path class="cls-20" d="M257.51,39.35a15.3,15.3,0,0,0-4.29-3.5h0l-.08,0-.53-.28a11.06,11.06,0,0,1-4.43-4.38c-1.57,1.08-8,.92-10.41.81l-.82,0h-.11c-10.75-.43-21.15,2.17-21.2,4.9-9.3-19.57,14-38.42,34.68-17C261.27,20.3,260.31,31.54,257.51,39.35Z" transform="translate(-1.84 -1.56)"/><path class="cls-21" d="M213.57,27a17.51,17.51,0,0,1,3.07-9.18c5,3,17.07,8.28,30.68-.81.65.55,1.3,1.13,2,1.75C244.89,23.36,233.4,32.35,213.57,27Z" transform="translate(-1.84 -1.56)"/><path class="cls-22" d="M257.51,39.35a15.3,15.3,0,0,0-4.29-3.5h0l-.08,0-.53-.28a11.06,11.06,0,0,1-4.43-4.38c-1.57,1.08-8,.92-10.41.81l-.82,0h-.11c-1,0-2-.05-3,0,13.83-.54,20.43-5.45,23.43-9C260.52,26.82,259.46,33.91,257.51,39.35Z" transform="translate(-1.84 -1.56)"/><path class="cls-20" d="M247.93,72.11s-2.19,41.6,9.9,46.65a.4.4,0,0,0,.55-.33,4.26,4.26,0,0,0-.38-1.58s-8-8.24-3.58-42.13a2.69,2.69,0,0,0-.71-1.65C253.11,72.61,248.22,70.52,247.93,72.11Z" transform="translate(-1.84 -1.56)"/><path class="cls-20" d="M225,72.11s2.19,41.6-9.9,46.65a.4.4,0,0,1-.55-.33,4.26,4.26,0,0,1,.38-1.58s8-8.24,3.58-42.13a2.75,2.75,0,0,1,.71-1.65C219.81,72.61,224.69,70.52,225,72.11Z" transform="translate(-1.84 -1.56)"/><path class="cls-23" d="M226.05,48.35h0a1.85,1.85,0,0,1,1.84,1.84v2.4a1.85,1.85,0,0,1-1.84,1.84h0a1.85,1.85,0,0,1-1.84-1.84v-2.4A1.85,1.85,0,0,1,226.05,48.35Z" transform="translate(-1.84 -1.56)"/><path class="cls-23" d="M247.05,48.35h0a1.84,1.84,0,0,1,1.84,1.84v2.4a1.84,1.84,0,0,1-1.84,1.84h0a1.84,1.84,0,0,1-1.83-1.84v-2.4A1.84,1.84,0,0,1,247.05,48.35Z" transform="translate(-1.84 -1.56)"/><path class="cls-18" d="M224.85,61.05a2.72,2.72,0,1,0-2.72-2.72A2.72,2.72,0,0,0,224.85,61.05Z" transform="translate(-1.84 -1.56)"/><path class="cls-18" d="M248.25,61.05a2.72,2.72,0,1,0-2.72-2.72A2.73,2.73,0,0,0,248.25,61.05Z" transform="translate(-1.84 -1.56)"/><path class="cls-23" d="M244.46,42.11A.82.82,0,0,1,245.69,41a5.41,5.41,0,0,0,4.56,1.71.82.82,0,1,1,.23,1.63A7.09,7.09,0,0,1,244.46,42.11Z" transform="translate(-1.84 -1.56)"/><path class="cls-23" d="M228.71,42.84a.82.82,0,0,0-1.24-1.08,5.37,5.37,0,0,1-4.55,1.7.82.82,0,1,0-.23,1.63A7.09,7.09,0,0,0,228.71,42.84Z" transform="translate(-1.84 -1.56)"/><path class="cls-24" d="M234.24,61.69a.82.82,0,1,1-1.64.06,3.93,3.93,0,0,1,1.06-2.83,3.87,3.87,0,0,1,2.75-1.26,3.92,3.92,0,0,1,2.83,1.05,3.87,3.87,0,0,1,1.26,2.75.82.82,0,0,1-.79.85.81.81,0,0,1-.84-.79,2.32,2.32,0,0,0-4.63.17Z" transform="translate(-1.84 -1.56)"/></g><g id="視力自檢"><g class="cls-25"><path class="cls-26" d="M17,67.94l-.17.74-2.41,0q-2.46,0-3.51-.12a10,10,0,0,1-2.07-.49,4.67,4.67,0,0,1-1.82-1.17,11.92,11.92,0,0,1-1.89,2l-.5-.57a9.53,9.53,0,0,0,1.86-1.94,9.15,9.15,0,0,1-1.31-2.75l.65-.27a6.71,6.71,0,0,0,1,2.34,9.16,9.16,0,0,0,.82-3.59H5.14v-.66a34.52,34.52,0,0,0,2.59-3.76H4.86V57H8.52v.7A42,42,0,0,1,6.07,61.4H8.49a11.82,11.82,0,0,1-1.08,4.9,5,5,0,0,0,1.5,1.06,5.82,5.82,0,0,0,1.77.5A36.41,36.41,0,0,0,14.4,68C15.32,68,16.2,68,17,67.94Zm-.11-7.59h-1v2H12.73V63.5H16.2v.68H12.73v1.15h3.95V66H12.73v1.39H12V66H8.56v-.69H12V64.18H9.09V63.5H12V62.34H9.36v-.7H12V60.35H8.58v-.71H12V58.42H9.38v-.69H12v-1h.7v1h3.19v1.91h1Zm-1.71-.71V58.45H12.73v1.19Zm0,2V60.35H12.73v1.29Z" transform="translate(-1.84 -1.56)"/><path class="cls-26" d="M23.57,58.69H19.69V58h1.82A9.32,9.32,0,0,0,21,56.78l.59-.25A12.33,12.33,0,0,1,22.23,58h1.34Zm-.2,2H20V60h3.36Zm0,2.08H20v-.67h3.36Zm-.12,5.81h-.66v-.8H20.82v1h-.67V64.18h3.1Zm-.66-1.48V64.87H20.82v2.21Zm9.34.06a4.75,4.75,0,0,1-.5,1.29.94.94,0,0,1-.84.46c-.47,0-.93-.42-1.36-1.26a13.68,13.68,0,0,1-1.95,1.1l-.43-.58A8.4,8.4,0,0,0,29,67a9.49,9.49,0,0,1-.37-2.46H26.42v1.2a14.49,14.49,0,0,0,1.45-.46l.07.64c-.75.25-1.26.42-1.52.49V67.8a1.06,1.06,0,0,1-.23.7c-.15.2-.51.3-1.09.3l-.55,0-.21-.65H25.5a.22.22,0,0,0,.17-.09.24.24,0,0,0,.08-.18V66.62A9.19,9.19,0,0,1,24,67l-.18-.63c.86-.17,1.51-.32,1.93-.44V64.55H23.92V64h1.83V63a12,12,0,0,1-1.59.17l-.28-.66A10.76,10.76,0,0,0,27.5,62l.32.5a5.92,5.92,0,0,1-1.4.41V64h2.12c0-.67,0-1.25,0-1.75h.69A11.89,11.89,0,0,0,29.25,64h2.61v.6H29.25a9.22,9.22,0,0,0,.31,2A7.86,7.86,0,0,0,30.8,65l.55.4a11.77,11.77,0,0,1-1.56,1.78c.32.65.6,1,.83,1s.5-.46.7-1.38Zm-.13-5.43H23.93v-.62h3.55v-.93h-3v-.61h3V58.7H24.2V58h7.39v.66H28.15v.85h3v.61h-3v.93H31.8ZM27,57.51l-.64.31a5.85,5.85,0,0,0-1-1l.63-.3A5.79,5.79,0,0,1,27,57.51ZM30.35,57a7.52,7.52,0,0,1-1.14.88l-.61-.41a6,6,0,0,0,1.16-.87Zm1,6.32-.53.34A6.31,6.31,0,0,0,30,62.52l.51-.32A4.38,4.38,0,0,1,31.31,63.27Z" transform="translate(-1.84 -1.56)"/><path class="cls-26" d="M38.23,56.78A14.52,14.52,0,0,1,37,59.08v5.27h-.73V60.11a13.61,13.61,0,0,1-1.39,1.45L34.38,61a14.46,14.46,0,0,0,3.21-4.47ZM37.05,65a11.57,11.57,0,0,1-1.78,3.23l-.62-.4a10.72,10.72,0,0,0,1.75-3.11Zm9.13-7.39A18.73,18.73,0,0,1,45.41,60l-.7-.18a12.6,12.6,0,0,0,.53-1.52H40.18a17.46,17.46,0,0,1-1.84,2.16l-.58-.5a12.17,12.17,0,0,0,2.63-3.5l.68.29a4.82,4.82,0,0,1-.45.86Zm-5.15,3a11.53,11.53,0,0,1-2.34,3l-.54-.51a12.48,12.48,0,0,0,2.29-2.86ZM44,66.85a3.29,3.29,0,0,1-.32,1.27,1.08,1.08,0,0,1-.65.55,6.36,6.36,0,0,1-1.53.12c-.69,0-1.3,0-1.82,0a3.49,3.49,0,0,1-1-.14.87.87,0,0,1-.36-.35,1.55,1.55,0,0,1-.14-.78V64.65h.73v2.9a.43.43,0,0,0,.23.43,21.79,21.79,0,0,0,3.19.1.79.79,0,0,0,.72-.34,3.19,3.19,0,0,0,.25-1.23Zm-1.61-.72-.56.45a10.21,10.21,0,0,0-1.56-2.1l.55-.48A11.09,11.09,0,0,1,42.36,66.13Zm.41-1.9H42v-5h.73ZM46.46,63l-.6.48a13.71,13.71,0,0,0-2.07-2.83l.53-.45A12.14,12.14,0,0,1,46.46,63Zm.14,5-.65.37a16,16,0,0,0-1.86-3l.58-.4A15.89,15.89,0,0,1,46.6,68Z" transform="translate(-1.84 -1.56)"/><path class="cls-26" d="M61.5,63.18H55.14a17.26,17.26,0,0,1-3.75,4.6,53.26,53.26,0,0,0,7.75-1.1c-.57-.62-1.3-1.34-2.2-2.14l.59-.48a22,22,0,0,1,3.88,4.35l-.65.39a11.8,11.8,0,0,0-1.08-1.49,71.33,71.33,0,0,1-9.43,1.29l-.15-.79a13.37,13.37,0,0,0,4.17-4.63H49.33v-.75H55V59.66H50.28v-.74H55V56.53h.78v2.39h4.76v.74H55.77v2.77H61.5Z" transform="translate(-1.84 -1.56)"/><path class="cls-26" d="M76.42,63.33H71.89v.76H75.3v4.75h-.7v-.49H66.14v.49h-.71V64.09H69c0-.37,0-.62,0-.76H64.27V62.7H76.42Zm-5.56-5.88H67.29l.38.24a2.6,2.6,0,0,1-.23.37h2.87v.58H68.78c0,.16,0,.36-.1.61h1.9v.6H68.82a11.25,11.25,0,0,1,1.49,1l-.4.47a7.86,7.86,0,0,0-1.67-1.15,3.87,3.87,0,0,1-1.84,1.09L66,60.76a3.34,3.34,0,0,0,1.69-.91H66v-.6h2a1.46,1.46,0,0,0,.13-.61H66.9a4.3,4.3,0,0,1-.48.35l-.51-.39a3.89,3.89,0,0,0,1.14-1.15H65.56v3.74a.3.3,0,0,0,.1.23.32.32,0,0,0,.23.1H70.3v.6H65.91a.91.91,0,0,1-1-1V57.45h-.43v-.63h6.4ZM74.6,67.73V66.09H72.22a1,1,0,0,1-.84-.29,1.29,1.29,0,0,1-.2-.74v-.34H69.55c-.32.9-1.23,1.51-2.75,1.83l-.35-.65a3.17,3.17,0,0,0,2.38-1.18H66.14v3Zm-1.37-.56H67.47v-.6h5.76Zm-2-3.08v-.76H69.75a5.27,5.27,0,0,1,0,.76Zm5.13-5.39H75q-.75,0-.75-.81v-.41h-2A2.43,2.43,0,0,1,71.37,59l-.56-.41a1.64,1.64,0,0,0,.85-1.7H75v1c0,.13.07.19.2.19h1.16Zm-.09,3.21-.38.51a16.81,16.81,0,0,0-1.9-1.05,9,9,0,0,1-2.83,1l-.3-.57A10.47,10.47,0,0,0,73.19,61a16.31,16.31,0,0,0-1.85-.77l.28-.37H71v-.63h4.74v.63a5.82,5.82,0,0,1-1.2,1.1C74.93,61.17,75.48,61.48,76.22,61.91ZM74.6,65.47v-.75H71.89v.5c0,.17.08.25.24.25Zm.21-5.59H72l1.83.77A5.31,5.31,0,0,0,74.81,59.88Z" transform="translate(-1.84 -1.56)"/><path class="cls-26" d="M81.93,60.94a5.24,5.24,0,0,1,1.17,3.22,1.65,1.65,0,0,1-.32,1,1.77,1.77,0,0,1-1.39.4,4.26,4.26,0,0,1-.51,0l-.29-.73h.78a1.42,1.42,0,0,0,.84-.17.63.63,0,0,0,.2-.51A5.07,5.07,0,0,0,81.18,61c.31-.93.66-2.07,1.06-3.41H80.18V68.84h-.71V56.92H83v.71C82.67,58.74,82.32,59.84,81.93,60.94Zm9.32,5.16a6.12,6.12,0,0,1-.17,1.66,1.29,1.29,0,0,1-.5.76,3.07,3.07,0,0,1-1.34.19c-.79,0-1.19-.29-1.19-.87v-4.3H86.46a6.59,6.59,0,0,1-1,3.46,6.3,6.3,0,0,1-2.43,1.83l-.53-.61a5.18,5.18,0,0,0,2.37-1.67,4.88,4.88,0,0,0,.8-3H83.63v-.7H91v.7H88.78v4.14a.34.34,0,0,0,.1.22c.06.07.27.1.62.1a2.13,2.13,0,0,0,.62-.06.51.51,0,0,0,.23-.17,2,2,0,0,0,.14-.68,9.4,9.4,0,0,0,0-1.21ZM91,60.81h-.72V58.73H84.33v2.08H83.6V58h3.25a7.86,7.86,0,0,0-.49-1.29l.74-.2A9.62,9.62,0,0,1,87.64,58H91Zm-1.28.27H84.92v-.69h4.76Z" transform="translate(-1.84 -1.56)"/><path class="cls-26" d="M97.34,56.71c-.18.5-.43,1.13-.75,1.87l-.49,1.08v9.18h-.7V61c-.42.73-.81,1.36-1.18,1.88l-.44-.71a22.83,22.83,0,0,0,2.89-5.73Zm4,2.65V60h-1.8v2.82H101v4.46H97.45V62.86h1.4V60h-2v-.68h2V56.58h.7v2.78Zm-1.1,7.28v-3.1H98.16v3.1Zm5.92,1.6-.49.58a11.65,11.65,0,0,1-2-2.3,10.71,10.71,0,0,1-2.45,2.34l-.56-.53a8.54,8.54,0,0,0,2.6-2.51,13.79,13.79,0,0,1-1-3.76l.67-.27a11.89,11.89,0,0,0,.79,3.25,9.42,9.42,0,0,0,.81-4.36c0-.34,0-.7,0-1.08h-1.67a11.84,11.84,0,0,1-1.46,2.89l-.56-.41A16.41,16.41,0,0,0,103,56.55l.69.19a16.66,16.66,0,0,1-.59,2.16h3.06v.7h-.89a12.57,12.57,0,0,1-1.08,6.25A9.4,9.4,0,0,0,106.17,68.24Z" transform="translate(-1.84 -1.56)"/><path class="cls-26" d="M113.54,58.81h-4.85v-.73h2.16a6.91,6.91,0,0,0-.56-1.25l.7-.28a9,9,0,0,1,.61,1.53h1.94Zm-.37,2h-4.08v-.7h4.08Zm0,2h-4.08v-.7h4.08Zm-.26,5.72h-.76v-.74H110v1h-.73V64.23h3.62Zm-.76-1.45v-2.2H110v2.2Zm8.75-1.28h-3.33v3h-.73v-3h-3.3v-.7h3.3V63h-2.69v-.7h2.69V60.22h-3v-.7h6.74v.7h-3v2.06h2.71V63h-2.71v2.17h3.33Zm-4.6-7.19-.68.32a8.29,8.29,0,0,0-1.15-2l.63-.41A10,10,0,0,1,116.3,58.66ZM120,56.87a11.67,11.67,0,0,1-1.4,2.05l-.69-.38a8.74,8.74,0,0,0,1.43-2Z" transform="translate(-1.84 -1.56)"/><path class="cls-26" d="M125.16,65.58a17.26,17.26,0,0,1-1,3.24l-.7-.27a14.25,14.25,0,0,0,1-3.14Zm3.75-6.81A36.17,36.17,0,0,1,125,64c.51-.09,1.41-.28,2.69-.59-.11-.3-.23-.57-.34-.81l.62-.27a9.13,9.13,0,0,1,.84,2.27l-.65.25A6.87,6.87,0,0,0,128,64a37.34,37.34,0,0,1-3.93.88l-.21-.62a21.5,21.5,0,0,0,2.82-3.39,20.62,20.62,0,0,1-2.44.48l-.21-.63a16.89,16.89,0,0,0,2.45-4.15l.72.23A27.5,27.5,0,0,1,125,60.53a16,16,0,0,0,2.16-.4c.31-.45.67-1,1.08-1.67Zm-2,9.64-.71.1a15.42,15.42,0,0,0-.26-3l.65-.11A14.16,14.16,0,0,1,126.86,68.41Zm1.93-.45-.68.2a12.69,12.69,0,0,0-.59-2.69l.67-.18A15,15,0,0,1,128.79,68Zm6.6.87h-.69v-.92h-4.52v.93h-.71V56.94h5.92Zm-3.31-7V57.65h-1.9v4.18Zm0,5.37V62.55h-1.9V67.2Zm2.62-5.37V57.65h-1.89v4.18Zm0,5.37V62.55h-1.89V67.2Z" transform="translate(-1.84 -1.56)"/><path class="cls-26" d="M142.52,62.63l-.49.56a11.59,11.59,0,0,0-1.19-1.65v7.28h-.71v-7A15.66,15.66,0,0,1,138.76,65l-.51-.54a15.48,15.48,0,0,0,1.81-4.8h-1.65V59h1.72V56.63h.71V59H142v.64h-1.2v.9A14.76,14.76,0,0,1,142.52,62.63Zm3.7,5-.46.5a12.79,12.79,0,0,0-1.58-1.33,8.83,8.83,0,0,1-1.81,2.16l-.52-.51A8.69,8.69,0,0,0,144.29,65l.65.27-.45,1A12.13,12.13,0,0,1,146.22,67.59Zm4.51-7.65-.39.62a11.92,11.92,0,0,1-3.91-2.9,14.22,14.22,0,0,1-3.83,3l-.53-.56a11.58,11.58,0,0,0,4.31-3.52l.68.26a1.4,1.4,0,0,1-.22.32A11,11,0,0,0,150.73,59.94Zm-4.87,4.72H143V61.33h2.9Zm-.7-.67V62h-1.5v2Zm3.2-3.67h-3.9v-.68h3.9Zm2.2,8-.46.49a14.85,14.85,0,0,0-2-1.82,9,9,0,0,1-1.41,1.87l-.59-.4a9.33,9.33,0,0,0,2.1-3.5l.64.23a7.63,7.63,0,0,1-.48,1.21A14.19,14.19,0,0,1,150.56,68.3Zm-.77-3.64h-2.88V61.33h2.88Zm-.68-.67V62H147.6v2Z" transform="translate(-1.84 -1.56)"/><path class="cls-26" d="M165.49,61.41l-.43.65a27.81,27.81,0,0,0-5.37-2.37v2h4.15v4.91h-9V61.71H159V59a16.43,16.43,0,0,1-5.37,3.13l-.5-.65a14.43,14.43,0,0,0,5.29-2.87h-5.14v-.69H159V56.55h.71v1.34h5.71v.69h-5.71V59A32.11,32.11,0,0,1,165.49,61.41Zm0,7.11H153.24v-.69h12.23Zm-2.38-4.74V62.4h-7.5v1.38Zm0,2.11V64.5h-7.5v1.39Z" transform="translate(-1.84 -1.56)"/><path class="cls-26" d="M171.65,66.77h-.72v-.64h-1.77v1.24h-.74v-10h3.23Zm-.72-1.35V58.1h-1.77v7.32Zm9.37,3.14h-6.83v-.68h3.05V66.27H174v-.66h2.56V64.37l-2.21.21-.13-.55a6.6,6.6,0,0,0,1.7-2.3h-2.27q0,5-1.73,7.19l-.57-.48a6.88,6.88,0,0,0,1.28-2.9,24.55,24.55,0,0,0,.32-4.43V57h6.88v2.93h-6.18V61h6.66v.69h-3.62a6.85,6.85,0,0,1-1.48,2.12c1.12-.12,2.32-.29,3.59-.5a6.64,6.64,0,0,0-.64-.82l.57-.39a11.52,11.52,0,0,1,1.49,2.2l-.59.33a4.8,4.8,0,0,0-.41-.71c-.82.14-1.47.24-2,.3v1.35h2.45v.66h-2.45v1.61h3.08Zm-1.23-9.35V57.65h-5.44v1.56Z" transform="translate(-1.84 -1.56)"/><path class="cls-26" d="M183.31,67.48a.73.73,0,0,1,.23-.56.75.75,0,0,1,1.1,0,.74.74,0,0,1,.24.56.76.76,0,0,1-.23.55.68.68,0,0,1-.52.23.79.79,0,0,1-.6-.23A.75.75,0,0,1,183.31,67.48Zm1.36-9.94-.13,7.63h-.93l-.13-7.63Z" transform="translate(-1.84 -1.56)"/></g></g><g id="視力自檢-2" data-name="視力自檢"><g class="cls-25"><path class="cls-27" d="M16,20.36,13.08,24A59.25,59.25,0,0,0,4.22,17.6l3-3.54A56,56,0,0,1,16,20.36Zm.51,8.86a83.4,83.4,0,0,1-8.4,16.6L4.36,43.07a69.28,69.28,0,0,0,8.11-16.36Zm.25-20.51-3,3.45A60,60,0,0,0,5.07,5l3.1-3.44A64.77,64.77,0,0,1,16.72,8.71ZM48.21,44.78H16V40.4H29.78V28.47H19.21V24.22H29.78V13.87H17.23V9.52H30c-1-2.2-2-4.34-3.2-6.44l4.5-1.47Q33,4.73,34.91,9.52H47.26v4.35H34.32V24.22h11.5v4.25H34.32V40.4H48.21Z" transform="translate(-1.84 -1.56)"/><path class="cls-27" d="M69.47,36.67a48.45,48.45,0,0,1-6.15,8.89L59.61,43a36.6,36.6,0,0,0,5.86-8.35Zm33.06-21.22H60V11.77H71.81A14.72,14.72,0,0,0,70,8.91H62.46V5.32H78.31a19.39,19.39,0,0,0-1.49-2.71l4.64-1a23.31,23.31,0,0,1,1.85,3.71H100V8.91H92.66a32.31,32.31,0,0,1-2,2.86h11.82Zm-5.2,17.87H65.22V17.87H97.33Zm-4.42-9.66V21.51H69.71v2.15Zm0,6V27.07H69.71v2.59Zm1.22,9q-.51,6.65-4.22,6.64l-9.26.05q-5.88,0-6.94-.16a3,3,0,0,1-1.81-1,3.83,3.83,0,0,1-.74-2.63V35h4.41v4.86c0,.89.37,1.34,1.1,1.34l11-.05c1.33,0,2-1.27,2-3.81ZM87.27,8.91H75.43c.39.63.88,1.59,1.49,2.86h8.25A29.28,29.28,0,0,0,87.27,8.91Zm-1,29.86-4.2,1a28.77,28.77,0,0,0-2.66-4.66l4.2-1.3A24.13,24.13,0,0,1,86.22,38.77Zm17.31,3.95-3.81,2.45a37.31,37.31,0,0,0-5.59-8.5l3.69-2.52A38.32,38.32,0,0,1,103.53,42.72Z" transform="translate(-1.84 -1.56)"/></g></g><path class="cls-28" d="M205.86,41.5c.62-1,2.59-.55,4-.43s1.26-.41.25.72-2,2.54-3.07,2.38A1.92,1.92,0,0,1,205.86,41.5Z" transform="translate(-1.84 -1.56)"/><path class="cls-28" d="M208.13,34.26c.87-.15,1.67,1.18,2.32,2s.88.5-.28.51-2.49.19-3-.5A1.48,1.48,0,0,1,208.13,34.26Z" transform="translate(-1.84 -1.56)"/><path class="cls-29" d="M35.63,161.18l-.51.59a14.79,14.79,0,0,1-5.23-7.09v6h3v.73h-3v2.51h-.77v-2.51H26v-.73h3.12v-6A15.77,15.77,0,0,1,27,158.61a15.1,15.1,0,0,1-3.27,3.11l-.48-.61a13.23,13.23,0,0,0,5.06-6.43H23.59V154h5.53v-2.4h.77V154h5.38v.72H30.71A13.23,13.23,0,0,0,35.63,161.18Z" transform="translate(-1.84 -1.56)"/><path class="cls-29" d="M41.56,157.61l-.5.56a11.59,11.59,0,0,0-1.19-1.65v7.27h-.7v-7A15.92,15.92,0,0,1,37.8,160l-.52-.53a15.74,15.74,0,0,0,1.82-4.8H37.44V154h1.73v-2.39h.7V154h1.2v.64h-1.2v.9A14.06,14.06,0,0,1,41.56,157.61Zm3.7,4.95-.46.51a11.9,11.9,0,0,0-1.59-1.33,9.48,9.48,0,0,1-1.8,2.16l-.52-.51a8.84,8.84,0,0,0,2.43-3.46l.65.27-.45,1A12.23,12.23,0,0,1,45.26,162.56Zm4.51-7.64-.4.62a11.9,11.9,0,0,1-3.9-2.9,14.51,14.51,0,0,1-3.84,3L41.1,155a11.56,11.56,0,0,0,4.31-3.51l.69.25a1.54,1.54,0,0,1-.23.33A11.21,11.21,0,0,0,49.77,154.92Zm-4.88,4.72H42v-3.33h2.89Zm-.7-.67v-2h-1.5v2Zm3.21-3.67H43.49v-.69H47.4Zm2.2,8-.47.49a14.19,14.19,0,0,0-2-1.82,8.66,8.66,0,0,1-1.42,1.87l-.59-.4a9.41,9.41,0,0,0,2.1-3.5l.65.22a9.71,9.71,0,0,1-.48,1.22A14.67,14.67,0,0,1,49.6,163.28Zm-.77-3.64H45.94v-3.33h2.89Zm-.69-.67v-2H46.63v2Z" transform="translate(-1.84 -1.56)"/><path class="cls-29" d="M54.07,157l-.52.51a11.25,11.25,0,0,0-2.08-1.94L52,155A13.56,13.56,0,0,1,54.07,157Zm.08,2.31a24.74,24.74,0,0,1-2.08,4.53l-.55-.47a20.44,20.44,0,0,0,2-4.41Zm.4-5.92-.51.54a10.34,10.34,0,0,0-2.12-1.76l.4-.53A8.7,8.7,0,0,1,54.55,153.37ZM59,160.76H56.22l.41.28a11,11,0,0,1-2,2.84l-.57-.47A9.47,9.47,0,0,0,56,160.76H55V151.9h4Zm-.68-6.24v-1.94H55.7v1.94Zm0,2.73v-2H55.7v2Zm0,2.81v-2.13H55.7v2.13Zm1.05,3.11-.61.36a8.33,8.33,0,0,0-1.37-2.2l.57-.39A8.92,8.92,0,0,1,59.38,163.17ZM61,161.31h-.71v-8.79H61Zm2.25,1.52a.84.84,0,0,1-.36.81,2.88,2.88,0,0,1-1.31.2c-.34,0-.69,0-1,0l-.18-.7a15.39,15.39,0,0,0,2-.06c.14,0,.21-.19.21-.43v-11h.7Z" transform="translate(-1.84 -1.56)"/><path class="cls-29" d="M77.53,158.45a22.84,22.84,0,0,1-.15,2.64,8.56,8.56,0,0,1-.29,1.66,1.6,1.6,0,0,1-.41.63,1.67,1.67,0,0,1-.74.38,6.46,6.46,0,0,1-1.47.12l-.28-.8c.21,0,.64,0,1.3,0a1.09,1.09,0,0,0,.58-.15.82.82,0,0,0,.35-.43,6.62,6.62,0,0,0,.23-1.17,20.38,20.38,0,0,0,.15-2.2H68.21a16.72,16.72,0,0,1-2.2,2.17l-.42-.68a12,12,0,0,0,4.27-6.32H66.13v-.73H70c.21-.92.35-1.62.41-2.1l.71.16a18.2,18.2,0,0,1-.36,1.94h5.16c-.14.79-.3,1.6-.5,2.44h1.39a21.86,21.86,0,0,1-.42,2.41ZM69,153l-.64.4a10.4,10.4,0,0,0-1.18-1.44l.63-.4A9.27,9.27,0,0,1,69,153Zm.36,7.28a13.51,13.51,0,0,1-1.49,3.38l-.67-.36a13.17,13.17,0,0,0,1.51-3.19Zm6.57-3.5H69.73a13.5,13.5,0,0,1-1,1.7h6.92C75.78,157.82,75.89,157.26,76,156.75Zm-.89-2.42H70.61A14.26,14.26,0,0,1,70,156h4.65C74.81,155.56,74.94,155,75.07,154.33Zm-3.65,9.1-.77.15a13.52,13.52,0,0,0-.36-3.35l.69-.15A20.67,20.67,0,0,1,71.42,163.43Zm2.23-.74-.71.26a13.16,13.16,0,0,0-.77-2.75l.67-.23A19.64,19.64,0,0,1,73.65,162.69Zm2-.77-.67.31a11,11,0,0,0-.92-2.14l.63-.31A13.83,13.83,0,0,1,75.66,161.92Z" transform="translate(-1.84 -1.56)"/><path class="cls-29" d="M91.36,155.2H82v2.18a10.67,10.67,0,0,1-1.68,6.36l-.6-.44a9.39,9.39,0,0,0,1.55-5.6v-5.8H91.36Zm-.74-.7v-1.88H82v1.88Zm1.31,3.28H87.45v1.84h3.6v4.24H90.3v-.75H83.85v.75h-.74v-4.24h3.61v-1.84H82.47v-.68h4.25v-1.38h.73v1.38h4.48Zm-1.63,4.63v-2.09H83.85v2.09Z" transform="translate(-1.84 -1.56)"/><path class="cls-29" d="M106,162.58l-.49.63a10.38,10.38,0,0,1-4-3.35,7.82,7.82,0,0,1,.1,1.22,3.05,3.05,0,0,1-.56,2.23,2.74,2.74,0,0,1-1.82.48c-.26,0-.49,0-.7,0l-.24-.73a6.56,6.56,0,0,0,.92.06,2.47,2.47,0,0,0,1.12-.17,1.16,1.16,0,0,0,.42-.54,3.94,3.94,0,0,0,.15-1.33,7.43,7.43,0,0,0-.09-1.15,20.66,20.66,0,0,1-6.54,3.3l-.39-.63a17.39,17.39,0,0,0,6.72-3.49,4.42,4.42,0,0,0-.38-1.06,16.85,16.85,0,0,1-5.61,2.62l-.41-.69a14.13,14.13,0,0,0,5.7-2.59,5.76,5.76,0,0,0-.56-.83A18.32,18.32,0,0,1,95,158.06l-.39-.68a14.32,14.32,0,0,0,5.54-2.1H96v-.71h8v.71h-2.81a8.86,8.86,0,0,1-1.24.93,8.28,8.28,0,0,1,1.23,2.35,11.31,11.31,0,0,0,3.19-2.28l.52.51a11.43,11.43,0,0,1-3.08,2.26A9.1,9.1,0,0,0,106,162.58Zm-.48-7.43h-.72V153.4H95.17v1.75h-.73v-2.46h5.33a6.09,6.09,0,0,0-.41-1l.71-.24a12.15,12.15,0,0,1,.49,1.25h4.91Z" transform="translate(-1.84 -1.56)"/><path class="cls-29" d="M113.91,153.12h-4a8.52,8.52,0,0,1-1.53,1.36l-.45-.52a12.18,12.18,0,0,0,2.42-2.48l.65.26a8.33,8.33,0,0,1-.52.73h3.43Zm-.49,5h-4v5.62h-.69v-9h4.69Zm-.7-2v-.71h-3.3v.71Zm0,1.39v-.78h-3.3v.78Zm-.53-3.32-.69.23a7.79,7.79,0,0,0-.44-.82l.64-.2Zm4.62,8.36h-5.53V159h5.53Zm-.7-2.18v-.73H112v.73Zm0,1.52V161H112v.88Zm3.85-8.77h-4.65a7.78,7.78,0,0,1-1.12,1.23l-.52-.48a8.92,8.92,0,0,0,1.89-2.33l.63.2a3.24,3.24,0,0,1-.42.73H120Zm-.65,9.78a.79.79,0,0,1-.31.71,1.62,1.62,0,0,1-.92.21h-.53l-.25-.71c.24,0,.48,0,.72,0,.41,0,.61-.14.61-.41v-4.57h-3.92v-3.42h4.6Zm-.68-6.78v-.71H115.4v.71Zm0,1.39v-.78H115.4v.78Zm-.77-3.33-.7.25a3.89,3.89,0,0,0-.57-.84l.71-.22A7.49,7.49,0,0,1,117.86,154.18Z" transform="translate(-1.84 -1.56)"/><path class="cls-29" d="M133.69,157.85c0,1.27-.08,2.43-.19,3.46a4.07,4.07,0,0,1-.44,1.87,2.36,2.36,0,0,1-.54.46,2.88,2.88,0,0,1-1.24.15h-1L130,163c.57,0,1,.07,1.36.07a1.92,1.92,0,0,0,.85-.13.75.75,0,0,0,.32-.39,9.36,9.36,0,0,0,.26-1.54c.09-.84.15-1.68.17-2.52h-1.39c-1,2.17-3,3.92-6,5.28l-.43-.63q4.22-1.81,5.61-4.65h-2.22A11,11,0,0,1,123,162l-.43-.63a10.75,10.75,0,0,0,5.16-2.8h-3.07a11.69,11.69,0,0,1-2,1.12l-.51-.56a9.09,9.09,0,0,0,3.58-2.5h-1.92v-4.68h8.75v4.68h-6a7.52,7.52,0,0,1-1.11,1.26Zm-1.89-3.92V152.6h-7.27v1.33Zm0,2v-1.37h-7.27v1.37Z" transform="translate(-1.84 -1.56)"/><path class="cls-29" d="M147.08,163.82h-.76v-1h-8.09v1h-.75V153.19h3.85a6.91,6.91,0,0,0,.76-1.69l.73.18a8.27,8.27,0,0,1-.68,1.51h4.94Zm-.76-7.82v-2.06h-8.09V156Zm0,2.95v-2.2h-8.09V159Zm0,3.17v-2.43h-8.09v2.43Z" transform="translate(-1.84 -1.56)"/><path class="cls-29" d="M154.41,157.61l-.5.56a11.59,11.59,0,0,0-1.19-1.65v7.27H152v-7a15.29,15.29,0,0,1-1.36,3.2l-.52-.53a15.74,15.74,0,0,0,1.82-4.8h-1.66V154H152v-2.39h.71V154h1.2v.64h-1.2v.9A14.73,14.73,0,0,1,154.41,157.61Zm3.7,4.95-.46.51a12.6,12.6,0,0,0-1.59-1.33,9.48,9.48,0,0,1-1.8,2.16l-.52-.51a8.84,8.84,0,0,0,2.43-3.46l.65.27-.45,1A12.23,12.23,0,0,1,158.11,162.56Zm4.51-7.64-.4.62a11.9,11.9,0,0,1-3.9-2.9,14.51,14.51,0,0,1-3.84,3L154,155a11.56,11.56,0,0,0,4.31-3.51l.69.25a2,2,0,0,1-.23.33A11.21,11.21,0,0,0,162.62,154.92Zm-4.88,4.72h-2.9v-3.33h2.9ZM157,159v-2h-1.5v2Zm3.21-3.67h-3.91v-.69h3.91Zm2.2,8-.47.49a14.19,14.19,0,0,0-2-1.82,8.66,8.66,0,0,1-1.42,1.87l-.59-.4a9.41,9.41,0,0,0,2.1-3.5l.64.22a8.43,8.43,0,0,1-.47,1.22A14.67,14.67,0,0,1,162.45,163.28Zm-.78-3.64h-2.88v-3.33h2.88ZM161,159v-2h-1.51v2Z" transform="translate(-1.84 -1.56)"/><path class="cls-29" d="M170.27,159a.79.79,0,0,1-.51-.68.69.69,0,0,1,.17-.41.61.61,0,0,1,.49-.21q.66,0,.66.87a1.83,1.83,0,0,1-.83,1.36l-.29-.23A1.25,1.25,0,0,0,170.27,159Z" transform="translate(-1.84 -1.56)"/><path class="cls-29" d="M182.62,157.61l-.5.56a11.59,11.59,0,0,0-1.19-1.65v7.27h-.7v-7a15.92,15.92,0,0,1-1.37,3.2l-.52-.53a15.49,15.49,0,0,0,1.82-4.8H178.5V154h1.73v-2.39h.7V154h1.2v.64h-1.2v.9A14.06,14.06,0,0,1,182.62,157.61Zm3.7,4.95-.46.51a11.9,11.9,0,0,0-1.59-1.33,9.48,9.48,0,0,1-1.8,2.16l-.52-.51a8.84,8.84,0,0,0,2.43-3.46l.65.27-.45,1A12.23,12.23,0,0,1,186.32,162.56Zm4.51-7.64-.4.62a12,12,0,0,1-3.9-2.9,14.51,14.51,0,0,1-3.84,3l-.53-.57a11.56,11.56,0,0,0,4.31-3.51l.69.25a1.54,1.54,0,0,1-.23.33A11.21,11.21,0,0,0,190.83,154.92ZM186,159.64h-2.9v-3.33H186Zm-.71-.67v-2h-1.5v2Zm3.21-3.67h-3.91v-.69h3.91Zm2.2,8-.47.49a14.19,14.19,0,0,0-2-1.82,8.66,8.66,0,0,1-1.42,1.87l-.59-.4a9.41,9.41,0,0,0,2.1-3.5l.65.22a9.71,9.71,0,0,1-.48,1.22A14.67,14.67,0,0,1,190.66,163.28Zm-.77-3.64H187v-3.33h2.89Zm-.69-.67v-2h-1.51v2Z" transform="translate(-1.84 -1.56)"/><path class="cls-29" d="M195.13,157l-.52.51a10.94,10.94,0,0,0-2.08-1.94L193,155A13.12,13.12,0,0,1,195.13,157Zm.08,2.31a24.07,24.07,0,0,1-2.08,4.53l-.55-.47a20.44,20.44,0,0,0,2-4.41Zm.4-5.92-.5.54a10.4,10.4,0,0,0-2.13-1.76l.4-.53A8.7,8.7,0,0,1,195.61,153.37Zm4.47,7.39h-2.79l.41.28a11.28,11.28,0,0,1-2,2.84l-.57-.47a9.47,9.47,0,0,0,1.88-2.65h-1V151.9h4Zm-.69-6.24v-1.94h-2.63v1.94Zm0,2.73v-2h-2.63v2Zm0,2.81v-2.13h-2.63v2.13Zm1.05,3.11-.6.36a8.64,8.64,0,0,0-1.38-2.2l.58-.39A9.15,9.15,0,0,1,200.44,163.17Zm1.64-1.86h-.71v-8.79h.71Zm2.25,1.52a.84.84,0,0,1-.36.81,2.86,2.86,0,0,1-1.3.2c-.35,0-.7,0-1,0l-.18-.7a15.27,15.27,0,0,0,2-.06c.14,0,.21-.19.21-.43v-11h.7Z" transform="translate(-1.84 -1.56)"/><path class="cls-29" d="M208.17,160.51a12.17,12.17,0,0,1-.88,3.19l-.68-.36a10.23,10.23,0,0,0,.88-3Zm3.69-.9-.65.34a3.32,3.32,0,0,0-.28-.82,39.22,39.22,0,0,1-4,.79l-.19-.68a12,12,0,0,0,2.78-2.89c-1.08.12-1.92.19-2.49.23l-.14-.64a13.56,13.56,0,0,0,2.55-4.29l.65.28a15.38,15.38,0,0,1-2.09,3.83,18.06,18.06,0,0,0,2-.17,14,14,0,0,0,.83-1.48l.65.35A16.55,16.55,0,0,1,208.1,159a22.15,22.15,0,0,0,2.53-.53,4.52,4.52,0,0,0-.4-.79l.65-.3A11.42,11.42,0,0,1,211.86,159.61Zm-1.88,3.7-.78.11a15.47,15.47,0,0,0-.26-2.84l.67-.17A13.14,13.14,0,0,1,210,163.31Zm1.88-.6-.69.26a14.39,14.39,0,0,0-.69-2.41l.62-.27A10.3,10.3,0,0,1,211.86,162.71Zm7-8.49H215.6v2.14h2.76v.69h-6.15v-.69h2.68v-2.14h-3.07v-.67h3.07v-1.92h.71v1.92h3.22Zm-.82,9.59h-.71V163h-4v.79h-.72v-5.13H218Zm-.71-1.51v-2.93h-4v2.93Z" transform="translate(-1.84 -1.56)"/><path class="cls-29" d="M233,162.65l-.35.63a11.81,11.81,0,0,1-2.91-1.65,12.44,12.44,0,0,1-2.48-2.33v4.52h-.73v-4.53a14.47,14.47,0,0,1-5.39,3.93l-.5-.64a13.56,13.56,0,0,0,5.15-3.5h-5v-.7h5.74V157h-4.44v-5.1h9.58V157h-4.41v1.35H233v.7H228A12.15,12.15,0,0,0,233,162.65Zm-6.47-8.55v-1.45h-3.71v1.45Zm0,2.22v-1.53h-3.71v1.53Zm4.4-2.22v-1.45h-3.67v1.45Zm0,2.22v-1.53h-3.67v1.53Z" transform="translate(-1.84 -1.56)"/><path class="cls-29" d="M238.28,151.73a16.24,16.24,0,0,1-.56,1.68l-.39,1v9.34h-.73v-7.72a20.66,20.66,0,0,1-1.29,2.15l-.42-.67a22.68,22.68,0,0,0,2.71-6.06Zm8.8,11.73h-9v-.64h4.2v-1.15h-3.7V161h3.7v-1.11h-3.89v-.64h3.89v-1h-3.56v-2.42h3.56V155h-2.13v-1.5h-1.82v-.64h1.82v-1.29h.72v1.29h3.44v-1.29h.71v1.29h1.86v.64h-1.86V155h-2v.81h3.45v2.42H243v1h3.81v.64H243V161h3.61v.64H243v1.15h4.06Zm-4.77-5.88v-1.09H239.5v1.09Zm2-3.21v-.85H240.9v.85Zm1.41,3.21v-1.09H243v1.09Z" transform="translate(-1.84 -1.56)"/><path class="cls-29" d="M252.61,151.77a14.88,14.88,0,0,1-.68,1.56l-.47.94v9.51h-.72V155.5c-.44.67-.93,1.35-1.48,2l-.38-.75a18.66,18.66,0,0,0,3.05-5.22Zm3.14,8.43a15.29,15.29,0,0,1-3.06,3.7l-.56-.49a16,16,0,0,0,3-3.55Zm5.38-1.14h-9v-.71h2.38v-3.23h-2.17v-.72h2.17v-2.78h.75v2.78H258v-2.78h.77v2.78h2.05v.72h-2.05v3.23h2.38Zm-3.15-.71v-3.23H255.3v3.23Zm3.19,5.06-.6.43a21.87,21.87,0,0,0-3.19-3.6l.62-.42A19.55,19.55,0,0,1,261.17,163.41Z" transform="translate(-1.84 -1.56)"/><path class="cls-29" d="M275.45,158.73l-.31.68a12.55,12.55,0,0,1-5.94-2.23,16.38,16.38,0,0,1-5.66,2.18l-.5-.67a14.22,14.22,0,0,0,6.23-2.42l.59.18-.14-.41a6.52,6.52,0,0,0,1.73-2l.65.24a7.63,7.63,0,0,1-1.16,1.62c1.16-.1,2.11-.21,2.84-.33a3.55,3.55,0,0,0-.62-.77l.57-.41a10.66,10.66,0,0,1,1.48,2l-.61.4c-.08-.16-.21-.39-.4-.7-1.71.24-3.12.41-4.22.51l-.16.12A12.94,12.94,0,0,0,275.45,158.73Zm-6.69-2.63-.57.44a2.12,2.12,0,0,0-.26-.35c-1,.23-2.42.47-4.37.72l-.19-.6a9,9,0,0,0,2-2.12l.76.16a8.34,8.34,0,0,1-1.48,1.75c.77-.09,1.72-.24,2.85-.44a2.63,2.63,0,0,0-.58-.62l.55-.44A7.78,7.78,0,0,1,268.76,156.1Zm5.16,4.42q-3.09,2.94-8.86,3.36l-.46-.71a13.7,13.7,0,0,0,8.66-3Zm-3.78-2a11.93,11.93,0,0,1-5.06,2.07l-.44-.64a11.46,11.46,0,0,0,4.82-1.83Zm1.84,1a14.62,14.62,0,0,1-6.85,2.66l-.43-.68a12.66,12.66,0,0,0,6.62-2.39Zm1.1-6-.6.43a2,2,0,0,0-.53-.59q-2.32.36-5.94.6l-.16-.61a9.74,9.74,0,0,0,2.55-1.9l.86.17a9.23,9.23,0,0,1-1.87,1.58c1.52-.09,2.89-.22,4.1-.39a3.64,3.64,0,0,0-.67-.64l.52-.45A9.33,9.33,0,0,1,273.08,153.6Z" transform="translate(-1.84 -1.56)"/><path class="cls-29" d="M35.48,174.94H31.21a24.7,24.7,0,0,1-2.55,1.55H34.5v.72H28.7l-.46,1.68h6.25a8.42,8.42,0,0,1-.66,2.76,1.62,1.62,0,0,1-1,.83,13,13,0,0,1-2.58.16c-.52,0-1.06,0-1.61,0l-.31-.74c.94,0,1.78,0,2.5,0a9.09,9.09,0,0,0,1.87-.11,1,1,0,0,0,.58-.53,6,6,0,0,0,.42-1.66H27.26l.79-2.83c-1.82.83-3.28,1.44-4.36,1.82l-.42-.65a30,30,0,0,0,6.68-3H23.64v-.74h4.58v-1.84H24.63v-.71h3.59v-1.26H29v1.26h3.41v.71H29v1.84h2a18.7,18.7,0,0,0,3.54-3.38l.56.47a23.36,23.36,0,0,1-2.88,2.91h3.29Z" transform="translate(-1.84 -1.56)"/><path class="cls-29" d="M43.32,177.8a.79.79,0,0,1-.51-.68.69.69,0,0,1,.17-.41.59.59,0,0,1,.49-.21c.43,0,.65.29.65.86a1.78,1.78,0,0,1-.83,1.37L43,178.5A1.28,1.28,0,0,0,43.32,177.8Z" transform="translate(-1.84 -1.56)"/><path class="cls-29" d="M63.72,182.27H51.54v-.72h4.31v-7.92h-4v-.74H63.41v.74h-4v7.92h4.34ZM55,180l-.67.24a23.08,23.08,0,0,0-1.92-5.16l.64-.28A24.28,24.28,0,0,1,55,180Zm1.25-7.88-.65.47a7.93,7.93,0,0,0-1.7-1.85l.6-.43A8.69,8.69,0,0,1,56.2,172.16Zm2.42,9.39v-7.92h-2v7.92Zm2.83-10.84a8.25,8.25,0,0,1-1.85,1.93l-.6-.46a8.34,8.34,0,0,0,1.8-1.88Zm1.48,4.44a29.34,29.34,0,0,1-2,5.13l-.66-.28a28.84,28.84,0,0,0,2-5.1Z" transform="translate(-1.84 -1.56)"/><path class="cls-29" d="M70.8,175a22.08,22.08,0,0,1-.2,3.39,5.43,5.43,0,0,1-1.06,2.32,6.38,6.38,0,0,1-2.44,1.87l-.42-.62a5.91,5.91,0,0,0,2.08-1.54,4.42,4.42,0,0,0,1.09-2.11c-1.23.38-2.56.73-4,1l-.31-.73a36,36,0,0,0,4.4-1.14A12.16,12.16,0,0,0,70,176H66v-.7h4.12v-2.12H65.81v-.74h4.27v-2h.72Zm7,4.13H73.58v3.48h-.75V170.36h.75v2h4v.74h-4v2.29h3.66v.72H73.58v2.3H77.8Z" transform="translate(-1.84 -1.56)"/><path class="cls-29" d="M92,177.11H87.44v.75h3.41v4.76h-.7v-.5H81.7v.5H81v-4.76h3.59c0-.36,0-.61,0-.75H79.82v-.63H92Zm-5.56-5.88H82.84l.38.24a4,4,0,0,1-.22.37h2.87v.58H84.33c0,.16,0,.36-.1.61h1.9v.6H84.37a12,12,0,0,1,1.5,1l-.41.46A8.37,8.37,0,0,0,83.79,174a3.8,3.8,0,0,1-1.84,1.1l-.38-.54a3.29,3.29,0,0,0,1.69-.9H81.57V173h2a1.46,1.46,0,0,0,.13-.61H82.46c-.14.11-.3.23-.48.35l-.52-.4a3.91,3.91,0,0,0,1.15-1.14h-1.5V175a.32.32,0,0,0,.1.23.34.34,0,0,0,.23.1h4.41v.6H81.46a.91.91,0,0,1-1-1v-3.63H80v-.63h6.4Zm3.74,10.28v-1.64H87.77a1,1,0,0,1-.84-.29,1.29,1.29,0,0,1-.2-.74v-.35H85.1c-.31.91-1.23,1.52-2.75,1.84l-.35-.65a3.12,3.12,0,0,0,2.38-1.19H81.7v3ZM88.78,181H83v-.6h5.76Zm-2-3.09v-.75H85.31a5.14,5.14,0,0,1-.06.75Zm5.13-5.38H90.58c-.5,0-.75-.27-.75-.82v-.41h-2a2.37,2.37,0,0,1-1,1.49l-.56-.41a1.63,1.63,0,0,0,.85-1.69H90.5v1.05a.18.18,0,0,0,.2.19h1.16Zm-.09,3.2-.37.52a17.75,17.75,0,0,0-1.9-1,9.63,9.63,0,0,1-2.83,1l-.31-.57a10.32,10.32,0,0,0,2.38-.77,14.66,14.66,0,0,0-1.85-.77l.28-.38h-.6V173h4.74v.62a4.92,4.92,0,0,1-1.2,1.1C90.48,174.94,91,175.26,91.77,175.68Zm-1.62,3.57v-.76H87.44V179c0,.17.08.25.24.25Zm.21-5.6H87.59c1.08.46,1.69.71,1.83.78A4.94,4.94,0,0,0,90.36,173.65Z" transform="translate(-1.84 -1.56)"/><path class="cls-29" d="M106,180.3h-5.72v1.4a.76.76,0,0,1-.25.62.91.91,0,0,1-.62.22H97.76l-.24-.69.81,0a3.6,3.6,0,0,0,1.11-.09.34.34,0,0,0,.16-.33V180.3H93.85v-.66H99.6v-.56a23.7,23.7,0,0,0,2.27-.91H96.23v-.65h7.13v.65a30.13,30.13,0,0,1-3.07,1.35v.12H106Zm-.3-1.89H105v-1.76H94.87v1.76h-.71V176h.73l0-5a10.51,10.51,0,0,0,2.62-.67l.32.56a9.9,9.9,0,0,1-2.24.65v1h2.25v.64H95.55v1.08h2.22v.66H95.59V176h8.59v-1.12H102v-.66h2.23v-1.08H102v-.64h2.27l0-1h-2.42v-.64H105l-.13,5.15h.84Zm-4-3.21-.46.46c-.13-.13-.54-.47-1.23-1a10.25,10.25,0,0,1-1.69,1l-.35-.57a13.66,13.66,0,0,0,1.52-.84,6.89,6.89,0,0,0-.59-.45c-.24-.15-.41-.27-.52-.35l.42-.43,1.21.85a5.47,5.47,0,0,0,.91-.8l.53.36a9.28,9.28,0,0,1-.93.87C100.77,174.4,101.17,174.71,101.75,175.2Zm0-2.67-.46.41a9.82,9.82,0,0,0-1.19-1,10.36,10.36,0,0,1-1.6.9l-.31-.56a9.43,9.43,0,0,0,1.39-.76,8.17,8.17,0,0,0-1-.77l.46-.41c.56.41.92.67,1.07.8a6.4,6.4,0,0,0,1-.93l.53.28a6.88,6.88,0,0,1-1,1.06A10.29,10.29,0,0,1,101.71,172.53Z" transform="translate(-1.84 -1.56)"/><path class="cls-29" d="M112.09,176.41l-.5.56a12.43,12.43,0,0,0-1.19-1.66v7.29h-.7v-7a16.17,16.17,0,0,1-1.37,3.2l-.52-.53a15.49,15.49,0,0,0,1.82-4.8H108v-.64h1.73v-2.39h.7v2.39h1.2v.64h-1.2v.9A14.06,14.06,0,0,1,112.09,176.41Zm3.7,5-.46.51a11.9,11.9,0,0,0-1.59-1.33,9.48,9.48,0,0,1-1.8,2.16l-.52-.51a8.77,8.77,0,0,0,2.43-3.46l.65.27-.45.95A12.23,12.23,0,0,1,115.79,181.36Zm4.51-7.64-.4.62a12,12,0,0,1-3.9-2.9,14.51,14.51,0,0,1-3.84,3l-.53-.56a11.58,11.58,0,0,0,4.31-3.52l.69.25a1.54,1.54,0,0,1-.23.33A11.21,11.21,0,0,0,120.3,173.72Zm-4.88,4.72h-2.89v-3.33h2.89Zm-.7-.67v-2h-1.5v2Zm3.21-3.67H114v-.69h3.91Zm2.2,8-.47.49a14.19,14.19,0,0,0-2-1.82,8.92,8.92,0,0,1-1.42,1.87l-.59-.4a9.41,9.41,0,0,0,2.1-3.5l.65.22a9.71,9.71,0,0,1-.48,1.22A14.67,14.67,0,0,1,120.13,182.08Zm-.77-3.64h-2.89v-3.33h2.89Zm-.69-.67v-2h-1.51v2Z" transform="translate(-1.84 -1.56)"/><path class="cls-29" d="M123.06,178.3a19.7,19.7,0,0,1-.38,3.4l-.65-.15a18.2,18.2,0,0,0,.43-3.31Zm4-6.87h-1.58v1.34h1.31v.66h-1.31v1.31h1.31v.69h-1.31v1.39h1.31q0,1.17,0,1.89c0,1,0,1.78-.09,2.38a2.51,2.51,0,0,1-.3,1.16.87.87,0,0,1-.52.34,5.88,5.88,0,0,1-1.16.08l-.21-.72.84,0a.62.62,0,0,0,.61-.39,10.53,10.53,0,0,0,.18-2.72c0-.51,0-1,0-1.36h-3.44v-6.76h4.37ZM124,181.52l-.58.08c0-.43,0-.86,0-1.27,0-.73,0-1.39-.08-2l.53-.08q.12,2,.12,2.49C124.05,181,124,181.28,124,181.52Zm.78-8.76v-1.33h-1.36v1.33Zm0,2v-1.3h-1.36v1.3Zm0,2.08v-1.39h-1.36v1.39Zm.3,4.14-.56.08a14.85,14.85,0,0,0-.3-2.72l.52-.12A20,20,0,0,1,125.11,181Zm.87-.74-.48.11a20.79,20.79,0,0,0-.42-2.19l.45-.11A19.49,19.49,0,0,1,126,180.22Zm8.32-6.47-.36.6a9.7,9.7,0,0,1-3.39-3,12.48,12.48,0,0,1-3.18,2.92l-.43-.59a10.55,10.55,0,0,0,3.45-3.39l.71.22c0,.07-.07.15-.13.26A9.7,9.7,0,0,0,134.3,173.75Zm-3.89,7.57-.5.52a8.72,8.72,0,0,0-1-1.19,11.07,11.07,0,0,1-1.32,2l-.58-.39a9.75,9.75,0,0,0,1.85-3.44l.66.23c-.14.4-.25.72-.35,1A11.55,11.55,0,0,1,130.41,181.32Zm-.18-2.84h-2.67v-3.33h2.67Zm-.67-.66v-2h-1.35v2Zm2.83-3.65h-3.74v-.67h3.74Zm1.9,8-.52.48a10,10,0,0,0-1.7-1.77,10.91,10.91,0,0,1-1.28,1.86l-.58-.44a9.36,9.36,0,0,0,1.95-3.51l.69.24c-.14.39-.3.79-.49,1.2A12.47,12.47,0,0,1,134.29,182.14Zm-.63-3.66H131v-3.33h2.7Zm-.66-.66v-2h-1.38v2Z" transform="translate(-1.84 -1.56)"/><path class="cls-29" d="M148.38,182.08l-.43.64a18.65,18.65,0,0,1-3.63-2.18,14.51,14.51,0,0,1-4.63,2.16l-.48-.67a12.74,12.74,0,0,0,4.54-2,15.65,15.65,0,0,1-2.94-4.7h-.27a13.15,13.15,0,0,1-3.93,7.21l-.55-.57a14.2,14.2,0,0,0,3-4.22,20.84,20.84,0,0,0,1.17-6.31h-3.1v-.74h9.16c-.33,1-.79,2.35-1.37,3.89h2.58a11.35,11.35,0,0,1-2.62,5.45A16.11,16.11,0,0,0,148.38,182.08Zm-3.11-10.63H141q-.18,2.12-.3,3.15h3.48C144.63,173.38,145,172.33,145.27,171.45Zm1.32,3.89h-5a13.61,13.61,0,0,0,2.72,4.23A9.23,9.23,0,0,0,146.59,175.34Z" transform="translate(-1.84 -1.56)"/><path class="cls-29" d="M162.5,177.11H158v.75h3.41v4.76h-.7v-.5h-8.45v.5h-.72v-4.76h3.59c0-.36,0-.61,0-.75h-4.79v-.63H162.5Zm-5.56-5.88h-3.56l.37.24a4,4,0,0,1-.22.37h2.87v.58h-1.54c0,.16-.05.36-.1.61h1.9v.6H154.9a12,12,0,0,1,1.5,1l-.41.46a8.59,8.59,0,0,0-1.66-1.15,3.88,3.88,0,0,1-1.85,1.1l-.38-.54a3.29,3.29,0,0,0,1.69-.9H152.1V173h2a1.46,1.46,0,0,0,.13-.61H153c-.14.11-.3.23-.48.35l-.52-.4a3.91,3.91,0,0,0,1.15-1.14h-1.5V175a.32.32,0,0,0,.1.23.34.34,0,0,0,.23.1h4.41v.6H152a.91.91,0,0,1-1-1v-3.63h-.43v-.63h6.4Zm3.74,10.28v-1.64H158.3a1,1,0,0,1-.84-.29,1.29,1.29,0,0,1-.2-.74v-.35h-1.63c-.31.91-1.23,1.52-2.75,1.84l-.35-.65a3.12,3.12,0,0,0,2.38-1.19h-2.68v3Zm-1.37-.56h-5.76v-.6h5.76Zm-2.05-3.09v-.75h-1.42a5.14,5.14,0,0,1-.06.75Zm5.13-5.38h-1.28c-.5,0-.75-.27-.75-.82v-.41h-2a2.37,2.37,0,0,1-1,1.49l-.56-.41a1.63,1.63,0,0,0,.85-1.69H161v1.05a.18.18,0,0,0,.2.19h1.16Zm-.09,3.2-.37.52a17.75,17.75,0,0,0-1.9-1,9.63,9.63,0,0,1-2.83,1l-.31-.57a10.32,10.32,0,0,0,2.38-.77,14.66,14.66,0,0,0-1.85-.77l.28-.38h-.6V173h4.74v.62a4.92,4.92,0,0,1-1.2,1.1C161,174.94,161.56,175.26,162.3,175.68Zm-1.62,3.57v-.76H158V179c0,.17.08.25.24.25Zm.21-5.6h-2.77c1.08.46,1.69.71,1.83.78A4.94,4.94,0,0,0,160.89,173.65Z" transform="translate(-1.84 -1.56)"/><path class="cls-29" d="M176.59,172.18h-9.53v3.88a10.63,10.63,0,0,1-2.07,6.51l-.58-.52a9,9,0,0,0,1.89-4.9c-.92.66-1.46,1-1.64,1.14l-.36-.62a16.29,16.29,0,0,0,2.07-1.43v-4.75H171a7.35,7.35,0,0,0-.54-.91l.72-.26c.15.26.35.65.62,1.17h4.75Zm-10.72,2.75-.63.37a10.36,10.36,0,0,0-.91-2.43l.61-.36A14.94,14.94,0,0,1,165.87,174.93Zm4.22,5.63a9.82,9.82,0,0,1-2.53,1.71l-.53-.56a9,9,0,0,0,2.52-1.6Zm6.52-3.84-.38.65a14.52,14.52,0,0,1-1.31-.65v2.85h-2.7v2.05c0,.41-.12.67-.37.79a2.7,2.7,0,0,1-1.11.19h-.65l-.24-.72c.32,0,.61,0,.86,0a1.51,1.51,0,0,0,.68-.09.36.36,0,0,0,.14-.32v-1.94h-2.72v-2.85a13,13,0,0,1-1.12.67l-.45-.59a8.27,8.27,0,0,0,1.61-1,7,7,0,0,0-1.21-1l.51-.5a10.09,10.09,0,0,1,1.24,1,4.94,4.94,0,0,0,1.18-1.43H167.9v-.67h3c.11-.21.23-.48.36-.79l.76.12c-.07.16-.18.38-.33.67h4.57V174h-3.37a6.33,6.33,0,0,0,1.17,1.36,6.15,6.15,0,0,0,1.34-1.05l.52.52a7.85,7.85,0,0,1-1.28,1A6.73,6.73,0,0,0,176.61,176.72Zm-2.4.5v-.92h-4.69v.92Zm0,1.7v-1h-4.69v1Zm-.75-3.26a6.29,6.29,0,0,1-1.33-1.71h-.73a10.49,10.49,0,0,1-1.27,1.71Zm3,6.17-.49.55a15,15,0,0,0-2.68-1.62l.44-.53A12.38,12.38,0,0,1,176.47,181.83Z" transform="translate(-1.84 -1.56)"/><path class="cls-29" d="M181.39,174.71a5.26,5.26,0,0,1,1.17,3.23,1.62,1.62,0,0,1-.33,1,1.76,1.76,0,0,1-1.38.4l-.52,0-.28-.74.78,0a1.42,1.42,0,0,0,.84-.17.63.63,0,0,0,.19-.51,5.11,5.11,0,0,0-1.22-3.14c.3-.93.65-2.07,1.06-3.41h-2.06v11.21h-.71V170.7h3.53v.71C182.13,172.51,181.77,173.61,181.39,174.71Zm9.31,5.17a6.71,6.71,0,0,1-.16,1.66,1.2,1.2,0,0,1-.51.75,2.86,2.86,0,0,1-1.34.2c-.79,0-1.18-.29-1.18-.87v-4.3h-1.6a6.41,6.41,0,0,1-1,3.46,6.22,6.22,0,0,1-2.43,1.83L182,182a5.17,5.17,0,0,0,2.37-1.66,4.88,4.88,0,0,0,.81-3h-2.09v-.7h7.41v.7h-2.25v4.14a.35.35,0,0,0,.09.22c.07.07.27.1.62.1a2,2,0,0,0,.62-.06.53.53,0,0,0,.23-.17,2.07,2.07,0,0,0,.14-.68,9.4,9.4,0,0,0,.05-1.21Zm-.28-5.29h-.73v-2.08h-5.91v2.08h-.72v-2.82h3.24a7,7,0,0,0-.49-1.28l.75-.2a11.13,11.13,0,0,1,.53,1.48h3.33Zm-1.29.27h-4.76v-.69h4.76Z" transform="translate(-1.84 -1.56)"/><path class="cls-29" d="M198.38,171a14.92,14.92,0,0,1-4.16,1.08v1.66h3.67v4.08h-3.68a11.18,11.18,0,0,1-1.11,4.69l-.61-.43a10.28,10.28,0,0,0,1-4.73v-5.85a14.56,14.56,0,0,0,4.55-1.13Zm-1.2,6.11v-2.68h-3v2.68Zm7.63-1.63h-1.6v7.17h-.69V175.5H200a14.05,14.05,0,0,1-.48,4.27,13.13,13.13,0,0,1-1.49,2.9l-.58-.48a9.28,9.28,0,0,0,1.51-3,15.8,15.8,0,0,0,.32-3.52v-4.28a15.17,15.17,0,0,0,5-1l.38.63a15.92,15.92,0,0,1-4.63,1v2.79h4.8Z" transform="translate(-1.84 -1.56)"/><path class="cls-29" d="M211,172.51h-4.32v-.72h1.88a9.24,9.24,0,0,0-.56-1.29l.62-.24a7.44,7.44,0,0,1,.67,1.53H211Zm-.26,2H207v-.7h3.76Zm0,2H207v-.71h3.76Zm-.27,5.72h-.7v-.76H208v1.09h-.71v-4.7h3.25Zm-.7-1.46V178.6H208v2.19Zm2.77-2.71a13.67,13.67,0,0,1-1.07,3.4l-.64-.28a13.23,13.23,0,0,0,1-3.29Zm5.78-7.38q0,1.55-.18,3a11.91,11.91,0,0,1-.21,1.73,1.26,1.26,0,0,1-.32.49,1.44,1.44,0,0,1-.63.32,5.45,5.45,0,0,1-1.41.06l-.21-.75c.44,0,.77,0,1,0a1,1,0,0,0,.93-.4,16.24,16.24,0,0,0,.35-3.78h-1.89q-.27,4.26-4,5.42l-.42-.57a5.84,5.84,0,0,0,2.57-1.63,8,8,0,0,0-1.75-1.5l.47-.49a9.17,9.17,0,0,1,1.69,1.4,6,6,0,0,0,.7-2.63h-3.47v-.71ZM217,179.85a6,6,0,0,1-.28,1.9,1,1,0,0,1-.51.55,4,4,0,0,1-1.3.13,2.23,2.23,0,0,1-1.25-.25,1.12,1.12,0,0,1-.34-.94v-3.35h.7v3.42a.37.37,0,0,0,.18.32,2.48,2.48,0,0,0,1,.12q.63,0,.81-.24a5.47,5.47,0,0,0,.3-1.84Zm-.86-1.57-.51.48a12.29,12.29,0,0,0-1.6-1.89l.46-.5A9.34,9.34,0,0,1,216.12,178.28Zm2.76,2.72-.67.31a15.48,15.48,0,0,0-1.06-3.25l.6-.26A17.58,17.58,0,0,1,218.88,181Z" transform="translate(-1.84 -1.56)"/><path class="cls-29" d="M232.38,181.56a.86.86,0,0,1-.49.89,3.79,3.79,0,0,1-1,.13l-1.61,0-.3-.74c.25,0,1,0,2.3,0,.25,0,.38-.12.38-.36V171.41h-9.42v11.21h-.71V170.71h10.85Zm-1.9-7.71h-7v-.72h7Zm-.79,5.91h-5.48v-4.15h5.48Zm-.76-.75v-2.68h-4V179Z" transform="translate(-1.84 -1.56)"/><path class="cls-29" d="M247.19,181.67l-.28.75h-5.15a4,4,0,0,1-3.33-1.31,33,33,0,0,1-2.94,1.53L235,182a27.34,27.34,0,0,0,6.25-3.75,21.44,21.44,0,0,0,4.16-4.84h-9.72v-.78h5.35a7.92,7.92,0,0,0-1.09-2l.78-.29a11.66,11.66,0,0,1,1.14,2.26h4.45v.78a21.23,21.23,0,0,1-7.26,7.33,3.38,3.38,0,0,0,2.7.95Z" transform="translate(-1.84 -1.56)"/><path class="cls-29" d="M261.27,174.42l-.47.61a16.65,16.65,0,0,1-5.7-3.73,21,21,0,0,1-5.67,3.75l-.46-.63a17,17,0,0,0,6.11-4.18l.71.28a.75.75,0,0,1-.2.3A16.58,16.58,0,0,0,261.27,174.42Zm-1.76,8.24h-.74v-.93h-7.32v.93h-.76v-5.57h8.82Zm-.74-1.67v-3.15h-7.32V181Zm0-5.84h-7.25v-.74h7.25Z" transform="translate(-1.84 -1.56)"/><path class="cls-29" d="M267.56,176l-.52.51a7.06,7.06,0,0,0-1-1.45v7.57h-.71v-6.92a15.05,15.05,0,0,1-1.82,3.17l-.5-.62A13.86,13.86,0,0,0,265.3,174h-1.89v-.71h1.95v-2.87h.71v2.87h1.41V174h-1.41v.09A9.65,9.65,0,0,1,267.56,176Zm7.86.58-.45.64a18,18,0,0,1-3.46-1.75,15.32,15.32,0,0,1-3.63,1.73l-.41-.61a14.66,14.66,0,0,0,3.42-1.6,6.79,6.79,0,0,1-1.53-1.74,10.9,10.9,0,0,1-.93.73l-.6-.5a9.5,9.5,0,0,0,3.06-3.18l.72.22a4.88,4.88,0,0,1-.68,1h3.59v.69a11.84,11.84,0,0,1-2.36,2.81A13.89,13.89,0,0,0,275.42,176.53Zm-1.06,6.05h-.72V182h-4.31v.6h-.73v-5.13h5.76Zm-.72-1.31v-3.08h-4.31v3.08Zm0-9.09h-3.26a6.13,6.13,0,0,1-.49.53,6.06,6.06,0,0,0,1.62,1.82A8.64,8.64,0,0,0,273.64,172.18Z" transform="translate(-1.84 -1.56)"/><path class="cls-29" d="M24.79,198.11a11.79,11.79,0,0,1-.88,3.19l-.68-.36a10.23,10.23,0,0,0,.88-3Zm3.69-.9-.64.34a3.37,3.37,0,0,0-.29-.82,39.55,39.55,0,0,1-4,.79l-.2-.68A12.23,12.23,0,0,0,26.13,194c-1.09.12-1.92.19-2.5.23l-.14-.64A13.56,13.56,0,0,0,26,189.25l.65.28a15.06,15.06,0,0,1-2.09,3.83,18.06,18.06,0,0,0,2-.17,16.17,16.17,0,0,0,.84-1.48l.65.35a16.76,16.76,0,0,1-3.4,4.56,22.15,22.15,0,0,0,2.53-.53,3.91,3.91,0,0,0-.4-.79l.65-.3A11.42,11.42,0,0,1,28.48,197.21Zm-1.88,3.7-.78.11a16.26,16.26,0,0,0-.25-2.84l.67-.17A13.7,13.7,0,0,1,26.6,200.91Zm1.88-.6-.69.26a14.39,14.39,0,0,0-.69-2.41l.62-.27A10.3,10.3,0,0,1,28.48,200.31Zm7-8.49H32.22V194H35v.69H28.83V194h2.68v-2.14H28.44v-.67h3.07v-1.92h.71v1.92h3.22Zm-.82,9.59h-.71v-.8h-4v.8h-.72v-5.13h5.43Zm-.71-1.51V197h-4v2.93Z" transform="translate(-1.84 -1.56)"/><path class="cls-29" d="M49.64,200.25l-.35.63a12.14,12.14,0,0,1-2.91-1.65,12.74,12.74,0,0,1-2.48-2.33v4.52h-.73v-4.53a14.47,14.47,0,0,1-5.39,3.93l-.5-.64a13.56,13.56,0,0,0,5.15-3.5h-5V196h5.74v-1.35H38.74v-5.1h9.57v5.1H43.9V196h5.67v.7H44.64A12.15,12.15,0,0,0,49.64,200.25Zm-6.47-8.56v-1.44H39.46v1.44Zm0,2.23v-1.53H39.46v1.53Zm4.4-2.23v-1.44H43.9v1.44Zm0,2.23v-1.53H43.9v1.53Z" transform="translate(-1.84 -1.56)"/><path class="cls-29" d="M57.42,196.6a.78.78,0,0,1-.5-.68.63.63,0,0,1,.17-.41.57.57,0,0,1,.48-.21q.66,0,.66.87a1.83,1.83,0,0,1-.83,1.36l-.29-.23A1.25,1.25,0,0,0,57.42,196.6Z" transform="translate(-1.84 -1.56)"/><path class="cls-29" d="M72,192.15c-.31.07-.59.13-.87.17a12.15,12.15,0,0,1-1.34,5.84c.76.57,1.43,1.09,2,1.57l-.5.56a20.72,20.72,0,0,0-1.88-1.51,12.65,12.65,0,0,1-3.17,2.69l-.54-.57a10.86,10.86,0,0,0,3.1-2.54c-.73-.53-1.58-1.08-2.54-1.64a30.94,30.94,0,0,0,1-3.82c-.51.06-1,.11-1.47.14l0-.76c.5,0,1.06-.08,1.66-.15a23.07,23.07,0,0,0,.42-3h.75c-.1.91-.25,1.86-.43,2.86.77-.08,1.55-.19,2.35-.32a4.73,4.73,0,0,0,0-.58c0-.15,0-.36,0-.61h.71a8.67,8.67,0,0,1,0,1,5.9,5.9,0,0,0,.8-.15Zm-1.58.32c-.76.13-1.58.24-2.47.35-.34,1.67-.63,2.87-.86,3.58.58.33,1.28.78,2.1,1.32A11.74,11.74,0,0,0,70.41,192.47Zm6.87,8.41h-.76v-1.19H73.23v1.19h-.78V190.42h4.83Zm-.76-2v-7.76H73.23v7.76Z" transform="translate(-1.84 -1.56)"/><path class="cls-29" d="M91.94,191.51H85a15.83,15.83,0,0,1-1,1.57h6.88v7.3a.89.89,0,0,1-.39.84,4.52,4.52,0,0,1-1.84.23c-.36,0-.73,0-1.08,0l-.35-.73c.42,0,.88.06,1.36.06a5.18,5.18,0,0,0,1.36-.1.36.36,0,0,0,.22-.36v-1.83H83.25a6,6,0,0,1-1.55,3.06l-.7-.41q1.74-1.54,1.74-5.43c0-.27,0-.62,0-1a17.52,17.52,0,0,1-2.52,2.13l-.56-.55a14.39,14.39,0,0,0,4.51-4.7H79.76v-.73h4.81a18.22,18.22,0,0,0,.81-1.65l.75.21c-.27.6-.5,1.08-.71,1.44h6.52Zm-1.8,6.26v-1.68H83.43a14.61,14.61,0,0,1-.07,1.68Zm0-2.41v-1.59H83.47v1.59Z" transform="translate(-1.84 -1.56)"/><path class="cls-29" d="M99.94,197.42H97.52a5.06,5.06,0,0,1-.19.7,17.11,17.11,0,0,1,1.85,1.7l-.48.53a10.77,10.77,0,0,0-1.65-1.53,6.48,6.48,0,0,1-2.69,2.62l-.53-.53a5,5,0,0,0,2.92-3.49H94v-.67h2.88c.05-.36.08-.89.1-1.6H95.48a10.52,10.52,0,0,1-.94,1.19l-.57-.41a8,8,0,0,0,1.61-2.5l.64.28a7.16,7.16,0,0,1-.34.75h3.53v.69H97.65a14.85,14.85,0,0,1-.07,1.6h2.36Zm-.33-4.27H95.55a.93.93,0,0,1-.68-.27.9.9,0,0,1-.27-.64v-3.05h.72v1.14h3.94v.7H95.32v1.17c0,.2.11.29.34.29h4Zm6.52,7.27-.19.77a8.35,8.35,0,0,1-3.23-.47,3.68,3.68,0,0,1-1.69-1.65,7.61,7.61,0,0,1-1.49,2.39L99,201a6.49,6.49,0,0,0,1.5-2.63,12,12,0,0,0,.28-2.8h.69a13.62,13.62,0,0,1-.22,2.51,3.48,3.48,0,0,0,1.38,1.82v-5.67H99.9v-.69h3.46a13.61,13.61,0,0,0-2.47-1.9l.48-.52c.45.29.91.62,1.39,1a9.18,9.18,0,0,0,2-1.89h-4.39v-.69h5.24v.69a10,10,0,0,1-2.25,2.33l.66.59-.35.4h2.17v.69a13.3,13.3,0,0,1-.78,1.7l-.64-.31a7.08,7.08,0,0,0,.65-1.39h-1.64v2.45h2.07v.69h-2.07v2.86a4.72,4.72,0,0,0,1.91.25C105.6,200.44,105.88,200.44,106.13,200.42Z" transform="translate(-1.84 -1.56)"/><path class="cls-29" d="M119.94,191.11a13,13,0,0,1-.92,2.21l-.67-.22a9.38,9.38,0,0,0,.59-1.34h-5.21v.84l3.86-.19.06.62-3.92.2v.31c0,.21.13.31.39.31h4.43v.63h-4.64a.78.78,0,0,1-.88-.87v-.32l-2.27.09-.05-.62,2.32-.12v-.88H110v2.42a14,14,0,0,1-1.48,7.09l-.59-.4a13.65,13.65,0,0,0,1.35-6.69v-3.07h4v-1.92H114v.57h5.32v.65H114v.7Zm-8.17,8.12a8.43,8.43,0,0,1-1.23,2l-.59-.38a10.54,10.54,0,0,0,1.2-1.9Zm7.39-.83H111.1v-3.3h8.06Zm-4.36-2v-.65h-3v.65Zm0,1.35v-.71h-3v.71ZM118,200a1.6,1.6,0,0,1-.5,1.09,1.88,1.88,0,0,1-1.19.32l-2.63,0c-.63,0-.94-.32-.94-1v-1.53h.73v1.44c0,.2.06.32.17.36a3.74,3.74,0,0,0,1,.07,19.37,19.37,0,0,0,2.14-.07c.35,0,.54-.36.59-1Zm-1.79-.52-.42.57a9.51,9.51,0,0,0-1.52-.87l.4-.54A7.21,7.21,0,0,1,116.18,199.51Zm2.29-3.1v-.65h-3v.65Zm0,1.35v-.71h-3v.71Zm1.67,2.9-.57.39a11.25,11.25,0,0,0-1.4-1.79l.58-.4A10.13,10.13,0,0,1,120.14,200.66Z" transform="translate(-1.84 -1.56)"/><path class="cls-29" d="M126.27,191.28H122v-.69h2.08a8,8,0,0,0-.63-1.23l.64-.3a12.92,12.92,0,0,1,.74,1.53h1.41Zm-.17,2h-3.74v-.72h3.74Zm0,2.1h-3.74v-.73h3.74Zm-.21,5.68h-.71v-.75h-1.94v1.1h-.7v-4.62h3.35Zm-.71-1.46v-2.12h-1.94v2.12Zm9-5.38h-7.62v-.65h3.5v-1h-2.9v-.64h2.9v-1h-3.19v-.65h3.19v-1.1h.71v1.1h3.13v.65h-3.13v1h2.8v.64h-2.8v1h3.41Zm-.86,6.09a1.1,1.1,0,0,1-.32.83,3.76,3.76,0,0,1-2.13.25l-.25-.71h1.55a.41.41,0,0,0,.28-.12.36.36,0,0,0,.14-.27v-1.14h-4.52a6.4,6.4,0,0,1-1,2.32l-.53-.48a6.18,6.18,0,0,0,1-3.7V195.1h5.81Zm-.73-1.83v-1.06h-4.41a6.32,6.32,0,0,1,0,1.06Zm0-1.7v-1h-4.4v1Z" transform="translate(-1.84 -1.56)"/><path class="cls-29" d="M143.65,194.62,143,195a14.22,14.22,0,0,0-.76-1.41l-1.92.31v2.19h2.72v.72h-2.72v2.87c1.09-.16,2.13-.34,3.11-.56v.73c-2.4.49-4.81.88-7.24,1.15l-.17-.72c1.58-.19,2.78-.35,3.58-.46v-3h-3.19v-.72h3.19V194q-1.69.21-3.15.27l-.12-.6a8.94,8.94,0,0,0,2.71-3.44h-2.81v-.74h7.18v.74H140a15.86,15.86,0,0,1-2.25,3.25,39.34,39.34,0,0,0,4.17-.55c-.25-.39-.57-.84-.95-1.35l.63-.37A17.91,17.91,0,0,1,143.65,194.62Zm1.54,4.16h-.74V190.1h.74Zm2.8,1.32c0,.83-.4,1.24-1.19,1.24h-1.89l-.3-.74c.7,0,1.38,0,2,0q.6,0,.6-.63V189.12H148Z" transform="translate(-1.84 -1.56)"/><path class="cls-29" d="M162.53,200.87l-.5.63a13.1,13.1,0,0,1-3.61-3.34,13.3,13.3,0,0,1-2-4.7,11.7,11.7,0,0,1-5.72,8l-.48-.64a14.78,14.78,0,0,0,2.39-1.89,11.65,11.65,0,0,0,1.9-2.32,10.24,10.24,0,0,0,1.16-3.35h-5.2v-.73h5.33a28,28,0,0,0,.24-3.4h.8c0,1.22-.13,2.36-.26,3.4h5.73v.73h-5.19a12.77,12.77,0,0,0,2.08,4.7A12,12,0,0,0,162.53,200.87Z" transform="translate(-1.84 -1.56)"/><path class="cls-29" d="M176.54,199.1h-5.72v1.4a.76.76,0,0,1-.25.62.9.9,0,0,1-.61.22h-1.67l-.24-.69.81,0a4.13,4.13,0,0,0,1.11-.08.36.36,0,0,0,.16-.34V199.1h-5.75v-.66h5.75v-.56a23.7,23.7,0,0,0,2.27-.91h-5.64v-.65h7.13V197a32.52,32.52,0,0,1-3.07,1.35v.12h5.72Zm-.3-1.89h-.73v-1.76H165.4v1.76h-.71v-2.42h.73l0-5a10.51,10.51,0,0,0,2.62-.67l.32.56a9.9,9.9,0,0,1-2.24.65v1h2.25v.64h-2.24V193h2.22v.66h-2.19v1.12h8.59v-1.12h-2.21V193h2.23v-1.08h-2.24v-.64h2.27l0-1H172.4v-.64h3.13l-.13,5.15h.84Zm-4-3.2-.46.45c-.13-.13-.54-.47-1.23-1a10.25,10.25,0,0,1-1.69,1l-.35-.57a13.66,13.66,0,0,0,1.52-.84,6.89,6.89,0,0,0-.59-.45c-.24-.15-.41-.27-.52-.35l.42-.43,1.21.85a4.92,4.92,0,0,0,.91-.81l.53.37a8.53,8.53,0,0,1-.93.86C171.3,193.2,171.7,193.51,172.28,194Zm0-2.68-.46.41a9.82,9.82,0,0,0-1.19-1,11.26,11.26,0,0,1-1.6.9l-.31-.56a9.43,9.43,0,0,0,1.39-.76,8.17,8.17,0,0,0-1-.77l.46-.41c.56.41.92.67,1.07.8a6.4,6.4,0,0,0,1-.94l.53.29a6.88,6.88,0,0,1-1,1.06A10.29,10.29,0,0,1,172.24,191.33Z" transform="translate(-1.84 -1.56)"/><path class="cls-29" d="M182.4,200.29h-.7v-.8h-1.95v1.15h-.7V189.81h3.35Zm-.7-7.6v-2.18h-1.95v2.18Zm0,3v-2.27h-1.95v2.27Zm0,3.13v-2.44h-1.95v2.44Zm8-3.81h-5.13v5.53a25.87,25.87,0,0,0,2.46-.91l.12.69a30.77,30.77,0,0,1-3.21,1.16l-.33-.65a.52.52,0,0,0,.28-.43V189.55h5.81Zm-.71-3.05v-1.71h-4.42v1.71Zm0,2.36v-1.7h-4.42v1.7Zm1.63,6.68-.53.57a9.22,9.22,0,0,1-3.74-5.58l.68-.21a8.21,8.21,0,0,0,.68,1.89,11.84,11.84,0,0,0,2.08-1.79l.59.41a15.67,15.67,0,0,1-2.34,2A8.62,8.62,0,0,0,190.63,201Z" transform="translate(-1.84 -1.56)"/><path class="cls-29" d="M198.22,189.66a12.94,12.94,0,0,1-2.18.72v2.24h2.07v.72H196v.71a15.93,15.93,0,0,1,2.07,2.4l-.52.59a12.68,12.68,0,0,0-1.55-2v6.34h-.71v-6.56a20.23,20.23,0,0,1-2.27,3.53l-.5-.62a15,15,0,0,0,2.7-4.39h-2.65v-.72h2.72v-2.05c-.39.09-1.07.21-2,.37l-.4-.7a17.81,17.81,0,0,0,4.84-1.16Zm6.65,8-1.42.22v3.51h-.74V198l-4.61.69L198,198l4.67-.72v-8.09h.74v8l1.4-.18Zm-3.33-1.81-.5.56a12,12,0,0,0-2.58-2.46l.47-.56A11.94,11.94,0,0,1,201.54,195.85Zm.33-3.77-.45.63a13.49,13.49,0,0,0-2.51-2.18l.42-.56A13.41,13.41,0,0,1,201.87,192.08Z" transform="translate(-1.84 -1.56)"/><path class="cls-29" d="M210.16,189.29c-.18.5-.42,1.12-.74,1.87l-.49,1.08v9.18h-.7v-7.81a22.23,22.23,0,0,1-1.18,1.89l-.44-.71a22.52,22.52,0,0,0,2.88-5.73Zm4,2.64v.69h-1.8v2.81h1.41v4.47h-3.51v-4.47h1.39v-2.81h-2v-.69h2v-2.77h.71v2.77Zm-1.11,7.28v-3.09H211v3.09Zm5.92,1.61-.48.57a12.06,12.06,0,0,1-2-2.29,10.66,10.66,0,0,1-2.44,2.34l-.57-.53a8.69,8.69,0,0,0,2.61-2.51,13.52,13.52,0,0,1-1-3.77l.67-.26a11.71,11.71,0,0,0,.79,3.24,9.54,9.54,0,0,0,.8-4.36c0-.33,0-.69,0-1.08h-1.67a12,12,0,0,1-1.45,2.9l-.56-.41a16.3,16.3,0,0,0,2.12-5.53l.69.19a17.33,17.33,0,0,1-.58,2.16h3.06v.69H218a12.48,12.48,0,0,1-1.08,6.26A9.79,9.79,0,0,0,219,200.82Z" transform="translate(-1.84 -1.56)"/><path class="cls-29" d="M233,196.34h-4.61v3.81a.26.26,0,0,0,.16.26,6.67,6.67,0,0,0,1.6.09,6.09,6.09,0,0,0,1.53-.1c.17-.07.27-.76.31-2.07l.75.28a3.83,3.83,0,0,1-.43,2.22,3.14,3.14,0,0,1-2,.41,11.48,11.48,0,0,1-2.06-.09.85.85,0,0,1-.41-.35,1.18,1.18,0,0,1-.16-.65v-3.81h-2.27c0,2.69-1.37,4.38-4.13,5.08l-.5-.65c2.65-.59,3.93-2.06,3.83-4.43h-3.81v-.71H233Zm-.51-2.46h-.76v-2.49h-9.68v2.49h-.78v-3.22h5.19c-.36-.73-.6-1.19-.7-1.37l.77-.26a12.67,12.67,0,0,1,.8,1.63h5.16Zm-1.75-.29h-7.71v-.69h7.71Z" transform="translate(-1.84 -1.56)"/><path class="cls-29" d="M241.48,190.68H238.7v.89H241v2.33H238.7v.29a12.86,12.86,0,0,1,2.05,1.05l-.3.62a16.68,16.68,0,0,0-1.75-1v1.43H238v-1.71a13,13,0,0,1-2.63,1.76l-.48-.58a10.71,10.71,0,0,0,2.89-1.9h-2.18v-2.33H238v-.89h-3V190h3v-.75h.69V190h2.78Zm5.63,10.54H234.93v-.67h2.45v-2.2h.7v2.2h2.66v-3h-5.48v-.66h11.57v.66h-5.35v1.08h4.83v.63h-4.83v1.24h5.63Zm-9.1-8v-1h-1.68v1Zm2.27,0v-1H238.7v1Zm6.9,2.48-.38.66a7.07,7.07,0,0,1-2.47-1.26,13,13,0,0,1-2.7,1.28l-.49-.6a9.91,9.91,0,0,0,2.7-1.2,5.78,5.78,0,0,1-1-1.61l.63-.31a4.72,4.72,0,0,0,.9,1.47,4.31,4.31,0,0,0,1.23-2.69h-2.26a7.88,7.88,0,0,1-1.59,1.9l-.51-.47a7.77,7.77,0,0,0,2.4-3.68l.62.26a5.57,5.57,0,0,1-.54,1.32h3.31v.67h-.75a5,5,0,0,1-1.43,3.18A6.17,6.17,0,0,0,247.18,195.7Z" transform="translate(-1.84 -1.56)"/><path class="cls-29" d="M253.84,191.39H249v-.73h2.16a6,6,0,0,0-.56-1.25l.7-.28a8.47,8.47,0,0,1,.62,1.53h1.93Zm-.36,2h-4.09v-.7h4.09Zm0,2h-4.09v-.69h4.09Zm-.27,5.73h-.76v-.74h-2.12v1h-.74v-4.65h3.62Zm-.76-1.45v-2.2h-2.12v2.2Zm8.75-1.28h-3.33v3h-.73v-3h-3.3v-.7h3.3v-2.17h-2.68v-.7h2.68V192.8h-3v-.7h6.75v.7h-3v2.06h2.72v.7h-2.72v2.17h3.33Zm-4.59-7.19-.69.32a8.07,8.07,0,0,0-1.14-2l.63-.41A10,10,0,0,1,256.61,191.24Zm3.68-1.79a11.15,11.15,0,0,1-1.4,2.05l-.68-.38a9.3,9.3,0,0,0,1.43-2Z" transform="translate(-1.84 -1.56)"/><path class="cls-29" d="M264.73,198.16a16.91,16.91,0,0,1-1,3.23l-.7-.26A14.18,14.18,0,0,0,264,198Zm3.75-6.81a37.32,37.32,0,0,1-3.87,5.25c.52-.09,1.41-.29,2.69-.59-.11-.3-.22-.57-.34-.82l.62-.26a8.75,8.75,0,0,1,.84,2.27l-.64.25c0-.06-.09-.34-.24-.85a37.34,37.34,0,0,1-3.93.88l-.22-.62a21.5,21.5,0,0,0,2.82-3.39,20.62,20.62,0,0,1-2.44.48l-.21-.63a17.08,17.08,0,0,0,2.45-4.15l.72.23a27.5,27.5,0,0,1-2.15,3.71,17.68,17.68,0,0,0,2.16-.4c.31-.45.67-1,1.08-1.67Zm-2,9.64-.72.1a15.42,15.42,0,0,0-.26-3l.65-.11A13.54,13.54,0,0,1,266.44,201Zm1.92-.45-.68.2a12.55,12.55,0,0,0-.59-2.69l.67-.18A15,15,0,0,1,268.36,200.54Zm6.6.87h-.69v-.92h-4.52v.93H269V189.51H275Zm-3.31-7v-4.19h-1.9v4.19Zm0,5.37v-4.65h-1.9v4.65Zm2.62-5.37v-4.19h-1.89v4.19Zm0,5.37v-4.65h-1.89v4.65Z" transform="translate(-1.84 -1.56)"/><path class="cls-29" d="M28.17,219.94h-.7v-1.2h-3v1.48h-.71V210.3H25a13.19,13.19,0,0,0,1-2.41l.7.14c-.17.5-.48,1.25-.95,2.27h2.39Zm-.7-5.93v-3h-3v3Zm0,4v-3.32h-3V218Zm7.71-7.72q-.07,3.15-.3,5.85a14.54,14.54,0,0,1-.45,3.17,1.42,1.42,0,0,1-.58.68,2.87,2.87,0,0,1-1.33.21l-1.13,0-.23-.71c.39,0,.8,0,1.24,0s.68,0,.8,0a.69.69,0,0,0,.36-.17,1,1,0,0,0,.28-.38,13.31,13.31,0,0,0,.22-1.61c.09-.93.16-2,.22-3.07s.1-2.21.13-3.26H30.76a20.1,20.1,0,0,1-1.69,2.77l-.58-.4A15,15,0,0,0,31.1,208l.71.18c-.23.75-.49,1.46-.77,2.14Zm-2.57,6.28L32,217a14.94,14.94,0,0,0-2-3.26l.6-.39A13.79,13.79,0,0,1,32.61,216.59Z" transform="translate(-1.84 -1.56)"/><path class="cls-29" d="M41.17,214l-.5.56a10.85,10.85,0,0,0-1.19-1.65v7.27h-.7v-7a15.37,15.37,0,0,1-1.37,3.2l-.52-.53a15.49,15.49,0,0,0,1.82-4.8H37.06v-.64h1.72V208h.7v2.39h1.21V211H39.48v.9A14.06,14.06,0,0,1,41.17,214Zm3.7,5-.46.51a12.79,12.79,0,0,0-1.58-1.33A9.48,9.48,0,0,1,41,220.3l-.52-.51a8.89,8.89,0,0,0,2.44-3.46l.65.27-.46,1A12.23,12.23,0,0,1,44.87,219Zm4.51-7.64-.39.62a12.06,12.06,0,0,1-3.91-2.9,14.63,14.63,0,0,1-3.83,3l-.54-.57A11.52,11.52,0,0,0,45,207.93l.68.26a2.33,2.33,0,0,1-.22.32A11.06,11.06,0,0,0,49.38,211.32ZM44.51,216h-2.9v-3.33h2.9Zm-.71-.67v-2H42.31v2ZM47,211.7h-3.9V211H47Zm2.2,8-.46.49a14.2,14.2,0,0,0-2-1.82,9,9,0,0,1-1.41,1.87l-.59-.4a9.41,9.41,0,0,0,2.1-3.5l.64.22a9.71,9.71,0,0,1-.48,1.22A14.19,14.19,0,0,1,49.21,219.68ZM48.44,216H45.55v-3.33h2.89Zm-.69-.67v-2H46.24v2Z" transform="translate(-1.84 -1.56)"/><path class="cls-29" d="M63,212.79l-.43.65a27.44,27.44,0,0,0-5.36-2.37v2h4.15V218h-9v-4.91h4.12v-2.74a16.56,16.56,0,0,1-5.38,3.13l-.49-.65A14.51,14.51,0,0,0,55.93,210H50.79v-.69h5.72v-1.34h.71v1.34h5.71V210H57.22v.39A31,31,0,0,1,63,212.79Zm0,7.11H50.76v-.7H63Zm-2.38-4.74v-1.38h-7.5v1.38Zm0,2.11v-1.4h-7.5v1.4Z" transform="translate(-1.84 -1.56)"/><path class="cls-29" d="M70.58,212.73a1.4,1.4,0,0,1,1,.4,1.39,1.39,0,0,1,.41,1,1.36,1.36,0,0,1-.38,1,1.27,1.27,0,0,1-1,.4,1.44,1.44,0,0,1-1-.36,1.31,1.31,0,0,1-.42-1.07,1.24,1.24,0,0,1,.43-1A1.36,1.36,0,0,1,70.58,212.73Zm.85,1.42a.73.73,0,0,0-.25-.58.83.83,0,0,0-.59-.22.75.75,0,0,0-.57.24.76.76,0,0,0-.23.56.87.87,0,0,0,.22.57.71.71,0,0,0,.59.27.82.82,0,0,0,.83-.84Z" transform="translate(-1.84 -1.56)"/></svg>