<svg id="圖層_1" data-name="圖層 1" xmlns="http://www.w3.org/2000/svg" xmlns:xlink="http://www.w3.org/1999/xlink" viewBox="0 0 300.43 292.53"><defs><style>.cls-1,.cls-13{fill:none;}.cls-2{fill:#d8eef6;}.cls-3{clip-path:url(#clip-path);}.cls-19,.cls-4{fill:#f3a782;}.cls-11,.cls-12,.cls-14,.cls-15,.cls-16,.cls-17,.cls-18,.cls-20,.cls-21,.cls-22,.cls-23,.cls-24,.cls-4,.cls-5,.cls-6,.cls-7,.cls-8,.cls-9{fill-rule:evenodd;}.cls-5{fill:#ef8b70;}.cls-6{fill:#250505;}.cls-7{fill:#1d0305;}.cls-8{fill:#b36135;}.cls-9{fill:#6a1817;}.cls-10,.cls-16{fill:#fff;}.cls-11{fill:#eeebec;}.cls-12{fill:#cfcbcb;}.cls-13{stroke:#040000;stroke-linecap:round;stroke-linejoin:round;stroke-width:0.32px;}.cls-14{fill:#eb685c;}.cls-15{fill:#e8433e;}.cls-17{fill:#dad3d5;}.cls-18{fill:#ec7861;}.cls-20{fill:#3f211d;}.cls-21{fill:#543331;}.cls-22{fill:#36130d;}.cls-23{fill:#530b0e;}.cls-24{fill:#cb5e4b;}.cls-25{fill:#71c6d4;}.cls-26{isolation:isolate;}.cls-27{fill:#00a199;}.cls-28{fill:#717070;}</style><clipPath id="clip-path" transform="translate(-7.43 -0.99)"><path class="cls-1" d="M301,129.92a80.83,80.83,0,1,0-145,0Z"/></clipPath></defs><title>colorResult03</title><path class="cls-2" d="M268.32,129.92a76.85,76.85,0,1,0-137.84,0Z" transform="translate(-7.43 -0.99)"/><g class="cls-3"><path class="cls-4" d="M252.36,114.57s2.89,5.54,3.37,8.31S253,142.63,245,147s1.2,3.5,1.2,3.5,8.31-3.13,14.33-17-2.05-25.88-2.05-25.88Z" transform="translate(-7.43 -0.99)"/><path class="cls-5" d="M252.36,114.57s2.89,5.54,3.37,8.31S253,142.63,245,147s1.2,3.5,1.2,3.5a20.47,20.47,0,0,0,6.56-4.89c-1.06-.88-.91-3,.91-6.25,3.37-6,3.73-14.63,4-19.92a8.7,8.7,0,0,1,3.38-6.46,26.34,26.34,0,0,0-2.54-5.34Z" transform="translate(-7.43 -0.99)"/><path class="cls-4" d="M203.32,114.57s-2.89,5.54-3.37,8.31,2.74,19.75,10.72,24.07-1.21,3.5-1.21,3.5-8.3-3.13-14.32-17,2-25.88,2-25.88Z" transform="translate(-7.43 -0.99)"/><path class="cls-5" d="M203.32,114.57s-2.89,5.54-3.37,8.31,2.74,19.75,10.72,24.07-1.21,3.5-1.21,3.5a20.38,20.38,0,0,1-6.55-4.89c1.06-.88.91-3-.91-6.25-3.37-6-3.73-14.63-4-19.92a8.7,8.7,0,0,0-3.38-6.46,26,26,0,0,1,2.53-5.34Z" transform="translate(-7.43 -0.99)"/><path class="cls-6" d="M231.71,189.57c3,10.31,3,33.28,3.92,45.67,1.45,19,4.11,48.1,3.91,49.64s5.94,3.08,7.17.61a3,3,0,0,0,.17-1.68c-.09-1.31,1.23-120.91-.34-124.16-.81-1.67-9.95-2.9-19.12-2.59-9.17-.31-18.31.92-19.12,2.59-1.57,3.25.69,123,.6,124.28a3.08,3.08,0,0,0,.17,1.68c1.23,2.46,6.42.81,6.23-.73s2.46-30.62,3.91-49.64c.95-12.39,2.23-35.29,4.58-45.78C225.9,180.08,230.05,184,231.71,189.57Z" transform="translate(-7.43 -0.99)"/><path class="cls-7" d="M227.42,172.84c8.83,3,14.53,11.5,15.44,23.86,1.12,15.23,2.48,74.76,1.79,80.71s-4.35,5.44-5.53.43c.31,4,.48,6.61.42,7-.19,1.54,5.94,3.08,7.17.61a3,3,0,0,0,.17-1.68c-.09-1.31,1.23-120.91-.34-124.16-.71-1.48-8-2.61-16-2.63h-3.09c-9.17-.31-18.31.92-19.12,2.59-.37.76-.45,7.65-.55,18.18,3.11-7.07,19.67-5,19.67-5ZM208.89,280.06c6.93-.82,3.73-4.9,5-18.57s5.42-73.87,7.85-77c1.87-2.37,4.93-1.25,6.25-.59-1.53-.58-3.14.75-4.21,5.53-2.35,10.49-3.63,33.39-4.58,45.78-1.45,19-4.11,48.1-3.91,49.64s-5,3.19-6.23.73a7.64,7.64,0,0,1-.17-1.68c0-.73,0-1.52,0-3.87Zm19.75-95.79h0Z" transform="translate(-7.43 -0.99)"/><path class="cls-8" d="M207.39,157.37s-.63,3.28-.08,4.3,5.7,4.6,20.14,4.6,19.59-3.58,20.14-4.6-.09-4.3-.09-4.3l-20.05,4.45Z" transform="translate(-7.43 -0.99)"/><path class="cls-9" d="M209.79,159.76s-.42,3.55-.06,4a1.18,1.18,0,0,0,1.06.36s-.07-3.94.27-4.18S209.79,159.76,209.79,159.76Z" transform="translate(-7.43 -0.99)"/><path class="cls-9" d="M216.44,161.53s-.42,3.55-.06,4a1.18,1.18,0,0,0,1.06.36s-.06-4,.27-4.19S216.44,161.53,216.44,161.53Z" transform="translate(-7.43 -0.99)"/><path class="cls-9" d="M245.11,159.76s.42,3.55.06,4a1.18,1.18,0,0,1-1.06.36s.06-3.94-.27-4.18S245.11,159.76,245.11,159.76Z" transform="translate(-7.43 -0.99)"/><path class="cls-9" d="M238.46,161.53s.41,3.55,0,4a1.16,1.16,0,0,1-1,.36s.06-4-.27-4.19S238.46,161.53,238.46,161.53Z" transform="translate(-7.43 -0.99)"/><path class="cls-10" d="M216.24,160.68h7.56a.84.84,0,0,1,.84.84v3.88a.85.85,0,0,1-.85.85h-7.56a.85.85,0,0,1-.85-.85v-3.87A.85.85,0,0,1,216.24,160.68Z"/><path class="cls-11" d="M216.39,86.39l-6.68-6.53S202,84.46,194,108.42l-.41,1.25h0a1.5,1.5,0,0,0,.45,1.72c.87.57,6.32,3.4,7.8,5.75,0,0,.66.76,1.59-.18h0c2.54-4.71,4.71-9.06,5.88-12C213.38,94.94,216.39,86.39,216.39,86.39Z" transform="translate(-7.43 -0.99)"/><path class="cls-12" d="M216.39,86.39l-6.68-6.53S206,82,201.16,91.18c1.37,5.72,3.14,14.81,1.83,19-.9,2.91-3.26,3.49-5.56,3.24a15.32,15.32,0,0,1,4.39,3.71s.66.76,1.59-.18h0c2.54-4.71,4.71-9.06,5.88-12C213.38,94.94,216.39,86.39,216.39,86.39Z" transform="translate(-7.43 -0.99)"/><line class="cls-13" x1="220.09" y1="70.39" x2="220.09" y2="82.46"/><path class="cls-11" d="M238.66,86.39l6.69-6.53s7.75,4.6,15.7,28.56l.42,1.25h0a1.5,1.5,0,0,1-.45,1.72c-.87.57-6.32,3.4-7.79,5.75,0,0-.67.76-1.6-.18h0c-2.54-4.71-4.71-9.06-5.88-12C241.67,94.94,238.66,86.39,238.66,86.39Z" transform="translate(-7.43 -0.99)"/><path class="cls-12" d="M238.66,86.39l6.69-6.53S249,82,253.89,91.18c-1.37,5.72-3.14,14.81-1.83,19,.9,2.91,3.26,3.49,5.57,3.24a15.05,15.05,0,0,0-4.39,3.71s-.67.76-1.6-.18h0c-2.54-4.71-4.71-9.06-5.88-12C241.67,94.94,238.66,86.39,238.66,86.39Z" transform="translate(-7.43 -0.99)"/><path class="cls-14" d="M240.2,284.9s2.67-3.08,5.93-.63a4.74,4.74,0,0,1,2.45,2.23c.67,1.56,1.93,2.26,2.15,4s-.29,3-2.63,3h-3.79c-1.67,0-4.15.26-5-1.82s0-4-.3-5S240.2,284.9,240.2,284.9Z" transform="translate(-7.43 -0.99)"/><path class="cls-15" d="M240.2,284.9s2.67-3.08,5.93-.63a4.74,4.74,0,0,1,2.45,2.23c.67,1.56,1.93,2.26,2.15,4s-.29,3-2.63,3H246c3.33-2.73.46-8.06-2.2-8.52-1.78-.31-3.64.72-4.82,1.57C238.79,285.53,240.2,284.9,240.2,284.9Z" transform="translate(-7.43 -0.99)"/><path class="cls-16" d="M250.77,290.79c.11,1.55-.48,2.72-2.67,2.72h-3.79c-1.67,0-4.15.26-5-1.82a4.83,4.83,0,0,1-.35-1.38s1,1.34,4.19,1.54S250.21,292.1,250.77,290.79Z" transform="translate(-7.43 -0.99)"/><path class="cls-17" d="M250.77,290.79c.11,1.55-.48,2.72-2.67,2.72H246a4,4,0,0,0,1.19-1.57C249,291.86,250.44,291.55,250.77,290.79Z" transform="translate(-7.43 -0.99)"/><path class="cls-11" d="M238.91,77.28l.27.08h0a33.91,33.91,0,0,1,6.17,2.5c1.5,1,7.62,6.6,4.41,35-.45,2.84-.85,6-1.12,9.75-1,13.73-.65,16.4,1,29.53,1.07,8.44-13.65,9-22,9h-.16c-8.39,0-23.11-.58-22-9,1.66-13.13,2-15.8,1-29.53-.27-3.7-.67-6.91-1.12-9.75-3.21-28.43,2.9-34.08,4.41-35a33.63,33.63,0,0,1,6.17-2.5h0l.27-.08v0a31.3,31.3,0,0,1,4.66-.58l6.63,1,.08,0,.08,0,6.62-1a31.16,31.16,0,0,1,4.66.58Z" transform="translate(-7.43 -0.99)"/><path class="cls-12" d="M238.91,77.28l.27.08h0a33.91,33.91,0,0,1,6.17,2.5c1.5,1,7.62,6.6,4.41,35-.45,2.84-.85,6-1.12,9.75-1,13.73-.65,16.4,1,29.53,1.07,8.44-13.65,9-22,9h-.16c-2,0-4.28,0-6.65-.18,16.9-3.73,21.76-17.51,22.35-47.06S235.84,79.69,232,77.05l2.25-.33a31.16,31.16,0,0,1,4.66.58Z" transform="translate(-7.43 -0.99)"/><path class="cls-14" d="M214.91,284.79s-2.67-3.08-5.94-.63a4.74,4.74,0,0,0-2.45,2.23c-.66,1.55-1.92,2.26-2.15,4s.3,3,2.64,3h3.78c1.67,0,4.15.26,5-1.82s0-4,.3-5.05S214.91,284.79,214.91,284.79Z" transform="translate(-7.43 -0.99)"/><path class="cls-15" d="M214.91,284.79s-2.37-2.73-5.37-1c2,.45,4.15,1.63,4.41,4.63.23,2.55-1.41,4.08-3.26,5h.1c1.67,0,4.15.26,5-1.82s0-4,.3-5.05S214.91,284.79,214.91,284.79Z" transform="translate(-7.43 -0.99)"/><path class="cls-16" d="M204.34,290.68c-.12,1.55.48,2.72,2.67,2.72h3.78c1.67,0,4.15.26,5-1.82a5.28,5.28,0,0,0,.35-1.38s-1,1.34-4.19,1.54S204.89,292,204.34,290.68Z" transform="translate(-7.43 -0.99)"/><path class="cls-17" d="M210.69,293.4h.1c1.67,0,4.15.26,5-1.82a5.28,5.28,0,0,0,.35-1.38,4.8,4.8,0,0,1-3.12,1.42A6.75,6.75,0,0,1,210.69,293.4Z" transform="translate(-7.43 -0.99)"/><path class="cls-5" d="M233,62.15l-.16,3.72v8.78a3.16,3.16,0,0,0,1.44,2.07c-4.78,5.19-8.62,5.19-13.41,0a3.15,3.15,0,0,0,1.45-2.07V65.87l-.16-3.72s2.66.48,5.42,1.15C230.28,62.63,233,62.15,233,62.15Z" transform="translate(-7.43 -0.99)"/><path class="cls-16" d="M233.76,76.32s-1.45,2.87-6.23,4.29a12.61,12.61,0,0,1,2.38,4.1c.54,2,5.24-3.95,5.75-6.32C235.66,78.39,235.08,76.34,233.76,76.32Z" transform="translate(-7.43 -0.99)"/><path class="cls-16" d="M221.29,76.32s1.45,2.87,6.23,4.29a12.61,12.61,0,0,0-2.38,4.1c-.54,2-5.24-3.95-5.75-6.32C219.39,78.39,220,76.34,221.29,76.32Z" transform="translate(-7.43 -0.99)"/><path class="cls-7" d="M207.82,38.6a9.47,9.47,0,0,0-.93,3.66c0,1.76,3.72,2.48,5,2.48S247.35,46,247.35,46a1.29,1.29,0,0,0,1.06-1.22c0-1-5.86-13.82-5.86-13.82Z" transform="translate(-7.43 -0.99)"/><path class="cls-18" d="M208.86,60.35a5.45,5.45,0,1,0-5.44-5.45A5.46,5.46,0,0,0,208.86,60.35Z" transform="translate(-7.43 -0.99)"/><path class="cls-18" d="M246.28,60.35a5.45,5.45,0,1,0-5.44-5.45A5.46,5.46,0,0,0,246.28,60.35Z" transform="translate(-7.43 -0.99)"/><rect class="cls-19" x="201.57" y="19.59" width="37.3" height="54.25" rx="18.65"/><path class="cls-5" d="M235.6,22.56a18.7,18.7,0,0,1,10.7,16.85v17A18.71,18.71,0,0,1,227.65,75h0a18.46,18.46,0,0,1-6.14-1c17.62-.18,19.6-12.32,19.6-22.64s-3.44-9.21-7.29-9.21H209V38.29c6.18-5.2,17.27-14,22.9-15.13C240,21.52,234.45,22.69,235.6,22.56Z" transform="translate(-7.43 -0.99)"/><path class="cls-20" d="M244.16,39v5.86c0,2.29.42,3,1.57,3.81,0,0-.71,2.22.57,2.74a2.08,2.08,0,0,1,1-1.73V35.43A7.85,7.85,0,0,1,244,37.65,6,6,0,0,1,244.16,39Z" transform="translate(-7.43 -0.99)"/><path class="cls-20" d="M211.27,38V42.2c0,1.65-.3,2.14-1.13,2.75,0,0-.21,1.41-1.14,1.78l-.82-11.08c.58.67,2.17,1,3.19,1.38A4.75,4.75,0,0,0,211.27,38Z" transform="translate(-7.43 -0.99)"/><path class="cls-20" d="M248.41,44.79a15.17,15.17,0,0,0-4.25-3.48h0l-.08,0-.52-.28a10.93,10.93,0,0,1-4.4-4.34c-1.56,1.07-7.92.91-10.32.81l-.82,0h-.11c-10.65-.42-21,2.16-21,4.86-9.23-19.41,13.86-38.1,34.39-16.89C252.14,25.89,251.18,37,248.41,44.79Z" transform="translate(-7.43 -0.99)"/><path class="cls-21" d="M204.82,32.49a17.39,17.39,0,0,1,3.05-9.1c5,3,16.93,8.21,30.43-.81.65.54,1.29,1.12,1.93,1.74C235.89,28.92,224.5,37.83,204.82,32.49Z" transform="translate(-7.43 -0.99)"/><path class="cls-22" d="M248.41,44.79a15.17,15.17,0,0,0-4.25-3.48h0l-.08,0-.52-.28a10.93,10.93,0,0,1-4.4-4.34c-1.56,1.07-7.92.91-10.32.81l-.82,0h-.11c-1,0-2,0-3,0,13.72-.53,20.26-5.4,23.24-9C251.39,32.35,250.34,39.39,248.41,44.79Z" transform="translate(-7.43 -0.99)"/><path class="cls-20" d="M238.91,77.28s-2.18,41.26,9.82,46.27a.39.39,0,0,0,.54-.33,4.24,4.24,0,0,0-.37-1.57s-7.91-8.16-3.55-41.79a2.71,2.71,0,0,0-.71-1.63C244,77.78,239.19,75.7,238.91,77.28Z" transform="translate(-7.43 -0.99)"/><path class="cls-20" d="M216.14,77.28s2.18,41.26-9.81,46.27a.4.4,0,0,1-.55-.33,4.2,4.2,0,0,1,.38-1.57s7.9-8.16,3.55-41.79a2.68,2.68,0,0,1,.7-1.63C211,77.78,215.86,75.7,216.14,77.28Z" transform="translate(-7.43 -0.99)"/><path class="cls-23" d="M217.21,53.71h0A1.83,1.83,0,0,1,219,55.53v2.38a1.83,1.83,0,0,1-1.82,1.83h0a1.83,1.83,0,0,1-1.83-1.83V55.53A1.83,1.83,0,0,1,217.21,53.71Z" transform="translate(-7.43 -0.99)"/><path class="cls-23" d="M238,53.71h0a1.83,1.83,0,0,1,1.82,1.82v2.38A1.83,1.83,0,0,1,238,59.74h0a1.83,1.83,0,0,1-1.83-1.83V55.53A1.83,1.83,0,0,1,238,53.71Z" transform="translate(-7.43 -0.99)"/><path class="cls-18" d="M216,66.31a2.7,2.7,0,1,0-2.69-2.7A2.71,2.71,0,0,0,216,66.31Z" transform="translate(-7.43 -0.99)"/><path class="cls-18" d="M239.23,66.31a2.7,2.7,0,1,0-2.7-2.7A2.71,2.71,0,0,0,239.23,66.31Z" transform="translate(-7.43 -0.99)"/><path class="cls-23" d="M235.53,47.19a.83.83,0,0,0-.37,1.1.81.81,0,0,0,1.09.37,5.32,5.32,0,0,1,4.82.16.82.82,0,0,0,.83-1.42A7.08,7.08,0,0,0,235.53,47.19Z" transform="translate(-7.43 -0.99)"/><path class="cls-23" d="M219.84,48.25a.82.82,0,1,0-1.23-1.08,5.35,5.35,0,0,1-4.51,1.69.82.82,0,1,0-.23,1.62A7.08,7.08,0,0,0,219.84,48.25Z" transform="translate(-7.43 -0.99)"/><path class="cls-24" d="M225.33,66.94a.81.81,0,0,1-.78.84.82.82,0,0,1-.85-.78,3.92,3.92,0,1,1,7.84-.29.81.81,0,1,1-1.62.06,2.29,2.29,0,0,0-2.38-2.21,2.29,2.29,0,0,0-2.21,2.38Z" transform="translate(-7.43 -0.99)"/></g><ellipse class="cls-25" cx="153.93" cy="38.84" rx="19.07" ry="17.54" transform="translate(-12.26 36.77) rotate(-13.77)"/><ellipse class="cls-25" cx="176.37" cy="13.03" rx="14.17" ry="13.03"/><path class="cls-10" d="M155.24,41.78l.31,1.64-4.13.83-.34-1.72c-.5-2.44.1-3.74,1.31-4.81.54-.48,1.46-1.26,1.25-2.27s-1.14-1.29-2-1.12c-1,.21-1.46,1.29-1.25,2.65l-4.22.85c-.25-2.09-.07-3.8.88-5a7,7,0,0,1,4.11-2.28c3.49-.71,6.46.49,7.14,3.84a4,4,0,0,1-1.54,4.13C155.86,39.44,154.91,40.16,155.24,41.78Zm-3.49,4,4.12-.83.77,3.81-4.12.83Z" transform="translate(-7.43 -0.99)"/><path class="cls-10" d="M185,15.74l.29,1.2-3,.77L182,16.44c-.46-1.79-.07-2.77.8-3.61.38-.38,1-1,.85-1.73a1.11,1.11,0,0,0-1.52-.76c-.74.19-1,1-.83,2l-3.1.78a4.9,4.9,0,0,1,.48-3.73,5.21,5.21,0,0,1,3-1.84c2.56-.64,4.81.13,5.43,2.6a2.94,2.94,0,0,1-1,3.11C185.42,14,184.74,14.55,185,15.74Zm-2.44,3.13,3-.77.71,2.8-3,.76Z" transform="translate(-7.43 -0.99)"/><g id="視力自檢"><g class="cls-26"><path class="cls-27" d="M12.32,103.46l-.57.64a12.38,12.38,0,0,0-1.36-1.89v8.32h-.8v-8A17.8,17.8,0,0,1,8,106.16l-.6-.61a17.4,17.4,0,0,0,2.08-5.49H7.62v-.73h2V96.6h.8v2.73h1.38v.73H10.39v1A15.63,15.63,0,0,1,12.32,103.46Zm4.23,5.66-.52.58a14.62,14.62,0,0,0-1.82-1.53,10,10,0,0,1-2.06,2.47l-.59-.58a10,10,0,0,0,2.78-4l.74.31-.51,1.08A13,13,0,0,1,16.55,109.12Zm5.16-8.74-.46.71a13.73,13.73,0,0,1-4.46-3.31,16.59,16.59,0,0,1-4.38,3.39l-.61-.64a13.26,13.26,0,0,0,4.93-4l.78.29a1.49,1.49,0,0,1-.26.37A12.7,12.7,0,0,0,21.71,100.38Zm-5.57,5.4H12.82V102h3.32Zm-.81-.77v-2.27H13.62V105Zm3.67-4.2H14.54V100H19Zm2.51,9.13-.53.55a16.79,16.79,0,0,0-2.28-2.07,10.34,10.34,0,0,1-1.62,2.14l-.67-.46a10.74,10.74,0,0,0,2.4-4l.73.25a10.37,10.37,0,0,1-.54,1.39A15.63,15.63,0,0,1,21.51,109.94Zm-.88-4.16h-3.3V102h3.3Zm-.78-.77v-2.27H18.12V105Z" transform="translate(-7.43 -0.99)"/><path class="cls-27" d="M26.5,102.74l-.59.57a13.22,13.22,0,0,0-2.38-2.21l.54-.64A14.5,14.5,0,0,1,26.5,102.74Zm.1,2.64a28.38,28.38,0,0,1-2.39,5.18l-.62-.54a23.49,23.49,0,0,0,2.27-5Zm.45-6.77-.58.62a12.2,12.2,0,0,0-2.43-2l.46-.6A9.89,9.89,0,0,1,27.05,98.61Zm5.1,8.45H29l.47.32a12.48,12.48,0,0,1-2.25,3.25l-.66-.55a10.91,10.91,0,0,0,2.16-3H27.56V96.93h4.59Zm-.78-7.14V97.71h-3v2.21Zm0,3.12v-2.32h-3V103Zm0,3.22v-2.44h-3v2.44Zm1.2,3.55-.69.41a9.86,9.86,0,0,0-1.57-2.51l.65-.44A10.15,10.15,0,0,1,32.57,109.81Zm1.87-2.13h-.8V97.63h.8ZM37,109.42a1,1,0,0,1-.41.93,3.38,3.38,0,0,1-1.49.23c-.39,0-.79,0-1.18,0l-.21-.8a16.6,16.6,0,0,0,2.26-.07c.16,0,.23-.21.23-.49V96.61H37Z" transform="translate(-7.43 -0.99)"/><path class="cls-27" d="M41.29,106.77a14.54,14.54,0,0,1-1,3.65L39.5,110a11.52,11.52,0,0,0,1-3.43Zm4.21-1-.74.39a4,4,0,0,0-.32-.93q-2.16.54-4.59.9l-.23-.79A13.37,13.37,0,0,0,42.81,102c-1.25.13-2.2.22-2.85.26l-.16-.73a15.69,15.69,0,0,0,2.91-4.91l.74.32a17.65,17.65,0,0,1-2.38,4.39c.94,0,1.72-.11,2.32-.2.36-.58.68-1.14,1-1.69l.74.39a18.89,18.89,0,0,1-3.87,5.22,22.76,22.76,0,0,0,2.88-.61,4.7,4.7,0,0,0-.45-.9l.74-.35A13.33,13.33,0,0,1,45.5,105.74ZM43.35,110l-.89.13a18.51,18.51,0,0,0-.29-3.25l.76-.19A15.27,15.27,0,0,1,43.35,110Zm2.15-.69-.79.31a16.6,16.6,0,0,0-.78-2.76l.7-.3A11.88,11.88,0,0,1,45.5,109.28Zm8-9.69H49.77V102h3.16v.78h-7V102H49V99.59H45.45v-.78H49V96.63h.81v2.18h3.68Zm-.93,11h-.81v-.91H47.13v.91h-.82v-5.87h6.21Zm-.81-1.73v-3.34H47.13v3.34Z" transform="translate(-7.43 -0.99)"/><path class="cls-27" d="M69.56,109.21l-.4.73a14,14,0,0,1-3.32-1.88A14.7,14.7,0,0,1,63,105.39v5.17h-.83v-5.18A16.67,16.67,0,0,1,56,109.87l-.57-.74a15.23,15.23,0,0,0,5.89-4H55.61v-.79h6.56V102.8H57.1V97H68v5.84H63v1.54h6.48v.79H63.85A13.67,13.67,0,0,0,69.56,109.21Zm-7.39-9.77V97.79H57.93v1.65Zm0,2.55v-1.75H57.93V102Zm5-2.55V97.79H63v1.65Zm0,2.55v-1.75H63V102Z" transform="translate(-7.43 -0.99)"/><path class="cls-27" d="M76.86,99.09H71.65l0-.81H74a10.68,10.68,0,0,0-.66-1.53l.8-.24a14,14,0,0,1,.76,1.77h1.93Zm-.42,2.32H72v-.84h4.41Zm0,2.19H72v-.82h4.41Zm-.15,6.57h-.84v-.82H73v1.21h-.86v-5.33h4.17Zm-.84-1.66v-2.45H73v2.45ZM85.54,107a6.45,6.45,0,0,1-.43,2.77,1.24,1.24,0,0,1-1.12.55H82.68a.87.87,0,0,1-.65-.29,1,1,0,0,1-.29-.7v-4.87H80.26a6.85,6.85,0,0,1-3,6.23l-.66-.61a5.38,5.38,0,0,0,2.13-2.34,6.92,6.92,0,0,0,.69-3.28H77.88v-4.25h6.48v4.25H82.6v4.76s0,.1.11.17a.33.33,0,0,0,.21.1h1c.3,0,.49-.19.56-.56s.13-1.1.18-2.16Zm-5.13-10a13.36,13.36,0,0,1-3,3.13l-.68-.63a11.36,11.36,0,0,0,3-3Zm3.09,6.54v-2.47H78.75v2.47Zm2.06-4.1-.66.63a16.32,16.32,0,0,0-3.08-2.92l.57-.61A26,26,0,0,1,85.56,99.5Z" transform="translate(-7.43 -0.99)"/><path class="cls-27" d="M92.87,108.32H92v-1.07H88.92v1.47h-.83V97.23h4.78ZM92,101.73V98.05H88.92v3.68Zm0,4.7v-3.87H88.92v3.87Zm9,2.84a1.27,1.27,0,0,1-.25.8,1.12,1.12,0,0,1-.62.44,14.71,14.71,0,0,1-2.37,0l-.35-.82c.36,0,.75,0,1.18,0a4.85,4.85,0,0,0,1.42-.1.34.34,0,0,0,.18-.32v-3.91H95.46a11.87,11.87,0,0,1-1.74,5.17l-.76-.48q1.83-2.55,1.83-7.5v-5.7H101Zm-.81-4.64v-3.16H95.65c0,1.08,0,2.13-.09,3.16Zm0-4V97.73H95.65v2.94Z" transform="translate(-7.43 -0.99)"/></g></g><rect class="cls-10" x="0.27" y="117.95" width="300.15" height="118.32" rx="8"/><path class="cls-28" d="M41.5,155.21l-.52.59a14.84,14.84,0,0,1-5.22-7.09v6h3.05v.73H35.76v2.51H35v-2.51H31.86v-.73H35v-6a15.77,15.77,0,0,1-2.12,3.93,15.57,15.57,0,0,1-3.27,3.11l-.48-.61a13.2,13.2,0,0,0,5.05-6.43H29.46V148H35v-2.4h.77V148h5.37v.72H36.57A13.31,13.31,0,0,0,41.5,155.21Z" transform="translate(-7.43 -0.99)"/><path class="cls-28" d="M47.43,151.64l-.5.56a11.59,11.59,0,0,0-1.19-1.65v7.28H45v-7a15.29,15.29,0,0,1-1.36,3.2l-.52-.53a15.74,15.74,0,0,0,1.82-4.8H43.31V148H45v-2.39h.71V148h1.2v.64h-1.2v.9A14.73,14.73,0,0,1,47.43,151.64Zm3.7,5-.46.51a12.6,12.6,0,0,0-1.59-1.33,9.48,9.48,0,0,1-1.8,2.16l-.52-.51A8.77,8.77,0,0,0,49.19,154l.65.27-.45,1A12.23,12.23,0,0,1,51.13,156.59ZM55.64,149l-.4.62a11.9,11.9,0,0,1-3.9-2.9,14.51,14.51,0,0,1-3.84,3l-.53-.56a11.58,11.58,0,0,0,4.31-3.52l.69.25a2,2,0,0,1-.23.33A11.21,11.21,0,0,0,55.64,149Zm-4.88,4.72h-2.9v-3.33h2.9Zm-.7-.67v-2h-1.5v2Zm3.2-3.67h-3.9v-.69h3.9Zm2.21,8-.47.49A14.19,14.19,0,0,0,53,156a8.66,8.66,0,0,1-1.42,1.87l-.59-.4a9.41,9.41,0,0,0,2.1-3.5l.64.22a7.39,7.39,0,0,1-.48,1.22A14.24,14.24,0,0,1,55.47,157.31Zm-.78-3.64H51.81v-3.33h2.88ZM54,153v-2H52.5v2Z" transform="translate(-7.43 -0.99)"/><path class="cls-28" d="M59.94,151l-.52.51a11.25,11.25,0,0,0-2.08-1.94l.47-.56A13.25,13.25,0,0,1,59.94,151Zm.08,2.31a24.74,24.74,0,0,1-2.08,4.53l-.55-.47a20.93,20.93,0,0,0,2-4.41Zm.4-5.92-.51.54a10.62,10.62,0,0,0-2.12-1.76l.4-.53A8.7,8.7,0,0,1,60.42,147.4Zm4.46,7.39H62.09l.41.28a10.83,10.83,0,0,1-2,2.84l-.58-.47a9.31,9.31,0,0,0,1.89-2.65h-1v-8.86h4Zm-.68-6.24v-1.94H61.57v1.94Zm0,2.73v-2H61.57v2Zm0,2.81V152H61.57v2.13Zm1,3.11-.6.36a8.33,8.33,0,0,0-1.37-2.2l.57-.39A8.92,8.92,0,0,1,65.24,157.2Zm1.64-1.86h-.7v-8.79h.7Zm2.25,1.52a.85.85,0,0,1-.35.81,2.88,2.88,0,0,1-1.31.2l-1,0-.17-.7a15.39,15.39,0,0,0,2-.06c.14,0,.21-.18.21-.43v-11h.69Z" transform="translate(-7.43 -0.99)"/><path class="cls-28" d="M83.4,152.48a22.84,22.84,0,0,1-.15,2.64,8.56,8.56,0,0,1-.29,1.66,1.72,1.72,0,0,1-.41.63,1.67,1.67,0,0,1-.74.38,6.46,6.46,0,0,1-1.47.12l-.29-.8c.21,0,.65,0,1.3,0a1.1,1.1,0,0,0,.59-.15.82.82,0,0,0,.35-.43,7.74,7.74,0,0,0,.23-1.17,20.19,20.19,0,0,0,.15-2.2h-8.6a16,16,0,0,1-2.19,2.17l-.42-.68a12,12,0,0,0,4.27-6.32H72v-.73h3.89c.21-.92.35-1.62.41-2.1l.71.16c-.07.52-.19,1.16-.36,1.94H81.8c-.13.79-.3,1.6-.49,2.44H82.7a24,24,0,0,1-.42,2.41ZM74.9,147l-.64.4A11.18,11.18,0,0,0,73.08,146l.63-.4A9.88,9.88,0,0,1,74.9,147Zm.36,7.28a13.51,13.51,0,0,1-1.49,3.38l-.67-.36a13.55,13.55,0,0,0,1.51-3.19Zm6.57-3.5H75.6a13.5,13.5,0,0,1-1,1.7h6.91C81.65,151.85,81.76,151.29,81.83,150.78Zm-.89-2.42H76.48a14.26,14.26,0,0,1-.57,1.71h4.64C80.68,149.59,80.8,149,80.94,148.36Zm-3.65,9.1-.77.15a13.52,13.52,0,0,0-.36-3.35l.69-.15A20.67,20.67,0,0,1,77.29,157.46Zm2.23-.74-.72.26a13.14,13.14,0,0,0-.76-2.75l.67-.23A22.83,22.83,0,0,1,79.52,156.72Zm2-.77-.66.31a11,11,0,0,0-.92-2.14l.63-.31A13,13,0,0,1,81.52,156Z" transform="translate(-7.43 -0.99)"/><path class="cls-28" d="M97.22,149.23h-9.4v2.18a10.67,10.67,0,0,1-1.68,6.36l-.61-.44a9.33,9.33,0,0,0,1.56-5.6v-5.8H97.22Zm-.73-.7v-1.87H87.82v1.87Zm1.31,3.28H93.32v1.85h3.6v4.23h-.75v-.75H89.72v.75H89v-4.23h3.61v-1.85H88.34v-.68h4.25v-1.38h.73v1.38H97.8Zm-1.63,4.63v-2.09H89.72v2.09Z" transform="translate(-7.43 -0.99)"/><path class="cls-28" d="M111.82,156.61l-.49.63a10.42,10.42,0,0,1-4-3.35,6.75,6.75,0,0,1,.11,1.22,3.05,3.05,0,0,1-.56,2.23,2.7,2.7,0,0,1-1.82.49c-.26,0-.5,0-.71,0l-.24-.73a6.81,6.81,0,0,0,.93.06,2.47,2.47,0,0,0,1.12-.17,1.11,1.11,0,0,0,.42-.54,3.94,3.94,0,0,0,.15-1.33,7.43,7.43,0,0,0-.09-1.15,20.66,20.66,0,0,1-6.54,3.3l-.39-.63a17.39,17.39,0,0,0,6.72-3.49,4.9,4.9,0,0,0-.38-1.06,17,17,0,0,1-5.61,2.62l-.41-.69a14.13,14.13,0,0,0,5.7-2.59,6.73,6.73,0,0,0-.56-.83,18.32,18.32,0,0,1-4.38,1.52l-.39-.68a14.32,14.32,0,0,0,5.54-2.1H101.9v-.71h7.95v.71H107a9.49,9.49,0,0,1-1.24.93,8.28,8.28,0,0,1,1.23,2.35,11.31,11.31,0,0,0,3.19-2.28l.52.52a11.64,11.64,0,0,1-3.08,2.25A9.05,9.05,0,0,0,111.82,156.61Zm-.48-7.43h-.72v-1.75H101v1.75h-.73v-2.46h5.32a4.75,4.75,0,0,0-.41-1l.72-.24a12.15,12.15,0,0,1,.49,1.25h4.91Z" transform="translate(-7.43 -0.99)"/><path class="cls-28" d="M119.78,147.15h-4a8.52,8.52,0,0,1-1.53,1.36l-.45-.52a12.18,12.18,0,0,0,2.42-2.48l.65.26c-.09.15-.26.39-.52.74h3.43Zm-.49,5h-4v5.63h-.68v-9.05h4.69Zm-.7-2v-.72h-3.31v.72Zm0,1.38v-.78h-3.31v.78Zm-.53-3.32-.69.23a6.51,6.51,0,0,0-.45-.82l.65-.2Zm4.62,8.36h-5.53V153h5.53Zm-.7-2.18v-.73h-4.15v.73Zm0,1.52V155h-4.15v.88Zm3.85-8.77h-4.65a7.78,7.78,0,0,1-1.12,1.23l-.52-.48a9.26,9.26,0,0,0,1.89-2.32l.63.19a4,4,0,0,1-.42.74h4.19Zm-.65,9.78a.79.79,0,0,1-.31.71,1.65,1.65,0,0,1-.92.21h-.53l-.25-.71c.24,0,.48,0,.72,0,.41,0,.61-.14.61-.41V152.2h-3.92v-3.42h4.6Zm-.68-6.77v-.72h-3.23v.72Zm0,1.38v-.78h-3.23v.78Zm-.77-3.33-.7.25a3.89,3.89,0,0,0-.57-.84l.71-.22A9.26,9.26,0,0,1,123.73,148.21Z" transform="translate(-7.43 -0.99)"/><path class="cls-28" d="M139.56,151.88c0,1.27-.08,2.43-.19,3.46a4.07,4.07,0,0,1-.44,1.87,2.36,2.36,0,0,1-.54.46,2.83,2.83,0,0,1-1.24.16h-1l-.3-.76c.57,0,1,.06,1.36.06a2,2,0,0,0,.85-.12.75.75,0,0,0,.32-.39,8.71,8.71,0,0,0,.25-1.54,23.7,23.7,0,0,0,.17-2.52h-1.38q-1.54,3.25-6,5.28l-.43-.63q4.22-1.82,5.61-4.65h-2.22a11,11,0,0,1-5.62,3.43l-.43-.63a10.71,10.71,0,0,0,5.15-2.8h-3.07a11.62,11.62,0,0,1-2,1.12l-.51-.56a9,9,0,0,0,3.57-2.5h-1.92v-4.68h8.75v4.68h-5.94a8,8,0,0,1-1.11,1.26ZM137.67,148v-1.33H130.4V148Zm0,2V148.6H130.4V150Z" transform="translate(-7.43 -0.99)"/><path class="cls-28" d="M153,157.85h-.76v-1H144.1v1h-.75V147.22h3.84a6.55,6.55,0,0,0,.76-1.69l.74.18a8.27,8.27,0,0,1-.68,1.51H153Zm-.76-7.82V148H144.1V150Zm0,3v-2.21H144.1V153Zm0,3.16v-2.43H144.1v2.43Z" transform="translate(-7.43 -0.99)"/><path class="cls-28" d="M160.28,151.64l-.5.56a11.59,11.59,0,0,0-1.19-1.65v7.28h-.71v-7a15.84,15.84,0,0,1-1.36,3.2l-.52-.53a15.48,15.48,0,0,0,1.81-4.8h-1.65V148h1.72v-2.39h.71V148h1.2v.64h-1.2v.9A14.73,14.73,0,0,1,160.28,151.64Zm3.69,5-.45.51a13.4,13.4,0,0,0-1.59-1.33,9.48,9.48,0,0,1-1.8,2.16l-.52-.51A8.77,8.77,0,0,0,162,154l.65.27-.45,1A12.16,12.16,0,0,1,164,156.59Zm4.52-7.64-.4.62a11.9,11.9,0,0,1-3.9-2.9,14.67,14.67,0,0,1-3.84,3l-.53-.56a11.58,11.58,0,0,0,4.31-3.52l.68.25a1.4,1.4,0,0,1-.22.33A11.21,11.21,0,0,0,168.49,149Zm-4.88,4.72h-2.9v-3.33h2.9Zm-.7-.67v-2h-1.5v2Zm3.2-3.67h-3.9v-.69h3.9Zm2.2,8-.46.49a13.67,13.67,0,0,0-2-1.82,8.68,8.68,0,0,1-1.41,1.87l-.59-.4A9.41,9.41,0,0,0,166,154l.64.22a7.39,7.39,0,0,1-.48,1.22A14.19,14.19,0,0,1,168.31,157.31Zm-.77-3.64h-2.88v-3.33h2.88Zm-.68-.67v-2h-1.51v2Z" transform="translate(-7.43 -0.99)"/><path class="cls-28" d="M176.14,153a.79.79,0,0,1-.51-.68.69.69,0,0,1,.17-.41.61.61,0,0,1,.49-.21c.44,0,.65.29.65.87a1.8,1.8,0,0,1-.82,1.36l-.3-.23A1.28,1.28,0,0,0,176.14,153Z" transform="translate(-7.43 -0.99)"/><path class="cls-28" d="M188.49,151.64l-.5.56a11.59,11.59,0,0,0-1.19-1.65v7.28h-.71v-7a15.29,15.29,0,0,1-1.36,3.2l-.52-.53a15.74,15.74,0,0,0,1.82-4.8h-1.66V148h1.72v-2.39h.71V148H188v.64h-1.2v.9A14.73,14.73,0,0,1,188.49,151.64Zm3.7,5-.46.51a12.6,12.6,0,0,0-1.59-1.33,9.48,9.48,0,0,1-1.8,2.16l-.52-.51a8.77,8.77,0,0,0,2.43-3.46l.65.27-.45,1A12.23,12.23,0,0,1,192.19,156.59ZM196.7,149l-.4.62a11.9,11.9,0,0,1-3.9-2.9,14.51,14.51,0,0,1-3.84,3l-.53-.56a11.58,11.58,0,0,0,4.31-3.52l.69.25a2,2,0,0,1-.23.33A11.21,11.21,0,0,0,196.7,149Zm-4.88,4.72h-2.9v-3.33h2.9Zm-.7-.67v-2h-1.5v2Zm3.21-3.67h-3.91v-.69h3.91Zm2.2,8-.47.49a14.19,14.19,0,0,0-2-1.82,8.66,8.66,0,0,1-1.42,1.87l-.59-.4a9.41,9.41,0,0,0,2.1-3.5l.64.22a8.43,8.43,0,0,1-.47,1.22A14.67,14.67,0,0,1,196.53,157.31Zm-.78-3.64h-2.88v-3.33h2.88Zm-.68-.67v-2h-1.51v2Z" transform="translate(-7.43 -0.99)"/><path class="cls-28" d="M201,151l-.52.51a11.25,11.25,0,0,0-2.08-1.94l.48-.56A13.56,13.56,0,0,1,201,151Zm.08,2.31a24.74,24.74,0,0,1-2.08,4.53l-.55-.47a20.44,20.44,0,0,0,2-4.41Zm.4-5.92-.51.54a10.34,10.34,0,0,0-2.12-1.76l.4-.53A8.7,8.7,0,0,1,201.48,147.4Zm4.46,7.39h-2.79l.41.28a10.83,10.83,0,0,1-2,2.84l-.58-.47a9.31,9.31,0,0,0,1.89-2.65h-1v-8.86h4Zm-.68-6.24v-1.94h-2.63v1.94Zm0,2.73v-2h-2.63v2Zm0,2.81V152h-2.63v2.13Zm1.05,3.11-.61.36a8.33,8.33,0,0,0-1.37-2.2l.57-.39A9.29,9.29,0,0,1,206.31,157.2Zm1.64-1.86h-.71v-8.79H208Zm2.25,1.52a.84.84,0,0,1-.36.81,2.88,2.88,0,0,1-1.31.2c-.34,0-.69,0-1,0l-.18-.7a15.39,15.39,0,0,0,2-.06c.14,0,.21-.18.21-.43v-11h.7Z" transform="translate(-7.43 -0.99)"/><path class="cls-28" d="M214,154.54a12.17,12.17,0,0,1-.88,3.19l-.69-.36a9.91,9.91,0,0,0,.89-3Zm3.68-.9-.64.34a3.32,3.32,0,0,0-.28-.82,40.31,40.31,0,0,1-4,.79l-.2-.68a11.86,11.86,0,0,0,2.79-2.89c-1.09.12-1.92.19-2.49.23l-.14-.64a13.56,13.56,0,0,0,2.55-4.29l.64.28a15,15,0,0,1-2.08,3.83,18.27,18.27,0,0,0,2-.17,14,14,0,0,0,.83-1.48l.65.35a16.55,16.55,0,0,1-3.39,4.56,20.38,20.38,0,0,0,2.52-.53,3.82,3.82,0,0,0-.39-.79l.65-.3A10.73,10.73,0,0,1,217.72,153.64Zm-1.88,3.7-.77.11a16.41,16.41,0,0,0-.26-2.84l.67-.17A13.7,13.7,0,0,1,215.84,157.34Zm1.88-.6L217,157a14.23,14.23,0,0,0-.69-2.42l.62-.26A10,10,0,0,1,217.72,156.74Zm7-8.48h-3.22v2.13h2.77v.69h-6.16v-.69h2.69v-2.13h-3.08v-.68h3.08v-1.92h.7v1.92h3.22Zm-.81,9.58h-.71v-.79h-4v.79h-.71v-5.13h5.43Zm-.71-1.51V153.4h-4v2.93Z" transform="translate(-7.43 -0.99)"/><path class="cls-28" d="M238.89,156.68l-.35.63a12.08,12.08,0,0,1-2.91-1.64,13.14,13.14,0,0,1-2.49-2.34v4.52h-.72v-4.53a14.55,14.55,0,0,1-5.39,3.93l-.5-.64a13.44,13.44,0,0,0,5.14-3.5h-5v-.7h5.74v-1.35H228V146h9.58v5.1h-4.42v1.35h5.68v.7h-4.93A12.06,12.06,0,0,0,238.89,156.68Zm-6.47-8.55v-1.45h-3.71v1.45Zm0,2.22v-1.53h-3.71v1.53Zm4.39-2.22v-1.45h-3.67v1.45Zm0,2.22v-1.53h-3.67v1.53Z" transform="translate(-7.43 -0.99)"/><path class="cls-28" d="M244.15,145.76a16.24,16.24,0,0,1-.56,1.68l-.39,1v9.34h-.74v-7.72a19.24,19.24,0,0,1-1.28,2.15l-.42-.67a22.68,22.68,0,0,0,2.71-6.06Zm8.8,11.73h-9v-.64h4.2V155.7h-3.7v-.64h3.7V154h-3.9v-.64h3.9v-1h-3.56v-2.42h3.56v-.81h-2.13v-1.5h-1.82v-.64h1.82v-1.29h.71v1.29h3.45v-1.29h.71v1.29h1.86v.64h-1.86v1.5h-2v.81h3.45v2.42h-3.45v1h3.81V154h-3.81v1.11h3.61v.64h-3.61v1.15H253Zm-4.77-5.88v-1.09h-2.82v1.09Zm2-3.2v-.86h-3.45v.86Zm1.41,3.2v-1.09h-2.73v1.09Z" transform="translate(-7.43 -0.99)"/><path class="cls-28" d="M258.48,145.8a12.65,12.65,0,0,1-.69,1.56l-.46.94v9.51h-.72v-8.28c-.44.67-.94,1.35-1.48,2l-.38-.75a18.66,18.66,0,0,0,3.05-5.22Zm3.14,8.43a15.29,15.29,0,0,1-3.06,3.7l-.56-.49a15.94,15.94,0,0,0,3-3.55Zm5.38-1.14h-9v-.71h2.38v-3.23h-2.17v-.72h2.17v-2.78h.74v2.78h2.69v-2.78h.77v2.78h2.05v.72h-2.05v3.23H267Zm-3.15-.71v-3.23h-2.69v3.23Zm3.19,5.06-.6.43a22.35,22.35,0,0,0-3.19-3.6l.61-.42A19.28,19.28,0,0,1,267,157.44Z" transform="translate(-7.43 -0.99)"/><path class="cls-28" d="M281.32,152.76l-.31.68a12.51,12.51,0,0,1-5.94-2.23,16.38,16.38,0,0,1-5.66,2.18l-.5-.67a14.22,14.22,0,0,0,6.23-2.42l.59.18-.14-.41a6.36,6.36,0,0,0,1.72-2l.66.24a7.63,7.63,0,0,1-1.16,1.62c1.16-.1,2.11-.21,2.84-.33a3.34,3.34,0,0,0-.63-.77l.58-.41a11.11,11.11,0,0,1,1.48,2.05l-.61.4c-.08-.16-.21-.39-.4-.7q-2.56.36-4.23.51a.64.64,0,0,1-.15.12A12.94,12.94,0,0,0,281.32,152.76Zm-6.69-2.63-.58.44a1.66,1.66,0,0,0-.25-.35c-1,.23-2.42.47-4.37.72l-.2-.6a9.08,9.08,0,0,0,2-2.12l.76.16a8.65,8.65,0,0,1-1.48,1.75c.77-.09,1.72-.24,2.84-.44a2.21,2.21,0,0,0-.57-.61l.55-.45A7.78,7.78,0,0,1,274.63,150.13Zm5.16,4.42q-3.1,2.94-8.86,3.36l-.47-.71a13.71,13.71,0,0,0,8.67-3Zm-3.78-2a11.92,11.92,0,0,1-5.07,2.07l-.43-.64a11.46,11.46,0,0,0,4.82-1.83Zm1.84,1a14.62,14.62,0,0,1-6.85,2.66l-.43-.68a12.59,12.59,0,0,0,6.61-2.39Zm1.1-6-.6.43a2,2,0,0,0-.53-.59q-2.32.36-5.94.6l-.16-.61a9.74,9.74,0,0,0,2.55-1.9l.86.17a9,9,0,0,1-1.88,1.58q2.29-.13,4.11-.39a3.64,3.64,0,0,0-.67-.64l.52-.45A9.33,9.33,0,0,1,279,147.63Z" transform="translate(-7.43 -0.99)"/><path class="cls-28" d="M41.35,169H37.07a23.45,23.45,0,0,1-2.54,1.55h5.84v.72h-5.8l-.46,1.68h6.24a8.48,8.48,0,0,1-.65,2.76,1.62,1.62,0,0,1-1.05.83,13.14,13.14,0,0,1-2.58.16c-.52,0-1.06,0-1.61,0l-.31-.74c.94,0,1.77.05,2.5.05a9.09,9.09,0,0,0,1.87-.11,1,1,0,0,0,.58-.53,5.86,5.86,0,0,0,.41-1.66H33.13l.79-2.83q-2.74,1.24-4.36,1.82l-.42-.65a30.2,30.2,0,0,0,6.68-3H29.51v-.74h4.58v-1.84H30.5v-.71h3.59v-1.26h.75v1.26h3.41v.71H34.84v1.84h2a18.71,18.71,0,0,0,3.55-3.38l.56.47a23.36,23.36,0,0,1-2.88,2.91h3.29Z" transform="translate(-7.43 -0.99)"/><path class="cls-28" d="M49.18,171.83a.8.8,0,0,1-.5-.68.63.63,0,0,1,.17-.41.57.57,0,0,1,.48-.21q.66,0,.66.87a1.81,1.81,0,0,1-.83,1.36l-.29-.23A1.25,1.25,0,0,0,49.18,171.83Z" transform="translate(-7.43 -0.99)"/><path class="cls-28" d="M69.59,176.3H57.4v-.72h4.32v-7.92h-4v-.74H69.28v.74h-4v7.92h4.35Zm-8.77-2.23-.67.24a24.11,24.11,0,0,0-1.92-5.16l.64-.28A24.08,24.08,0,0,1,60.82,174.07Zm1.25-7.88-.65.47a7.79,7.79,0,0,0-1.71-1.85l.61-.43A8.45,8.45,0,0,1,62.07,166.19Zm2.42,9.39v-7.92h-2v7.92Zm2.83-10.84a8.46,8.46,0,0,1-1.85,1.93l-.6-.46a8.34,8.34,0,0,0,1.8-1.88Zm1.48,4.44a29.34,29.34,0,0,1-2,5.13L66.1,174a29.63,29.63,0,0,0,2-5.1Z" transform="translate(-7.43 -0.99)"/><path class="cls-28" d="M76.66,169.06a22.33,22.33,0,0,1-.19,3.39,5.49,5.49,0,0,1-1.06,2.32A6.38,6.38,0,0,1,73,176.64l-.42-.62a5.89,5.89,0,0,0,2.08-1.53,4.43,4.43,0,0,0,1.08-2.12q-1.84.57-4,1l-.31-.73a36,36,0,0,0,4.4-1.14,12.16,12.16,0,0,0,.07-1.57H71.83v-.7H76v-2.12H71.68v-.74H76v-2h.71Zm7,4.13H79.45v3.48h-.76V164.39h.76v2h4v.74h-4v2.29H83.1v.72H79.45v2.3h4.21Z" transform="translate(-7.43 -0.99)"/><path class="cls-28" d="M97.84,171.14H93.31v.75h3.41v4.76H96v-.5H87.56v.5h-.71v-4.76h3.59c0-.36,0-.61,0-.75H85.69v-.63H97.84Zm-5.56-5.88H88.71l.38.24a2.6,2.6,0,0,1-.23.37h2.87v.58H90.2c0,.16,0,.36-.1.6H92v.61H90.24a11.25,11.25,0,0,1,1.49,1l-.4.46A8.2,8.2,0,0,0,89.66,168a4,4,0,0,1-1.84,1.09l-.38-.53a3.34,3.34,0,0,0,1.69-.91H87.44v-.61h2a1.38,1.38,0,0,0,.13-.6H88.32a4.3,4.3,0,0,1-.48.35l-.51-.39a3.89,3.89,0,0,0,1.14-1.15H87V169a.34.34,0,0,0,.33.33h4.41v.6H87.33a.91.91,0,0,1-1-1v-3.63h-.43v-.63h6.4ZM96,175.54V173.9H93.64a1,1,0,0,1-.84-.29,1.29,1.29,0,0,1-.2-.74v-.35H91c-.32.91-1.23,1.52-2.75,1.84l-.35-.65a3.14,3.14,0,0,0,2.38-1.19H87.56v3ZM94.65,175H88.89v-.6h5.76Zm-2.05-3.09v-.75H91.17a5.05,5.05,0,0,1,0,.75Zm5.13-5.38H96.45c-.5,0-.75-.27-.75-.82v-.41h-2a2.37,2.37,0,0,1-.95,1.49l-.56-.41a1.62,1.62,0,0,0,.85-1.69h3.29v1.05a.18.18,0,0,0,.2.19h1.16Zm-.09,3.2-.38.52a16.81,16.81,0,0,0-1.9-1,9.54,9.54,0,0,1-2.83,1l-.3-.57a10.47,10.47,0,0,0,2.38-.77,14.66,14.66,0,0,0-1.85-.77l.28-.38h-.6v-.63h4.74v.63a5.31,5.31,0,0,1-1.2,1.1ZM96,173.28v-.76H93.31V173c0,.17.08.25.24.25Zm.21-5.6H93.46q1.62.67,1.83.78A4.94,4.94,0,0,0,96.23,167.68Z" transform="translate(-7.43 -0.99)"/><path class="cls-28" d="M111.88,174.33h-5.72v1.4a.74.74,0,0,1-.26.62.88.88,0,0,1-.61.22h-1.66l-.24-.69.81,0a4.18,4.18,0,0,0,1.11-.08.36.36,0,0,0,.15-.34v-1.16H99.72v-.66h5.74v-.56a22.68,22.68,0,0,0,2.27-.91H102.1v-.65h7.13v.65a30.13,30.13,0,0,1-3.07,1.35v.12h5.72Zm-.3-1.89h-.73v-1.76H100.73v1.76H100V170h.73l-.05-5a10.32,10.32,0,0,0,2.61-.67l.33.56a9.84,9.84,0,0,1-2.25.65v1h2.26v.64h-2.24v1.08h2.22v.66h-2.19V170h8.59V168.9h-2.21v-.66h2.23v-1.08h-2.24v-.64h2.27l0-1h-2.42v-.64h3.13l-.12,5.15h.84Zm-4-3.2-.46.45c-.13-.13-.54-.47-1.23-1a9.87,9.87,0,0,1-1.7,1l-.35-.57a13.47,13.47,0,0,0,1.53-.84,5.83,5.83,0,0,0-.6-.45l-.51-.35.42-.43,1.21.85a4.92,4.92,0,0,0,.91-.81l.52.37a7.67,7.67,0,0,1-.92.87C106.64,168.43,107,168.74,107.62,169.24Zm0-2.68-.46.41a9.82,9.82,0,0,0-1.19-1,10.36,10.36,0,0,1-1.6.9l-.31-.56a9.43,9.43,0,0,0,1.39-.76,8.17,8.17,0,0,0-1-.77l.46-.41c.56.41.91.67,1.07.8a6.4,6.4,0,0,0,1-.93l.53.28a7.42,7.42,0,0,1-1,1.06A10.29,10.29,0,0,1,107.58,166.56Z" transform="translate(-7.43 -0.99)"/><path class="cls-28" d="M118,170.44l-.5.56a12.43,12.43,0,0,0-1.19-1.66v7.29h-.71v-7a15.29,15.29,0,0,1-1.36,3.2l-.52-.53a15.74,15.74,0,0,0,1.82-4.8h-1.66v-.64h1.72v-2.39h.71v2.39h1.2v.64h-1.2v.9A14.73,14.73,0,0,1,118,170.44Zm3.7,4.95-.46.51a12.6,12.6,0,0,0-1.59-1.33,9.48,9.48,0,0,1-1.8,2.16l-.52-.51a8.77,8.77,0,0,0,2.43-3.46l.65.27-.45.95A12.23,12.23,0,0,1,121.66,175.39Zm4.51-7.64-.4.62a11.9,11.9,0,0,1-3.9-2.9,14.51,14.51,0,0,1-3.84,3l-.53-.56a11.68,11.68,0,0,0,4.31-3.52l.69.25a2,2,0,0,1-.23.33A11.21,11.21,0,0,0,126.17,167.75Zm-4.88,4.72h-2.9v-3.33h2.9Zm-.7-.67v-2h-1.5v2Zm3.21-3.67h-3.91v-.69h3.91Zm2.2,8-.47.49a14.19,14.19,0,0,0-2-1.82,8.66,8.66,0,0,1-1.42,1.87l-.59-.4a9.41,9.41,0,0,0,2.1-3.5l.64.22a8.43,8.43,0,0,1-.47,1.22A14.67,14.67,0,0,1,126,176.11Zm-.78-3.64h-2.88v-3.33h2.88Zm-.68-.67v-2H123v2Z" transform="translate(-7.43 -0.99)"/><path class="cls-28" d="M128.93,172.33a19.7,19.7,0,0,1-.38,3.4l-.66-.15a17.28,17.28,0,0,0,.44-3.31Zm4-6.87h-1.59v1.34h1.32v.66h-1.32v1.31h1.32v.69h-1.32v1.39h1.32q0,1.17,0,1.89c0,1,0,1.78-.09,2.38a2.51,2.51,0,0,1-.3,1.16.89.89,0,0,1-.53.34,5.76,5.76,0,0,1-1.15.08l-.21-.72.84,0a.62.62,0,0,0,.61-.39,11.32,11.32,0,0,0,.17-2.72c0-.51,0-1,0-1.36h-3.44v-6.76H133Zm-3.08,10.09-.58.08c0-.43,0-.86,0-1.27,0-.73,0-1.39-.08-2l.53-.08q.12,2,.12,2.49C129.92,175.07,129.91,175.31,129.9,175.55Zm.78-8.76v-1.33h-1.36v1.33Zm0,2v-1.3h-1.36v1.3Zm0,2.08v-1.39h-1.36v1.39ZM131,175l-.56.08a15.79,15.79,0,0,0-.3-2.72l.52-.12A20,20,0,0,1,131,175Zm.86-.74-.47.11a20.79,20.79,0,0,0-.42-2.19l.44-.1A16.64,16.64,0,0,1,131.84,174.25Zm8.33-6.47-.36.6a9.7,9.7,0,0,1-3.39-3,12.65,12.65,0,0,1-3.18,2.92l-.43-.59a10.41,10.41,0,0,0,3.44-3.39l.71.22a1.14,1.14,0,0,1-.12.26A9.7,9.7,0,0,0,140.17,167.78Zm-3.89,7.57-.5.52a8.25,8.25,0,0,0-1-1.19,9.81,9.81,0,0,1-1.32,2l-.57-.39a9.75,9.75,0,0,0,1.85-3.44l.66.23c-.14.4-.25.72-.35,1A11.55,11.55,0,0,1,136.28,175.35Zm-.18-2.84h-2.68v-3.33h2.68Zm-.67-.66v-2h-1.35v2Zm2.83-3.65h-3.74v-.67h3.74Zm1.9,8-.52.48a10,10,0,0,0-1.7-1.77,10.91,10.91,0,0,1-1.28,1.86l-.58-.44a9.36,9.36,0,0,0,1.95-3.51l.68.24a11.54,11.54,0,0,1-.48,1.2A12.47,12.47,0,0,1,140.16,176.17Zm-.63-3.66h-2.7v-3.33h2.7Zm-.66-.66v-2h-1.39v2Z" transform="translate(-7.43 -0.99)"/><path class="cls-28" d="M154.25,176.11l-.43.65a19.13,19.13,0,0,1-3.63-2.19,14.58,14.58,0,0,1-4.64,2.16l-.47-.67a12.61,12.61,0,0,0,4.53-2,15.85,15.85,0,0,1-2.94-4.7h-.26a13.15,13.15,0,0,1-3.93,7.21l-.55-.57a14.2,14.2,0,0,0,3-4.22,20.84,20.84,0,0,0,1.17-6.31H143v-.74h9.17c-.34,1-.79,2.35-1.37,3.89h2.57a11.26,11.26,0,0,1-2.61,5.45A15.87,15.87,0,0,0,154.25,176.11Zm-3.11-10.63h-4.27q-.18,2.11-.3,3.15h3.48C150.5,167.41,150.86,166.36,151.14,165.48Zm1.32,3.89h-5a13.67,13.67,0,0,0,2.73,4.23A9.23,9.23,0,0,0,152.46,169.37Z" transform="translate(-7.43 -0.99)"/><path class="cls-28" d="M168.37,171.14h-4.53v.75h3.41v4.76h-.7v-.5h-8.46v.5h-.71v-4.76H161c0-.36,0-.61,0-.75h-4.79v-.63h12.15Zm-5.56-5.88h-3.57l.38.24a2.6,2.6,0,0,1-.23.37h2.87v.58h-1.53c0,.16,0,.36-.1.6h1.9v.61h-1.76a11.25,11.25,0,0,1,1.49,1l-.4.46a8.2,8.2,0,0,0-1.67-1.14,4,4,0,0,1-1.84,1.09l-.38-.53a3.34,3.34,0,0,0,1.69-.91H158v-.61h2a1.38,1.38,0,0,0,.13-.6h-1.22a5.23,5.23,0,0,1-.47.35l-.52-.39a3.89,3.89,0,0,0,1.14-1.15h-1.49V169a.34.34,0,0,0,.33.33h4.41v.6h-4.39a.91.91,0,0,1-1-1v-3.63h-.43v-.63h6.4Zm3.74,10.28V173.9h-2.38a1,1,0,0,1-.84-.29,1.29,1.29,0,0,1-.2-.74v-.35H161.5c-.32.91-1.23,1.52-2.75,1.84l-.35-.65a3.14,3.14,0,0,0,2.38-1.19h-2.69v3Zm-1.37-.56h-5.76v-.6h5.76Zm-2.05-3.09v-.75H161.7a5.05,5.05,0,0,1,0,.75Zm5.13-5.38H167c-.5,0-.75-.27-.75-.82v-.41h-2a2.37,2.37,0,0,1-1,1.49l-.56-.41a1.62,1.62,0,0,0,.85-1.69h3.29v1.05a.18.18,0,0,0,.2.19h1.16Zm-.09,3.2-.37.52a18,18,0,0,0-1.91-1,9.54,9.54,0,0,1-2.83,1l-.3-.57a10.47,10.47,0,0,0,2.38-.77,14.66,14.66,0,0,0-1.85-.77l.28-.38H163v-.63h4.74v.63a5.1,5.1,0,0,1-1.2,1.1Zm-1.62,3.57v-.76h-2.71V173c0,.17.08.25.24.25Zm.21-5.6H164q1.62.67,1.83.78A4.94,4.94,0,0,0,166.76,167.68Z" transform="translate(-7.43 -0.99)"/><path class="cls-28" d="M182.46,166.21h-9.54v3.88a10.63,10.63,0,0,1-2.07,6.51l-.57-.52a9,9,0,0,0,1.89-4.9c-.92.66-1.46,1-1.64,1.14l-.36-.62a16.29,16.29,0,0,0,2.07-1.43v-4.75h4.66a7,7,0,0,0-.53-.91l.72-.26c.14.26.35.65.61,1.17h4.76ZM171.74,169l-.63.37a10.83,10.83,0,0,0-.91-2.43l.61-.36A14.94,14.94,0,0,1,171.74,169Zm4.21,5.63a9.56,9.56,0,0,1-2.52,1.71l-.53-.56a9,9,0,0,0,2.52-1.6Zm6.52-3.84-.37.65a13.32,13.32,0,0,1-1.31-.65v2.85h-2.7v2.05c0,.41-.12.67-.38.79a2.62,2.62,0,0,1-1.1.19H176l-.24-.72c.33,0,.62,0,.87,0a1.51,1.51,0,0,0,.68-.09.36.36,0,0,0,.14-.32V173.6h-2.73v-2.85a11.66,11.66,0,0,1-1.11.67l-.45-.59a8.27,8.27,0,0,0,1.61-1,8,8,0,0,0-1.21-1l.51-.5a10.09,10.09,0,0,1,1.24,1,4.81,4.81,0,0,0,1.18-1.43h-2.67v-.67h3c.11-.21.23-.48.36-.79l.76.12c-.07.16-.18.38-.33.67h4.57V168H178.8a6.33,6.33,0,0,0,1.17,1.36,6.15,6.15,0,0,0,1.34-1.05l.52.51a7.4,7.4,0,0,1-1.28,1A6.68,6.68,0,0,0,182.47,170.75Zm-2.39.5v-.92h-4.69v.92Zm0,1.7v-1h-4.69v1Zm-.76-3.26A6.45,6.45,0,0,1,178,168h-.73a9.92,9.92,0,0,1-1.28,1.71Zm3,6.17-.49.55a15,15,0,0,0-2.68-1.62l.43-.53A12.22,12.22,0,0,1,182.34,175.86Z" transform="translate(-7.43 -0.99)"/><path class="cls-28" d="M187.26,168.74a5.26,5.26,0,0,1,1.17,3.23,1.62,1.62,0,0,1-.33,1,1.76,1.76,0,0,1-1.38.4,4.43,4.43,0,0,1-.52,0l-.28-.74.78,0a1.38,1.38,0,0,0,.83-.17.63.63,0,0,0,.2-.51,5.11,5.11,0,0,0-1.22-3.14c.3-.93.65-2.07,1.05-3.41h-2.05v11.21h-.71V164.73h3.52v.71C188,166.54,187.64,167.64,187.26,168.74Zm9.31,5.17a6.18,6.18,0,0,1-.17,1.66,1.19,1.19,0,0,1-.5.75,2.86,2.86,0,0,1-1.34.2c-.79,0-1.18-.29-1.18-.87v-4.3h-1.6a6.41,6.41,0,0,1-1,3.46,6.22,6.22,0,0,1-2.43,1.83l-.53-.62a5.17,5.17,0,0,0,2.37-1.66,4.88,4.88,0,0,0,.81-3H189v-.7h7.41v.7h-2.25v4.14a.37.37,0,0,0,.09.22c.07.07.27.1.62.1a2,2,0,0,0,.62-.06.6.6,0,0,0,.23-.17,2,2,0,0,0,.14-.68,9.4,9.4,0,0,0,.05-1.21Zm-.28-5.29h-.73v-2.08h-5.91v2.08h-.73V165.8h3.25a7,7,0,0,0-.49-1.28l.74-.2a9.88,9.88,0,0,1,.54,1.48h3.33Zm-1.29.27h-4.76v-.69H195Z" transform="translate(-7.43 -0.99)"/><path class="cls-28" d="M204.25,165.05a14.92,14.92,0,0,1-4.16,1.08v1.66h3.67v4.08h-3.68a11.18,11.18,0,0,1-1.11,4.69l-.61-.43a10.38,10.38,0,0,0,1-4.73v-5.85a14.56,14.56,0,0,0,4.56-1.13Zm-1.2,6.11v-2.68h-3v2.68Zm7.62-1.63h-1.59v7.17h-.69v-7.17h-2.51a14.05,14.05,0,0,1-.48,4.27,13.13,13.13,0,0,1-1.49,2.9l-.58-.48a9.28,9.28,0,0,0,1.51-3,15.8,15.8,0,0,0,.32-3.52v-4.28a15.22,15.22,0,0,0,5-1l.38.63a15.92,15.92,0,0,1-4.63,1v2.79h4.79Z" transform="translate(-7.43 -0.99)"/><path class="cls-28" d="M216.91,166.54h-4.33v-.72h1.88a7.36,7.36,0,0,0-.56-1.29l.63-.24a7.44,7.44,0,0,1,.67,1.53h1.71Zm-.27,2h-3.75v-.71h3.75Zm0,2h-3.75v-.7h3.75Zm-.26,5.73h-.7v-.76h-1.84v1.09h-.71v-4.7h3.25Zm-.7-1.46v-2.19h-1.84v2.19Zm2.77-2.71a14.1,14.1,0,0,1-1.07,3.4l-.65-.28a13.66,13.66,0,0,0,1-3.29Zm5.78-7.38q0,1.54-.18,3a11.91,11.91,0,0,1-.21,1.73,1.26,1.26,0,0,1-.32.49,1.5,1.5,0,0,1-.63.32,5.45,5.45,0,0,1-1.41.06l-.21-.75c.44,0,.76,0,1,0a1,1,0,0,0,.93-.41,16,16,0,0,0,.35-3.77h-1.9q-.26,4.26-4,5.42l-.42-.57a5.9,5.9,0,0,0,2.57-1.63,8.26,8.26,0,0,0-1.75-1.5l.47-.49a9.17,9.17,0,0,1,1.69,1.4,6,6,0,0,0,.7-2.63h-3.47v-.71Zm-1.39,9.15a6.12,6.12,0,0,1-.27,1.9,1,1,0,0,1-.51.55,4,4,0,0,1-1.3.13,2.2,2.2,0,0,1-1.25-.25,1.12,1.12,0,0,1-.34-.94v-3.35h.69v3.42a.36.36,0,0,0,.19.32,2.45,2.45,0,0,0,1,.12c.43,0,.7-.08.82-.24a5.47,5.47,0,0,0,.3-1.84ZM222,172.3l-.5.49a12.87,12.87,0,0,0-1.6-1.89l.46-.5A9.5,9.5,0,0,1,222,172.3Zm2.77,2.73-.67.31a15.48,15.48,0,0,0-1.06-3.25l.6-.26A17.58,17.58,0,0,1,224.75,175Z" transform="translate(-7.43 -0.99)"/><path class="cls-28" d="M238.24,175.59a.85.85,0,0,1-.48.89,4.34,4.34,0,0,1-1,.13l-1.61,0-.3-.74c.25,0,1,0,2.3,0,.25,0,.38-.12.38-.36V165.44h-9.42v11.21h-.72V164.74h10.85Zm-1.89-7.71h-7v-.72h7Zm-.79,5.91h-5.48v-4.15h5.48Zm-.76-.75v-2.68h-4V173Z" transform="translate(-7.43 -0.99)"/><path class="cls-28" d="M253.06,175.7l-.28.75h-5.15a4,4,0,0,1-3.33-1.31,33,33,0,0,1-2.94,1.53l-.47-.66a27.56,27.56,0,0,0,6.25-3.75,21.44,21.44,0,0,0,4.16-4.84h-9.72v-.78h5.35a7.92,7.92,0,0,0-1.09-2l.78-.29a11.66,11.66,0,0,1,1.14,2.26h4.45v.78a21.41,21.41,0,0,1-7.26,7.33,3.38,3.38,0,0,0,2.7.95Z" transform="translate(-7.43 -0.99)"/><path class="cls-28" d="M267.14,168.45l-.47.61a16.51,16.51,0,0,1-5.7-3.73,21.34,21.34,0,0,1-5.67,3.75l-.47-.63a17,17,0,0,0,6.12-4.18l.71.28a.75.75,0,0,1-.2.3A16.34,16.34,0,0,0,267.14,168.45Zm-1.76,8.24h-.74v-.93h-7.32v.93h-.76v-5.57h8.82Zm-.74-1.67v-3.15h-7.32V175Zm0-5.84h-7.25v-.74h7.25Z" transform="translate(-7.43 -0.99)"/><path class="cls-28" d="M273.43,170l-.52.51a7.12,7.12,0,0,0-1-1.45v7.57h-.71v-6.92a14.64,14.64,0,0,1-1.81,3.17l-.5-.62a13.92,13.92,0,0,0,2.26-4.23h-1.89v-.72h1.94v-2.87h.71v2.87h1.42V168h-1.42v.08A9.32,9.32,0,0,1,273.43,170Zm7.86.57-.45.65a17.75,17.75,0,0,1-3.46-1.75,15.32,15.32,0,0,1-3.63,1.73l-.41-.61a14.39,14.39,0,0,0,3.41-1.6,6.93,6.93,0,0,1-1.52-1.74,10.9,10.9,0,0,1-.93.73l-.6-.5a9.46,9.46,0,0,0,3.05-3.18l.73.23a5.59,5.59,0,0,1-.68,1h3.59v.69A11.84,11.84,0,0,1,278,169,13.31,13.31,0,0,0,281.29,170.55Zm-1.06,6.06h-.72V176H275.2v.6h-.73v-5.13h5.76Zm-.72-1.31v-3.08H275.2v3.08Zm0-9.09h-3.26a6.13,6.13,0,0,1-.49.53,6.08,6.08,0,0,0,1.62,1.83A8.67,8.67,0,0,0,279.51,166.21Z" transform="translate(-7.43 -0.99)"/><path class="cls-28" d="M30.66,192.14a12.17,12.17,0,0,1-.88,3.19L29.1,195a10.23,10.23,0,0,0,.88-3Zm3.69-.9-.65.34a3.32,3.32,0,0,0-.28-.82,39.22,39.22,0,0,1-4,.79l-.19-.68A12,12,0,0,0,32,188c-1.08.12-1.92.19-2.49.23l-.14-.64a13.56,13.56,0,0,0,2.55-4.29l.64.28a15,15,0,0,1-2.08,3.83,18.06,18.06,0,0,0,2-.17,14,14,0,0,0,.83-1.48l.65.35a16.55,16.55,0,0,1-3.39,4.56,20.57,20.57,0,0,0,2.53-.53,4.52,4.52,0,0,0-.4-.79l.65-.3A11.42,11.42,0,0,1,34.35,191.24Zm-1.88,3.7-.78.11a15.47,15.47,0,0,0-.26-2.84l.67-.17A13.77,13.77,0,0,1,32.47,194.94Zm1.88-.6-.69.26a14.39,14.39,0,0,0-.69-2.41l.62-.27A10.79,10.79,0,0,1,34.35,194.34Zm6.95-8.49H38.09V188h2.76v.69H34.69V188h2.69v-2.14H34.3v-.67h3.08v-1.92h.71v1.92H41.3Zm-.81,9.59h-.71v-.79h-4v.79h-.71V190.3h5.43Zm-.71-1.51V191h-4v2.93Z" transform="translate(-7.43 -0.99)"/><path class="cls-28" d="M55.51,194.28l-.35.63a11.81,11.81,0,0,1-2.91-1.65,12.8,12.8,0,0,1-2.49-2.33v4.52H49v-4.53a14.47,14.47,0,0,1-5.39,3.93l-.5-.64a13.56,13.56,0,0,0,5.15-3.5h-5V190H49v-1.35H44.6v-5.1h9.58v5.1H49.76V190h5.68v.7H50.51A12.15,12.15,0,0,0,55.51,194.28ZM49,185.72v-1.44H45.33v1.44ZM49,188v-1.53H45.33V188Zm4.4-2.23v-1.44H49.76v1.44Zm0,2.23v-1.53H49.76V188Z" transform="translate(-7.43 -0.99)"/><path class="cls-28" d="M63.29,190.63a.79.79,0,0,1-.51-.68.69.69,0,0,1,.17-.41.61.61,0,0,1,.49-.21q.66,0,.66.87a1.81,1.81,0,0,1-.83,1.36l-.3-.23A1.28,1.28,0,0,0,63.29,190.63Z" transform="translate(-7.43 -0.99)"/><path class="cls-28" d="M77.85,186.18c-.3.07-.59.13-.86.17a12.26,12.26,0,0,1-1.34,5.84c.76.57,1.43,1.09,2,1.57l-.5.56a22.61,22.61,0,0,0-1.88-1.51,12.31,12.31,0,0,1-3.18,2.69l-.53-.57a10.69,10.69,0,0,0,3.1-2.54c-.74-.53-1.58-1.08-2.54-1.64a31.37,31.37,0,0,0,.94-3.82c-.5.06-1,.11-1.46.14l0-.76c.5,0,1-.07,1.66-.15a23.07,23.07,0,0,0,.42-3h.75c-.1.91-.25,1.86-.43,2.86.77-.08,1.55-.19,2.35-.32a4.85,4.85,0,0,0,0-.58c0-.15,0-.36,0-.61H77a8.67,8.67,0,0,1,0,1,5.9,5.9,0,0,0,.8-.15Zm-1.58.32c-.75.13-1.57.24-2.46.35-.35,1.67-.63,2.87-.86,3.58.58.33,1.28.78,2.1,1.32A11.74,11.74,0,0,0,76.27,186.5Zm6.87,8.41h-.75v-1.19H79.1v1.19h-.78V184.45h4.82Zm-.75-2v-7.76H79.1V193Z" transform="translate(-7.43 -0.99)"/><path class="cls-28" d="M97.81,185.54H90.88a17.84,17.84,0,0,1-1,1.57h6.88v7.3a.89.89,0,0,1-.39.84,4.52,4.52,0,0,1-1.84.23c-.37,0-.73,0-1.08,0l-.35-.73c.42,0,.87.06,1.36.06a4.79,4.79,0,0,0,1.36-.1.36.36,0,0,0,.22-.36v-1.82H89.12a5.9,5.9,0,0,1-1.56,3l-.69-.41q1.72-1.55,1.73-5.43c0-.27,0-.62,0-1a17,17,0,0,1-2.53,2.13l-.56-.55a14.42,14.42,0,0,0,4.52-4.7H85.63v-.72h4.81c.26-.49.54-1,.81-1.66l.75.21c-.27.6-.5,1.08-.71,1.45h6.52ZM96,191.8v-1.68H89.3a14.61,14.61,0,0,1-.07,1.68Zm0-2.4v-1.6H89.34v1.6Z" transform="translate(-7.43 -0.99)"/><path class="cls-28" d="M105.81,191.45h-2.42a4.11,4.11,0,0,1-.2.7,17.58,17.58,0,0,1,1.86,1.7l-.48.53a10.39,10.39,0,0,0-1.66-1.53,6.45,6.45,0,0,1-2.68,2.62l-.54-.53a5,5,0,0,0,2.93-3.49H99.84v-.67h2.88c0-.36.08-.89.1-1.6h-1.47a10.52,10.52,0,0,1-.94,1.19l-.57-.41a7.77,7.77,0,0,0,1.6-2.5l.65.28a7.16,7.16,0,0,1-.34.75h3.53v.69h-1.76a14.85,14.85,0,0,1-.07,1.6h2.36Zm-.33-4.27h-4.06a.91.91,0,0,1-.68-.27.9.9,0,0,1-.27-.64v-3.05h.72v1.14h3.94v.69h-3.94v1.18c0,.2.11.29.34.29h4Zm6.52,7.27-.19.77a8.32,8.32,0,0,1-3.23-.47,3.68,3.68,0,0,1-1.69-1.65,7.61,7.61,0,0,1-1.49,2.39l-.52-.5a6.61,6.61,0,0,0,1.5-2.63,12.65,12.65,0,0,0,.27-2.8h.7a14.57,14.57,0,0,1-.22,2.51,3.48,3.48,0,0,0,1.38,1.82v-5.67h-2.74v-.69h3.46a14,14,0,0,0-2.47-1.9l.48-.52c.45.29.91.62,1.39,1a9.42,9.42,0,0,0,2-1.89H106.2v-.69h5.24v.69a10,10,0,0,1-2.25,2.33l.66.59-.35.4h2.16v.69a11,11,0,0,1-.78,1.7l-.63-.31a7.08,7.08,0,0,0,.65-1.39h-1.64v2.45h2.07v.69h-2.07v2.86a4.72,4.72,0,0,0,1.91.25C111.47,194.47,111.75,194.47,112,194.45Z" transform="translate(-7.43 -0.99)"/><path class="cls-28" d="M125.81,185.14a13,13,0,0,1-.92,2.21l-.67-.22a9.38,9.38,0,0,0,.59-1.34H119.6v.84l3.86-.19.05.62-3.91.2v.31c0,.21.13.31.39.31h4.43v.63h-4.64a.77.77,0,0,1-.88-.86v-.33l-2.27.09,0-.62,2.32-.12v-.88h-3.07v2.42a14,14,0,0,1-1.48,7.09l-.59-.4a13.65,13.65,0,0,0,1.35-6.69v-3.07h4v-1.92h.72v.57h5.32v.65h-5.32v.7Zm-8.17,8.12a8.43,8.43,0,0,1-1.23,2l-.59-.38a11.77,11.77,0,0,0,1.2-1.9Zm7.39-.83H117v-3.3H125Zm-4.37-2v-.65h-3v.65Zm0,1.35v-.71h-3v.71Zm3.18,2.27a1.65,1.65,0,0,1-.5,1.1,2,2,0,0,1-1.19.31l-2.63,0c-.63,0-.94-.32-.94-1v-1.53h.72v1.44c0,.2.06.32.18.37a4.54,4.54,0,0,0,1,.06,19.37,19.37,0,0,0,2.14-.07c.35,0,.54-.36.58-1Zm-1.79-.52-.42.57a9.13,9.13,0,0,0-1.53-.87l.41-.54A7.21,7.21,0,0,1,122.05,193.54Zm2.29-3.1v-.65h-3v.65Zm0,1.35v-.71h-3v.71Zm1.67,2.9-.57.39a10.83,10.83,0,0,0-1.41-1.79l.59-.39A9.73,9.73,0,0,1,126,194.69Z" transform="translate(-7.43 -0.99)"/><path class="cls-28" d="M132.14,185.31h-4.25v-.69H130a8,8,0,0,0-.63-1.23l.64-.3a12.68,12.68,0,0,1,.73,1.53h1.42Zm-.17,2h-3.74v-.72H132Zm0,2.1h-3.74v-.73H132Zm-.21,5.68h-.71v-.75h-1.94v1.1h-.7v-4.62h3.35Zm-.71-1.46v-2.12h-1.94v2.12Zm9-5.38h-7.61v-.65h3.5v-1H133v-.64h2.9v-1h-3.19v-.65h3.19v-1.1h.71v1.1h3.12V185h-3.12v1h2.8v.64h-2.8v1H140Zm-.85,6.09a1.1,1.1,0,0,1-.32.83,3.76,3.76,0,0,1-2.13.25l-.25-.71H138a.41.41,0,0,0,.28-.12.36.36,0,0,0,.14-.27v-1.14h-4.52a6.4,6.4,0,0,1-1,2.32l-.53-.48a6.18,6.18,0,0,0,1-3.7v-2.19h5.81Zm-.73-1.83v-1.06H134a6.34,6.34,0,0,1-.06,1.06Zm0-1.7v-1h-4.4v1Z" transform="translate(-7.43 -0.99)"/><path class="cls-28" d="M149.52,188.65l-.62.39a12.4,12.4,0,0,0-.76-1.41c-.58.1-1.22.21-1.91.31v2.19h2.71v.72h-2.71v2.87c1.09-.16,2.12-.34,3.1-.56v.73c-2.39.49-4.81.88-7.24,1.15l-.16-.72c1.58-.19,2.78-.35,3.58-.46v-3h-3.19v-.72h3.19V188c-1.13.14-2.18.23-3.15.28l-.12-.61a8.94,8.94,0,0,0,2.71-3.44h-2.81v-.74h7.18v.74h-3.49a15.44,15.44,0,0,1-2.24,3.25,39.34,39.34,0,0,0,4.17-.55c-.26-.39-.57-.84-1-1.35l.63-.37A17.8,17.8,0,0,1,149.52,188.65Zm1.54,4.16h-.74v-8.68h.74Zm2.8,1.32c0,.83-.4,1.24-1.19,1.24h-1.89l-.3-.74c.69,0,1.38,0,2.05,0q.6,0,.6-.63V183.15h.73Z" transform="translate(-7.43 -0.99)"/><path class="cls-28" d="M168.4,194.9l-.5.63a12.81,12.81,0,0,1-3.61-3.34,13.3,13.3,0,0,1-2-4.7,11.7,11.7,0,0,1-5.72,8l-.48-.64a14.72,14.72,0,0,0,2.38-1.89,11.32,11.32,0,0,0,1.9-2.32,10,10,0,0,0,1.17-3.35h-5.2v-.72h5.33a28.34,28.34,0,0,0,.24-3.41h.8c0,1.22-.13,2.36-.26,3.41h5.73v.72H163a12.61,12.61,0,0,0,2.07,4.7A12,12,0,0,0,168.4,194.9Z" transform="translate(-7.43 -0.99)"/><path class="cls-28" d="M182.41,193.13h-5.72v1.4a.74.74,0,0,1-.26.62.88.88,0,0,1-.61.22h-1.66l-.24-.69.81,0a4.18,4.18,0,0,0,1.11-.08.36.36,0,0,0,.15-.34v-1.16h-5.74v-.66H176v-.56a22.68,22.68,0,0,0,2.27-.91h-5.63v-.65h7.13V191a30.13,30.13,0,0,1-3.07,1.35v.12h5.72Zm-.3-1.89h-.73v-1.76H171.26v1.76h-.7v-2.42h.73l0-5a10.32,10.32,0,0,0,2.61-.67l.33.56a9.84,9.84,0,0,1-2.25.65v1h2.26V186H172V187h2.22v.66H172v1.12h8.59V187.7h-2.21V187h2.23V186h-2.24v-.64h2.27l0-1h-2.42v-.64h3.13l-.12,5.15h.84Zm-4-3.2-.46.45c-.13-.13-.54-.47-1.23-1a9.87,9.87,0,0,1-1.7,1l-.34-.57a14.66,14.66,0,0,0,1.52-.84,5.83,5.83,0,0,0-.6-.45l-.51-.35.42-.43,1.21.85a4.92,4.92,0,0,0,.91-.81l.52.37a6.88,6.88,0,0,1-.92.87C177.17,187.23,177.56,187.54,178.15,188Zm0-2.68-.46.41a9.82,9.82,0,0,0-1.19-1,10.36,10.36,0,0,1-1.6.9l-.31-.56a9.43,9.43,0,0,0,1.39-.76,8.17,8.17,0,0,0-1-.77l.46-.41c.56.41.91.67,1.07.8a6.4,6.4,0,0,0,1-.93l.53.28a6.88,6.88,0,0,1-1,1.06A10.29,10.29,0,0,1,178.11,185.36Z" transform="translate(-7.43 -0.99)"/><path class="cls-28" d="M188.27,194.32h-.71v-.8h-1.94v1.15h-.7V183.84h3.35Zm-.71-7.6v-2.18h-1.94v2.18Zm0,3v-2.27h-1.94v2.27Zm0,3.13v-2.44h-1.94v2.44Zm8-3.81h-5.13v5.53a24.83,24.83,0,0,0,2.45-.91l.13.69a30.77,30.77,0,0,1-3.21,1.16l-.33-.65a.52.52,0,0,0,.28-.43v-10.8h5.81Zm-.71-3.05v-1.71h-4.42V186Zm0,2.37v-1.71h-4.42v1.71ZM196.5,195l-.53.56a9.13,9.13,0,0,1-3.74-5.57l.67-.21a8.19,8.19,0,0,0,.69,1.89,12.23,12.23,0,0,0,2.08-1.79l.59.41a15.1,15.1,0,0,1-2.34,2A8.41,8.41,0,0,0,196.5,195Z" transform="translate(-7.43 -0.99)"/><path class="cls-28" d="M204.08,183.69a12.51,12.51,0,0,1-2.17.72v2.24H204v.72h-2.07v.71a15.93,15.93,0,0,1,2.07,2.4l-.52.59a13.16,13.16,0,0,0-1.55-2v6.34h-.71v-6.56a20.23,20.23,0,0,1-2.27,3.53l-.51-.62a14.62,14.62,0,0,0,2.7-4.39h-2.64v-.72h2.72V184.6c-.39.09-1.07.21-2,.37l-.4-.7a17.81,17.81,0,0,0,4.84-1.16Zm6.66,8-1.43.22v3.51h-.73V192l-4.61.69-.06-.72,4.67-.72v-8.09h.73v8l1.4-.19Zm-3.33-1.81-.5.56a11.81,11.81,0,0,0-2.58-2.46l.47-.56A12.17,12.17,0,0,1,207.41,189.88Zm.32-3.77-.44.63a13.49,13.49,0,0,0-2.51-2.18l.42-.56A13.36,13.36,0,0,1,207.73,186.11Z" transform="translate(-7.43 -0.99)"/><path class="cls-28" d="M216,183.32c-.18.5-.43,1.12-.75,1.87l-.48,1.08v9.18h-.71v-7.8c-.41.73-.81,1.36-1.17,1.88l-.45-.71a22.5,22.5,0,0,0,2.89-5.73Zm4,2.64v.69h-1.81v2.81h1.42v4.47h-3.51v-4.47h1.39v-2.81h-2V186h2v-2.77h.7V186Zm-1.11,7.28v-3.09h-2.08v3.09Zm5.92,1.61-.48.57a12.06,12.06,0,0,1-2-2.29,10.51,10.51,0,0,1-2.45,2.34l-.56-.53a8.81,8.81,0,0,0,2.61-2.51,13.52,13.52,0,0,1-1-3.77l.67-.26a11.76,11.76,0,0,0,.78,3.24,9.4,9.4,0,0,0,.81-4.36c0-.33,0-.69,0-1.08h-1.67a11.8,11.8,0,0,1-1.45,2.9l-.56-.41a16.3,16.3,0,0,0,2.12-5.53l.69.19a17.13,17.13,0,0,1-.59,2.16h3.07v.69h-.9a12.48,12.48,0,0,1-1.08,6.26A9.57,9.57,0,0,0,224.86,194.85Z" transform="translate(-7.43 -0.99)"/><path class="cls-28" d="M238.89,190.37h-4.61v3.81a.26.26,0,0,0,.16.26,6.61,6.61,0,0,0,1.6.09,6.14,6.14,0,0,0,1.53-.1c.17-.07.27-.76.31-2.07l.75.28a3.83,3.83,0,0,1-.43,2.22,3.16,3.16,0,0,1-2,.41,11.48,11.48,0,0,1-2.06-.09.85.85,0,0,1-.41-.35,1.18,1.18,0,0,1-.17-.65v-3.81h-2.27c0,2.69-1.36,4.39-4.12,5.08l-.5-.65c2.65-.59,3.93-2.06,3.82-4.43h-3.8v-.71h12.21Zm-.51-2.46h-.77v-2.49h-9.67v2.49h-.78v-3.22h5.19c-.36-.73-.6-1.18-.7-1.37l.77-.25a12,12,0,0,1,.8,1.62h5.16Zm-1.75-.29h-7.71v-.69h7.71Z" transform="translate(-7.43 -0.99)"/><path class="cls-28" d="M247.35,184.71h-2.79v.89h2.29v2.33h-2.29v.29a13.43,13.43,0,0,1,2.06,1.05l-.31.62a14.89,14.89,0,0,0-1.75-1v1.43h-.68v-1.71a13,13,0,0,1-2.63,1.76l-.48-.58a10.5,10.5,0,0,0,2.88-1.9h-2.18V185.6h2.41v-.89h-3V184h3v-.75h.68V184h2.79ZM253,195.25H240.8v-.67h2.45v-2.2h.7v2.2h2.66v-3h-5.48V191H252.7v.66h-5.35v1.08h4.83v.63h-4.83v1.24H253Zm-9.1-8v-1H242.2v1Zm2.27,0v-1h-1.59v1Zm6.9,2.48-.38.66a7.07,7.07,0,0,1-2.47-1.26,12.48,12.48,0,0,1-2.7,1.28l-.5-.6a9.64,9.64,0,0,0,2.7-1.2,5.72,5.72,0,0,1-1-1.61l.63-.31a4.71,4.71,0,0,0,.89,1.47,4.38,4.38,0,0,0,1.24-2.69h-2.26a7.88,7.88,0,0,1-1.59,1.9l-.51-.47a7.69,7.69,0,0,0,2.39-3.68l.63.26a5.57,5.57,0,0,1-.54,1.32h3.3v.67h-.74a5,5,0,0,1-1.43,3.18A6.17,6.17,0,0,0,253.05,189.73Z" transform="translate(-7.43 -0.99)"/><path class="cls-28" d="M259.71,185.42h-4.85v-.73H257a6.61,6.61,0,0,0-.56-1.25l.7-.28a7.72,7.72,0,0,1,.61,1.53h1.94Zm-.36,2h-4.09v-.7h4.09Zm0,2h-4.09v-.69h4.09Zm-.27,5.73h-.76v-.74h-2.13v1h-.73v-4.65h3.62Zm-.76-1.45v-2.2h-2.13v2.2Zm8.75-1.28h-3.33v3H263v-3h-3.3v-.7H263v-2.17h-2.69v-.7H263v-2.06h-3v-.7h6.75v.7h-3v2.06h2.72v.7h-2.72v2.17h3.33Zm-4.59-7.19-.69.32a8.11,8.11,0,0,0-1.15-2l.63-.41A10.16,10.16,0,0,1,262.48,185.27Zm3.68-1.79a11.15,11.15,0,0,1-1.4,2.05l-.68-.38a9.3,9.3,0,0,0,1.43-2Z" transform="translate(-7.43 -0.99)"/><path class="cls-28" d="M270.59,192.19a16.28,16.28,0,0,1-.95,3.23l-.7-.26a14.18,14.18,0,0,0,.95-3.15Zm3.76-6.81a38.13,38.13,0,0,1-3.87,5.25c.51-.09,1.41-.29,2.69-.59-.11-.3-.23-.57-.34-.82l.62-.26a9.13,9.13,0,0,1,.84,2.27l-.65.25a6.87,6.87,0,0,0-.24-.85,37.34,37.34,0,0,1-3.93.88l-.21-.62a21.5,21.5,0,0,0,2.82-3.39,20.62,20.62,0,0,1-2.44.48l-.21-.63a17.08,17.08,0,0,0,2.45-4.15l.72.23a27.5,27.5,0,0,1-2.15,3.71,17.68,17.68,0,0,0,2.16-.4c.31-.45.66-1,1.07-1.67ZM272.3,195l-.71.1a16.26,16.26,0,0,0-.26-3L272,192A14.16,14.16,0,0,1,272.3,195Zm1.93-.45-.68.2a13.19,13.19,0,0,0-.59-2.69l.67-.18A15,15,0,0,1,274.23,194.57Zm6.6.87h-.69v-.92h-4.52v.93h-.71V183.54h5.92Zm-3.31-7v-4.18h-1.9v4.18Zm0,5.36v-4.64h-1.9v4.64Zm2.62-5.36v-4.18h-1.89v4.18Zm0,5.36v-4.64h-1.89v4.64Z" transform="translate(-7.43 -0.99)"/><path class="cls-28" d="M34,214h-.71v-1.2h-3v1.48H29.6v-9.92h1.3a13.94,13.94,0,0,0,1-2.41l.7.14c-.17.5-.48,1.25-1,2.27H34ZM33.33,208v-3h-3v3Zm0,4v-3.32h-3v3.32Zm7.72-7.72q-.07,3.15-.3,5.85a14.42,14.42,0,0,1-.45,3.17,1.42,1.42,0,0,1-.58.68,2.87,2.87,0,0,1-1.33.21l-1.13,0-.23-.72c.39,0,.8,0,1.24,0s.68,0,.8,0a.73.73,0,0,0,.36-.17,1,1,0,0,0,.28-.38,12.21,12.21,0,0,0,.21-1.61c.09-.93.17-2,.23-3.07s.1-2.21.13-3.26H36.63a19.23,19.23,0,0,1-1.7,2.77l-.57-.4A14.94,14.94,0,0,0,37,202l.71.18a21.51,21.51,0,0,1-.76,2.14Zm-2.58,6.28-.58.41a14.94,14.94,0,0,0-2-3.26l.6-.39A13.43,13.43,0,0,1,38.47,210.62Z" transform="translate(-7.43 -0.99)"/><path class="cls-28" d="M47,208l-.5.56A11.59,11.59,0,0,0,45.35,207v7.28h-.7v-7a15.37,15.37,0,0,1-1.37,3.2l-.52-.53a15.49,15.49,0,0,0,1.82-4.8H42.92v-.64h1.73V202h.7v2.39h1.2v.64h-1.2v.9A14.06,14.06,0,0,1,47,208Zm3.7,5-.46.5a11.9,11.9,0,0,0-1.59-1.33,9.48,9.48,0,0,1-1.8,2.16l-.52-.51a8.77,8.77,0,0,0,2.43-3.46l.65.27-.45,1A11.66,11.66,0,0,1,50.74,213Zm4.51-7.65-.4.62a12.12,12.12,0,0,1-3.9-2.9,14.63,14.63,0,0,1-3.83,3l-.54-.56A11.62,11.62,0,0,0,50.9,202l.68.25a1.54,1.54,0,0,1-.23.33A11.21,11.21,0,0,0,55.25,205.35Zm-4.87,4.72h-2.9v-3.33h2.9Zm-.71-.67v-2h-1.5v2Zm3.21-3.67H49v-.68h3.91Zm2.2,8-.47.49a14.19,14.19,0,0,0-2-1.82,8.66,8.66,0,0,1-1.42,1.87l-.58-.4a9.41,9.41,0,0,0,2.09-3.5l.65.23a10.17,10.17,0,0,1-.48,1.21A14.19,14.19,0,0,1,55.08,213.71Zm-.77-3.64H51.42v-3.33h2.89Zm-.69-.67v-2H52.11v2Z" transform="translate(-7.43 -0.99)"/><path class="cls-28" d="M68.88,206.82l-.43.64a28,28,0,0,0-5.36-2.36v2h4.14V212h-9v-4.91h4.11v-2.74A16.39,16.39,0,0,1,57,207.51l-.49-.65A14.6,14.6,0,0,0,61.8,204H56.66v-.69h5.71V202h.72v1.34H68.8V204H63.09v.39A31,31,0,0,1,68.88,206.82Zm0,7.11H56.63v-.7H68.87Zm-2.38-4.74v-1.38H59v1.38Zm0,2.11v-1.39H59v1.39Z" transform="translate(-7.43 -0.99)"/><path class="cls-28" d="M76.45,206.76a1.41,1.41,0,0,1,1,.4,1.36,1.36,0,0,1,.42,1,1.4,1.4,0,0,1-.38,1,1.3,1.3,0,0,1-1,.4,1.48,1.48,0,0,1-1-.35,1.34,1.34,0,0,1-.42-1.08,1.26,1.26,0,0,1,.42-1A1.4,1.4,0,0,1,76.45,206.76Zm.85,1.42a.76.76,0,0,0-.25-.58.83.83,0,0,0-.59-.22.75.75,0,0,0-.57.24.76.76,0,0,0-.23.56.87.87,0,0,0,.22.57.71.71,0,0,0,.59.27.79.79,0,0,0,.59-.24A.78.78,0,0,0,77.3,208.18Z" transform="translate(-7.43 -0.99)"/></svg>