<svg id="圖層_1" data-name="圖層 1" xmlns="http://www.w3.org/2000/svg" xmlns:xlink="http://www.w3.org/1999/xlink" viewBox="0 0 300.43 285.41"><defs><style>.cls-1{fill:none;}.cls-2{isolation:isolate;}.cls-3{fill:#00a199;}.cls-13,.cls-4{fill:#fff;}.cls-5{fill:#717070;}.cls-6{fill:#d8eef6;}.cls-7{clip-path:url(#clip-path);}.cls-8{fill:#bdb2b2;}.cls-10,.cls-11,.cls-12,.cls-13,.cls-14,.cls-15,.cls-16,.cls-17,.cls-18,.cls-19,.cls-20,.cls-21,.cls-23,.cls-24,.cls-25,.cls-26,.cls-27,.cls-8,.cls-9{fill-rule:evenodd;}.cls-9{fill:#250505;}.cls-10{fill:#1d0305;}.cls-11{fill:#eb685c;}.cls-12{fill:#e8433e;}.cls-14{fill:#dad3d5;}.cls-15{fill:#543331;}.cls-16,.cls-22{fill:#f3a782;}.cls-17{fill:#ef8b70;}.cls-18{fill:#f2efef;}.cls-19{fill:#cfcbcb;}.cls-20{fill:#eeebec;}.cls-21{fill:#ec7861;}.cls-23{fill:#3f211d;}.cls-24{fill:#36130d;}.cls-25{fill:#b36135;}.cls-26{fill:#6a1817;}.cls-27,.cls-28{fill:#530b0e;}.cls-29{fill:#717071;}</style><clipPath id="clip-path" transform="translate(-2.83 -1.46)"><path class="cls-1" d="M304.7,123a81.49,81.49,0,1,0-146.16,0Z"/></clipPath></defs><title>colorResult01</title><g id="視力自檢"><g class="cls-2"><path class="cls-3" d="M7.72,109.94l-.57.64a13.12,13.12,0,0,0-1.36-1.89V117H5v-8a17.73,17.73,0,0,1-1.56,3.66L2.83,112a17.67,17.67,0,0,0,2.07-5.48H3v-.74H5v-2.73h.81v2.73H7.16v.74H5.79v1A17,17,0,0,1,7.72,109.94Zm4.22,5.66-.52.58a14.19,14.19,0,0,0-1.81-1.52,10.39,10.39,0,0,1-2.07,2.46L7,116.55a10.09,10.09,0,0,0,2.78-4l.74.31L10,114A14.37,14.37,0,0,1,11.94,115.6Zm5.16-8.73-.45.7a13.68,13.68,0,0,1-4.47-3.31,16.18,16.18,0,0,1-4.38,3.39L7.19,107a13.26,13.26,0,0,0,4.93-4l.78.29a1.68,1.68,0,0,1-.25.37A12.68,12.68,0,0,0,17.1,106.87Zm-5.57,5.39H8.22v-3.81h3.31Zm-.81-.77v-2.27H9v2.27Zm3.67-4.19H9.93v-.78h4.46Zm2.51,9.12-.53.56a16.29,16.29,0,0,0-2.28-2.08A10,10,0,0,1,12.47,117l-.67-.46a10.66,10.66,0,0,0,2.4-4l.73.26a9.61,9.61,0,0,1-.54,1.39A16.05,16.05,0,0,1,16.9,116.42ZM16,112.26h-3.3v-3.81H16Zm-.78-.77v-2.27H13.51v2.27Z" transform="translate(-2.83 -1.46)"/><path class="cls-3" d="M21.9,109.22l-.6.58a12.87,12.87,0,0,0-2.38-2.21l.55-.65A15.34,15.34,0,0,1,21.9,109.22Zm.09,2.64A28.52,28.52,0,0,1,19.61,117L19,116.5a23.5,23.5,0,0,0,2.28-5Zm.45-6.77-.58.62a11.66,11.66,0,0,0-2.43-2l.47-.6A10,10,0,0,1,22.44,105.09Zm5.1,8.45H24.36l.47.32a12.76,12.76,0,0,1-2.26,3.25l-.66-.55a10.57,10.57,0,0,0,2.16-3H23V103.41h4.59Zm-.78-7.13v-2.22h-3v2.22Zm0,3.11V107.2h-3v2.32Zm0,3.22V110.3h-3v2.44Zm1.2,3.55-.69.41a9.76,9.76,0,0,0-1.57-2.51l.66-.44A10.27,10.27,0,0,1,28,116.29Zm1.87-2.13H29v-10h.8Zm2.57,1.75a1,1,0,0,1-.41.92,3.22,3.22,0,0,1-1.48.23c-.4,0-.8,0-1.19,0l-.21-.79a18.76,18.76,0,0,0,2.26-.07c.16,0,.24-.22.24-.5V103.09h.79Z" transform="translate(-2.83 -1.46)"/><path class="cls-3" d="M36.68,113.25a14,14,0,0,1-1,3.65l-.78-.42a11.41,11.41,0,0,0,1-3.43Zm4.21-1-.74.38a3.55,3.55,0,0,0-.32-.93c-1.43.36-3,.66-4.59.9L35,111.8a13.59,13.59,0,0,0,3.19-3.3c-1.24.14-2.19.22-2.85.26l-.16-.73a15.71,15.71,0,0,0,2.92-4.91l.73.32a17.17,17.17,0,0,1-2.38,4.39,22.37,22.37,0,0,0,2.32-.2c.36-.58.68-1.14.95-1.69l.74.4a19,19,0,0,1-3.87,5.21,22.76,22.76,0,0,0,2.88-.61,4.13,4.13,0,0,0-.45-.89l.74-.36A13.11,13.11,0,0,1,40.89,112.23Zm-2.15,4.22-.89.13a18.59,18.59,0,0,0-.29-3.25l.77-.19A15.92,15.92,0,0,1,38.74,116.45Zm2.15-.68-.78.3a17.25,17.25,0,0,0-.79-2.76l.7-.3A11.8,11.8,0,0,1,40.89,115.77Zm8-9.7H45.16v2.45h3.17v.78h-7v-.78h3.07v-2.45H40.84v-.77h3.52v-2.19h.8v2.19h3.68Zm-.93,11H47.1v-.9H42.52v.9H41.7v-5.86h6.21Zm-.81-1.72V112H42.52v3.35Z" transform="translate(-2.83 -1.46)"/><path class="cls-3" d="M65,115.69l-.4.73a13.69,13.69,0,0,1-3.32-1.88,14.7,14.7,0,0,1-2.84-2.67V117h-.83v-5.18a16.6,16.6,0,0,1-6.16,4.49l-.57-.73a15.38,15.38,0,0,0,5.88-4H51v-.8h6.56v-1.54H52.49v-5.84H63.43v5.84h-5v1.54h6.48v.8H59.24A13.81,13.81,0,0,0,65,115.69Zm-7.39-9.77v-1.65H53.32v1.65Zm0,2.55v-1.75H53.32v1.75Zm5-2.55v-1.65H58.39v1.65Zm0,2.55v-1.75H58.39v1.75Z" transform="translate(-2.83 -1.46)"/><path class="cls-3" d="M72.25,105.57H67l0-.81h2.41a10.68,10.68,0,0,0-.66-1.53l.8-.24a14.69,14.69,0,0,1,.77,1.77h1.92Zm-.42,2.32H67.42v-.84h4.41Zm0,2.2H67.42v-.82h4.41Zm-.15,6.57h-.84v-.83H68.37V117h-.86v-5.33h4.17ZM70.84,115v-2.44H68.37V115Zm10.09-1.48a6.68,6.68,0,0,1-.42,2.77,1.27,1.27,0,0,1-1.13.56H78.07a.88.88,0,0,1-.65-.3,1,1,0,0,1-.29-.7V111H75.65a6.84,6.84,0,0,1-3,6.22l-.65-.61a5.42,5.42,0,0,0,2.12-2.34,7,7,0,0,0,.7-3.27H73.27v-4.26h6.49V111H78v4.75a.26.26,0,0,0,.11.17.33.33,0,0,0,.21.1h1c.31,0,.49-.19.56-.56a21.32,21.32,0,0,0,.19-2.16Zm-5.13-10a13.3,13.3,0,0,1-3,3.13l-.69-.62a11.38,11.38,0,0,0,3-3Zm3.09,6.55v-2.47H74.14v2.47ZM81,106l-.66.63a16.32,16.32,0,0,0-3.08-2.92l.58-.61A26.57,26.57,0,0,1,81,106Z" transform="translate(-2.83 -1.46)"/><path class="cls-3" d="M88.26,114.8h-.83v-1.07H84.31v1.47h-.83V103.71h4.78Zm-.83-6.59v-3.68H84.31v3.68Zm0,4.7V109H84.31v3.87Zm9,2.84a1.27,1.27,0,0,1-.25.8,1.09,1.09,0,0,1-.62.44,14.71,14.71,0,0,1-2.37.05l-.35-.81,1.18,0a5,5,0,0,0,1.43-.1.34.34,0,0,0,.17-.32v-3.91H90.86a12,12,0,0,1-1.75,5.17l-.75-.48c1.22-1.7,1.82-4.2,1.82-7.5v-5.7H96.4Zm-.81-4.64V108H91c0,1.08,0,2.13-.09,3.16Zm0-4v-3H91v3Z" transform="translate(-2.83 -1.46)"/></g></g><rect class="cls-4" x="0.27" y="123.96" width="300.15" height="118.32" rx="8"/><path class="cls-5" d="M36,161.69l-.51.59a14.72,14.72,0,0,1-5.23-7.08v6h3.05v.72H30.22v2.51h-.77V161.9H26.33v-.72h3.12v-6a16.13,16.13,0,0,1-2.11,3.93,16.1,16.1,0,0,1-3.27,3.11l-.48-.62a13.2,13.2,0,0,0,5.05-6.42H23.92v-.73h5.53v-2.4h.77v2.4H35.6v.73H31A13.25,13.25,0,0,0,36,161.69Z" transform="translate(-2.83 -1.46)"/><path class="cls-5" d="M42.16,158.12l-.5.56A11.59,11.59,0,0,0,40.47,157v7.28h-.7v-7a16.24,16.24,0,0,1-1.37,3.21l-.52-.54a15.64,15.64,0,0,0,1.82-4.8H38v-.64h1.73v-2.39h.7v2.39h1.2v.64h-1.2v.9A14.73,14.73,0,0,1,42.16,158.12Zm3.7,5-.46.5a13.61,13.61,0,0,0-1.59-1.33,9.05,9.05,0,0,1-1.8,2.16l-.52-.51a8.73,8.73,0,0,0,2.43-3.45l.65.26-.45.95A11.66,11.66,0,0,1,45.86,163.08Zm4.51-7.64-.4.61a11.76,11.76,0,0,1-3.9-2.9,14.1,14.1,0,0,1-3.84,3l-.53-.56A11.58,11.58,0,0,0,46,152l.69.26a2.07,2.07,0,0,1-.23.32A11.09,11.09,0,0,0,50.37,155.44Zm-4.88,4.71H42.6v-3.33h2.89Zm-.7-.67v-2h-1.5v2ZM48,155.81H44.09v-.68H48Zm2.2,8-.47.48a14.83,14.83,0,0,0-2-1.82,9,9,0,0,1-1.42,1.88l-.59-.41a9.33,9.33,0,0,0,2.1-3.5l.64.23a8.74,8.74,0,0,1-.47,1.21A14.21,14.21,0,0,1,50.2,163.8Zm-.78-3.65H46.54v-3.33h2.88Zm-.68-.67v-2H47.23v2Z" transform="translate(-2.83 -1.46)"/><path class="cls-5" d="M54.94,157.49l-.52.51a11.69,11.69,0,0,0-2.09-1.94l.48-.56A13.72,13.72,0,0,1,54.94,157.49ZM55,159.8a24.11,24.11,0,0,1-2.09,4.54l-.54-.48a20.48,20.48,0,0,0,2-4.41Zm.4-5.92-.51.54a10.74,10.74,0,0,0-2.13-1.76l.41-.53A8.7,8.7,0,0,1,55.42,153.88Zm4.46,7.39H57.09l.41.28a10.88,10.88,0,0,1-2,2.85l-.58-.48a9.5,9.5,0,0,0,1.89-2.65h-1v-8.86h4ZM59.2,155V153.1H56.56V155Zm0,2.73v-2H56.56v2Zm0,2.82v-2.14H56.56v2.14Zm1,3.1-.6.36a8.38,8.38,0,0,0-1.37-2.19l.57-.39A8.71,8.71,0,0,1,60.24,163.68Zm1.64-1.86h-.7V153h.7Zm2.25,1.52a.84.84,0,0,1-.36.81,2.8,2.8,0,0,1-1.3.21c-.35,0-.69,0-1,0l-.18-.7a15.49,15.49,0,0,0,2-.06c.14,0,.2-.18.2-.43v-11h.7Z" transform="translate(-2.83 -1.46)"/><path class="cls-5" d="M78.66,159a25.34,25.34,0,0,1-.14,2.64,8.14,8.14,0,0,1-.3,1.66,1.6,1.6,0,0,1-.41.63,1.54,1.54,0,0,1-.73.38,5.91,5.91,0,0,1-1.48.13l-.28-.8c.21,0,.64,0,1.3,0a1.13,1.13,0,0,0,.59-.15.87.87,0,0,0,.35-.43,7.88,7.88,0,0,0,.22-1.17,19.88,19.88,0,0,0,.16-2.2h-8.6a16.79,16.79,0,0,1-2.2,2.18l-.42-.69A11.93,11.93,0,0,0,71,154.85H67.27v-.73h3.89c.21-.93.34-1.63.41-2.1l.71.15q-.11.78-.36,2h5.15c-.14.78-.3,1.6-.49,2.44H78a21.85,21.85,0,0,1-.43,2.4Zm-8.49-5.47-.65.39a10.28,10.28,0,0,0-1.17-1.44L69,152A10.64,10.64,0,0,1,70.17,153.49Zm.36,7.28a13.09,13.09,0,0,1-1.5,3.37l-.67-.36a13,13,0,0,0,1.51-3.19Zm6.57-3.5H70.86a11.91,11.91,0,0,1-1,1.69h6.92C76.92,158.33,77,157.77,77.1,157.27Zm-.9-2.42H71.74a15.55,15.55,0,0,1-.57,1.71h4.65C75.94,156.07,76.07,155.5,76.2,154.85ZM72.56,164l-.77.14a14.09,14.09,0,0,0-.37-3.35l.69-.15A21.74,21.74,0,0,1,72.56,164Zm2.23-.74-.72.26a13.42,13.42,0,0,0-.77-2.76l.67-.22A20.13,20.13,0,0,1,74.79,163.21Zm2-.77-.66.3a12.08,12.08,0,0,0-.93-2.14l.63-.3A11.54,11.54,0,0,1,76.79,162.44Z" transform="translate(-2.83 -1.46)"/><path class="cls-5" d="M92.76,155.72H83.35v2.18a10.66,10.66,0,0,1-1.68,6.35l-.6-.44a9.38,9.38,0,0,0,1.55-5.59v-5.81H92.76ZM92,155v-1.87H83.35V155Zm1.31,3.28H88.85v1.85h3.6v4.23H91.7v-.75H85.25v.75h-.74v-4.23h3.61v-1.85H83.87v-.67h4.25v-1.39h.73v1.39h4.48Zm-1.63,4.64v-2.09H85.25v2.09Z" transform="translate(-2.83 -1.46)"/><path class="cls-5" d="M107.62,163.09l-.49.63a10.49,10.49,0,0,1-4-3.34,6.64,6.64,0,0,1,.11,1.21,3.08,3.08,0,0,1-.56,2.24,2.77,2.77,0,0,1-1.82.48c-.26,0-.5,0-.71,0l-.24-.72a9,9,0,0,0,.93.05,2.42,2.42,0,0,0,1.11-.17,1.09,1.09,0,0,0,.42-.53,3.69,3.69,0,0,0,.16-1.34,7.52,7.52,0,0,0-.09-1.15,20.36,20.36,0,0,1-6.54,3.3l-.4-.63a17.11,17.11,0,0,0,6.72-3.49,4.21,4.21,0,0,0-.37-1,17,17,0,0,1-5.61,2.61l-.41-.69a14.13,14.13,0,0,0,5.7-2.59,6,6,0,0,0-.56-.82,18.83,18.83,0,0,1-4.39,1.51l-.39-.67a14.63,14.63,0,0,0,5.55-2.1H97.69v-.71h8v.71h-2.8a9.51,9.51,0,0,1-1.24.92,8.41,8.41,0,0,1,1.23,2.35A11.67,11.67,0,0,0,106,156.8l.52.51a11.64,11.64,0,0,1-3.08,2.25A9,9,0,0,0,107.62,163.09Zm-.48-7.43h-.72v-1.75H96.84v1.75h-.73v-2.45h5.32a5.72,5.72,0,0,0-.41-1l.72-.24c.12.27.29.69.49,1.26h4.91Z" transform="translate(-2.83 -1.46)"/><path class="cls-5" d="M115.85,153.63h-4a9.26,9.26,0,0,1-1.52,1.37l-.45-.53a12.19,12.19,0,0,0,2.42-2.48l.65.27c-.09.14-.26.38-.52.73h3.43Zm-.49,5.05h-4v5.63h-.68v-9.05h4.69Zm-.7-2v-.71h-3.31v.71Zm0,1.39v-.79h-3.31V158Zm-.53-3.33-.7.23a5.66,5.66,0,0,0-.44-.81l.64-.21Zm4.62,8.36h-5.53V159.5h5.53Zm-.71-2.18v-.73H113.9v.73Zm0,1.53v-.88H113.9v.88Zm3.85-8.78h-4.65a7.19,7.19,0,0,1-1.11,1.23l-.52-.48a9.26,9.26,0,0,0,1.89-2.32l.62.2a3.41,3.41,0,0,1-.41.73h4.18Zm-.64,9.78a.8.8,0,0,1-.31.71,1.58,1.58,0,0,1-.92.22h-.54l-.25-.72a6,6,0,0,0,.73,0c.4,0,.6-.14.6-.41v-4.57h-3.92v-3.42h4.61Zm-.69-6.77v-.71h-3.23v.71Zm0,1.39v-.79h-3.23V158Zm-.77-3.34-.69.25a4.34,4.34,0,0,0-.58-.84l.71-.22A7.06,7.06,0,0,1,119.79,154.69Z" transform="translate(-2.83 -1.46)"/><path class="cls-5" d="M135.89,158.36c0,1.28-.08,2.43-.19,3.47a4.06,4.06,0,0,1-.44,1.86,2.44,2.44,0,0,1-.54.47,3.06,3.06,0,0,1-1.24.15h-1l-.3-.75c.57,0,1,.06,1.36.06a2,2,0,0,0,.85-.12.82.82,0,0,0,.32-.4,9.36,9.36,0,0,0,.26-1.54c.09-.84.15-1.68.17-2.52h-1.39q-1.54,3.26-6,5.28l-.43-.63q4.21-1.81,5.61-4.65h-2.22a11,11,0,0,1-5.62,3.44l-.43-.63a10.71,10.71,0,0,0,5.16-2.81h-3.07a12.52,12.52,0,0,1-2,1.13l-.51-.57a9.09,9.09,0,0,0,3.58-2.5H126v-4.67h8.75v4.67h-5.95a7.52,7.52,0,0,1-1.11,1.26ZM134,154.44v-1.33h-7.27v1.33Zm0,2v-1.36h-7.27v1.36Z" transform="translate(-2.83 -1.46)"/><path class="cls-5" d="M149.55,164.34h-.76v-1H140.7v1H140V153.7h3.84a6.64,6.64,0,0,0,.76-1.68l.74.17a9,9,0,0,1-.68,1.51h4.94Zm-.76-7.82v-2.06H140.7v2.06Zm0,2.95v-2.2H140.7v2.2Zm0,3.16v-2.42H140.7v2.42Z" transform="translate(-2.83 -1.46)"/><path class="cls-5" d="M157.14,158.12l-.5.56a10.85,10.85,0,0,0-1.19-1.65v7.28h-.7v-7a15.66,15.66,0,0,1-1.37,3.21l-.52-.54a15.39,15.39,0,0,0,1.82-4.8H153v-.64h1.72v-2.39h.7v2.39h1.21v.64h-1.21v.9A14.06,14.06,0,0,1,157.14,158.12Zm3.7,5-.46.5a13.84,13.84,0,0,0-1.58-1.33,9.06,9.06,0,0,1-1.81,2.16l-.52-.51a8.73,8.73,0,0,0,2.43-3.45l.65.26-.45.95A11.66,11.66,0,0,1,160.84,163.08Zm4.51-7.64-.4.61a12,12,0,0,1-3.9-2.9,14.22,14.22,0,0,1-3.83,3l-.54-.56A11.62,11.62,0,0,0,161,152l.68.26a1.54,1.54,0,0,1-.23.32A11.09,11.09,0,0,0,165.35,155.44Zm-4.87,4.71h-2.9v-3.33h2.9Zm-.71-.67v-2h-1.49v2Zm3.21-3.67h-3.9v-.68H163Zm2.2,8-.46.48a14.85,14.85,0,0,0-2-1.82,9,9,0,0,1-1.42,1.88l-.58-.41a9.2,9.2,0,0,0,2.09-3.5l.65.23a10.17,10.17,0,0,1-.48,1.21A13.77,13.77,0,0,1,165.18,163.8Zm-.77-3.65h-2.89v-3.33h2.89Zm-.69-.67v-2h-1.51v2Z" transform="translate(-2.83 -1.46)"/><path class="cls-5" d="M173.27,159.51a.77.77,0,0,1-.5-.68.59.59,0,0,1,.17-.4.57.57,0,0,1,.48-.21c.44,0,.66.28.66.86a1.81,1.81,0,0,1-.83,1.36l-.29-.23A1.23,1.23,0,0,0,173.27,159.51Z" transform="translate(-2.83 -1.46)"/><path class="cls-5" d="M185.89,158.12l-.5.56A11.59,11.59,0,0,0,184.2,157v7.28h-.71v-7a15.58,15.58,0,0,1-1.36,3.21l-.52-.54a15.64,15.64,0,0,0,1.82-4.8h-1.66v-.64h1.72v-2.39h.71v2.39h1.2v.64h-1.2v.9A14.73,14.73,0,0,1,185.89,158.12Zm3.7,5-.46.5a13.61,13.61,0,0,0-1.59-1.33,9.05,9.05,0,0,1-1.8,2.16l-.52-.51a8.73,8.73,0,0,0,2.43-3.45l.65.26-.45.95A11.66,11.66,0,0,1,189.59,163.08Zm4.51-7.64-.4.61a11.76,11.76,0,0,1-3.9-2.9,14.1,14.1,0,0,1-3.84,3l-.53-.56a11.58,11.58,0,0,0,4.31-3.52l.69.26a2.07,2.07,0,0,1-.23.32A11.09,11.09,0,0,0,194.1,155.44Zm-4.88,4.71h-2.9v-3.33h2.9Zm-.7-.67v-2H187v2Zm3.2-3.67h-3.9v-.68h3.9Zm2.21,8-.47.48a14.83,14.83,0,0,0-2-1.82,9,9,0,0,1-1.42,1.88l-.59-.41a9.33,9.33,0,0,0,2.1-3.5l.64.23a7.63,7.63,0,0,1-.48,1.21A13.82,13.82,0,0,1,193.93,163.8Zm-.78-3.65h-2.88v-3.33h2.88Zm-.68-.67v-2H191v2Z" transform="translate(-2.83 -1.46)"/><path class="cls-5" d="M198.67,157.49l-.52.51a11.69,11.69,0,0,0-2.09-1.94l.48-.56A13.72,13.72,0,0,1,198.67,157.49Zm.08,2.31a24.11,24.11,0,0,1-2.09,4.54l-.54-.48a20.48,20.48,0,0,0,2-4.41Zm.4-5.92-.51.54a10.74,10.74,0,0,0-2.13-1.76l.41-.53A8.88,8.88,0,0,1,199.15,153.88Zm4.46,7.39h-2.79l.41.28a10.88,10.88,0,0,1-2,2.85l-.58-.48a9.5,9.5,0,0,0,1.89-2.65h-1v-8.86h4Zm-.68-6.24V153.1h-2.64V155Zm0,2.73v-2h-2.64v2Zm0,2.82v-2.14h-2.64v2.14Zm1,3.1-.6.36a8.38,8.38,0,0,0-1.37-2.19l.57-.39A8.71,8.71,0,0,1,204,163.68Zm1.64-1.86h-.7V153h.7Zm2.25,1.52a.84.84,0,0,1-.36.81,2.8,2.8,0,0,1-1.3.21c-.35,0-.69,0-1,0l-.18-.7a15.49,15.49,0,0,0,2-.06c.14,0,.2-.18.2-.43v-11h.7Z" transform="translate(-2.83 -1.46)"/><path class="cls-5" d="M212,161a11.79,11.79,0,0,1-.88,3.19l-.68-.36a10.23,10.23,0,0,0,.88-3Zm3.69-.9-.64.34a3.55,3.55,0,0,0-.28-.81,37.7,37.7,0,0,1-4,.78l-.2-.68a12,12,0,0,0,2.79-2.89c-1.09.12-1.92.2-2.5.23l-.13-.64a13.73,13.73,0,0,0,2.54-4.29l.65.28a15.3,15.3,0,0,1-2.09,3.84,20.35,20.35,0,0,0,2-.18,16.17,16.17,0,0,0,.84-1.48l.65.35a17,17,0,0,1-3.39,4.57,20.26,20.26,0,0,0,2.52-.54,3.86,3.86,0,0,0-.4-.78l.65-.31A10.83,10.83,0,0,1,215.66,160.12Zm-1.88,3.7-.78.11a16.26,16.26,0,0,0-.25-2.84l.67-.17A13.7,13.7,0,0,1,213.78,163.82Zm1.88-.6-.69.27a14.49,14.49,0,0,0-.69-2.42l.62-.26A10.09,10.09,0,0,1,215.66,163.22Zm7-8.48H219.4v2.14h2.77v.68H216v-.68h2.68v-2.14h-3.07v-.68h3.07v-1.91h.71v1.91h3.22Zm-.82,9.58h-.71v-.79h-4v.79h-.72v-5.13h5.43Zm-.71-1.51v-2.92h-4v2.92Z" transform="translate(-2.83 -1.46)"/><path class="cls-5" d="M237.09,163.16l-.35.64a12.5,12.5,0,0,1-2.91-1.65,13.11,13.11,0,0,1-2.49-2.33v4.52h-.72V159.8a14.55,14.55,0,0,1-5.39,3.93l-.5-.64a13.33,13.33,0,0,0,5.14-3.5h-5v-.7h5.74v-1.34h-4.44v-5.11h9.58v5.11h-4.42v1.34H237v.7h-4.93A12,12,0,0,0,237.09,163.16Zm-6.47-8.55v-1.44h-3.71v1.44Zm0,2.23v-1.53h-3.71v1.53Zm4.4-2.23v-1.44h-3.68v1.44Zm0,2.23v-1.53h-3.68v1.53Z" transform="translate(-2.83 -1.46)"/><path class="cls-5" d="M242.61,152.24a14.42,14.42,0,0,1-.55,1.68l-.4,1v9.33h-.73v-7.72a18.34,18.34,0,0,1-1.28,2.15l-.43-.67a22.55,22.55,0,0,0,2.72-6.06ZM251.42,164h-9v-.64h4.21v-1.15H243v-.64h3.7v-1.11h-3.9v-.64h3.9v-1h-3.56v-2.42h3.56v-.81h-2.14V154H242.7v-.64h1.81V152.1h.72v1.29h3.45V152.1h.71v1.29h1.86V154h-1.86v1.5h-2v.81h3.44v2.42h-3.44v1h3.81v.64h-3.81v1.11H251v.64h-3.61v1.15h4.06Zm-4.77-5.88V157h-2.82v1.09Zm2-3.2V154h-3.45v.86Zm1.41,3.2V157h-2.73v1.09Z" transform="translate(-2.83 -1.46)"/><path class="cls-5" d="M257.21,152.28a14,14,0,0,1-.68,1.56l-.47.94v9.51h-.71V156c-.45.67-.94,1.35-1.49,2l-.37-.75a18.9,18.9,0,0,0,3.05-5.22Zm3.15,8.43a15.09,15.09,0,0,1-3.07,3.7l-.56-.49a16.1,16.1,0,0,0,3-3.54Zm5.38-1.13h-9v-.71h2.38v-3.24H257v-.71h2.16v-2.79h.75v2.79h2.69v-2.79h.77v2.79h2v.71h-2v3.24h2.38Zm-3.15-.71v-3.24H259.9v3.24Zm3.19,5-.6.43a22.48,22.48,0,0,0-3.2-3.6l.62-.41A19.27,19.27,0,0,1,265.78,163.92Z" transform="translate(-2.83 -1.46)"/><path class="cls-5" d="M280.32,159.24l-.31.69a12.56,12.56,0,0,1-5.94-2.24,16.18,16.18,0,0,1-5.66,2.18l-.5-.67a14.1,14.1,0,0,0,6.23-2.42l.59.18-.14-.4a6.63,6.63,0,0,0,1.73-2l.65.24a8.17,8.17,0,0,1-1.16,1.62c1.16-.11,2.11-.22,2.84-.34a3.34,3.34,0,0,0-.63-.77l.58-.41a10.66,10.66,0,0,1,1.48,2l-.61.4c-.08-.16-.21-.39-.4-.7-1.71.24-3.12.41-4.22.51l-.16.12A12.82,12.82,0,0,0,280.32,159.24Zm-6.69-2.63-.57.45a1.77,1.77,0,0,0-.26-.35c-1,.22-2.42.46-4.37.71l-.19-.6a8.85,8.85,0,0,0,2-2.12l.76.16a8.1,8.1,0,0,1-1.48,1.75c.77-.09,1.72-.24,2.84-.44a2.36,2.36,0,0,0-.57-.61l.55-.45A8.11,8.11,0,0,1,273.63,156.61Zm5.16,4.42q-3.09,2.94-8.86,3.37l-.46-.72a13.7,13.7,0,0,0,8.66-3ZM275,159a12.06,12.06,0,0,1-5.07,2.08l-.43-.65a11.46,11.46,0,0,0,4.82-1.83Zm1.84,1a14.62,14.62,0,0,1-6.85,2.66l-.43-.68a12.66,12.66,0,0,0,6.62-2.39Zm1.1-6-.6.42a2.12,2.12,0,0,0-.53-.59q-2.32.36-5.94.6l-.16-.61a9.74,9.74,0,0,0,2.55-1.9l.86.18a9.18,9.18,0,0,1-1.87,1.57c1.52-.09,2.89-.22,4.1-.39a4,4,0,0,0-.67-.64l.52-.45A9.11,9.11,0,0,1,278,154.12Z" transform="translate(-2.83 -1.46)"/><path class="cls-5" d="M35.81,175.45H31.54A24.7,24.7,0,0,1,29,177h5.84v.72H29l-.47,1.68h6.25a8.41,8.41,0,0,1-.65,2.76,1.66,1.66,0,0,1-1.06.83,13,13,0,0,1-2.58.16c-.52,0-1.06,0-1.61,0l-.31-.74c.95,0,1.78,0,2.5,0a8.56,8.56,0,0,0,1.88-.11,1,1,0,0,0,.57-.53,6,6,0,0,0,.42-1.65H27.59l.8-2.83q-2.75,1.24-4.37,1.81l-.42-.65a29.54,29.54,0,0,0,6.68-3H24v-.74h4.58v-1.84H25v-.71h3.6V170.9h.74v1.26h3.41v.71H29.3v1.84h2a18.9,18.9,0,0,0,3.55-3.37l.56.46a22.7,22.7,0,0,1-2.89,2.91h3.29Z" transform="translate(-2.83 -1.46)"/><path class="cls-5" d="M43.12,178.31a.78.78,0,0,1-.51-.68.64.64,0,0,1,.17-.4.59.59,0,0,1,.49-.21c.43,0,.65.28.65.86a1.8,1.8,0,0,1-.82,1.36l-.3-.23A1.28,1.28,0,0,0,43.12,178.31Z" transform="translate(-2.83 -1.46)"/><path class="cls-5" d="M63,182.79H50.81v-.73h4.31v-7.92h-4v-.73H62.68v.73h-4v7.92H63Zm-8.77-2.24-.67.25a22.73,22.73,0,0,0-1.92-5.16l.64-.28A24,24,0,0,1,54.22,180.55Zm1.25-7.88-.65.47a7.91,7.91,0,0,0-1.7-1.84l.6-.44A8.69,8.69,0,0,1,55.47,172.67Zm2.42,9.39v-7.92h-2v7.92Zm2.83-10.83a8.21,8.21,0,0,1-1.85,1.92l-.6-.45a8.55,8.55,0,0,0,1.8-1.88Zm1.48,4.43a29.73,29.73,0,0,1-2,5.14l-.66-.28a28.94,28.94,0,0,0,2-5.11Z" transform="translate(-2.83 -1.46)"/><path class="cls-5" d="M69.53,175.55a22.18,22.18,0,0,1-.19,3.38,5.44,5.44,0,0,1-1.06,2.32,6.38,6.38,0,0,1-2.44,1.87l-.42-.61A6,6,0,0,0,67.5,181a4.45,4.45,0,0,0,1.08-2.11c-1.23.37-2.55.72-4,1l-.31-.72a36.23,36.23,0,0,0,4.4-1.15,10.5,10.5,0,0,0,.06-1.57H64.7v-.7h4.12v-2.11H64.55v-.75h4.27v-2h.71Zm7,4.12H72.32v3.48h-.76V170.87h.76v2h4v.75h-4v2.28H76v.72H72.32V179h4.21Z" transform="translate(-2.83 -1.46)"/><path class="cls-5" d="M90.18,177.63H85.64v.75h3.42v4.76h-.7v-.5H79.9v.5h-.72v-4.76h3.59c0-.37,0-.62,0-.75H78V177H90.18Zm-5.56-5.89H81.05l.38.24a3,3,0,0,1-.23.37h2.87v.58H82.53a4.74,4.74,0,0,1-.09.61h1.9v.6H82.57a11.29,11.29,0,0,1,1.5,1l-.4.47A7.86,7.86,0,0,0,82,174.49a3.9,3.9,0,0,1-1.85,1.09l-.37-.53a3.38,3.38,0,0,0,1.69-.91H79.78v-.6h2a1.63,1.63,0,0,0,.13-.61H80.66a4.3,4.3,0,0,1-.48.35l-.52-.39a3.82,3.82,0,0,0,1.15-1.15h-1.5v3.74a.31.31,0,0,0,.11.23.32.32,0,0,0,.23.1h4.41v.61h-4.4a.92.92,0,0,1-1-1v-3.63h-.42v-.63h6.4ZM88.36,182v-1.64H86a1,1,0,0,1-.85-.29,1.35,1.35,0,0,1-.19-.74V179H83.31c-.32.9-1.23,1.51-2.75,1.84l-.35-.65A3.17,3.17,0,0,0,82.59,179H79.9v3ZM87,181.46H81.23v-.6H87Zm-2-3.08v-.75H83.51a7.24,7.24,0,0,1-.05.75ZM90.07,173H88.79q-.75,0-.75-.81v-.41h-2a2.38,2.38,0,0,1-.95,1.49l-.56-.41a1.65,1.65,0,0,0,.86-1.7h3.29v1a.17.17,0,0,0,.19.19h1.17ZM90,176.2l-.38.51a17.75,17.75,0,0,0-1.9-1.05,9.09,9.09,0,0,1-2.83,1l-.31-.57a9.86,9.86,0,0,0,2.38-.77,16.06,16.06,0,0,0-1.84-.77l.28-.37h-.6v-.63h4.74v.63a5.82,5.82,0,0,1-1.2,1.1C88.69,175.46,89.24,175.77,90,176.2Zm-1.62,3.57V179H85.64v.5a.23.23,0,0,0,.25.26Zm.21-5.6H85.79l1.84.78A5.81,5.81,0,0,0,88.57,174.17Z" transform="translate(-2.83 -1.46)"/><path class="cls-5" d="M103.68,180.81H98v1.4a.76.76,0,0,1-.26.62.88.88,0,0,1-.61.22l-1.66,0-.24-.7.81,0a4,4,0,0,0,1.1-.08.35.35,0,0,0,.16-.34v-1.16H91.53v-.66h5.74v-.56c.88-.31,1.64-.61,2.27-.9H93.91V178H101v.66A32.21,32.21,0,0,1,98,180v.12h5.71Zm-.29-1.89h-.73v-1.76H92.54v1.76h-.7V176.5h.73l-.06-5a10,10,0,0,0,2.62-.67l.32.56a9.26,9.26,0,0,1-2.24.66v1h2.26v.65H93.22l0,1.08h2.21v.65H93.26l0,1.12h8.58l0-1.12H99.66v-.65h2.23v-1.08H99.66V173h2.27l0-1H99.54v-.64h3.13l-.12,5.15h.84Zm-4-3.2-.45.45c-.13-.13-.54-.47-1.24-1a10.77,10.77,0,0,1-1.69,1l-.35-.58a15.71,15.71,0,0,0,1.53-.83,3.9,3.9,0,0,0-.6-.45l-.51-.35.41-.44c.68.47,1.09.75,1.21.85a5,5,0,0,0,.91-.8l.53.36a7.67,7.67,0,0,1-.92.87C98.45,174.91,98.84,175.23,99.42,175.72Zm0-2.67-.46.4a9.1,9.1,0,0,0-1.19-1,10.72,10.72,0,0,1-1.59.9l-.31-.56a10.56,10.56,0,0,0,1.39-.76,7.93,7.93,0,0,0-1-.76l.47-.41c.55.4.91.67,1.06.8a6,6,0,0,0,1-.94l.54.28a7.53,7.53,0,0,1-1,1.07A8.47,8.47,0,0,1,99.38,173.05Z" transform="translate(-2.83 -1.46)"/><path class="cls-5" d="M109.23,176.92l-.5.56a10.85,10.85,0,0,0-1.19-1.65v7.28h-.7v-7a15.66,15.66,0,0,1-1.37,3.21l-.52-.54a15.39,15.39,0,0,0,1.82-4.8h-1.65v-.64h1.72v-2.39h.7v2.39h1.21V174h-1.21v.9A14.06,14.06,0,0,1,109.23,176.92Zm3.7,5-.46.5a13.84,13.84,0,0,0-1.58-1.33,9.06,9.06,0,0,1-1.81,2.16l-.52-.51a8.92,8.92,0,0,0,2.44-3.45l.64.26-.45,1A11.66,11.66,0,0,1,112.93,181.88Zm4.51-7.65-.39.62a11.92,11.92,0,0,1-3.91-2.9,14.22,14.22,0,0,1-3.83,3l-.54-.56a11.54,11.54,0,0,0,4.32-3.52l.68.26a1.84,1.84,0,0,1-.22.32A10.94,10.94,0,0,0,117.44,174.23ZM112.57,179h-2.9v-3.33h2.9Zm-.71-.67v-2h-1.49v2Zm3.21-3.67h-3.9v-.68h3.9Zm2.2,8-.46.48a14.85,14.85,0,0,0-2-1.82,9,9,0,0,1-1.42,1.88l-.58-.41a9.33,9.33,0,0,0,2.1-3.5l.64.23a10.17,10.17,0,0,1-.48,1.21A13.77,13.77,0,0,1,117.27,182.6ZM116.5,179h-2.89v-3.33h2.89Zm-.69-.67v-2H114.3v2Z" transform="translate(-2.83 -1.46)"/><path class="cls-5" d="M119.68,178.81a20.55,20.55,0,0,1-.39,3.4l-.65-.15a17.25,17.25,0,0,0,.43-3.31Zm4-6.87h-1.58v1.34h1.32v.66h-1.32v1.31h1.32v.69h-1.32v1.39h1.32c0,.78,0,1.41,0,1.9,0,1,0,1.78-.09,2.37a2.47,2.47,0,0,1-.3,1.16.87.87,0,0,1-.52.34,5.18,5.18,0,0,1-1.16.08l-.21-.71H122a.63.63,0,0,0,.61-.38,10.69,10.69,0,0,0,.18-2.73c0-.51,0-1,0-1.35h-3.44v-6.77h4.37ZM120.64,182l-.58.09c0-.44,0-.87,0-1.28,0-.73,0-1.38-.08-2l.53-.08q.12,2,.12,2.49C120.66,181.55,120.65,181.8,120.64,182Zm.79-8.76v-1.33h-1.37v1.33Zm0,2V174h-1.37v1.3Zm0,2.08v-1.39h-1.37v1.39Zm.29,4.14-.56.09a15,15,0,0,0-.3-2.73l.52-.12A20,20,0,0,1,121.72,181.47Zm.87-.74-.48.12a17.74,17.74,0,0,0-.42-2.19l.45-.11A17,17,0,0,1,122.59,180.73Zm8.32-6.47-.36.6a9.68,9.68,0,0,1-3.39-3,12.64,12.64,0,0,1-3.18,2.91l-.43-.59a10.36,10.36,0,0,0,3.45-3.39l.71.23c0,.06-.07.15-.13.25A9.6,9.6,0,0,0,130.91,174.26ZM127,181.84l-.5.52a8.16,8.16,0,0,0-1-1.19,11,11,0,0,1-1.32,2l-.58-.39a9.71,9.71,0,0,0,1.85-3.43l.66.22c-.14.4-.25.72-.35.95A11.67,11.67,0,0,1,127,181.84Zm-.18-2.85h-2.67v-3.33h2.67Zm-.67-.65v-2h-1.35v2Zm2.83-3.66h-3.74V174H129Zm1.9,8-.52.49a9.73,9.73,0,0,0-1.7-1.78,10.53,10.53,0,0,1-1.28,1.86l-.57-.43a9.45,9.45,0,0,0,1.94-3.52l.69.24a12.81,12.81,0,0,1-.49,1.21A12.46,12.46,0,0,1,130.9,182.65Zm-.63-3.66h-2.7v-3.33h2.7Zm-.66-.65v-2h-1.38v2Z" transform="translate(-2.83 -1.46)"/><path class="cls-5" d="M144.46,182.6l-.43.64a19.13,19.13,0,0,1-3.63-2.19,14.62,14.62,0,0,1-4.63,2.16l-.48-.66a12.75,12.75,0,0,0,4.54-2,15.45,15.45,0,0,1-2.94-4.7h-.27a13.21,13.21,0,0,1-3.93,7.22l-.55-.58a14.07,14.07,0,0,0,3-4.22,20.83,20.83,0,0,0,1.17-6.3h-3.1v-.74h9.16c-.33,1-.79,2.34-1.37,3.89h2.58a11.36,11.36,0,0,1-2.62,5.44A16.09,16.09,0,0,0,144.46,182.6ZM141.35,172h-4.27q-.18,2.1-.3,3.15h3.48C140.71,173.9,141.07,172.85,141.35,172Zm1.32,3.88h-5a13.55,13.55,0,0,0,2.72,4.24A9.32,9.32,0,0,0,142.67,175.85Z" transform="translate(-2.83 -1.46)"/><path class="cls-5" d="M158.05,177.63h-4.53v.75h3.41v4.76h-.7v-.5h-8.46v.5h-.71v-4.76h3.59c0-.37,0-.62,0-.75H145.9V177h12.15Zm-5.56-5.89h-3.57l.38.24a2.14,2.14,0,0,1-.23.37h2.87v.58h-1.53c0,.16,0,.36-.1.61h1.9v.6h-1.76a11.25,11.25,0,0,1,1.49,1l-.4.47a7.86,7.86,0,0,0-1.67-1.15,3.87,3.87,0,0,1-1.84,1.09l-.38-.53a3.34,3.34,0,0,0,1.69-.91h-1.69v-.6h2a1.46,1.46,0,0,0,.13-.61h-1.22a5.23,5.23,0,0,1-.47.35l-.52-.39a3.78,3.78,0,0,0,1.14-1.15h-1.49v3.74a.3.3,0,0,0,.1.23.32.32,0,0,0,.23.1h4.41v.61h-4.39a.92.92,0,0,1-1-1v-3.63h-.43v-.63h6.4ZM156.23,182v-1.64h-2.38a1,1,0,0,1-.84-.29,1.27,1.27,0,0,1-.2-.74V179h-1.63c-.32.9-1.23,1.51-2.75,1.84l-.35-.65a3.17,3.17,0,0,0,2.38-1.19h-2.69v3Zm-1.37-.56H149.1v-.6h5.76Zm-2.05-3.08v-.75h-1.43a5.23,5.23,0,0,1,0,.75Zm5.13-5.39h-1.28q-.75,0-.75-.81v-.41h-2a2.43,2.43,0,0,1-.95,1.49l-.56-.41a1.64,1.64,0,0,0,.85-1.7h3.29v1c0,.13.07.19.2.19h1.16Zm-.09,3.21-.38.51a16.81,16.81,0,0,0-1.9-1.05,9,9,0,0,1-2.83,1l-.3-.57a10,10,0,0,0,2.38-.77,16.31,16.31,0,0,0-1.85-.77l.28-.37h-.6v-.63h4.74v.63a5.57,5.57,0,0,1-1.2,1.1C156.56,175.46,157.11,175.77,157.85,176.2Zm-1.62,3.57V179h-2.71v.5c0,.17.08.26.24.26Zm.21-5.6h-2.77q1.62.68,1.83.78A5.81,5.81,0,0,0,156.44,174.17Z" transform="translate(-2.83 -1.46)"/><path class="cls-5" d="M171.61,172.7h-9.54v3.87a10.59,10.59,0,0,1-2.07,6.51l-.57-.52a9,9,0,0,0,1.89-4.89c-.92.66-1.47,1-1.64,1.13l-.36-.62a16.94,16.94,0,0,0,2.07-1.42V172h4.66a6.38,6.38,0,0,0-.53-.91l.72-.27c.14.26.35.65.61,1.18h4.76Zm-10.73,2.74-.62.37a11,11,0,0,0-.91-2.43L160,173A14,14,0,0,1,160.88,175.44Zm4.22,5.64a10.26,10.26,0,0,1-2.52,1.71l-.53-.56a9,9,0,0,0,2.52-1.61Zm6.52-3.85-.37.66c-.47-.21-.9-.43-1.31-.66v2.86h-2.7v2a.8.8,0,0,1-.38.8,2.64,2.64,0,0,1-1.1.18h-.66l-.24-.71.87,0a1.51,1.51,0,0,0,.68-.09.36.36,0,0,0,.13-.32v-1.93h-2.72v-2.86a11.66,11.66,0,0,1-1.11.67l-.45-.59a8.09,8.09,0,0,0,1.61-1,7.35,7.35,0,0,0-1.21-1l.51-.51a12.14,12.14,0,0,1,1.24,1,4.81,4.81,0,0,0,1.18-1.43h-2.68v-.66H166c.11-.22.23-.49.36-.8l.76.13c-.07.15-.18.38-.33.67h4.57v.66H168a6.33,6.33,0,0,0,1.17,1.37,6.2,6.2,0,0,0,1.34-1.06l.52.52a7.94,7.94,0,0,1-1.28,1A6.9,6.9,0,0,0,171.62,177.23Zm-2.39.5v-.92h-4.69v.92Zm0,1.7v-1h-4.69v1Zm-.76-3.26a6.15,6.15,0,0,1-1.32-1.71h-.74a8.78,8.78,0,0,1-1.27,1.71Zm3,6.17-.5.55a14,14,0,0,0-2.67-1.61l.43-.54A12.61,12.61,0,0,1,171.49,182.34Z" transform="translate(-2.83 -1.46)"/><path class="cls-5" d="M175.87,175.23a5.24,5.24,0,0,1,1.17,3.22,1.6,1.6,0,0,1-.33,1,1.73,1.73,0,0,1-1.38.41,4.53,4.53,0,0,1-.52,0l-.28-.73h.78a1.42,1.42,0,0,0,.84-.17.63.63,0,0,0,.2-.51,5.07,5.07,0,0,0-1.23-3.14c.31-.93.66-2.07,1.06-3.41h-2.06v11.22h-.71V171.21h3.53v.71C176.61,173,176.26,174.13,175.87,175.23Zm9.31,5.16a6.34,6.34,0,0,1-.16,1.67,1.26,1.26,0,0,1-.5.75,3.09,3.09,0,0,1-1.35.2c-.78,0-1.18-.3-1.18-.88v-4.3H180.4a6.59,6.59,0,0,1-1,3.46,6.38,6.38,0,0,1-2.43,1.83l-.54-.61a5.22,5.22,0,0,0,2.38-1.66,4.93,4.93,0,0,0,.8-3h-2.08v-.7H185v.7h-2.25V182a.34.34,0,0,0,.1.22c.06.07.27.1.61.1a2.16,2.16,0,0,0,.63-.06.51.51,0,0,0,.23-.17,2.3,2.3,0,0,0,.14-.67,9.62,9.62,0,0,0,0-1.22Zm-.28-5.29h-.72V173h-5.91v2.08h-.73v-2.81h3.25a7.86,7.86,0,0,0-.49-1.29l.74-.2a9.62,9.62,0,0,1,.53,1.49h3.33Zm-1.28.27h-4.77v-.69h4.77Z" transform="translate(-2.83 -1.46)"/><path class="cls-5" d="M192.33,171.53a14.52,14.52,0,0,1-4.15,1.08v1.67h3.66v4.07h-3.68a11.34,11.34,0,0,1-1.1,4.69l-.62-.43a10.24,10.24,0,0,0,1-4.72V172A14.29,14.29,0,0,0,192,170.9Zm-1.2,6.11V175h-2.95v2.68Zm7.63-1.63h-1.59v7.17h-.7V176H194a13.74,13.74,0,0,1-.48,4.27,13.06,13.06,0,0,1-1.48,2.9l-.59-.48a9.08,9.08,0,0,0,1.51-3,15.74,15.74,0,0,0,.32-3.52V171.9a15.16,15.16,0,0,0,5-1l.38.63a15.53,15.53,0,0,1-4.63,1v2.79h4.8Z" transform="translate(-2.83 -1.46)"/><path class="cls-5" d="M204.47,173h-4.33v-.72H202a9.08,9.08,0,0,0-.56-1.28l.63-.24a7.7,7.7,0,0,1,.67,1.52h1.71Zm-.27,2h-3.75v-.71h3.75Zm0,2h-3.75v-.71h3.75Zm-.27,5.72h-.7V182h-1.84v1.08h-.71v-4.7h3.25Zm-.7-1.46v-2.19h-1.84v2.19Zm2.77-2.71a13.67,13.67,0,0,1-1.07,3.4l-.64-.28a13.39,13.39,0,0,0,1-3.29Zm5.79-7.38q-.06,1.54-.18,3a12.59,12.59,0,0,1-.22,1.73,1.26,1.26,0,0,1-.32.49,1.44,1.44,0,0,1-.63.32,5.45,5.45,0,0,1-1.41.06l-.21-.74,1,0a1,1,0,0,0,.94-.4,17.25,17.25,0,0,0,.34-3.78h-1.89q-.27,4.26-4,5.43l-.42-.58a5.94,5.94,0,0,0,2.58-1.63,8.81,8.81,0,0,0-1.75-1.49l.46-.5a8.56,8.56,0,0,1,1.69,1.41,6.13,6.13,0,0,0,.7-2.64H205v-.71Zm-1.39,9.16a6.37,6.37,0,0,1-.27,1.89,1.06,1.06,0,0,1-.52.56,4.42,4.42,0,0,1-1.3.12,2.23,2.23,0,0,1-1.25-.25,1.13,1.13,0,0,1-.34-.94V178.4h.7v3.42a.37.37,0,0,0,.18.32,2.48,2.48,0,0,0,1,.12,1,1,0,0,0,.82-.24,5.32,5.32,0,0,0,.29-1.84Zm-.86-1.58-.51.48a11.26,11.26,0,0,0-1.6-1.88l.47-.51A9.87,9.87,0,0,1,209.54,178.79Zm2.77,2.73-.67.3a15.89,15.89,0,0,0-1.07-3.24l.6-.27A17,17,0,0,1,212.31,181.52Z" transform="translate(-2.83 -1.46)"/><path class="cls-5" d="M225.27,182.08a.84.84,0,0,1-.49.88,3.79,3.79,0,0,1-1,.13l-1.61,0-.3-.74c.25,0,1,0,2.3,0a.33.33,0,0,0,.38-.37V171.92h-9.42v11.22h-.71V171.23h10.85Zm-1.9-7.72h-7.05v-.71h7.05Zm-.79,5.91H217.1v-4.15h5.48Zm-.76-.74v-2.69h-4v2.69Z" transform="translate(-2.83 -1.46)"/><path class="cls-5" d="M239.55,182.19l-.28.74h-5.15a4,4,0,0,1-3.33-1.31,30.55,30.55,0,0,1-2.94,1.53l-.47-.66a27.57,27.57,0,0,0,6.25-3.74,21.5,21.5,0,0,0,4.16-4.85h-9.72v-.77h5.35a8.51,8.51,0,0,0-1.09-2l.78-.29a11.7,11.7,0,0,1,1.14,2.27h4.45v.77a21.41,21.41,0,0,1-7.26,7.33,3.38,3.38,0,0,0,2.7,1Z" transform="translate(-2.83 -1.46)"/><path class="cls-5" d="M253.1,174.93l-.47.62a16.62,16.62,0,0,1-5.71-3.74,20.64,20.64,0,0,1-5.66,3.75l-.47-.63a17,17,0,0,0,6.12-4.18l.71.28a.78.78,0,0,1-.2.31A16.32,16.32,0,0,0,253.1,174.93Zm-1.77,8.24h-.73v-.93h-7.33v.93h-.75V177.6h8.81Zm-.73-1.67v-3.15h-7.33v3.15Zm0-5.84h-7.26v-.74h7.26Z" transform="translate(-2.83 -1.46)"/><path class="cls-5" d="M258.86,176.46l-.53.52a6.5,6.5,0,0,0-1-1.46v7.57h-.71v-6.92a14.63,14.63,0,0,1-1.82,3.17l-.49-.61a14,14,0,0,0,2.26-4.24h-1.9v-.72h1.95V170.9h.71v2.87h1.42v.72h-1.42v.08A9.32,9.32,0,0,1,258.86,176.46Zm7.85.58-.44.64a17.21,17.21,0,0,1-3.46-1.75,15.64,15.64,0,0,1-3.64,1.74l-.41-.62a14.66,14.66,0,0,0,3.42-1.6,6.87,6.87,0,0,1-1.52-1.73c-.32.27-.63.51-.93.73l-.6-.51a9.37,9.37,0,0,0,3.05-3.18l.73.23a6.12,6.12,0,0,1-.69,1h3.6v.69a11.83,11.83,0,0,1-2.37,2.81A14.29,14.29,0,0,0,266.71,177Zm-1.06,6.05h-.71v-.6h-4.31v.6h-.73V178h5.75Zm-.71-1.31V178.7h-4.31v3.08Zm0-9.08h-3.26a5.33,5.33,0,0,1-.5.52,6.26,6.26,0,0,0,1.63,1.83A9,9,0,0,0,264.94,172.7Z" transform="translate(-2.83 -1.46)"/><path class="cls-5" d="M269.47,179.82a12.13,12.13,0,0,1-.89,3.19l-.68-.36a9.93,9.93,0,0,0,.88-3Zm3.68-.9-.64.34a3.55,3.55,0,0,0-.28-.81,37.7,37.7,0,0,1-4,.78l-.2-.68a11.86,11.86,0,0,0,2.79-2.89c-1.09.12-1.92.2-2.5.23l-.13-.64a13.94,13.94,0,0,0,2.55-4.29l.64.28a15.3,15.3,0,0,1-2.09,3.84q1.25-.06,2-.18c.31-.5.59-1,.83-1.48l.65.35a17,17,0,0,1-3.39,4.57,20.26,20.26,0,0,0,2.52-.54,3.4,3.4,0,0,0-.4-.78l.65-.31A10.83,10.83,0,0,1,273.15,178.92Zm-1.88,3.7-.78.11a15.34,15.34,0,0,0-.25-2.84l.67-.17A13.7,13.7,0,0,1,271.27,182.62Zm1.88-.6-.68.27a14.49,14.49,0,0,0-.69-2.42l.61-.26A10.09,10.09,0,0,1,273.15,182Zm7-8.48h-3.22v2.14h2.77v.68H273.5v-.68h2.69v-2.14h-3.08v-.68h3.08V171h.7v1.91h3.22Zm-.81,9.58h-.71v-.79h-4v.79h-.72V178h5.44Zm-.71-1.51v-2.92h-4v2.92Z" transform="translate(-2.83 -1.46)"/><path class="cls-5" d="M35.86,200.76l-.34.64a12.5,12.5,0,0,1-2.91-1.65,13.11,13.11,0,0,1-2.49-2.33v4.52H29.4V197.4a14.51,14.51,0,0,1-5.4,3.93l-.49-.64a13.33,13.33,0,0,0,5.14-3.5h-5v-.7H29.4v-1.34H25V190h9.58v5.11H30.12v1.34H35.8v.7H30.87A11.94,11.94,0,0,0,35.86,200.76Zm-6.46-8.55v-1.44H25.69v1.44Zm0,2.23V192.9H25.69v1.54Zm4.39-2.23v-1.44H30.12v1.44Zm0,2.23V192.9H30.12v1.54Z" transform="translate(-2.83 -1.46)"/><path class="cls-5" d="M43.12,197.11a.78.78,0,0,1-.51-.68.69.69,0,0,1,.17-.41.62.62,0,0,1,.49-.2c.43,0,.65.28.65.86A1.8,1.8,0,0,1,43.1,198l-.3-.23A1.28,1.28,0,0,0,43.12,197.11Z" transform="translate(-2.83 -1.46)"/><path class="cls-5" d="M57.15,192.66l-.87.18A12.14,12.14,0,0,1,55,198.67c.76.57,1.42,1.09,2,1.58l-.5.56c-.66-.59-1.29-1.09-1.88-1.52A12.65,12.65,0,0,1,51.38,202l-.53-.57a10.78,10.78,0,0,0,3.09-2.54c-.73-.53-1.58-1.08-2.53-1.64a32.85,32.85,0,0,0,.94-3.82c-.51.06-1,.11-1.47.14l0-.75q.75,0,1.65-.15a23.6,23.6,0,0,0,.42-3h.76c-.11.9-.25,1.85-.43,2.85.76-.08,1.55-.19,2.35-.32a5,5,0,0,0,0-.58c0-.15,0-.35,0-.61h.71a8.84,8.84,0,0,1,0,1,7.55,7.55,0,0,0,.8-.16Zm-1.58.32c-.76.13-1.58.24-2.47.35-.34,1.68-.63,2.87-.85,3.58q.86.51,2.1,1.32A11.88,11.88,0,0,0,55.57,193Zm6.87,8.42h-.75v-1.2h-3.3v1.2h-.78V190.94h4.83Zm-.75-2v-7.76h-3.3v7.76Z" transform="translate(-2.83 -1.46)"/><path class="cls-5" d="M76.57,192H69.64a16,16,0,0,1-1,1.58h6.88v7.29a.89.89,0,0,1-.39.84,4.28,4.28,0,0,1-1.83.23c-.37,0-.74,0-1.09,0l-.35-.72c.42,0,.88.05,1.36.05a4.74,4.74,0,0,0,1.36-.1.35.35,0,0,0,.22-.36V199H67.88A5.89,5.89,0,0,1,66.33,202l-.7-.41q1.74-1.55,1.74-5.42c0-.28,0-.62,0-1a18.08,18.08,0,0,1-2.53,2.12l-.56-.55a14.29,14.29,0,0,0,4.51-4.7H64.39v-.72H69.2c.27-.49.54-1,.81-1.66l.75.22c-.26.59-.5,1.07-.71,1.44h6.52Zm-1.8,6.26V196.6H68.06q0,1.08-.06,1.68Zm0-2.4v-1.6H68.1v1.6Z" transform="translate(-2.83 -1.46)"/><path class="cls-5" d="M84,197.94H81.62a5.39,5.39,0,0,1-.19.69,18.24,18.24,0,0,1,1.85,1.7l-.48.53a10.23,10.23,0,0,0-1.65-1.52A6.52,6.52,0,0,1,78.46,202l-.53-.53a5,5,0,0,0,2.92-3.48H78.07v-.68H81c0-.36.08-.89.1-1.59H79.58a11.51,11.51,0,0,1-.94,1.19l-.57-.42a7.76,7.76,0,0,0,1.61-2.5l.64.28A5.64,5.64,0,0,1,80,195h3.53v.7H81.75a14.68,14.68,0,0,1-.07,1.59H84Zm-.33-4.28H79.65a.93.93,0,0,1-.68-.27.87.87,0,0,1-.27-.64V189.7h.72v1.15h3.94v.69H79.42v1.17c0,.2.11.3.34.3h3.95Zm6.52,7.27-.19.77a8.17,8.17,0,0,1-3.23-.47,3.68,3.68,0,0,1-1.69-1.65A7.5,7.5,0,0,1,83.63,202l-.52-.49a6.71,6.71,0,0,0,1.5-2.64,12,12,0,0,0,.28-2.8h.69a13.52,13.52,0,0,1-.22,2.51,3.48,3.48,0,0,0,1.38,1.82V194.7H84V194h3.46a14.08,14.08,0,0,0-2.47-1.9l.48-.52c.45.29.91.62,1.39,1a8.89,8.89,0,0,0,2-1.88H84.43V190h5.24v.7A10.18,10.18,0,0,1,87.42,193l.66.59-.35.4H89.9v.69a12.67,12.67,0,0,1-.78,1.7l-.64-.3a7.45,7.45,0,0,0,.65-1.4H87.49v2.45h2.07v.7H87.49v2.85a4.67,4.67,0,0,0,1.91.26C89.7,201,90,201,90.23,200.93Z" transform="translate(-2.83 -1.46)"/><path class="cls-5" d="M103.51,191.62a13,13,0,0,1-.92,2.21l-.67-.22a9.35,9.35,0,0,0,.59-1.33H97.3v.84l3.86-.19,0,.61-3.91.21v.3c0,.21.13.31.39.31h4.43V195H97.48a.77.77,0,0,1-.88-.87v-.32l-2.27.08,0-.62,2.32-.11v-.88H93.53v2.41a14,14,0,0,1-1.48,7.09l-.59-.4a13.65,13.65,0,0,0,1.35-6.69v-3.07h4V189.7h.72v.57h5.31v.65H97.54v.7Zm-8.17,8.12a8.57,8.57,0,0,1-1.24,2l-.58-.38a11.35,11.35,0,0,0,1.2-1.9Zm7.39-.83H94.67v-3.3h8.06Zm-4.37-2v-.65h-3v.65Zm0,1.35v-.7h-3v.7Zm3.18,2.27a1.65,1.65,0,0,1-.5,1.1,1.88,1.88,0,0,1-1.19.31H97.22c-.63,0-.94-.33-.94-1v-1.54H97v1.44c0,.2.06.32.18.37a4.54,4.54,0,0,0,1,.06,19.37,19.37,0,0,0,2.14-.07c.35,0,.54-.36.58-.95Zm-1.8-.52-.41.58a7.9,7.9,0,0,0-1.53-.87l.41-.55A7.16,7.16,0,0,1,99.74,200Zm2.3-3.1v-.65h-3v.65Zm0,1.35v-.7h-3v.7Zm1.67,2.9-.57.39a11.26,11.26,0,0,0-1.41-1.79l.59-.39A10.08,10.08,0,0,1,103.71,201.17Z" transform="translate(-2.83 -1.46)"/><path class="cls-5" d="M109.31,191.79h-4.25v-.69h2.09a10.39,10.39,0,0,0-.63-1.23l.64-.29a11.94,11.94,0,0,1,.73,1.52h1.42Zm-.17,2H105.4v-.71h3.74Zm0,2.1H105.4v-.73h3.74Zm-.22,5.68h-.71v-.75h-1.93v1.1h-.7v-4.61h3.34Zm-.71-1.45V198h-1.93v2.13Zm9-5.39h-7.61v-.64h3.5v-1h-2.9v-.64h2.9v-1h-3.2v-.64h3.2V189.7h.71v1.11h3.12v.64H113.8v1h2.8v.64h-2.8v1h3.4Zm-.85,6.09a1.11,1.11,0,0,1-.33.84c-.21.21-.92.29-2.13.25l-.24-.71h1.55a.38.38,0,0,0,.28-.13.36.36,0,0,0,.14-.26v-1.15H111.1a6.24,6.24,0,0,1-1,2.32l-.52-.48a6.17,6.17,0,0,0,1-3.69v-2.2h5.81Zm-.73-1.82v-1.06h-4.41a6.4,6.4,0,0,1-.06,1.06Zm0-1.71v-1h-4.4v1Z" transform="translate(-2.83 -1.46)"/><path class="cls-5" d="M126.16,195.13l-.62.39a12.4,12.4,0,0,0-.76-1.41c-.58.11-1.22.21-1.91.31v2.2h2.71v.71h-2.71v2.87c1.09-.16,2.12-.34,3.1-.55v.72q-3.6.75-7.24,1.15l-.16-.71c1.58-.2,2.77-.35,3.58-.47v-3H119v-.71h3.19v-2.1c-1.13.14-2.18.23-3.15.28l-.12-.6a9,9,0,0,0,2.71-3.45h-2.81V190H126v.74h-3.49a15.11,15.11,0,0,1-2.25,3.25,36.22,36.22,0,0,0,4.17-.55c-.25-.39-.57-.84-1-1.35l.63-.37A18.33,18.33,0,0,1,126.16,195.13Zm1.53,4.16H127v-8.68h.73Zm2.81,1.32c0,.83-.4,1.24-1.19,1.24h-1.9l-.29-.74q1,.06,2,.06a.55.55,0,0,0,.61-.63v-10.9h.73Z" transform="translate(-2.83 -1.46)"/><path class="cls-5" d="M144.5,201.38l-.5.63a12.76,12.76,0,0,1-3.6-3.34,13.41,13.41,0,0,1-2-4.7,11.65,11.65,0,0,1-5.72,8l-.48-.64a15.28,15.28,0,0,0,2.39-1.88,12.25,12.25,0,0,0,1.9-2.32,10.16,10.16,0,0,0,1.16-3.36h-5.19v-.72h5.33a33,33,0,0,0,.24-3.41h.8c-.05,1.23-.14,2.36-.27,3.41h5.74v.72h-5.19a12.61,12.61,0,0,0,2.07,4.7A12,12,0,0,0,144.5,201.38Z" transform="translate(-2.83 -1.46)"/><path class="cls-5" d="M158,199.61h-5.71V201a.76.76,0,0,1-.26.62.88.88,0,0,1-.61.22l-1.66,0-.24-.7.8,0a4.07,4.07,0,0,0,1.11-.08.35.35,0,0,0,.16-.34v-1.16h-5.74V199h5.74v-.56a23.7,23.7,0,0,0,2.27-.91h-5.63v-.65h7.13v.65a29.87,29.87,0,0,1-3.07,1.35V199H158Zm-.29-1.89H157V196H146.84v1.76h-.71V195.3h.74l-.06-5a10,10,0,0,0,2.62-.67l.32.56a9.4,9.4,0,0,1-2.24.66v1h2.25v.65h-2.24l0,1.08h2.21v.65h-2.19l0,1.12h8.58l0-1.12H154v-.65h2.23v-1.08H154v-.65h2.27l0-1h-2.42v-.64H157l-.12,5.15h.84Zm-4-3.2-.46.45c-.12-.13-.53-.47-1.23-1a10.77,10.77,0,0,1-1.69,1l-.35-.58a14.81,14.81,0,0,0,1.52-.83,3.78,3.78,0,0,0-.59-.45l-.51-.35.41-.44c.68.47,1.09.75,1.21.85a5,5,0,0,0,.91-.8l.53.36a7.67,7.67,0,0,1-.92.87C152.75,193.71,153.14,194,153.72,194.52Zm0-2.67-.46.4a9.1,9.1,0,0,0-1.19-1,10.36,10.36,0,0,1-1.6.9l-.3-.56a9.91,9.91,0,0,0,1.38-.76,7.21,7.21,0,0,0-1-.76l.47-.41,1.06.79a5.57,5.57,0,0,0,1-.93l.53.28a6.8,6.8,0,0,1-1,1.07A9.19,9.19,0,0,1,153.68,191.85Z" transform="translate(-2.83 -1.46)"/><path class="cls-5" d="M163.31,200.81h-.7V200h-1.94v1.15H160V190.32h3.35Zm-.7-7.61V191h-1.94v2.18Zm0,3v-2.27h-1.94v2.27Zm0,3.13v-2.43h-1.94v2.43Zm8-3.81h-5.13V201a23.38,23.38,0,0,0,2.46-.91l.12.69a30.77,30.77,0,0,1-3.21,1.16l-.33-.64a.55.55,0,0,0,.28-.43V190.07h5.81Zm-.71-3v-1.71h-4.42v1.71Zm0,2.37v-1.71h-4.42v1.71Zm1.63,6.68L171,202a9.23,9.23,0,0,1-3.74-5.57l.68-.22a8.21,8.21,0,0,0,.68,1.89,11.43,11.43,0,0,0,2.08-1.79l.59.41a15.76,15.76,0,0,1-2.34,2A8.73,8.73,0,0,0,171.54,201.48Z" transform="translate(-2.83 -1.46)"/><path class="cls-5" d="M178.59,190.18a12.51,12.51,0,0,1-2.17.72v2.23h2.07v.72h-2.07v.71a15.48,15.48,0,0,1,2.07,2.41l-.52.58a12.62,12.62,0,0,0-1.55-2v6.33h-.71v-6.56a19.87,19.87,0,0,1-2.27,3.53l-.51-.62a14.5,14.5,0,0,0,2.7-4.39H173v-.72h2.72v-2c-.39.08-1.07.2-2,.36l-.4-.7a17.81,17.81,0,0,0,4.84-1.16Zm6.66,8-1.43.21v3.52h-.73v-3.4l-4.61.7-.06-.73,4.67-.71v-8.1h.73v8l1.4-.19Zm-3.33-1.82-.5.56a12.29,12.29,0,0,0-2.58-2.46l.47-.56A12.69,12.69,0,0,1,181.92,196.36Zm.32-3.76-.44.62a13.43,13.43,0,0,0-2.51-2.17l.42-.57A13.43,13.43,0,0,1,182.24,192.6Z" transform="translate(-2.83 -1.46)"/><path class="cls-5" d="M190,189.8c-.18.5-.43,1.13-.75,1.87l-.48,1.08v9.19h-.71v-7.81q-.63,1.1-1.17,1.89l-.45-.72a22.91,22.91,0,0,0,2.89-5.72Zm4,2.65v.68h-1.81V196h1.42v4.46h-3.52V196h1.4v-2.82h-2v-.68h2v-2.78h.7v2.78Zm-1.11,7.28v-3.1h-2.08v3.1Zm5.92,1.6-.49.58a12,12,0,0,1-2-2.3,10.71,10.71,0,0,1-2.45,2.34l-.56-.53a8.69,8.69,0,0,0,2.61-2.51,13.44,13.44,0,0,1-1-3.76l.67-.27a12,12,0,0,0,.78,3.25,9.42,9.42,0,0,0,.81-4.36c0-.34,0-.7,0-1.08h-1.67a11.89,11.89,0,0,1-1.45,2.89l-.57-.41a16.2,16.2,0,0,0,2.13-5.53l.69.19a17.34,17.34,0,0,1-.59,2.17h3.07v.69h-.9a12.46,12.46,0,0,1-1.08,6.25A9.4,9.4,0,0,0,198.84,201.33Z" transform="translate(-2.83 -1.46)"/><path class="cls-5" d="M212.33,196.86h-4.6v3.8a.29.29,0,0,0,.15.27,7.83,7.83,0,0,0,1.6.08,6.19,6.19,0,0,0,1.54-.1c.16-.06.27-.75.31-2.06l.75.28a3.83,3.83,0,0,1-.44,2.22,3.12,3.12,0,0,1-2,.4,11.48,11.48,0,0,1-2.06-.09.8.8,0,0,1-.41-.35,1.18,1.18,0,0,1-.17-.65v-3.8h-2.27c0,2.68-1.37,4.38-4.13,5.08l-.49-.66c2.65-.58,3.92-2.06,3.82-4.42h-3.81v-.71h12.21Zm-.5-2.46h-.77v-2.5h-9.67v2.5h-.79v-3.22h5.2c-.37-.73-.6-1.19-.71-1.38l.78-.25a12.71,12.71,0,0,1,.8,1.63h5.16Zm-1.75-.3h-7.71v-.69h7.71Z" transform="translate(-2.83 -1.46)"/><path class="cls-5" d="M220.27,191.19h-2.79v.89h2.28v2.33h-2.28v.29a15,15,0,0,1,2.06,1.05l-.31.63a15.21,15.21,0,0,0-1.75-1v1.43h-.68v-1.71a13.54,13.54,0,0,1-2.64,1.77l-.48-.59a10.55,10.55,0,0,0,2.89-1.9h-2.18v-2.33h2.41v-.89h-3v-.68h3v-.75h.68v.75h2.79Zm5.62,10.54H213.71v-.66h2.46v-2.21h.69v2.21h2.66v-3h-5.47v-.65h11.56v.65h-5.34v1.08h4.82v.63h-4.82v1.25h5.62Zm-9.09-8v-1h-1.69v1Zm2.26,0v-1h-1.58v1Zm6.9,2.48-.37.66a7.11,7.11,0,0,1-2.48-1.26,13.24,13.24,0,0,1-2.69,1.29l-.5-.6a9.64,9.64,0,0,0,2.7-1.21,5.72,5.72,0,0,1-1-1.61l.62-.31a4.72,4.72,0,0,0,.9,1.47,4.31,4.31,0,0,0,1.23-2.69h-2.26a7.45,7.45,0,0,1-1.59,1.9l-.5-.47a7.76,7.76,0,0,0,2.39-3.68l.63.27a6.76,6.76,0,0,1-.54,1.31h3.3V192h-.75a5,5,0,0,1-1.42,3.18A6.13,6.13,0,0,0,226,196.21Z" transform="translate(-2.83 -1.46)"/><path class="cls-5" d="M232.09,191.9h-4.84v-.72h2.16a6.71,6.71,0,0,0-.56-1.26l.69-.28a8.13,8.13,0,0,1,.62,1.54h1.93Zm-.36,2h-4.09v-.7h4.09Zm0,2h-4.09v-.7h4.09Zm-.27,5.73h-.76v-.75h-2.12v1h-.73v-4.65h3.61Zm-.76-1.46V198h-2.12v2.2Zm8.75-1.28h-3.32v3h-.74v-3h-3.3v-.7h3.3v-2.17h-2.68v-.7h2.68v-2.06h-3v-.7h6.75v.7h-3v2.06h2.71v.7h-2.71v2.17h3.32Zm-4.59-7.19-.68.32a8.29,8.29,0,0,0-1.15-2l.63-.41A10,10,0,0,1,234.86,191.75Zm3.69-1.78a11.09,11.09,0,0,1-1.41,2l-.68-.38a9.05,9.05,0,0,0,1.43-2Z" transform="translate(-2.83 -1.46)"/><path class="cls-5" d="M242.45,198.67a17.26,17.26,0,0,1-1,3.24l-.7-.27a14.25,14.25,0,0,0,1-3.14Zm3.75-6.81a36.17,36.17,0,0,1-3.87,5.25c.52-.09,1.41-.28,2.69-.59a7.92,7.92,0,0,0-.34-.81l.62-.27a8.88,8.88,0,0,1,.84,2.27l-.64.25c0-.06-.09-.34-.24-.85a37.34,37.34,0,0,1-3.93.88l-.22-.61a22.11,22.11,0,0,0,2.82-3.4,20.62,20.62,0,0,1-2.44.48l-.21-.63a17,17,0,0,0,2.45-4.14l.72.22a27.5,27.5,0,0,1-2.15,3.71,16,16,0,0,0,2.16-.4c.31-.45.67-1,1.08-1.67Zm-2,9.64-.72.1a15.42,15.42,0,0,0-.26-3l.65-.11A13.54,13.54,0,0,1,244.16,201.5Zm1.92-.45-.68.2a12.69,12.69,0,0,0-.59-2.69l.67-.18A15.14,15.14,0,0,1,246.08,201.05Zm6.6.87H252V201h-4.52v.94h-.71V190h5.92Zm-3.31-7v-4.18h-1.9v4.18Zm0,5.37v-4.65h-1.9v4.65Zm2.62-5.37v-4.18H250.1v4.18Zm0,5.37v-4.65H250.1v4.65Z" transform="translate(-2.83 -1.46)"/><path class="cls-5" d="M259.27,201.65h-.71v-1.2h-3v1.49h-.71V192h1.3a13.61,13.61,0,0,0,1-2.41l.7.15c-.17.49-.48,1.24-.95,2.26h2.39Zm-.71-5.93v-3h-3v3Zm0,4v-3.31h-3v3.31Zm7.72-7.72q-.07,3.15-.3,5.85a14.69,14.69,0,0,1-.45,3.18,1.47,1.47,0,0,1-.58.68,3,3,0,0,1-1.33.2l-1.13,0-.23-.71,1.24,0c.42,0,.68,0,.8,0a.65.65,0,0,0,.36-.17.94.94,0,0,0,.28-.38,12.21,12.21,0,0,0,.21-1.61c.1-.93.17-1.95.23-3.07s.1-2.2.13-3.26h-3.65a18.7,18.7,0,0,1-1.7,2.77l-.57-.4a14.86,14.86,0,0,0,2.6-5.38l.72.18c-.23.75-.49,1.46-.77,2.14Zm-2.57,6.28-.59.42a15,15,0,0,0-2-3.27l.6-.39A14,14,0,0,1,263.71,198.3Z" transform="translate(-2.83 -1.46)"/><path class="cls-5" d="M272.13,195.72l-.5.56a11.59,11.59,0,0,0-1.19-1.65v7.28h-.71v-7a16.15,16.15,0,0,1-1.36,3.21l-.52-.54a15.48,15.48,0,0,0,1.81-4.8H268v-.64h1.72v-2.39h.71v2.39h1.2v.64h-1.2v.9A14.73,14.73,0,0,1,272.13,195.72Zm3.69,5-.45.5a14.55,14.55,0,0,0-1.59-1.33A8.83,8.83,0,0,1,272,202l-.51-.51a8.8,8.8,0,0,0,2.43-3.45l.65.26-.45.95A11.6,11.6,0,0,1,275.82,200.68Zm4.52-7.65-.4.62a11.76,11.76,0,0,1-3.9-2.9,14.26,14.26,0,0,1-3.84,3l-.53-.56a11.58,11.58,0,0,0,4.31-3.52l.68.26a1.4,1.4,0,0,1-.22.32A11.08,11.08,0,0,0,280.34,193Zm-4.88,4.72h-2.9v-3.33h2.9Zm-.7-.67v-2h-1.5v2Zm3.2-3.67h-3.9v-.68H278Zm2.2,8-.46.48a14.85,14.85,0,0,0-2-1.82,9.05,9.05,0,0,1-1.41,1.88l-.59-.41a9.33,9.33,0,0,0,2.1-3.5l.64.23a7.63,7.63,0,0,1-.48,1.21A13.77,13.77,0,0,1,280.16,201.4Zm-.77-3.65h-2.88v-3.33h2.88Zm-.68-.67v-2H277.2v2Z" transform="translate(-2.83 -1.46)"/><path class="cls-5" d="M35.91,213.31l-.44.64a27.44,27.44,0,0,0-5.36-2.37v2h4.15v4.91h-9V213.6H29.4v-2.74A16.38,16.38,0,0,1,24,214l-.49-.64a14.66,14.66,0,0,0,5.29-2.87H23.68v-.7H29.4v-1.34h.71v1.34h5.71v.7H30.11v.38A31.41,31.41,0,0,1,35.91,213.31Zm0,7.1H23.66v-.69H35.89Zm-2.38-4.74V214.3H26v1.37Zm0,2.11v-1.39H26v1.39Z" transform="translate(-2.83 -1.46)"/><path class="cls-5" d="M42.91,213.24a1.4,1.4,0,0,1,1,.41,1.34,1.34,0,0,1,.42,1,1.36,1.36,0,0,1-.39,1,1.27,1.27,0,0,1-1,.4,1.48,1.48,0,0,1-1-.35,1.34,1.34,0,0,1-.42-1.08,1.25,1.25,0,0,1,.43-1A1.36,1.36,0,0,1,42.91,213.24Zm.85,1.43a.76.76,0,0,0-.24-.59.87.87,0,0,0-.6-.22.75.75,0,0,0-.57.24.81.81,0,0,0-.23.57.83.83,0,0,0,.22.56.71.71,0,0,0,.59.27.79.79,0,0,0,.83-.83Z" transform="translate(-2.83 -1.46)"/><path class="cls-6" d="M271.77,123a77.48,77.48,0,1,0-139,0Z" transform="translate(-2.83 -1.46)"/><g class="cls-7"><path class="cls-8" d="M266.44,110.32l.36,2.66s5.77-4.29,5.92-7.52l-2.06-.82Z" transform="translate(-2.83 -1.46)"/><path class="cls-9" d="M211.33,279.85l1.8-2.19s0-1.91.05-5.4c.66-22.86,3.23-109.42,3.32-111.2.11-2.05,13.22-5,23.39-3.5s11,3.41,11,3.41,12.14,117.2,11.81,118.18-5.44.48-5.44.48l-.7-1.07S241,186.66,237,181.92s-6.31.65-6.85,3.5-11.2,92.06-11.63,93.24S211.33,279.85,211.33,279.85Z" transform="translate(-2.83 -1.46)"/><path class="cls-10" d="M216.13,172.86c.21-6.94.35-11.4.37-11.8.11-2.05,13.22-5,23.39-3.5s11,3.41,11,3.41,12.14,117.2,11.81,118.18-5.44.48-5.44.48l-.7-1.07-.43-2.49c2.23-.05,3.62-1.46,3.48-8.35-.2-9.25-9.22-97.71-14.5-102.08s-17-4.47-22.32-2.53c-3.49,1.27-5.57,6.2-6.7,9.75Zm-4.8,107s6.79,0,7.23-1.19,11.1-90.38,11.63-93.24,2.86-8.24,6.85-3.5a5.68,5.68,0,0,0-5.36-2.94c-4,.06-6.74,12.59-7.39,26.82s-6.46,61.55-6.79,64.56c-.28,2.62-2.42,2.64-4.32,1.9l-.05,5.4Z" transform="translate(-2.83 -1.46)"/><path class="cls-11" d="M214.45,277.77a3.73,3.73,0,0,0-2.74-.53c-1.43.36-9.66,4.25-11,4.78s-2.7,2.56-1.66,3.72,7.77,1.46,11.45.73a25,25,0,0,1,7.88-.13c1.35.1,3.16-3.27,1.85-7.51S219.34,278.53,214.45,277.77Z" transform="translate(-2.83 -1.46)"/><path class="cls-12" d="M214.45,277.77a3.73,3.73,0,0,0-2.74-.53,3.46,3.46,0,0,0-.43.14c1.18.26,3.56,1,4,2.55s.49,4.48-1.15,6.16a35.61,35.61,0,0,1,4.26.25c1.11.08,3.16-3.27,1.85-7.51S219.34,278.53,214.45,277.77Z" transform="translate(-2.83 -1.46)"/><path class="cls-13" d="M198.85,284c-.23.61-.52.9.22,1.72s7.77,1.46,11.45.73a25.5,25.5,0,0,1,7.88-.13c1.1.08,2-1.51,2.27-3.42-1,1.4-2.75,1.52-6.08,1.26s-6.61.63-11,1C200.6,285.5,199.33,284.59,198.85,284Z" transform="translate(-2.83 -1.46)"/><path class="cls-14" d="M214.14,286.09a36.24,36.24,0,0,1,4.26.25c.86.06,2-1.51,2.27-3.42-.94,1.3-2.51,1.49-5.4,1.31A6.92,6.92,0,0,1,214.14,286.09Z" transform="translate(-2.83 -1.46)"/><path class="cls-11" d="M256.92,278.38a3.88,3.88,0,0,1,5.31-.57,4.24,4.24,0,0,1,2.2,2c.59,1.39,1.72,2,1.92,3.55s-.26,2.73-2.35,2.73h-3.39c-1.5,0-3.72.23-4.49-1.63s0-3.56-.26-4.52S256.92,278.38,256.92,278.38Z" transform="translate(-2.83 -1.46)"/><path class="cls-12" d="M256.92,278.38a3.88,3.88,0,0,1,5.31-.57,4.24,4.24,0,0,1,2.2,2c.59,1.39,1.72,2,1.92,3.55s-.26,2.73-2.35,2.73h-1.87c3-2.45.41-7.22-2-7.63a6.13,6.13,0,0,0-4.31,1.4C255.66,278.94,256.92,278.38,256.92,278.38Z" transform="translate(-2.83 -1.46)"/><path class="cls-13" d="M266.38,283.65c.11,1.39-.43,2.44-2.38,2.44h-3.39c-1.5,0-3.72.23-4.49-1.63a4.6,4.6,0,0,1-.31-1.24s.88,1.2,3.75,1.38S265.89,284.82,266.38,283.65Z" transform="translate(-2.83 -1.46)"/><path class="cls-14" d="M266.38,283.65c.11,1.39-.43,2.44-2.38,2.44h-1.87a3.68,3.68,0,0,0,1.06-1.41C264.8,284.61,266.09,284.34,266.38,283.65Z" transform="translate(-2.83 -1.46)"/><path class="cls-15" d="M230.81,78.6,254.73,80a7.33,7.33,0,0,1,6.86,7.71L259.35,126a7.31,7.31,0,0,1-7.71,6.85l-23.91-1.39a7.33,7.33,0,0,1-6.86-7.71l2.24-38.28A7.3,7.3,0,0,1,230.81,78.6Z" transform="translate(-2.83 -1.46)"/><path class="cls-16" d="M183.31,87.51a18.77,18.77,0,0,0-1.87-4.24c-.84-1-3.46-1.45-4.29-3.17s-2.3-4.63,1.2-5.84,5.92-1.54,6.39-.28,1.67,3.36,1.52,4.76-1,4,.68,6.61S183.31,87.51,183.31,87.51Z" transform="translate(-2.83 -1.46)"/><path class="cls-16" d="M221.56,82.29c-.46.55-.91,1.12-1.36,1.73-3.52,4.76-8.78,13.34-13.78,19.32-5.38,6.42-4.47,8-8.63,1.14-4.38-7.2-9-15.4-10.56-18.47-.24-.47-1.29-2.75-2.18-2-.42.33.44,1.78-.48,2.25s-.64-1-1.26,1.28c1.95,5.2,12.49,25.55,13.81,27.15s6.45,2.21,7.89.75l.16-.1c4.35-4.19,11.66-9.14,17.34-16.16a49.71,49.71,0,0,0,6.12-9.79A76.07,76.07,0,0,1,221.56,82.29Z" transform="translate(-2.83 -1.46)"/><path class="cls-17" d="M241.73,64.06l-.16,3.64v8.58c0,.84,1.07,1.5,2,2.19a5.19,5.19,0,0,1-2.7,8.38c-2.36.36-13.77-2.39-14.53-3-.54-.46,2.88-4.6,2.56-5.93.25-.07,0,0,.22-.08a3.92,3.92,0,0,0,1.66-1c1.24-1.36,1.19-7.42-.06-9S241.73,64.06,241.73,64.06Z" transform="translate(-2.83 -1.46)"/><path class="cls-17" d="M182.46,85.19l0,0h0v-.06h0V85h0V84.9h0l0,0v0h0v-.1h0l0,0v0a6.77,6.77,0,0,0-.79-1.39c-.84-1-3.46-1.45-4.29-3.17s-2.3-4.63,1.2-5.84c.57-.2,1.11-.37,1.62-.52-.2.06-3.39,1.18-1.74,4.25s4.21,3.45,5.83,1.77a15.77,15.77,0,0,1,2.15-1.91,3,3,0,0,1,0,.89c-.06.67-.29,1.6-.33,2.67a1.53,1.53,0,0,0-1.7.7,2.56,2.56,0,0,0-.46,2.18l.83,1.92c2.3,5.19,8.76,19.45,12.49,24.2,4.07,5.18,8.14,2.51,5.68-2.47.81-.93,1.9-2.51,3.65-4.6,3-3.6,6.12-8.14,8.88-12.23a63.48,63.48,0,0,0,3.29,12.37c-4.82,4.82-10,8.56-13.42,11.83l-.16.1c-1.44,1.46-6.49.93-7.89-.75s-11.86-22-13.81-27.15C183.31,87.51,182.94,86.34,182.46,85.19Z" transform="translate(-2.83 -1.46)"/><path class="cls-18" d="M221.56,82.29c-.46.55-.91,1.12-1.36,1.73-3.52,4.76-9.28,12-14.28,18-1.37,1.64-2.33,3-3.07,3.91h0s-.26.6.18.72a12.23,12.23,0,0,1,4.12,3.88c.92,1.74.65,3.09.22,3.51,4.68-4.16,10.89-9.59,15.14-14.85a49.71,49.71,0,0,0,6.12-9.79A76.07,76.07,0,0,1,221.56,82.29Z" transform="translate(-2.83 -1.46)"/><path class="cls-19" d="M221.56,82.29c-.46.55-.91,1.12-1.36,1.73-.94,1.27-3.78,5-5,6.5.75,4.87-.07,12.86-4.26,17.59a45.86,45.86,0,0,1-3.37,3.46,2.56,2.56,0,0,1-.22,2.43c4.68-4.16,10.89-9.59,15.14-14.85a49.71,49.71,0,0,0,6.12-9.79A76.07,76.07,0,0,1,221.56,82.29Z" transform="translate(-2.83 -1.46)"/><path class="cls-16" d="M184.53,80.23l1.69-1.14a3.75,3.75,0,0,1,2.59-1.56c1.94-.38-.78-4.33-3.19-1.51C182.77,79.27,184.53,80.23,184.53,80.23Z" transform="translate(-2.83 -1.46)"/><path class="cls-17" d="M184.53,80.23l1.69-1.14a3.75,3.75,0,0,1,2.59-1.56.71.71,0,0,0,.64-.57c-1.61-.67-3.79,1.15-5.35,2.75A1.13,1.13,0,0,0,184.53,80.23Z" transform="translate(-2.83 -1.46)"/><path class="cls-20" d="M253.78,152c-.36,1.82-.57,4.39-2.25,5.53-3.7,2.53-9.56-1.13-15.93-1.46-10.25-.54-21.28.6-22.66-1.9h0c-.88-1.6-.36-4,.07-6.06,4.16-20.5-3.39-68.13,16-70.38-1,6.65,6.74,10.66,14.54.77,3.64.68,9.35,3.77,9.35,3.77,2.88,1.47,4.71,2.46,5.18,5.73,1.77,12-5.52,26.44-5.65,38.72C252.29,138.14,255.88,141.55,253.78,152Z" transform="translate(-2.83 -1.46)"/><path class="cls-19" d="M253.78,152c-.36,1.82-.57,4.39-2.25,5.53-3.7,2.53-9.56-1.13-15.93-1.46-6.11-.32-12.49,0-16.95-.3h0s25.66-.46,26.63-21.28c.88-19.11-8.37-44.54-8.54-50.52a16.14,16.14,0,0,0,6.8-5.47c3.64.68,9.35,3.77,9.35,3.77,2.88,1.47,4.71,2.46,5.18,5.73.09.59.15,1.18.2,1.77-1.87,3.73-3.25,9-1.2,12.67-1.72,8.2-4.57,16.65-4.65,24.28C252.29,138.14,255.88,141.55,253.78,152Z" transform="translate(-2.83 -1.46)"/><path class="cls-10" d="M217.73,38a9.08,9.08,0,0,0-.9,3.58c0,1.71,3.64,2.42,4.87,2.42s34.67,1.24,34.67,1.24a1.27,1.27,0,0,0,1-1.2c0-1-5.74-13.5-5.74-13.5Z" transform="translate(-2.83 -1.46)"/><path class="cls-21" d="M219.38,57.65a5.32,5.32,0,1,0-5.32-5.32A5.33,5.33,0,0,0,219.38,57.65Z" transform="translate(-2.83 -1.46)"/><path class="cls-21" d="M255.83,57.65a5.32,5.32,0,1,0-5.32-5.32A5.34,5.34,0,0,0,255.83,57.65Z" transform="translate(-2.83 -1.46)"/><rect class="cls-22" x="215.34" y="18.63" width="36.46" height="53.02" rx="18.23"/><path class="cls-17" d="M243.84,21.7h0a18.3,18.3,0,0,1,10.75,16.61V54.89a18.28,18.28,0,0,1-18.23,18.22h0a18,18,0,0,1-6.54-1.22c17.83.14,19.8-12,19.8-22.12,0-15-16.35-9.59-29.75-9.59-.6,0-1.18,0-1.74,0V38.32a18.05,18.05,0,0,1,.63-4.73c7.2-4.53,17.17-10.4,21.86-11.36l3-.61.11.05C243.69,21.7,243.67,21.72,243.84,21.7Z" transform="translate(-2.83 -1.46)"/><path class="cls-15" d="M252.57,37.29V42.9c0,2.2.4,2.85,1.5,3.65,0,0-.68,2.13.55,2.63a1.92,1.92,0,0,1,1.75-1.89V32.82A7.43,7.43,0,0,1,252.43,36,6.21,6.21,0,0,1,252.57,37.29Z" transform="translate(-2.83 -1.46)"/><path class="cls-23" d="M257.41,44a15.33,15.33,0,0,0-4.16-3.4h0l-.08,0c-.16-.1-.33-.19-.51-.28a10.69,10.69,0,0,1-4.3-4.24c-1.51,1.05-7.74.89-10.09.79l-.79,0h-.11c-10.41-.42-20.49,2.1-20.54,4.75-9-19,13.54-37.24,33.61-16.51C261.05,25.57,260.11,36.46,257.41,44Z" transform="translate(-2.83 -1.46)"/><path class="cls-15" d="M214.8,32a17,17,0,0,1,3-8.89c4.84,2.94,16.54,8,29.74-.79.63.53,1.26,1.1,1.88,1.7C245.16,28.54,234,37.25,214.8,32Z" transform="translate(-2.83 -1.46)"/><path class="cls-24" d="M257.41,44a15.33,15.33,0,0,0-4.16-3.4h0l-.08,0c-.16-.1-.33-.19-.51-.28a10.69,10.69,0,0,1-4.3-4.24c-1.51,1.05-7.74.89-10.09.79l-.79,0h-.11c-1,0-1.94-.06-2.89,0,13.4-.53,19.8-5.28,22.71-8.77C260.32,31.89,259.29,38.77,257.41,44Z" transform="translate(-2.83 -1.46)"/><path class="cls-14" d="M232.18,83.55l1.15-.24.29,1.08.38-1a17.29,17.29,0,0,1,1.86.72c0,.09.07,1.19-.47,1.41a4.05,4.05,0,0,1-2.6-.06C232.3,85.08,232.18,83.55,232.18,83.55Z" transform="translate(-2.83 -1.46)"/><path class="cls-13" d="M242.91,77.26a11.55,11.55,0,0,1-8.91,6.1,16.21,16.21,0,0,1,2,4.06c.4,1.7,6.54-2.77,8.57-8.7C244.61,78.72,243.28,76.93,242.91,77.26Z" transform="translate(-2.83 -1.46)"/><path class="cls-13" d="M231.65,86.85c-1.15.11-3.73-2.86-3.2-9.07a3.35,3.35,0,0,1,1.61-.4s-.8,3.58,3.27,5.93C233.33,83.31,231.54,85.36,231.65,86.85Z" transform="translate(-2.83 -1.46)"/><path class="cls-23" d="M246.25,79.81c-1.36,4.75-9,33.82,7,39,0,0,2,.44,2.69.54a.61.61,0,0,0,.37-.94s-16-3.71-5.74-37.37c0,0,.42-.83-.14-1.27C249.52,79.08,246.77,78,246.25,79.81Z" transform="translate(-2.83 -1.46)"/><path class="cls-23" d="M227.71,77.93S217.05,93,215,111.24c0,0-1.3-14.43,6.18-27.77.47-.85,2.39-4.24,3.13-4.73S227.4,77,227.71,77.93Z" transform="translate(-2.83 -1.46)"/><path class="cls-25" d="M216.31,155.33s20.46-3.72,34.76,1.89a1.05,1.05,0,0,1,.72.76,14.82,14.82,0,0,1,.4,3.25c-.14.4-.51.78-1.6.59s-20.87-5.39-34.1-.39c-1.4.53-.84-1.88-.71-4A11.72,11.72,0,0,1,216.31,155.33Z" transform="translate(-2.83 -1.46)"/><rect class="cls-4" x="222.44" y="153.71" width="8.85" height="6.69" rx="1.01" transform="translate(-4.72 1.31) rotate(-0.7)"/><path class="cls-26" d="M217.5,160.93s-.49-5-.07-5.67a1.19,1.19,0,0,1,1.22-.51s-.07,5.54.31,5.88S217.5,160.93,217.5,160.93Z" transform="translate(-2.83 -1.46)"/><path class="cls-26" d="M249.21,161.75s.49-4.67.07-5.3a1.27,1.27,0,0,0-1.23-.48s.08,5.19-.31,5.5S249.21,161.75,249.21,161.75Z" transform="translate(-2.83 -1.46)"/><path class="cls-26" d="M240.74,160.12s.49-4.5.07-5.11a1.28,1.28,0,0,0-1.22-.46s.07,5-.31,5.3S240.74,160.12,240.74,160.12Z" transform="translate(-2.83 -1.46)"/><path class="cls-16" d="M292.26,86.47a18.31,18.31,0,0,1,1.87-4.24c.84-1,3.46-1.45,4.28-3.17s2.31-4.63-1.2-5.85-5.91-1.53-6.38-.27-1.68,3.36-1.53,4.76,1,4-.67,6.61S292.26,86.47,292.26,86.47Z" transform="translate(-2.83 -1.46)"/><path class="cls-16" d="M269.15,102.29c5.46,6.35,4.46,8,8.63,1.15,4.37-7.2,9-15.4,10.56-18.47.24-.47,1.29-2.75,2.18-2,.41.33-.45,1.77.48,2.25s.63-1,1.26,1.28c-2,5.2-12.49,25.55-13.82,27.15s-6.44,2.21-7.88.75l-.16-.11C247,91.71,261.27,93.14,269.15,102.29Z" transform="translate(-2.83 -1.46)"/><path class="cls-18" d="M252.24,88.07c.45.54,2.47-4.88,3.1-4.46,6.25,4.09,9.3,11.35,14.31,17.33,1.36,1.64,2.33,3,3.07,3.9h0s.26.61-.18.73a12.14,12.14,0,0,0-4.12,3.88c-.93,1.74-1.95,3.32-1.52,3.74-4.67-4.16-11.24-6.12-15.49-11.38C248.66,98.41,250.19,90.37,252.24,88.07Z" transform="translate(-2.83 -1.46)"/><path class="cls-19" d="M252.24,88.07c.45.54,2.47-4.88,3.1-4.46a22.42,22.42,0,0,1,4.31,3.75c-3.1,4.58-6.78,14.85,1.21,18.39,6.86,3,9.8.22,11-2l.86,1.12h0s.26.61-.18.73a12.14,12.14,0,0,0-4.12,3.88c-.93,1.74-1.95,3.32-1.52,3.74-4.67-4.16-11.24-6.12-15.49-11.38C248.66,98.41,250.19,90.37,252.24,88.07Z" transform="translate(-2.83 -1.46)"/><path class="cls-16" d="M291,79.19,289.35,78a3.8,3.8,0,0,0-2.6-1.55c-1.94-.38.79-4.33,3.2-1.52C292.8,78.23,291,79.19,291,79.19Z" transform="translate(-2.83 -1.46)"/><path class="cls-17" d="M291,79.19,289.35,78a3.8,3.8,0,0,0-2.6-1.55.74.74,0,0,1-.64-.57c1.62-.67,3.8,1.15,5.36,2.75A1.13,1.13,0,0,1,291,79.19Z" transform="translate(-2.83 -1.46)"/><path class="cls-27" d="M237.68,43.2,242.21,42a.91.91,0,0,1,1.11.64h0a.9.9,0,0,1-.64,1.1l-4.53,1.22A.91.91,0,0,1,237,44.3h0A.9.9,0,0,1,237.68,43.2Z" transform="translate(-2.83 -1.46)"/><path class="cls-27" d="M225.45,46.32h-5.36a.9.9,0,0,0-.9.91h0a.9.9,0,0,0,.9.9h5.36a.9.9,0,0,0,.9-.9h0A.9.9,0,0,0,225.45,46.32Z" transform="translate(-2.83 -1.46)"/><path class="cls-21" d="M243.32,58a2.46,2.46,0,1,0-2.46-2.46A2.46,2.46,0,0,0,243.32,58Z" transform="translate(-2.83 -1.46)"/><path class="cls-21" d="M222.2,59.25a2.46,2.46,0,1,0-2.45-2.45A2.46,2.46,0,0,0,222.2,59.25Z" transform="translate(-2.83 -1.46)"/><path class="cls-27" d="M240.18,46h0a1.67,1.67,0,0,0-1.66,1.66v2.17a1.67,1.67,0,0,0,1.66,1.66h0a1.67,1.67,0,0,0,1.66-1.66V47.62A1.67,1.67,0,0,0,240.18,46Z" transform="translate(-2.83 -1.46)"/><rect class="cls-28" x="218.69" y="45.12" width="3.32" height="5.49" rx="1.66"/><path class="cls-27" d="M237.65,61.2a5.08,5.08,0,1,1-10.11,1.1h0a.88.88,0,0,1,.78-1l8.35-.92a.88.88,0,0,1,1,.78Z" transform="translate(-2.83 -1.46)"/><path class="cls-13" d="M228.61,61.3l7.85-.85a1.8,1.8,0,0,1-.65,2c-.69.31-6.38.78-6.83.37A3,3,0,0,1,228.61,61.3Z" transform="translate(-2.83 -1.46)"/></g><g id="視力自檢-2" data-name="視力自檢"><g class="cls-2"><path class="cls-29" d="M7.67,56.24a14.1,14.1,0,0,1-1.26,2.3v5.27H5.68V59.57A13.61,13.61,0,0,1,4.29,61l-.47-.56A14.46,14.46,0,0,0,7,56ZM6.49,64.5a11.57,11.57,0,0,1-1.77,3.23l-.63-.4a10.49,10.49,0,0,0,1.75-3.11Zm9.13-7.39a16.84,16.84,0,0,1-.77,2.39l-.7-.18a13.11,13.11,0,0,0,.53-1.51H9.62A19.06,19.06,0,0,1,7.78,60l-.58-.51A12.41,12.41,0,0,0,9.84,56l.67.29a4.82,4.82,0,0,1-.45.86Zm-5.15,3a11.78,11.78,0,0,1-2.34,3l-.54-.52a12.63,12.63,0,0,0,2.29-2.85Zm2.94,6.22a3.29,3.29,0,0,1-.32,1.27,1.05,1.05,0,0,1-.65.55,6.36,6.36,0,0,1-1.53.12c-.69,0-1.3,0-1.82,0a3.49,3.49,0,0,1-1-.14.81.81,0,0,1-.36-.35A1.55,1.55,0,0,1,7.59,67V64.11h.74V67a.42.42,0,0,0,.22.43,21.9,21.9,0,0,0,3.19.1.76.76,0,0,0,.72-.34A3,3,0,0,0,12.71,66Zm-1.61-.72-.56.45a10.53,10.53,0,0,0-1.55-2.1l.54-.47A10.37,10.37,0,0,1,11.8,65.59Zm.41-1.9h-.73v-5h.73Zm3.69-1.25-.6.48a13.71,13.71,0,0,0-2.07-2.83l.53-.45A12.14,12.14,0,0,1,15.9,62.44Zm.14,5-.65.37a16,16,0,0,0-1.86-3l.58-.4A15.41,15.41,0,0,1,16,67.46Z" transform="translate(-2.83 -1.46)"/><path class="cls-29" d="M24.2,68h-.7v-1.2h-3v1.49h-.71V58.38h1.3a12.94,12.94,0,0,0,1-2.41l.7.15a24.07,24.07,0,0,1-1,2.26H24.2Zm-.7-5.93v-3h-3v3Zm0,4V62.8h-3v3.31Zm7.72-7.72q-.09,3.15-.31,5.85a14.31,14.31,0,0,1-.44,3.18,1.52,1.52,0,0,1-.58.68,3.1,3.1,0,0,1-1.34.2l-1.13,0-.22-.71,1.24,0c.41,0,.68,0,.79,0a.65.65,0,0,0,.37-.17.84.84,0,0,0,.27-.38,9.91,9.91,0,0,0,.22-1.61c.09-.93.17-1.95.23-3.07s.1-2.2.13-3.26H26.8a19.58,19.58,0,0,1-1.7,2.77l-.57-.4a15,15,0,0,0,2.6-5.38l.71.18c-.23.75-.48,1.46-.76,2.14Zm-2.58,6.28-.59.42a14.61,14.61,0,0,0-2-3.27l.6-.38A13.41,13.41,0,0,1,28.64,64.67Z" transform="translate(-2.83 -1.46)"/><path class="cls-29" d="M40.85,61.31H36.08v2.53a14.44,14.44,0,0,1-.63,4.47l-.58-.46A13.83,13.83,0,0,0,35.36,64v-3.3h5.49Zm-.27-3.6H35.09v-.64h2.42l-.44-.82.65-.25a7.15,7.15,0,0,1,.55,1.07h2.31Zm-.36,2.2-.38.5-1.73-.92a19.8,19.8,0,0,1-2.62.92l-.35-.53a14,14,0,0,0,2.18-.76c-.54-.24-1.09-.47-1.65-.68l.41-.49q.53.19,2,.84A9.71,9.71,0,0,0,39.71,58l.44.43a8.87,8.87,0,0,1-1.29.74ZM40.81,66a11,11,0,0,1-4.05,2.33l-.39-.61a10.34,10.34,0,0,0,4-2.27Zm-1-3.58a10.76,10.76,0,0,1-2.9,1.6l-.38-.58a9.05,9.05,0,0,0,2.82-1.54Zm.5,1.72A11,11,0,0,1,37,66.06l-.38-.59a11.88,11.88,0,0,0,3.31-1.87ZM47,57H44.28c-.12.44-.29,1-.51,1.75h2.55v6.78H43.13l.43.44a14.25,14.25,0,0,1-2.7,2.36l-.43-.57A14.89,14.89,0,0,0,43,65.54H41.38V58.76h1.68c.16-.5.32-1.08.47-1.75H41.1v-.67H47Zm-1.34,3.78V59.45H42.06v1.34Zm0,2V61.45H42.06v1.36Zm0,2.06V63.45H42.06v1.42ZM47,67.79l-.47.55a19,19,0,0,0-2.22-2l.47-.5A19.9,19.9,0,0,1,47,67.79Z" transform="translate(-2.83 -1.46)"/><path class="cls-29" d="M62.22,65.23A6.11,6.11,0,0,1,62,66.69a2.65,2.65,0,0,1-.4.94,1.26,1.26,0,0,1-.55.39,5.1,5.1,0,0,1-1.4.15l-2.59,0-2.71,0c-1,0-1.58,0-1.73-.06a1,1,0,0,1-.45-.21,1.14,1.14,0,0,1-.33-.42,1.48,1.48,0,0,1-.11-.57v-7h4.6l2.15-2H53.92a13.28,13.28,0,0,1-3.41,2.55l-.46-.59A12.24,12.24,0,0,0,54.54,56l.76.28a9.86,9.86,0,0,1-.71.92h5v.63c-.56.58-1.3,1.29-2.23,2.13h3.81v4H52.47v3a.55.55,0,0,0,.16.33.83.83,0,0,0,.55.23c.27,0,1.44,0,3.52,0s3.47,0,3.74-.07a.92.92,0,0,0,.61-.31,2.06,2.06,0,0,0,.32-.85,8.9,8.9,0,0,0,.14-1.36Zm-6.17-2.06V60.64H52.47v2.53Zm4.38,0V60.64H56.82v2.53Z" transform="translate(-2.83 -1.46)"/><path class="cls-29" d="M70.08,62.4H68.15c0,.79,0,1.47-.06,2h1.63v.68H68a6.43,6.43,0,0,1-1.44,3.19L66,67.87a5.89,5.89,0,0,0,1.28-2.75H65.89v-.68H67.4q0-.9,0-2H65.56v-.71h1.21a14.61,14.61,0,0,0-.63-2.63l.53-.39h-1V58h1.88a8.65,8.65,0,0,0-.54-1.76l.69-.24a13.32,13.32,0,0,1,.56,2h1.6v.66h-.83l.49.36c-.17.73-.41,1.62-.74,2.66h1.26Zm-1.19-3.73H66.81a28.9,28.9,0,0,1,.66,3h.64A28.89,28.89,0,0,0,68.89,58.67Zm3.77,2.7a13.06,13.06,0,0,1-.56,4,8.42,8.42,0,0,1-1.76,3l-.58-.46a8.19,8.19,0,0,0,1.79-3.06,13.64,13.64,0,0,0,.34-2.35l-.47.33a32.26,32.26,0,0,0-1.34-3.42l.62-.32a27,27,0,0,1,1.25,3c0-.37,0-.8,0-1.28V56.11h.69Zm5.09,1H75.82v2h1.6v.69h-1.6v3.2h-.69v-3.2H73.56v-.69h1.57v-2h-1.9v-.7h1.09A19.46,19.46,0,0,0,73.66,59l.52-.32H73.4V58h1.83a12.26,12.26,0,0,0-.59-1.78l.71-.2a19.14,19.14,0,0,1,.6,2h1.62v.69h-.81l.45.26c-.16.88-.37,1.8-.64,2.74h1.18Zm-1.23-3.7H74.31c.29,1,.54,2,.74,3h.81A21.65,21.65,0,0,0,76.52,58.71Z" transform="translate(-2.83 -1.46)"/><path class="cls-29" d="M84.84,58.22H81.05v-.67h1.81a4.24,4.24,0,0,0-.57-1.28L83,56a12,12,0,0,1,.63,1.55h1.26Zm-.28,1.94H81.31v-.67h3.25Zm0,2.09H81.31V61.6h3.25Zm0,5.71h-.69v-.74H82.08v1.07h-.7V63.66h3.15Zm-.69-1.43V64.36H82.08v2.17Zm9.34-.84a7.38,7.38,0,0,1-.26,1.39,1.91,1.91,0,0,1-.46,1,.8.8,0,0,1-.46.16c-.5,0-1-.67-1.42-2A9.5,9.5,0,0,1,88.5,68l-.5-.47a10.69,10.69,0,0,0,2.43-2.07,28.42,28.42,0,0,1-.4-4.7H84.94v-.66h1.31a11.9,11.9,0,0,0-.53-2.1h-.48v-.67h1.81a4.41,4.41,0,0,0-.49-1l.63-.25a10.07,10.07,0,0,1,.54,1.29h1.75V58h-.57a19.1,19.1,0,0,1-.49,2.1H90c0-1.64,0-3,0-4h.67c0,1.52,0,2.86,0,4h2.45v.66h-2.4A21.46,21.46,0,0,0,91,64.63a12.29,12.29,0,0,0,1.14-3l.59.34a12.55,12.55,0,0,1-1.58,3.69,7.58,7.58,0,0,0,.39,1.17c.19.46.35.69.47.69a.21.21,0,0,0,.14-.08,2.83,2.83,0,0,0,.2-.71,10.77,10.77,0,0,0,.2-1.34ZM89,66.38H85.44V61.82H89Zm-.68-2.66V62.48H86.13v1.24Zm0,2V64.39H86.13v1.32ZM88.22,58H86.45a21.33,21.33,0,0,1,.49,2.1h.76A13.35,13.35,0,0,0,88.22,58Zm4.6,1.08-.62.28a9,9,0,0,0-.81-2l.56-.27A11,11,0,0,1,92.82,59.1Z" transform="translate(-2.83 -1.46)"/><path class="cls-29" d="M108.58,68H96.34v-.72h2.12V59.71h.74v7.54h3.15V57.09H96.62v-.71h11.57v.71h-5.1v4.4h4.63v.74H103.1v5h5.48Z" transform="translate(-2.83 -1.46)"/><path class="cls-29" d="M123.42,61.26h-.74V59h-9.75v2.23h-.72V58.32h5.23V56.09h.74v2.23h5.24Zm-.86,5.33a1,1,0,0,1-.34.92,2.48,2.48,0,0,1-1.32.23c-.23,0-.46,0-.67,0L120,67a9.44,9.44,0,0,0,1.72-.07c.11,0,.17-.15.17-.32V64.81h-3.63v3.56h-.72V64.81h-3.65v2.94h-.72V64.11h4.37V63h-3.16V60h7v3h-3.15v1.15h4.35Zm-7.2-8.88-.7.32a10.27,10.27,0,0,0-1-1.46l.68-.34A6.72,6.72,0,0,1,115.36,57.71Zm5.25,4.54V60.69h-5.53v1.56Zm1.48-5.61A7.82,7.82,0,0,1,121,58l-.6-.41a10.45,10.45,0,0,0,1-1.34Z" transform="translate(-2.83 -1.46)"/></g></g><g id="視力自檢-3" data-name="視力自檢"><g class="cls-2"><path class="cls-3" d="M50,43.82H6.4V39.57h6.2V14.13h4.54V39.57h9.57V7.08H7.59V2.68H49v4.4H31.25V20H47.19v4.34H31.25V39.57H50Z" transform="translate(-2.83 -1.46)"/><path class="cls-3" d="M103.81,20.07H99.36v-7.3H67.16v7.34H62.59V8.79H81.05V1.46H85.4V8.79h18.41Zm-3,18.31A5.68,5.68,0,0,1,99.78,42q-1.08,1.32-5.13,1.32c-.73,0-1.85,0-3.34-.08L90,39.09h5.35c.79,0,1.19-.43,1.19-1.27v-4h-11V45.34H81.1V33.79H70v9.69h-4.4V29.83H81.1v-3.2H70.21V15.23h26v11.4H85.54v3.2h15.31ZM76.41,6.74,72.09,8.08a39.23,39.23,0,0,0-4.88-4.86l4.2-1.68A47.06,47.06,0,0,1,76.41,6.74ZM91.79,22.92V19H74.65v4ZM100,3.42a50.41,50.41,0,0,1-5.5,4.71L90.11,6.22a38,38,0,0,0,5.54-4.76Z" transform="translate(-2.83 -1.46)"/></g></g><path class="cls-4" d="M196.28,20.67c.22-.11.34-.19.47-.24.57-.22,1.15-.41,1.72-.64a5.35,5.35,0,0,0,3.06-3.17c.2-.53.39-1.07.6-1.61a1.26,1.26,0,0,1,.2-.27c.08.09.2.17.24.28.36.84.64,1.71,1.06,2.51a4.91,4.91,0,0,0,2.72,2.3c.56.21,1.12.41,1.68.63a.9.9,0,0,1,.26.22,1.21,1.21,0,0,1-.25.21c-.71.28-1.44.51-2.13.83a5.59,5.59,0,0,0-3,3.62c-.11.36-.25.71-.4,1.07,0,.08-.13.14-.2.22-.06-.08-.16-.14-.2-.23-.17-.46-.35-.91-.5-1.38a5.59,5.59,0,0,0-3.76-3.68c-.4-.13-.79-.28-1.19-.44A3.27,3.27,0,0,1,196.28,20.67Z" transform="translate(-2.83 -1.46)"/><path class="cls-4" d="M189.22,8.84a3.7,3.7,0,0,0,3-3.1,9.42,9.42,0,0,0,1.18,2,8.55,8.55,0,0,0,1.84,1.12,8.25,8.25,0,0,0-1.82,1.1,9.27,9.27,0,0,0-1.19,2A3.64,3.64,0,0,0,189.22,8.84Z" transform="translate(-2.83 -1.46)"/></svg>