<svg id="圖層_1" data-name="圖層 1" xmlns="http://www.w3.org/2000/svg" xmlns:xlink="http://www.w3.org/1999/xlink" viewBox="0 0 193.02 210.85"><defs><style>.cls-1{fill:url(#未命名漸層_2);}.cls-2{fill:#717070;}.cls-3{fill:#2ea0d2;}.cls-4,.cls-6{fill:none;stroke:#2ea0d2;stroke-miterlimit:10;}.cls-4{stroke-width:1.52px;}.cls-5{mask:url(#mask);}.cls-6{stroke-width:0.71px;}.cls-7{fill:#f7d1bc;}.cls-8{fill:#f4c5ab;}.cls-9{fill:#f8d9c9;}</style><linearGradient id="未命名漸層_2" x1="4364.05" y1="-3720.1" x2="4526.54" y2="-3720.1" gradientTransform="translate(-4302.46 3812.87)" gradientUnits="userSpaceOnUse"><stop offset="0" stop-color="#fff"/><stop offset="1"/></linearGradient><mask id="mask" x="35.78" y="0" width="160.04" height="179.62" maskUnits="userSpaceOnUse"><g transform="translate(-27.04 5.61)"><rect class="cls-1" x="61.59" y="12.74" width="162.5" height="160.04" transform="translate(50.07 235.6) rotate(-90)"/></g></mask></defs><title>Demo02</title><path class="cls-2" d="M31.28,195H27v-.69h2.08a8,8,0,0,0-.63-1.23l.65-.29a13.39,13.39,0,0,1,.73,1.52h1.41Zm-.17,2H27.37v-.72h3.74Zm0,2.1H27.37v-.74h3.74Zm-.21,5.68h-.71V204H28.25v1.1h-.69v-4.61H30.9Zm-.71-1.46v-2.13H28.25v2.13Zm9-5.39H31.56v-.64h3.5v-1h-2.9v-.65h2.9v-1H31.87V194h3.19v-1.11h.71V194H38.9v.64H35.77v1h2.81v.65H35.77v1h3.41ZM38.32,204a1.14,1.14,0,0,1-.32.84c-.22.21-.93.29-2.13.25l-.25-.71h1.55a.46.46,0,0,0,.29-.12.35.35,0,0,0,.13-.27v-1.15H33.07a6.28,6.28,0,0,1-1,2.33l-.53-.48a6.13,6.13,0,0,0,.95-3.7V198.8h5.81Zm-.73-1.82v-1.06H33.18a5.42,5.42,0,0,1,0,1.06Zm0-1.7v-1H33.2v1Z" transform="translate(-27.04 5.61)"/><path class="cls-2" d="M45.74,193c-.21.57-.41,1.05-.59,1.45l-.57,1.27v9.35h-.73v-8a15.34,15.34,0,0,1-1.33,1.93l-.43-.74a18.62,18.62,0,0,0,3-5.52Zm8.43,3H49.66a17.89,17.89,0,0,1-1.45,2.91V204c.68-.16,1.6-.43,2.77-.83v.75c-.9.33-2,.69-3.46,1.1l-.32-.76a.92.92,0,0,0,.28-.7v-3.66a17.11,17.11,0,0,1-1.92,2l-.53-.58A13.46,13.46,0,0,0,48.86,196h-3.3v-.73h4.25A14.68,14.68,0,0,0,48.65,193l.66-.25a13.2,13.2,0,0,1,1.28,2.46h3.58Zm.21,8.56-.49.67q-3.16-2.4-3.86-8l.74-.17a17,17,0,0,0,.55,2.89,10.05,10.05,0,0,0,2.16-2.2l.62.45a10.09,10.09,0,0,1-2.55,2.46A7.8,7.8,0,0,0,54.38,204.54Z" transform="translate(-27.04 5.61)"/><path class="cls-2" d="M60,202.42a12.41,12.41,0,0,1-2.15,2.67l-.56-.48A11.34,11.34,0,0,0,59.38,202Zm1.56-1.11h-3.6V193.5h3.6Zm-.69-4.42V194.2H58.62v2.69Zm0,3.74v-3H58.62v3Zm1.7,4.37-.71.18a16.34,16.34,0,0,0-.48-2.88l.68-.15A17.93,17.93,0,0,1,62.53,205Zm6.22-11.67a17.41,17.41,0,0,1-.12,1.82,5.72,5.72,0,0,1-.3,1.65,1.21,1.21,0,0,1-.44.43,2,2,0,0,1-1,.16,8.62,8.62,0,0,1-.87,0l-.28-.69.94,0c.47,0,.76,0,.86-.14a1.58,1.58,0,0,0,.28-.82A12.37,12.37,0,0,0,68,194H65.67a4.6,4.6,0,0,1-3.05,3.7l-.44-.56A4,4,0,0,0,64.93,194H62.39v-.66Zm-.3,8.12H62.92V198h5.53Zm-.7-.68v-2.09H63.63v2.09ZM66,205l-.7.27a20.32,20.32,0,0,0-1.11-2.9l.66-.23A15.06,15.06,0,0,1,66,205Zm3.41-.12-.62.36a20.68,20.68,0,0,0-1.61-2.84l.58-.34A14.63,14.63,0,0,1,69.36,204.86Z" transform="translate(-27.04 5.61)"/><path class="cls-2" d="M76.81,193.89a11.24,11.24,0,0,1-.62,1.18c-.41.74-.77,1.35-1.06,1.82v2c.4-.17.9-.41,1.49-.72l0,.81c-.5.25-1,.49-1.51.72v4.52a.92.92,0,0,1-.29.67,1.09,1.09,0,0,1-.75.26h-.93l-.28-.72,1.23,0c.18,0,.28-.08.28-.26V200c-.72.28-1.38.51-2,.7l-.11-.73a17.8,17.8,0,0,0,2.1-.79v-2.53a24,24,0,0,0,1.6-2.76H72.66v-.68h4.15Zm7.73,10.8-.62.46a15.93,15.93,0,0,0-2.55-2.8,14.43,14.43,0,0,1-4.73,2.77l-.48-.62a12.1,12.1,0,0,0,4.34-2.44,13.34,13.34,0,0,0,3.2-4l.63.36a16.27,16.27,0,0,1-2.42,3.42A22.57,22.57,0,0,1,84.54,204.69Zm0-9.79H80.67a13.37,13.37,0,0,1-2.29,3.23c1-.1,2-.21,2.88-.35A16,16,0,0,0,82.34,196l.64.33a12,12,0,0,1-6.12,5.95l-.47-.58a11.12,11.12,0,0,0,4.31-3.14l-3.44.44-.2-.69a4.9,4.9,0,0,0,1.53-1.44,9.4,9.4,0,0,0,1.23-1.94H77.16v-.71H80.4a12.8,12.8,0,0,0-.64-1.14l.69-.24a10.16,10.16,0,0,1,.75,1.38h3.34Z" transform="translate(-27.04 5.61)"/><path class="cls-2" d="M99.75,196.44H87.59v-.63h3.89a8.33,8.33,0,0,0-.82-1.41H88.33v-.6h5.18a2.85,2.85,0,0,0-.59-.76l.74-.29a10.12,10.12,0,0,1,.73,1.05h4.69v.6H96.6a14.33,14.33,0,0,1-.67,1.41h3.82Zm-.13,8.34H87.76v-.61h5.57V203H88.44v-.61h4.89v-1.11H89v-3.86h9.38v3.86H94.07v1.11h4.86V203H94.07v1.18h5.55ZM93.33,199v-1h-3.6v1Zm0,1.62v-1h-3.6v1Zm2.45-6.25H91.55a11,11,0,0,1,.74,1.41h2.82A11.14,11.14,0,0,0,95.78,194.4ZM97.67,199v-1h-3.6v1Zm0,1.63v-1h-3.6v1Z" transform="translate(-27.04 5.61)"/><path class="cls-2" d="M115,204.54l-.44.71a17,17,0,0,1-4.58-2,15.9,15.9,0,0,1-4.65,2l-.43-.67a15,15,0,0,0,4.45-1.75,13.16,13.16,0,0,1-3.45-5.27H105a18.49,18.49,0,0,1-.44,4.76,8,8,0,0,1-1.29,2.87l-.62-.44a9.6,9.6,0,0,0,1.63-6v-5.47h10.31V194H105v2.8h8.91v.74a13.27,13.27,0,0,1-1.4,3.07,7.42,7.42,0,0,1-1.88,2.18A15.16,15.16,0,0,0,115,204.54Zm-1.94-7h-6.34a10.3,10.3,0,0,0,3.26,4.81A10,10,0,0,0,113.08,197.5Z" transform="translate(-27.04 5.61)"/><path class="cls-2" d="M129.82,194.56H119.49v4a18.16,18.16,0,0,1-1.1,6.59l-.61-.5a16.88,16.88,0,0,0,1-6.08v-4.7H124c-.18-.3-.37-.6-.56-.9l.73-.17a5.39,5.39,0,0,1,.63,1.07h5Zm-7.95,7.54a9.9,9.9,0,0,1-1.65,2.68l-.54-.47a8.36,8.36,0,0,0,1.52-2.51Zm.79-7a9.2,9.2,0,0,1-.87,1.88v4.38h-.7v-3.38a7.72,7.72,0,0,1-.87,1l-.46-.55a9.82,9.82,0,0,0,2.27-3.6Zm7,6.14h-6.21v-3.5c-.23.29-.55.67-1,1.12l-.42-.59a12.71,12.71,0,0,0,2.33-3.41l.61.24a7,7,0,0,1-.49,1h2.11a6.51,6.51,0,0,0-.54-.95l.69-.2a5.69,5.69,0,0,1,.61,1.15h2.23v.65h-2.58v.81h2.38v.65h-2.38v.88h2.38v.64h-2.38v.87h2.62Zm-1.82,2.13a2.6,2.6,0,0,1-.25,1.08.93.93,0,0,1-.61.48,10.11,10.11,0,0,1-2.06.12,8.45,8.45,0,0,1-1.47-.08.86.86,0,0,1-.5-.35,1.33,1.33,0,0,1-.18-.76v-2h.71v2.06c0,.22.06.36.19.41a7,7,0,0,0,1.42.07,8.66,8.66,0,0,0,1.55-.07A.55.55,0,0,0,127,204a2.08,2.08,0,0,0,.13-.92Zm-1.48-5.81v-.81h-2.2v.81Zm0,1.53v-.88h-2.21v.88Zm0,1.51v-.87h-2.21v.87Zm-.14,2.5-.61.4a9.53,9.53,0,0,0-1.22-1.45l.61-.41A9.52,9.52,0,0,1,126.24,203.06ZM130,204.3l-.6.36a13.31,13.31,0,0,0-1.69-2.48l.61-.38A13.68,13.68,0,0,1,130,204.3Z" transform="translate(-27.04 5.61)"/><path class="cls-2" d="M134.39,202.4a12.58,12.58,0,0,1-.9,2.7l-.64-.29a12.65,12.65,0,0,0,.91-2.62Zm4.65-.57h-6.12v-.67h2.73V199.8h-2.36v-.66h2.36V198h-2.27v-4.76h5.24V198h-2.27v1.17h2.3v.66h-2.3v1.36H139Zm-3.39-4.52v-3.44h-1.57v3.44Zm-.28-.8-.56.24a16.91,16.91,0,0,0-.48-2l.52-.24A13.49,13.49,0,0,1,135.37,196.51Zm.39,8.38-.7.11c0-.19,0-.38,0-.58a12.52,12.52,0,0,0-.17-2l.69-.06A19.84,19.84,0,0,1,135.76,204.89Zm1.64-.27-.66.16a10.34,10.34,0,0,0-.45-2.46l.66-.11A12.82,12.82,0,0,1,137.4,204.62Zm.52-7.31v-3.44h-1.57v3.44Zm-.21-2.62a10.23,10.23,0,0,1-.57,2.1l-.55-.22a9.57,9.57,0,0,0,.53-2.09Zm1.35,9.58-.63.21a9.76,9.76,0,0,0-.69-2.2l.67-.16A9.47,9.47,0,0,1,139.06,204.27Zm6.05-8.29h-3v2.7h2.35v6.42h-.72V204h-3.43v1.07h-.75v-6.42h1.81V192.9h.74v2.4h3Zm-1.32,7.33v-3.93h-3.43v3.93Z" transform="translate(-27.04 5.61)"/><path class="cls-2" d="M154.38,198.23h-2.73v.93h1.68v-.51H154v1.1h-5.36v-1.1h.67v.51H151v-.93h-2.94v-.58H151v-.58h-2.32v-2.62H151v-.53H148.2v-.59H151v-.46h.66v.46h2.72v.59h-2.72v.53H154v2.62h-2.36v.58h2.73Zm5.84,5.35h-5.39v.55a.84.84,0,0,1-.33.78,2.59,2.59,0,0,1-1.25.21h-.7l-.28-.69h1.5a.32.32,0,0,0,.36-.37v-.47h-6.06V203h6.06v-.74h-5.2v-.61h5.2v-.76c-.94,0-2.49,0-4.64,0l-.24-.6a51.91,51.91,0,0,0,9.32-.52l.34.56c-1.38.19-2.74.34-4.08.44v.83h4.68v.61h-4.68V203h5.39Zm-9.23-7V196h-1.66v.54Zm0-1.05V195h-1.65v.51Zm2.34,0V195h-1.68v.51Zm0,1.05V196h-1.68v.54Zm7,2.73-.32.62a9.51,9.51,0,0,1-2.62-1,10.65,10.65,0,0,1-2.66.9l-.35-.59a9.42,9.42,0,0,0,2.39-.71,6.67,6.67,0,0,1-1.41-1.67h-.43v-.64h4.78v.64a7.37,7.37,0,0,1-1.69,1.7A8,8,0,0,0,160.29,199.28Zm-.1-3.75h-1.37c-.55,0-.83-.26-.83-.78v-.87h-1.67a2.34,2.34,0,0,1-1.56,2l-.39-.54a2,2,0,0,0,1.31-2.15h3v1.5a.19.19,0,0,0,.08.14.19.19,0,0,0,.15.08h1.26Zm-1.32,1.3h-2.81a5,5,0,0,0,1.32,1.32A4.9,4.9,0,0,0,158.87,196.83Z" transform="translate(-27.04 5.61)"/><path class="cls-2" d="M169.93,204q-2.76.48-6.53.8l-.21-.71c.95,0,2-.14,3.16-.26v-1.88h-2.71v-.7h2.71v-1.59h-3V199h1.83a11.58,11.58,0,0,0-.71-1.88h-1.13v-.65h2v-3.5h.71v3.5h1.24v-3.5h.71v3.5h1.79v.65h-1.06a17.83,17.83,0,0,1-.73,1.88h1.67v.69h-2.68v1.59h2.37v.7h-2.37v1.78q1.37-.15,2.88-.45Zm-5.1-8.42-.63.3a9.91,9.91,0,0,0-.88-2.15l.58-.29A10,10,0,0,1,164.83,195.56Zm3.19,1.51h-2.73A16.32,16.32,0,0,1,166,199h1.33A17,17,0,0,0,168,197.07Zm2.34-3.46a10.57,10.57,0,0,1-1.11,2.26l-.59-.37a8.83,8.83,0,0,0,1-2.17Zm5,3.07h-1.28v7.19a1.23,1.23,0,0,1-.23.78,1.06,1.06,0,0,1-.53.38,4.43,4.43,0,0,1-1.2.1c-.32,0-.61,0-.89,0l-.28-.72c.49,0,1.1,0,1.84,0a.51.51,0,0,0,.57-.59v-7.14h-3.06V196h3.06v-3h.72v3h1.28Zm-3,4.69-.69.34a17.22,17.22,0,0,0-1.41-3.32l.6-.35A18.28,18.28,0,0,1,172.39,201.37Z" transform="translate(-27.04 5.61)"/><path class="cls-2" d="M190.3,194.56H180v4a18.16,18.16,0,0,1-1.1,6.59l-.61-.5a16.88,16.88,0,0,0,1-6.08v-4.7h5.23c-.18-.3-.37-.6-.56-.9l.73-.17a5.39,5.39,0,0,1,.63,1.07h5Zm-8,7.54a10.13,10.13,0,0,1-1.64,2.68l-.55-.47a8.36,8.36,0,0,0,1.52-2.51Zm.79-7a9.2,9.2,0,0,1-.87,1.88v4.38h-.7v-3.38a8.34,8.34,0,0,1-.86,1l-.47-.55a9.82,9.82,0,0,0,2.27-3.6Zm7,6.14h-6.21v-3.5c-.23.29-.55.67-1,1.12l-.42-.59a12.71,12.71,0,0,0,2.33-3.41l.61.24a7,7,0,0,1-.49,1h2.11a6.51,6.51,0,0,0-.54-.95l.69-.2a5.69,5.69,0,0,1,.61,1.15h2.23v.65h-2.58v.81h2.38v.65h-2.38v.88h2.38v.64h-2.38v.87h2.62Zm-1.82,2.13a2.6,2.6,0,0,1-.25,1.08.93.93,0,0,1-.61.48,10.06,10.06,0,0,1-2.05.12,8.29,8.29,0,0,1-1.47-.08.85.85,0,0,1-.51-.35,1.33,1.33,0,0,1-.18-.76v-2H184v2.06c0,.22.06.36.19.41a7,7,0,0,0,1.42.07,8.66,8.66,0,0,0,1.55-.07.55.55,0,0,0,.37-.29,2.08,2.08,0,0,0,.13-.92Zm-1.48-5.81v-.81h-2.2v.81Zm0,1.53v-.88h-2.21v.88Zm0,1.51v-.87h-2.21v.87Zm-.14,2.5-.61.4a9,9,0,0,0-1.22-1.45l.61-.41A9.52,9.52,0,0,1,186.72,203.06Zm3.79,1.24-.6.36a13.31,13.31,0,0,0-1.69-2.48l.61-.38A13.68,13.68,0,0,1,190.51,204.3Z" transform="translate(-27.04 5.61)"/><path class="cls-2" d="M205.57,195.91h-7.63c0,.73,0,1.55-.07,2.43h6a29.84,29.84,0,0,1-.25,3.81,8.66,8.66,0,0,1-.45,2.19,1.27,1.27,0,0,1-.62.63,4.85,4.85,0,0,1-1.75.2l-.91,0-.22-.78c.44,0,.87,0,1.31,0a3.86,3.86,0,0,0,1.22-.11.8.8,0,0,0,.33-.37,10.07,10.07,0,0,0,.32-1.81,26.63,26.63,0,0,0,.24-3h-5.29a7.68,7.68,0,0,1-3.93,6l-.6-.58a8.36,8.36,0,0,0,2.3-1.93,5.71,5.71,0,0,0,1.32-2.57,21.7,21.7,0,0,0,.29-4.11h-3.7v-.76h5.86a10.63,10.63,0,0,0-1.35-2l.71-.34a10.74,10.74,0,0,1,1.48,2.34h5.4Z" transform="translate(-27.04 5.61)"/><path class="cls-2" d="M220.06,204a1,1,0,0,1-1.16,1.14h-2l-.27-.72H219a.39.39,0,0,0,.33-.32v-8.62h-9.42v9.7h-.73V194.75h2.72a9.62,9.62,0,0,0,1.17-1.94l.74.16a9.06,9.06,0,0,1-1.06,1.78h7.31Zm-2.85-1.54H212v-5h5.23Zm-.73-.72v-3.54h-3.76v3.54Z" transform="translate(-27.04 5.61)"/><path class="cls-3" d="M173.7,77.69h0a1.62,1.62,0,0,0,.1-.18h0l.06-.19h0a1.36,1.36,0,0,0,0-.2h0a1.23,1.23,0,0,0,0-.2h0l-.06-.19v0a1,1,0,0,0-.1-.17h0a1.09,1.09,0,0,0-.13-.17h0l-5.44-5.44a1.09,1.09,0,0,0-1.55,1.54L170.17,76h-9.39a1.09,1.09,0,0,0,0,2.18h9.39l-3.59,3.58a1.1,1.1,0,0,0,0,1.54,1.1,1.1,0,0,0,1.55,0l5.44-5.44h0A1.09,1.09,0,0,0,173.7,77.69Z" transform="translate(-27.04 5.61)"/><circle class="cls-4" cx="139.75" cy="82.69" r="11.88"/><path class="cls-3" d="M144.64,47.08h0l-.18-.1h0l-.18-.06h0l-.19,0h0l-.2,0h0l-.19.06h0l-.18.1h0l-.17.14h0l-5.44,5.44a1.11,1.11,0,0,0,0,1.55,1.1,1.1,0,0,0,1.54,0l3.58-3.59V60a1.09,1.09,0,1,0,2.18,0V50.62l3.59,3.59a1.1,1.1,0,0,0,1.54,0,1.1,1.1,0,0,0,0-1.55l-5.44-5.44h0Z" transform="translate(-27.04 5.61)"/><circle class="cls-4" cx="117" cy="59.61" r="11.88"/><path class="cls-3" d="M143.43,106.7h0a.76.76,0,0,0,.18.09h0l.19,0h.43l.18,0h0a.76.76,0,0,0,.18-.09h0l.16-.13h0l5.44-5.45a1.09,1.09,0,1,0-1.54-1.54l-3.59,3.58V93.77a1.09,1.09,0,0,0-2.18,0v9.39l-3.58-3.58a1.09,1.09,0,1,0-1.54,1.54l5.44,5.45h0Z" transform="translate(-27.04 5.61)"/><circle class="cls-4" cx="117" cy="105.39" r="11.88"/><path class="cls-3" d="M113.88,76.48v0a.56.56,0,0,0-.09.17v0a1.05,1.05,0,0,0,0,.19h0a1.23,1.23,0,0,0,0,.2h0a1.36,1.36,0,0,0,0,.2h0a1.05,1.05,0,0,0,0,.19h0a.76.76,0,0,0,.09.18h0a1.09,1.09,0,0,0,.13.17h0l5.45,5.44a1.08,1.08,0,0,0,1.54,0,1.1,1.1,0,0,0,0-1.54l-3.58-3.58h9.39a1.09,1.09,0,0,0,0-2.18h-9.39L121,72.42a1.1,1.1,0,0,0,0-1.54,1.07,1.07,0,0,0-.77-.32,1.05,1.05,0,0,0-.77.32L114,76.32h0A1,1,0,0,0,113.88,76.48Z" transform="translate(-27.04 5.61)"/><circle class="cls-4" cx="93.76" cy="82.69" r="11.88"/><g class="cls-5"><path class="cls-6" d="M178.16-5.25H109.75c-8.23,0-14.93,5.42-14.93,12.09V151.08c0,6.67,6.7,12.09,14.93,12.09h68.41c8.23,0,14.93-5.42,14.93-12.09V6.84C193.09.17,186.39-5.25,178.16-5.25Z" transform="translate(-27.04 5.61)"/><rect class="cls-6" x="73.91" y="23.83" width="85.68" height="119.1"/><path class="cls-6" d="M150.29,5.82h-13a2,2,0,0,0-2.09,1.95,2,2,0,0,0,2.09,2h13a2,2,0,0,0,2.09-2A2,2,0,0,0,150.29,5.82Z" transform="translate(-27.04 5.61)"/><path class="cls-6" d="M152.09,147.63h-16.6a2.89,2.89,0,0,0,0,5.77h16.6a2.89,2.89,0,0,0,0-5.77Z" transform="translate(-27.04 5.61)"/></g><path class="cls-7" d="M112.64,75.83l-.8-.27c-3.54-.74-6.28,1.53-7.47,5l-7.48,21.21L89.15,120.1l-2.27-2.16a11.63,11.63,0,0,0-9.33-3.13l-2,.23a8.82,8.82,0,0,1-5.12-1L68.31,113a7.84,7.84,0,0,0-5.1-.78l-2.77.51a15,15,0,0,1-3.28.24l-1.79-.06A13.17,13.17,0,0,0,43,120.42S32.24,153.28,32,154.59a13.91,13.91,0,0,0,.3,5.63l1.07,4.06a13.25,13.25,0,0,1-.29,7.76l-2.64,6.81H81.63a31.42,31.42,0,0,0,16.4-16l5.27-11.64a15.74,15.74,0,0,0-1.16-15.1l-.77-1.18,7.52-27.39,6.86-23.75C116.75,79.84,115.86,77,112.64,75.83Z" transform="translate(-27.04 5.61)"/><path class="cls-8" d="M101.37,134.94a107.22,107.22,0,0,1-8.08,22.33c-3.63,7.53,6.34-10.12,10.74-8a15.71,15.71,0,0,0-1.89-13.14Z" transform="translate(-27.04 5.61)"/><path class="cls-8" d="M62,178.85h7.73A81.93,81.93,0,0,1,59,176.15C57.84,175.79,59.49,176.87,62,178.85Z" transform="translate(-27.04 5.61)"/><path class="cls-8" d="M89.15,120.1s-5.53-3.07-9.84-2.21c-3,.6-6,1.35-8.78-.37-4.5-2.76-9.6-.59-12.61-2.08-3.51-1.73-8.4-1.38-10-.6a13.18,13.18,0,0,1,7.45-2l1.79.06a15,15,0,0,0,3.28-.24l2.77-.51a7.84,7.84,0,0,1,5.1.78l1.39-1.56a7,7,0,0,1,6-2.27l3,.37,2.91-2.81a10.73,10.73,0,0,1,5.32-2.8h0a7,7,0,0,1,6.66,2.2l1,1.06Z" transform="translate(-27.04 5.61)"/><path class="cls-8" d="M46.48,171.31c1.9.78-12.2-.72-15.48,6.2L33.12,172a13.25,13.25,0,0,0,.29-7.76l-1.07-4.06a13.76,13.76,0,0,1-.43-2.77C32.42,160.51,39,168.2,46.48,171.31Z" transform="translate(-27.04 5.61)"/><path class="cls-9" d="M111.76,76.55l-1-.23A3.17,3.17,0,0,0,107,78.76l-.32,1.54a4.42,4.42,0,0,0,.82,3.62h0a3.66,3.66,0,0,0,3.81,1.32h0a4.44,4.44,0,0,0,2.89-2.34l.7-1.41a3.16,3.16,0,0,0-1.5-4.27l-.91-.43A4,4,0,0,0,111.76,76.55Z" transform="translate(-27.04 5.61)"/></svg>