<svg id="圖層_1" data-name="圖層 1" xmlns="http://www.w3.org/2000/svg" viewBox="0 0 237.3 219.3"><defs><style>.cls-1{fill:#181919;}.cls-2{fill:#1d2b53;}.cls-3{fill:#ebd4b3;}.cls-4{fill:#d2e2e3;}.cls-5{fill:#ebd0b3;}.cls-6{fill:#2ea0d2;}.cls-7{fill:#71c6d4;}.cls-8{fill:#c7d8dd;}.cls-9{fill:#ebd4b2;}.cls-10{fill:#34160d;}.cls-11{fill:#e9c2af;}.cls-12{fill:#e99c84;}.cls-13{fill:#b7373c;}.cls-14{fill:#fff;}.cls-15{fill:#040000;}.cls-16{fill:#b68400;}.cls-17{fill:#8cd2f4;}.cls-18{fill:#484f54;}.cls-19{fill:#989898;}.cls-20{fill:#f1f1f1;}.cls-21{fill:#323333;}.cls-22{isolation:isolate;}.cls-23{fill:#7f7f80;}.cls-24{fill:#e99c82;}.cls-25{fill:#ebd3b0;}.cls-26{fill:#c3b597;}.cls-27{fill:#221e1f;}.cls-28{fill:#d29a60;}.cls-29,.cls-30{fill:none;stroke:#989898;stroke-miterlimit:10;stroke-width:0.47px;}.cls-30{stroke-dasharray:0.95 1.43;}.cls-31{fill:#717070;}</style></defs><title>Demo01</title><path class="cls-1" d="M15.57,133l-.68,4.5s-8.09,3.64-8.35,5.24c0,0-.34.78,1.11.88S16,142.12,16,142.12l0,.77a15.38,15.38,0,0,0,3.75-.38s.43-7.77,0-9Z" transform="translate(-1.55 -2.21)"/><polygon class="cls-2" points="22.16 99.95 19.05 135.36 11.35 135.56 10.97 97.26 22.16 99.95"/><path class="cls-1" d="M32.59,133l.69,4.5s8.09,3.64,8.35,5.24c0,0,.34.78-1.12.88s-8.35-1.45-8.35-1.45l0,.77a15.49,15.49,0,0,1-3.76-.38s-.43-7.77,0-9Z" transform="translate(-1.55 -2.21)"/><polygon class="cls-2" points="22.77 99.95 25.94 135.52 33.59 135.56 33.97 97.26 22.77 99.95"/><path class="cls-3" d="M7.51,93.08s-.07,2.39.46,3.13,1.46,1.21,1.51,3.13c0,1.39-.77,5.21-2.73,6.21S2.5,105,1.88,102.69s.11-6.39.8-9.26Z" transform="translate(-1.55 -2.21)"/><path class="cls-4" d="M9,93.91H1.55c2.81-30.8,10.57-36.69,12.93-37.76l3.09,6.78a1.13,1.13,0,0,0,.29-.15C17.79,62.82,11.56,67.39,9,93.91Z" transform="translate(-1.55 -2.21)"/><path class="cls-5" d="M59.83,84.48l-4.14-4.64s2.74-2.37,3.14-3.52a13.37,13.37,0,0,1,2.92-4.81l3.08-2.69L71,75.74A67.61,67.61,0,0,1,63.78,82C61,83.81,59.83,84.48,59.83,84.48Z" transform="translate(-1.55 -2.21)"/><path class="cls-5" d="M63,69.18a1.53,1.53,0,0,0-.31,2.13h0a1.54,1.54,0,0,0,2.15-.06l7.2-6.42a1.54,1.54,0,0,0,.3-2.13h0a1.53,1.53,0,0,0-2.14.06Z" transform="translate(-1.55 -2.21)"/><path class="cls-4" d="M34.52,63s4.64,4.51,4.35,7.52-4.06,4.7-4.06,4.7Z" transform="translate(-1.55 -2.21)"/><path class="cls-4" d="M39.88,108,34.76,82.47l1-25.78a.55.55,0,0,0-.55-.55H14.52a.55.55,0,0,0-.55.55l.27,25.93L7.16,107.54Z" transform="translate(-1.55 -2.21)"/><polygon class="cls-6" points="18.46 56.99 24.48 65.88 30.22 56.82 18.46 56.99"/><polygon class="cls-2" points="27.75 53.94 20.98 53.94 22.58 56.7 23.67 58.58 22.56 61.64 22.23 62.55 24.48 65.88 26.5 62.7 26.12 61.64 25.02 58.63 26.14 56.7 27.75 53.94"/><polygon class="cls-7" points="16.37 53.94 20.74 60.4 24.25 54.87 27.99 60.4 32.08 53.94 16.37 53.94"/><path class="cls-7" d="M25.67,70.82a.8.8,0,1,1-.79-.73A.77.77,0,0,1,25.67,70.82Z" transform="translate(-1.55 -2.21)"/><path class="cls-7" d="M25.67,78a.8.8,0,1,1-.79-.74A.77.77,0,0,1,25.67,78Z" transform="translate(-1.55 -2.21)"/><path class="cls-7" d="M25.67,85.18a.8.8,0,1,1-.79-.74A.77.77,0,0,1,25.67,85.18Z" transform="translate(-1.55 -2.21)"/><path class="cls-7" d="M25.67,92.35a.8.8,0,1,1-.79-.73A.77.77,0,0,1,25.67,92.35Z" transform="translate(-1.55 -2.21)"/><path class="cls-8" d="M34.81,87a.57.57,0,0,1-.6.57l-4.84.06a.58.58,0,0,1-.61-.55h0a.58.58,0,0,1,.6-.57l4.84-.06a.58.58,0,0,1,.61.55Z" transform="translate(-1.55 -2.21)"/><path class="cls-8" d="M20,87a.58.58,0,0,1-.6.57l-4.84.06a.58.58,0,0,1-.61-.55h0a.57.57,0,0,1,.59-.57l4.85-.06A.58.58,0,0,1,20,87Z" transform="translate(-1.55 -2.21)"/><path class="cls-9" d="M20.11,56.19v-4c0-.14.16-.26.37-.26H31c.21,0,.37.12.37.26v4Z" transform="translate(-1.55 -2.21)"/><path class="cls-10" d="M21.52,10.31a7.56,7.56,0,0,0-7.46-5.55c-6.13,0-9,6.12-8.42,9.57s5.93,7.17,12.72,4.49A9.53,9.53,0,0,0,21.52,10.31Z" transform="translate(-1.55 -2.21)"/><path class="cls-11" d="M15.36,37.76a4.1,4.1,0,1,1-3.87-4.33A4.09,4.09,0,0,1,15.36,37.76Z" transform="translate(-1.55 -2.21)"/><path class="cls-11" d="M45.78,36.61a4.1,4.1,0,1,1-3.87-4.33A4.1,4.1,0,0,1,45.78,36.61Z" transform="translate(-1.55 -2.21)"/><path class="cls-9" d="M10.43,24.36s-.82,11.71,2.24,19C15.84,51,21.74,55.29,28.82,54.21s13-7.82,12.84-18.18.47-14.56-4.83-19.73S13.85,8.11,10.43,24.36Z" transform="translate(-1.55 -2.21)"/><path class="cls-10" d="M43.14,29.42S22.26,26.88,19.61,19.09c0,0-.64,12.59-9.18,13.87,0,0-4.88-14.06,2.87-19.42,7.17-5,14.36-5.29,20.86-1.34S42.3,20.48,43.14,29.42Z" transform="translate(-1.55 -2.21)"/><path class="cls-12" d="M36.11,41.25l1.29,1.92a.38.38,0,0,0,.62-.43l-1.29-1.9a.38.38,0,0,0-.52-.1A.36.36,0,0,0,36.11,41.25Z" transform="translate(-1.55 -2.21)"/><path class="cls-12" d="M34.83,42.12,36.12,44a.38.38,0,0,0,.52.1.37.37,0,0,0,.1-.52L35.45,41.7a.37.37,0,0,0-.62.42Z" transform="translate(-1.55 -2.21)"/><path class="cls-12" d="M17.31,41.87l1.29,1.91a.37.37,0,0,0,.62-.42l-1.3-1.91a.37.37,0,1,0-.61.42Z" transform="translate(-1.55 -2.21)"/><path class="cls-12" d="M16,42.73l1.3,1.91a.36.36,0,0,0,.51.1.37.37,0,0,0,.1-.51l-1.3-1.92a.37.37,0,0,0-.51-.09A.36.36,0,0,0,16,42.73Z" transform="translate(-1.55 -2.21)"/><path class="cls-13" d="M27.74,47.07A8.08,8.08,0,0,0,31.55,46a.37.37,0,0,0,.15-.5.38.38,0,0,0-.5-.16c-4.36,2.34-6.54-.15-6.63-.26a.37.37,0,0,0-.52,0,.37.37,0,0,0-.05.52,5.09,5.09,0,0,0,3.74,1.51Z" transform="translate(-1.55 -2.21)"/><path class="cls-14" d="M39.88,34.6a3.75,3.75,0,1,1-3.81-3.69A3.75,3.75,0,0,1,39.88,34.6Z" transform="translate(-1.55 -2.21)"/><path class="cls-15" d="M39.17,34.62A2.16,2.16,0,1,1,37,32.5,2.16,2.16,0,0,1,39.17,34.62Z" transform="translate(-1.55 -2.21)"/><path class="cls-14" d="M22.8,34.6A3.75,3.75,0,1,1,19,30.91,3.75,3.75,0,0,1,22.8,34.6Z" transform="translate(-1.55 -2.21)"/><path class="cls-15" d="M22.09,34.62a2.16,2.16,0,1,1-2.2-2.12A2.17,2.17,0,0,1,22.09,34.62Z" transform="translate(-1.55 -2.21)"/><path class="cls-16" d="M28.37,41.14a.34.34,0,0,0,.21-.08.35.35,0,0,0,.06-.49,7.24,7.24,0,0,1-1.05-2.8.36.36,0,0,0-.4-.3.35.35,0,0,0-.29.4A7.72,7.72,0,0,0,28.09,41a.35.35,0,0,0,.28.14Z" transform="translate(-1.55 -2.21)"/><path class="cls-17" d="M109,27c0,2.28-2.37,4.12-5.28,4.12H58c-2.92,0-5.29-1.84-5.29-4.12V6.34C52.66,4.06,55,2.21,58,2.21h45.8c2.91,0,5.28,1.85,5.28,4.13Z" transform="translate(-1.55 -2.21)"/><polygon class="cls-17" points="65.67 21.34 58.82 37.8 77.1 21.57 65.67 21.34"/><path class="cls-18" d="M61.83,55.87h14a.52.52,0,0,1,.52.52V84.24a.52.52,0,0,1-.52.52h-14a.51.51,0,0,1-.51-.51V56.38a.52.52,0,0,1,.52-.52Z" transform="translate(-1.63 -2.13) rotate(-0.06)"/><path class="cls-19" d="M69.65,82.94a.8.8,0,1,1-.8-.79A.79.79,0,0,1,69.65,82.94Z" transform="translate(-1.55 -2.21)"/><path class="cls-20" d="M66.12,68.37a31,31,0,0,1-3.29-10.23h-.37l0,23.31,12.74,0V81C71.33,77.65,68.43,72.86,66.12,68.37Z" transform="translate(-1.55 -2.21)"/><path class="cls-14" d="M75.21,78.63l0-20.51H65.11C66.07,65.78,70.17,72.66,75.21,78.63Z" transform="translate(-1.55 -2.21)"/><path class="cls-14" d="M65.11,58.13H62.83a31,31,0,0,0,3.29,10.23c2.31,4.49,5.21,9.28,9.1,12.6V78.63C70.17,72.66,66.07,65.78,65.11,58.13Z" transform="translate(-1.55 -2.21)"/><rect class="cls-21" x="66.18" y="56.55" width="5.29" height="0.68" transform="translate(-1.61 -2.13) rotate(-0.06)"/><path class="cls-5" d="M59.17,75.31A1.28,1.28,0,0,0,59.9,77h0a1.28,1.28,0,0,0,1.52-1l2.12-7a1.29,1.29,0,0,0-.73-1.65h0a1.28,1.28,0,0,0-1.52,1Z" transform="translate(-1.55 -2.21)"/><rect class="cls-5" x="73.74" y="62.9" width="2.99" height="4.41" rx="1.49" transform="translate(117.93 -26.22) rotate(75.54)"/><rect class="cls-5" x="73.9" y="66.98" width="2.99" height="4.41" rx="1.49" transform="translate(122.01 -23.31) rotate(75.54)"/><rect class="cls-5" x="73.93" y="70.35" width="2.99" height="4.41" rx="1.49" transform="translate(125.29 -20.81) rotate(75.54)"/><rect class="cls-5" x="76.55" y="74.79" width="2.99" height="4.41" rx="1.49" transform="translate(142.39 -12.82) rotate(82.34)"/><path class="cls-6" d="M69.78,67.88a.42.42,0,0,0,.4-.41.39.39,0,0,0-.4-.39l-1.94,0a.39.39,0,0,0-.39.4l0,4.6a.39.39,0,0,0,.4.39l1.94,0a.39.39,0,0,0,.39-.4.4.4,0,0,0-.4-.4l-1.54,0,0-1.5,1.4,0a.39.39,0,0,0,.39-.4.39.39,0,0,0-.4-.39h-1.4v-1.5Zm0,0" transform="translate(-1.55 -2.21)"/><circle class="cls-6" cx="67.59" cy="74.65" r="1.01"/><path class="cls-14" d="M68.62,76.61a.15.15,0,0,1,0-.07.14.14,0,0,1,.12-.06h.8a.15.15,0,0,1,.11.07.12.12,0,0,1,0,.13l-.41.68a.12.12,0,0,1-.22,0l-.39-.7A.13.13,0,0,1,68.62,76.61Z" transform="translate(-1.55 -2.21)"/><circle class="cls-6" cx="67.49" cy="59.26" r="1.01"/><path class="cls-14" d="M69.57,61.72a.14.14,0,0,1,0,.06.11.11,0,0,1-.12.06h-.79a.12.12,0,0,1-.11-.07.11.11,0,0,1,0-.13l.41-.68a.13.13,0,0,1,.11-.06.14.14,0,0,1,.12.06l.38.7A.14.14,0,0,1,69.57,61.72Z" transform="translate(-1.55 -2.21)"/><circle class="cls-6" cx="63.2" cy="67.27" r="1.01"/><path class="cls-14" d="M65,69l.07,0a.13.13,0,0,1,.06.11v.8a.11.11,0,0,1-.06.11.11.11,0,0,1-.13,0l-.69-.4a.14.14,0,0,1-.06-.12.13.13,0,0,1,.06-.11l.7-.39Z" transform="translate(-1.55 -2.21)"/><circle class="cls-6" cx="71.31" cy="67.37" r="1.01"/><path class="cls-14" d="M72.61,70.1h-.06a.15.15,0,0,1-.07-.12v-.79a.15.15,0,0,1,.07-.12.15.15,0,0,1,.13,0l.68.41a.12.12,0,0,1,.07.11.15.15,0,0,1-.07.12l-.69.39Z" transform="translate(-1.55 -2.21)"/><g id="視力自檢-2"><g class="cls-22"><path class="cls-14" d="M60.66,15.87H58.37v4.27h-.72v-6.8h3Zm-.73-1.54V14H58.37v.34Zm0,.93v-.34H58.37v.34Zm3.28,3H62.09V20h-.71V18.26h-1a2.41,2.41,0,0,1-1,1.75l-.59-.48a1.87,1.87,0,0,0,.9-1.27H58.58v-.68h1.18v-.65h-.93v-.67H63v.67h-.89v.65h1.12Zm-1.83-.68v-.65h-.89v.65Zm2.8,2A.53.53,0,0,1,64,20a2,2,0,0,1-1.07.17h-.29l-.18-.77a2.73,2.73,0,0,0,.68.07.55.55,0,0,0,.28,0s.06-.08.06-.16V15.87H61.18V13.34h3Zm-.71-5.2V14H61.91v.34Zm0,.93v-.34H61.91v.34Z" transform="translate(-1.55 -2.21)"/><path class="cls-14" d="M72.87,19.92h-.73v-.57H68v.57h-.74V13.61h5.66Zm-.73-1.26V14.31H68v4.35Z" transform="translate(-1.55 -2.21)"/><path class="cls-14" d="M79.43,18.93h-1.5v1.21h-.7V18.93H75.68v-.64h1.55v-.48H76.05V15h1.18v-.5H75.78v-.64h1.45v-.73h.7v.73h1.44v.64H77.93V15h1.19v2.8H77.93v.48h1.5Zm-1-2.85v-.46h-1.7v.46Zm0,1.11v-.51h-1.7v.51Zm4,2.16a.84.84,0,0,1-.23.59c-.16.16-.58.22-1.28.19l-.21-.69h.73a.31.31,0,0,0,.22-.09.26.26,0,0,0,.09-.21V17.74H80.49a5.11,5.11,0,0,1-.77,2.45l-.62-.37a5,5,0,0,0,.75-2.95v-3.6h2.57Zm-.68-4.25V14H80.53V15.1Zm0,2V15.79H80.53v1.27Z" transform="translate(-1.55 -2.21)"/><path class="cls-14" d="M86.69,19.05h-.62v-.34h-.44v.68H85V13.71h1.68ZM86.07,18V14.41h-.44V18Zm3.26-.84c0,1.12,0,1.84,0,2.15A.89.89,0,0,1,89,20a1.63,1.63,0,0,1-1,.15l-.16-.67h.56a.22.22,0,0,0,.24-.16,14.24,14.24,0,0,0,.07-1.73h-.6a4.42,4.42,0,0,1-1.23,2.62l-.51-.41a4,4,0,0,0,1.1-2.21H87v-.65h.56a7.65,7.65,0,0,0,.06-1.19H87V15.1h.62V13.94h-.63v-.66h2.39Zm-.65-.24V15.73H88.2c0,.38,0,.78,0,1.19Zm0-1.82V13.94h-.46V15.1Zm2.53,1a4,4,0,0,1,.6,2c0,.82-.38,1.2-1.15,1.15l-.19-.7a1.27,1.27,0,0,0,.28,0,.42.42,0,0,0,.33-.1.6.6,0,0,0,.08-.35,3.67,3.67,0,0,0-.64-1.92A15.16,15.16,0,0,0,91,14h-.67v6.18h-.64V13.26h2V14A20.56,20.56,0,0,1,91.21,16.08Z" transform="translate(-1.55 -2.21)"/><path class="cls-14" d="M101,19.51l-.23.58c-1.47,0-2.64,0-3.53-.06a3.22,3.22,0,0,1-2.12-.77,4.41,4.41,0,0,1-.7.95l-.55-.44A5.35,5.35,0,0,0,95,17.5H94v-.64a6.81,6.81,0,0,0,.94-1.4h-1v-.68h1.85v.68a10.2,10.2,0,0,1-.84,1.38h.83v.66a7.34,7.34,0,0,1-.42,1.23,2.74,2.74,0,0,0,1.4.67A29.75,29.75,0,0,0,101,19.51ZM95.64,14.1l-.52.52a5.07,5.07,0,0,0-1.09-1l.5-.53A6.67,6.67,0,0,1,95.64,14.1Zm5.12,3.72H97.94a.8.8,0,0,1-.08.26h2.44a1.61,1.61,0,0,1-.25,1A1.65,1.65,0,0,1,99,19.3l-.54,0-.15-.45.52,0a1.5,1.5,0,0,0,.65-.07.88.88,0,0,0,.11-.28H97.63a2.27,2.27,0,0,1-1.1.76l-.43-.52a1.53,1.53,0,0,0,1.13-.92H96v-.45h2A1.25,1.25,0,0,0,97.8,17l.67-.13a2.72,2.72,0,0,1,.25.47h2Zm0-1h-.58v.32H99.07a.41.41,0,0,1-.3-.12.38.38,0,0,1-.12-.28v-.23h-.77a1.48,1.48,0,0,1-1,.86l-.35-.46a1.21,1.21,0,0,0,.72-.4H96.7v.22H96V16h2a1.45,1.45,0,0,0-.17-.32H96.46V13.54h1.28a3.07,3.07,0,0,0,.28-.47l.74.15a2,2,0,0,1-.22.32h1.81v2.17H98.6a3.09,3.09,0,0,1,.14.32h2Zm-1.09-2.61v-.23H97.18v.23Zm0,.56v-.22H97.18v.22Zm0,.58v-.25H97.18v.25Zm.42,1.42v-.26h-.78v.15a.1.1,0,0,0,.11.11Z" transform="translate(-1.55 -2.21)"/><path class="cls-14" d="M103.8,18a1.7,1.7,0,0,1-.1-.59,1.27,1.27,0,0,1,.15-.6,2.56,2.56,0,0,1,.54-.63,3.07,3.07,0,0,0,.58-.66,1,1,0,0,0,.12-.45.69.69,0,0,0-.25-.55.91.91,0,0,0-.62-.2,1.76,1.76,0,0,0-1.28.55V14a2.59,2.59,0,0,1,1.4-.4,1.81,1.81,0,0,1,1.2.37,1.26,1.26,0,0,1,.46,1,1.48,1.48,0,0,1-.18.72,3.12,3.12,0,0,1-.65.75,2.68,2.68,0,0,0-.56.61,1,1,0,0,0-.11.43,1.25,1.25,0,0,0,.13.54Zm-.12,1.24a.54.54,0,0,1,.17-.39.56.56,0,0,1,.41-.16.6.6,0,0,1,.4.15.54.54,0,0,1,.17.4.49.49,0,0,1-.16.38.53.53,0,0,1-.39.16.57.57,0,0,1-.43-.16A.5.5,0,0,1,103.68,19.27Z" transform="translate(-1.55 -2.21)"/></g></g><g id="視力自檢-2-2" data-name="視力自檢-2"><g class="cls-22"><path class="cls-19" d="M103.45,60.14h-2.66v1.33a.57.57,0,0,1-.16.42.67.67,0,0,1-.33.21,5.9,5.9,0,0,1-.82,0h-.73l-.19-.64,1,0H100c.07,0,.1-.09.1-.25V60.14h-3v-.63h3V58.43h-2.6v-.64h2.6v-.95c-.69.07-1.52.12-2.51.15l-.2-.6a25.27,25.27,0,0,0,5.33-.62l.37.56a20.05,20.05,0,0,1-2.31.42v1H103v.64h-2.25v1.08h2.66Z" transform="translate(-1.55 -2.21)"/><path class="cls-19" d="M107.39,58.84l-.37.36a5.21,5.21,0,0,0-.28-.55v3.53h-.61V59a5.69,5.69,0,0,1-.53,1.39l-.28-.76a8.42,8.42,0,0,0,.69-2h-.62V57h.74V55.78h.61V57h.48v.61h-.48v.12A6,6,0,0,1,107.39,58.84ZM111.82,61c-.13.84-.4,1.27-.8,1.27s-.6-.26-1-.76a8.07,8.07,0,0,1-1.43.75l-.36-.55a6.17,6.17,0,0,0,1.49-.75,5,5,0,0,1-.34-1.1h-1V60a8.4,8.4,0,0,1,.91.7l-.39.51a5.21,5.21,0,0,0-.6-.53,3.37,3.37,0,0,1-.82,1.58l-.53-.36a2.8,2.8,0,0,0,.81-2.07h-.62v-.6h2.18c-.11-.84-.17-2-.21-3.44h.61a30.27,30.27,0,0,0,.2,3.44h.43a.44.44,0,0,0-.12-.22l.68-.14c0,.08.12.2.2.36h.63v.6H110a3.37,3.37,0,0,0,.21.69,3.5,3.5,0,0,0,.51-.61l.55.28a4.65,4.65,0,0,1-.77.9c.22.3.36.45.43.45s.23-.3.28-.91Zm-2.67-2-.46.12a2.31,2.31,0,0,0-.06-.39q-.6.11-1.11.15l-.15-.51a7.58,7.58,0,0,0,.59-.78l-.53,0-.11-.47a3.79,3.79,0,0,0,.59-1.3l.56.18a6.47,6.47,0,0,1-.52,1l.35,0a5.07,5.07,0,0,0,.24-.48l.49.26a7.14,7.14,0,0,1-1,1.52,2.35,2.35,0,0,0,.51-.06.93.93,0,0,0-.09-.3l.44-.16A7.39,7.39,0,0,1,109.15,58.93Zm2.6,0-.45.15-.07-.41-1.14.15-.17-.51a4.35,4.35,0,0,0,.6-.74l-.55.07-.09-.52a5.21,5.21,0,0,0,.67-1.29l.54.2a6.08,6.08,0,0,1-.6,1.07l.37-.05c.12-.2.21-.37.28-.5l.52.2a8.79,8.79,0,0,1-1,1.52l.47-.06a1.14,1.14,0,0,0-.09-.26l.45-.14A5.81,5.81,0,0,1,111.75,58.89Z" transform="translate(-1.55 -2.21)"/><path class="cls-19" d="M116.24,61.17a9,9,0,0,1-2.18,1.07l-.37-.53a8.22,8.22,0,0,0,2-.93Zm3.83-.5h-6.34v-.6h.49l-.08-3.82a7,7,0,0,0,1.4-.48l.33.54a7,7,0,0,1-1.08.4v.66h.83V58h-.81v.74h.82v.58h-.81v.79h4.06l0-.79h-.75v-.59h.76l0-.74h-.78v-.58h.8v-.72h-.83V56h1.49l-.09,4h.51Zm-3.35-2.46a6,6,0,0,1-.54,1.62l-.51-.33a5.29,5.29,0,0,0,.48-1.4Zm1.17-1.43h-1.17l-.08.52h1.25c0,.4,0,.85,0,1.34a2.58,2.58,0,0,1-.14.9.64.64,0,0,1-.27.23,1.52,1.52,0,0,1-.64,0l-.2-.6a1.39,1.39,0,0,0,.3,0c.12,0,.19,0,.22,0a.15.15,0,0,0,.07-.07s0-.19,0-.48,0-.55,0-.8H116l.26-2h.63l0,.41h1.1Zm2.21,4.91-.4.53a11.49,11.49,0,0,0-2.09-.92l.39-.54A13.35,13.35,0,0,1,120.1,61.69Z" transform="translate(-1.55 -2.21)"/><path class="cls-19" d="M124.15,61.67h-.62v-.35h-.69v.51h-.64V56.12h2Zm-.62-4.05v-.89h-.69v.89Zm0,1.51V58.2h-.69v.93Zm0,1.59v-1h-.69v1Zm4.4-1.75h-2.56v2.36a6.18,6.18,0,0,0,1-.39l.08.63a15,15,0,0,1-1.73.6l-.17-.57a.35.35,0,0,0,.16-.3V56h3.2Zm-.65-1.79v-.62h-1.91v.62Zm0,1.2v-.64h-1.91v.64Zm1.16,3.34-.43.48a4.2,4.2,0,0,1-2-2.88l.62-.13a4.11,4.11,0,0,0,.3.94,4.22,4.22,0,0,0,.92-.92l.49.41a5.11,5.11,0,0,1-1.09,1A4.25,4.25,0,0,0,128.44,61.72Z" transform="translate(-1.55 -2.21)"/><path class="cls-19" d="M132.41,61.38h-.59v-.32h-.66v.5h-.6V56.14h1.85Zm-.59-3.82v-.82h-.66v.82Zm0,1.45v-.86h-.66V59Zm0,1.45v-.87h-.66v.87Zm4.54,1.17a.47.47,0,0,1-.14.32.47.47,0,0,1-.3.18,3.07,3.07,0,0,1-.5,0h-.24l-.25-.61.38,0a1.25,1.25,0,0,0,.39,0s0,0,0-.09V61h-2.15a2.61,2.61,0,0,1-.61,1.2l-.45-.45a2,2,0,0,0,.5-1.43V58.81h3.33Zm.32-3.17h-4V58h1.68v-.37H133v-.49h1.36v-.34h-1.58v-.51h1.58V55.8H135v.44h1.58v.51H135v.34h1.37v.49H135V58h1.69Zm-.94,1.23v-.37h-2.08v.37Zm0,.87v-.41h-2.08v.41Z" transform="translate(-1.55 -2.21)"/></g></g><g id="視力自檢-2-3" data-name="視力自檢-2"><g class="cls-22"><path class="cls-19" d="M78.84,117.05,78,118.38v.76a7.25,7.25,0,0,0,.69-.3v.69a5.78,5.78,0,0,1-.69.33v2.22a.48.48,0,0,1-.17.39.64.64,0,0,1-.45.15h-.66l-.21-.63.5,0a.79.79,0,0,0,.3,0,.2.2,0,0,0,.07-.16v-1.66l-.84.3-.15-.6c.38-.14.71-.27,1-.4v-1.17c.34-.52.6-.93.77-1.22H76.53v-.61h2.31Zm4,5.17-.42.49a9.11,9.11,0,0,0-1.57-1.19,7.33,7.33,0,0,1-2.09,1.1l-.41-.53a6.77,6.77,0,0,0,2.28-1.16,6.16,6.16,0,0,0,1.54-2l.53.29a7.36,7.36,0,0,1-1.36,1.87A11.09,11.09,0,0,1,82.8,122.22Zm0-4.61H80.88a7.14,7.14,0,0,1-1,1.28c.28,0,.66-.08,1.15-.17a5.9,5.9,0,0,0,.46-.78l.52.27a6.25,6.25,0,0,1-3,3l-.37-.5a6.81,6.81,0,0,0,1.85-1.38c-.37.06-.86.13-1.46.19l-.16-.47a5.14,5.14,0,0,0,1.22-1.45H79V117h1.51a3.59,3.59,0,0,0-.36-.58l.67-.2a3.58,3.58,0,0,1,.42.78H82.8Z" transform="translate(-1.55 -2.21)"/><path class="cls-19" d="M90.24,118.18H83.88v-.52h1.77a2.63,2.63,0,0,0-.3-.52H84.14v-.52h2.61a1.86,1.86,0,0,0-.19-.33l.69-.13a3.42,3.42,0,0,1,.24.46H90v.52H88.76c-.06.13-.15.31-.26.52h1.74Zm0,4.31H83.91V122h2.84v-.38H84.24v-.5h2.51v-.39H84.54v-2.18h5.09v2.18H87.4v.39h2.52v.5H87.4V122h2.86Zm-3.51-3.13V119H85.19v.36Zm0,.84v-.39H85.19v.39ZM88,117.14H86.1a5.85,5.85,0,0,1,.28.52h1.39C87.87,117.47,88,117.29,88,117.14Zm.94,2.22V119H87.4v.36Zm0,.84v-.39H87.4v.39Z" transform="translate(-1.55 -2.21)"/><path class="cls-19" d="M94.1,121.71a22.32,22.32,0,0,1-2.66.85l-.16-.58a1.67,1.67,0,0,0,.3-.07V119.1h.59v2.64a2.19,2.19,0,0,0,.38-.11v-3.07h-1v-2.15h2.31v2.15h-.66v1H94v.59h-.78v1.32c.31-.1.6-.21.88-.32ZM93.21,118v-1h-1v1Zm4.49,4.49H94.18v-.62h.43V117h-.45v-.59h3.47V117H95.26v1.06h2.08v2.66H95.26v1.08H97.7Zm-1-2.3V118.7H95.26v1.46Z" transform="translate(-1.55 -2.21)"/><path class="cls-19" d="M102.19,117.31H98.77v-.58h1.38a2.63,2.63,0,0,0-.19-.38l.62-.17a3.55,3.55,0,0,1,.26.55h1.35Zm2.91,5h-2v.35h-.61v-3.84c-.1.16-.19.29-.28.41l-.22-.65v.94h-1.14c0,.24,0,.39-.06.46H102V122a.5.5,0,0,1-.19.43,1.46,1.46,0,0,1-.82.15l-.19-.56h.47c.09,0,.14-.06.14-.19v-1.4h-.77l-.2.82a1.68,1.68,0,0,0,.33-.09c0-.1-.06-.21-.11-.34l.38-.16a6.87,6.87,0,0,1,.28,1l-.41.17a1.09,1.09,0,0,0,0-.24c-.32.1-.67.19-1,.28l-.18-.48a.69.69,0,0,0,.2,0c.1-.36.17-.68.23-1h-.5v2.15H99v-2.15h-.25v-.52H99v-.19h.6v.19h.59c0-.14,0-.29.06-.46H99.1V117.6h.55V119h1.75V117.6H102v.79a8.93,8.93,0,0,0,.79-2.2l.57.07c-.07.32-.16.71-.29,1.15h.74a7.58,7.58,0,0,0-.34-1l.58-.11a3.6,3.6,0,0,1,.37,1.07H105V118h-.74v.81h.67v.57h-.67v.83h.67v.59h-.67v.84h.83Zm-3.79-4.61a3.16,3.16,0,0,1-.39.48,4.38,4.38,0,0,1,.39.36l-.31.36q-.25-.26-.42-.39a4.54,4.54,0,0,1-.54.41l-.31-.36a3.63,3.63,0,0,0,.47-.34,2.65,2.65,0,0,0-.49-.32l.34-.33a4.17,4.17,0,0,1,.49.32,3,3,0,0,0,.38-.42Zm2.37,1.17V118h-.62v.81Zm0,1.4v-.83h-.62v.83Zm0,1.43v-.84h-.62v.84Z" transform="translate(-1.55 -2.21)"/><path class="cls-19" d="M112.61,121.79l-.37.53a6.14,6.14,0,0,1-1.88-1.49,3.28,3.28,0,0,1,0,.34,1.91,1.91,0,0,1-.25,1.14,1.12,1.12,0,0,1-.93.31h-.48l-.21-.62.72,0a.58.58,0,0,0,.35-.08.59.59,0,0,0,.13-.18,2.8,2.8,0,0,0,0-.67v-.33a8.28,8.28,0,0,1-3.3,1.65l-.28-.55a7.3,7.3,0,0,0,3.47-1.75,1.88,1.88,0,0,0-.15-.38,7.17,7.17,0,0,1-3,1.35l-.28-.53a6.94,6.94,0,0,0,3-1.28L109,119a8.08,8.08,0,0,1-2.33.76l-.29-.56a7,7,0,0,0,2.74-.85h-1.77v-.57h4.12v.57h-1.5a1.94,1.94,0,0,1-.44.33,3.26,3.26,0,0,1,.65,1,5.74,5.74,0,0,0,1.44-1l.46.41a6.91,6.91,0,0,1-1.52,1.08A5.76,5.76,0,0,0,112.61,121.79Zm-.24-3.69h-.64v-.74H107v.74h-.65v-1.32H109a2.58,2.58,0,0,0-.28-.43l.69-.14a5.3,5.3,0,0,1,.33.57h2.64Z" transform="translate(-1.55 -2.21)"/><path class="cls-19" d="M120,120h-4.83v1.82a10.46,10.46,0,0,0,1.52-.46l0,.66a19.39,19.39,0,0,1-2.21.63l-.18-.54a.3.3,0,0,0,.16-.26V120h-.86v-.6h1v-3h4.9V117h-4.23v.43h3.84V118h-3.84v.43h3.84v.53h-3.84v.44H120Zm0,2.09-.31.6a6.43,6.43,0,0,1-2-.8,4.91,4.91,0,0,1-1.37-1.42l.57-.31a5,5,0,0,0,.73.91,6.3,6.3,0,0,0,1.3-.92l.5.42a7.55,7.55,0,0,1-1.25.89A5.71,5.71,0,0,0,120,122Z" transform="translate(-1.55 -2.21)"/></g></g><g id="視力自檢-2-4" data-name="視力自檢-2"><g class="cls-22"><path class="cls-19" d="M145.28,116.44a7.28,7.28,0,0,1-2.34,3.23l-.41-.55a6.13,6.13,0,0,0,2.1-2.9Zm3.25,5.82-.58.4a6.94,6.94,0,0,0-.41-.82c-1.12.27-2.49.51-4.12.73l-.19-.56c.63-.45,1.36-1.69,2.2-3.71l.66.2a16.24,16.24,0,0,1-1.82,3.31,23.37,23.37,0,0,0,2.94-.52,11.5,11.5,0,0,0-.76-1.1l.54-.35A13.19,13.19,0,0,1,148.53,122.26Zm.48-3.11-.39.57a5.67,5.67,0,0,1-2-2.79H146v-.62h1.06A5.12,5.12,0,0,0,149,119.15Z" transform="translate(-1.55 -2.21)"/><path class="cls-19" d="M157.3,122l-.29.64a7.7,7.7,0,0,1-2.64-1.08,5.66,5.66,0,0,1-1.94-2.34,7.36,7.36,0,0,1-1.09,3.46l-.52-.45a7.26,7.26,0,0,0,1-4v-1.77h5v2.81h-3.71a4.66,4.66,0,0,0,1.86,2A7.9,7.9,0,0,0,157.3,122Zm-1.14-3.43v-1.51h-3.69v1.51Z" transform="translate(-1.55 -2.21)"/></g></g><g id="視力自檢-2-5" data-name="視力自檢-2"><g class="cls-22"><path class="cls-6" d="M99.52,64.91c-.13.39-.25.77-.38,1.11L99,66.5v6.36H98.1V68.18c-.19.29-.39.57-.59.82l-.43-.85a11.57,11.57,0,0,0,1.66-3.42Zm2,5.52a9,9,0,0,1-1.55,2.2l-.69-.51a8.84,8.84,0,0,0,1.5-2.06Zm3.79-.76h-2.52v3.19h-.84V69.67H99.36v-.79h2.54V68h-2V65h4.87v3h-2v.88h2.52Zm-1.37-2.46v-1.4h-3.17v1.4Zm1.44,5.05-.75.41a12.39,12.39,0,0,0-1.39-2.21l.72-.4A13.76,13.76,0,0,1,105.33,72.26Z" transform="translate(-1.55 -2.21)"/><path class="cls-6" d="M110.71,68.79a7.64,7.64,0,0,1-.94.48V72.1c0,.51-.29.76-.88.76h-.62L108,72h.84c.1,0,.15-.05.15-.14V69.63L108,70l-.23-.83a10,10,0,0,0,1.22-.44V67h-1.2v-.79H109V64.79h.8v1.44h.63V67h-.63v1.36a7.89,7.89,0,0,0,.82-.4Zm5.17,1h-.94V72a.88.88,0,0,1-.15.55.63.63,0,0,1-.36.26,2.89,2.89,0,0,1-.7.06h-.57l-.29-.82h.57a1.74,1.74,0,0,0,.61,0,.16.16,0,0,0,.09-.15v-2h-3.49v-.75h3.49v-.56h.8v.56h.94Zm-.14-3.37H113.6v1h1.83v.75H111v-.75h1.82v-1h-2.13V65.7h2.13v-1h.8v1h2.14Zm-2.66,4.91-.68.48a8.75,8.75,0,0,0-1.29-1.3l.68-.48A9.23,9.23,0,0,1,113.08,71.36Z" transform="translate(-1.55 -2.21)"/><path class="cls-6" d="M121.72,66.75a7.38,7.38,0,0,1-2.83,5.47l-.53-.66a5.64,5.64,0,0,0,1.69-1.84,4.85,4.85,0,0,0,.71-2.19h-2.13v-.78Zm4.79,4.74-.54.68a7.76,7.76,0,0,1-3-3.51V71.9a1,1,0,0,1-.15.61.69.69,0,0,1-.38.28,2.56,2.56,0,0,1-.73.07l-.76,0-.25-.83c.36,0,.64,0,.85,0a1.48,1.48,0,0,0,.49,0,.23.23,0,0,0,.1-.22v-7h.83v1.86a7.83,7.83,0,0,0,.47,1.32,9.36,9.36,0,0,0,2.14-2.13l.69.47a10.68,10.68,0,0,1-2.46,2.39A7.17,7.17,0,0,0,126.51,71.49Z" transform="translate(-1.55 -2.21)"/><path class="cls-6" d="M137,70h-3.61v2.89h-.84V70h-3.62v-.82h3.62V65.85h-3.38V65h7.63v.81h-3.41v3.33H137Zm-5.42-1.53-.78.36a11.48,11.48,0,0,0-1.2-2.18l.78-.39A12.55,12.55,0,0,1,131.57,68.47Zm4.84-1.81a10.48,10.48,0,0,1-1.31,2.2l-.77-.38a10.33,10.33,0,0,0,1.32-2.2Z" transform="translate(-1.55 -2.21)"/></g></g><g id="視力自檢-2-6" data-name="視力自檢-2"><g class="cls-22"><path class="cls-6" d="M127.49,122.25H122.4v-1l2.37-2.33a9.27,9.27,0,0,0,1.17-1.34,2.13,2.13,0,0,0,.38-1.23c0-.91-.48-1.36-1.43-1.36a3.06,3.06,0,0,0-2.07.9v-1.19a3.75,3.75,0,0,1,2.29-.73,2.57,2.57,0,0,1,1.79.6,2.07,2.07,0,0,1,.67,1.64,3,3,0,0,1-.42,1.49,9.08,9.08,0,0,1-1.48,1.76l-1.81,1.73v0h3.63Z" transform="translate(-1.55 -2.21)"/><path class="cls-6" d="M130.38,121.63a.67.67,0,0,1,.23-.53.83.83,0,0,1,1.1,0,.66.66,0,0,1,.23.53.71.71,0,0,1-.22.53.81.81,0,0,1-.57.22.75.75,0,0,1-.55-.22A.69.69,0,0,1,130.38,121.63Z" transform="translate(-1.55 -2.21)"/><path class="cls-6" d="M135,120.86a3.3,3.3,0,0,0,1.74.53A1.92,1.92,0,0,0,138,121a1.48,1.48,0,0,0,.49-1.18c0-1-.65-1.53-2-1.53-.31,0-.75,0-1.31.08v-4.26h4.16v1.06h-3v2.13l.69,0a2.91,2.91,0,0,1,2,.65,2.3,2.3,0,0,1,.73,1.81,2.51,2.51,0,0,1-.81,2,3.11,3.11,0,0,1-2.17.73A3.87,3.87,0,0,1,135,122Z" transform="translate(-1.55 -2.21)"/></g></g><path class="cls-23" d="M217.55,134.93H213.7a1,1,0,0,0-.59.22,7,7,0,0,0-2.89.71,3.45,3.45,0,0,0-4.86,4.81v.14a1.24,1.24,0,0,0,1.24,1.24h11a.94.94,0,0,0,.94-.93v-5.25A.94.94,0,0,0,217.55,134.93Z" transform="translate(-1.55 -2.21)"/><path class="cls-23" d="M222.91,134.93h3.85a1,1,0,0,1,.59.22,7,7,0,0,1,2.89.71,3.45,3.45,0,0,1,4.86,4.81v.14a1.24,1.24,0,0,1-1.24,1.24h-11a.94.94,0,0,1-.94-.93v-5.25A1,1,0,0,1,222.91,134.93Z" transform="translate(-1.55 -2.21)"/><path class="cls-9" d="M215.3,97.89a.32.32,0,0,0,.34.3h9.79a.32.32,0,0,0,.34-.3V89.67a.32.32,0,0,0-.34-.3h-9.79a.32.32,0,0,0-.34.3Z" transform="translate(-1.55 -2.21)"/><path class="cls-24" d="M226.62,83l1.1,1.44a.45.45,0,0,0,.63.08.48.48,0,0,0,.08-.65l-1.11-1.44a.44.44,0,0,0-.63-.08A.47.47,0,0,0,226.62,83Z" transform="translate(-1.55 -2.21)"/><path class="cls-24" d="M225.48,84l1.11,1.44a.43.43,0,0,0,.62.08.47.47,0,0,0,.08-.65l-1.11-1.44a.44.44,0,0,0-.63-.08A.48.48,0,0,0,225.48,84Z" transform="translate(-1.55 -2.21)"/><path class="cls-24" d="M210,82.54l1.1,1.44a.44.44,0,0,0,.63.08.47.47,0,0,0,.08-.65L210.67,82a.44.44,0,0,0-.63-.08A.47.47,0,0,0,210,82.54Z" transform="translate(-1.55 -2.21)"/><path class="cls-24" d="M208.83,83.46l1.11,1.45a.43.43,0,0,0,.62.07.46.46,0,0,0,.08-.64l-1.11-1.45a.44.44,0,0,0-.63-.08A.48.48,0,0,0,208.83,83.46Z" transform="translate(-1.55 -2.21)"/><path class="cls-25" d="M221.38,58.58S209.94,59.76,207,69.7s-.28,24.46,12.68,24.73c0,0,12.41.83,15.19-11.82,2.42-11-1.33-21.53-8.73-23.32A15.46,15.46,0,0,0,221.38,58.58Z" transform="translate(-1.55 -2.21)"/><path class="cls-26" d="M211.5,64.76l-5.64,12s.15-9.6,4-13.43Z" transform="translate(-1.55 -2.21)"/><path class="cls-26" d="M226.31,65l2.9-4.33c4.16,2.85,6.52,9,6.34,16.07C228.83,74.12,226.31,65,226.31,65Z" transform="translate(-1.55 -2.21)"/><path class="cls-27" d="M233.31,65.48s-22.3,3.38-26.4.36-3.39-8.17-.55-8.81,4.57,1.4,9.43.74C221.36,57,231.4,57.18,233.31,65.48Z" transform="translate(-1.55 -2.21)"/><path class="cls-25" d="M232.16,80a3.35,3.35,0,1,0,3.34-3.22A3.28,3.28,0,0,0,232.16,80Z" transform="translate(-1.55 -2.21)"/><path class="cls-25" d="M202.72,80a3.35,3.35,0,1,0,3.35-3.22A3.29,3.29,0,0,0,202.72,80Z" transform="translate(-1.55 -2.21)"/><path class="cls-14" d="M215.1,74.86a3.18,3.18,0,0,1-1,4.34,3.08,3.08,0,0,1-4.25-1.09,3.18,3.18,0,0,1,1-4.34A3.07,3.07,0,0,1,215.1,74.86Z" transform="translate(-1.55 -2.21)"/><path class="cls-15" d="M213.51,75.55a1.82,1.82,0,0,1-.57,2.49,1.76,1.76,0,0,1-2.44-.62,1.84,1.84,0,0,1,.57-2.5A1.77,1.77,0,0,1,213.51,75.55Z" transform="translate(-1.55 -2.21)"/><path class="cls-14" d="M227.26,74.75a3.18,3.18,0,0,1-1,4.34A3.07,3.07,0,0,1,222,78a3.19,3.19,0,0,1,1-4.34A3.07,3.07,0,0,1,227.26,74.75Z" transform="translate(-1.55 -2.21)"/><path class="cls-15" d="M225.68,75.45a1.83,1.83,0,0,1-.57,2.49,1.77,1.77,0,0,1-2.45-.63,1.84,1.84,0,0,1,.58-2.49A1.76,1.76,0,0,1,225.68,75.45Z" transform="translate(-1.55 -2.21)"/><path class="cls-28" d="M217.26,83.61a.37.37,0,0,0,.29-.14,9.75,9.75,0,0,0,1.26-4.37.35.35,0,0,0-.34-.38.37.37,0,0,0-.38.34A9.26,9.26,0,0,1,217,83a.37.37,0,0,0,.07.51.36.36,0,0,0,.22.07Z" transform="translate(-1.55 -2.21)"/><path class="cls-13" d="M217.83,87.94A5.76,5.76,0,0,0,221,87a.39.39,0,0,0-.46-.64,5,5,0,0,1-5,.2.41.41,0,0,0-.54.17.4.4,0,0,0,.17.54,5.72,5.72,0,0,0,2.67.67Z" transform="translate(-1.55 -2.21)"/><path class="cls-6" d="M210.57,95.16a3.06,3.06,0,0,1,3.74,2.13,3,3,0,0,1-1.43,3.38c-.43.52-2.57,3.62-4.06,16.17l-6.1-.51C204.25,103.24,206.89,96.12,210.57,95.16Z" transform="translate(-1.55 -2.21)"/><path class="cls-25" d="M202.72,116.33l6.1.51c-.08.67-.15,1.35-.23,2.07a3,3,0,0,1-3,2.7l-.32,0a3,3,0,0,1-2.73-3.3C202.57,117.62,202.64,117,202.72,116.33Z" transform="translate(-1.55 -2.21)"/><path class="cls-6" d="M230.19,95.16a3.06,3.06,0,0,0-3.74,2.13,3,3,0,0,0,1.43,3.38c.44.52,2.57,3.62,4.06,16.17l6.1-.51C236.51,103.24,233.87,96.12,230.19,95.16Z" transform="translate(-1.55 -2.21)"/><path class="cls-25" d="M238,116.33l-6.1.51c.08.67.16,1.35.23,2.07a3,3,0,0,0,3,2.7l.32,0a3,3,0,0,0,2.73-3.3C238.19,117.62,238.12,117,238,116.33Z" transform="translate(-1.55 -2.21)"/><path class="cls-6" d="M211.56,95.06h17.83a1.08,1.08,0,0,1,1.07,1.1v20.08h-20V96.16A1.08,1.08,0,0,1,211.56,95.06Z" transform="translate(-1.55 -2.21)"/><path class="cls-2" d="M211.54,122.25a8.67,8.67,0,0,1-1-4v-2h20v2a8.8,8.8,0,0,1-1.05,4Z" transform="translate(-1.55 -2.21)"/><path class="cls-17" d="M157.7,93.48a3.48,3.48,0,0,0,3.62,3.33h31.39a3.48,3.48,0,0,0,3.62-3.33V76.87a3.48,3.48,0,0,0-3.62-3.32H161.32a3.48,3.48,0,0,0-3.62,3.32Z" transform="translate(-1.55 -2.21)"/><polygon class="cls-17" points="183.06 88.52 188.58 101.77 173.86 88.7 183.06 88.52"/><rect class="cls-2" x="208.94" y="114.03" width="8.18" height="19.22" rx="0.94"/><rect class="cls-2" x="219.74" y="114.03" width="8.18" height="19.22" rx="0.94"/><g id="視力自檢-2-7" data-name="視力自檢-2"><g class="cls-22"><path class="cls-14" d="M175.94,84.66h-3.59a8.17,8.17,0,0,1-.78,1.38h3.75v3.74h-.75V89.3h-3.18v.48h-.74v-2.7a10.08,10.08,0,0,1-1.22,1l-.54-.54a7.21,7.21,0,0,0,2.66-2.9H169v-.72h2.88a7.85,7.85,0,0,0,.4-1.18l.7.16a10.15,10.15,0,0,1-.31,1h3.29Zm-1.37,3.94V86.73h-3.18V88.6Z" transform="translate(-1.55 -2.21)"/><path class="cls-14" d="M185.13,89.15l-.23.58c-1.47,0-2.64,0-3.53-.06a3.2,3.2,0,0,1-2.12-.77,4.41,4.41,0,0,1-.7.95l-.56-.44a5.32,5.32,0,0,0,1.2-2.27h-1V86.5a6.64,6.64,0,0,0,.94-1.41h-1v-.67h1.85v.67a9.7,9.7,0,0,1-.84,1.39h.83v.66a7.34,7.34,0,0,1-.42,1.23,2.71,2.71,0,0,0,1.4.67A29.68,29.68,0,0,0,185.13,89.15Zm-5.32-5.42-.52.52a5.28,5.28,0,0,0-1.09-1l.5-.53A6.59,6.59,0,0,1,179.81,83.73Zm5.12,3.73h-2.82a.88.88,0,0,1-.08.26h2.44a1.61,1.61,0,0,1-.25,1,1.67,1.67,0,0,1-1.07.22l-.54,0-.15-.45H183a1.61,1.61,0,0,0,.65-.06,1.22,1.22,0,0,0,.11-.28H181.8a2.34,2.34,0,0,1-1.1.76l-.44-.52a1.53,1.53,0,0,0,1.14-.92h-1.27V87h2a1.61,1.61,0,0,0-.18-.34l.67-.13a2.72,2.72,0,0,1,.25.47h2Zm0-1h-.58v.33h-1.08a.41.41,0,0,1-.3-.12.38.38,0,0,1-.12-.28v-.23h-.77a1.48,1.48,0,0,1-1,.86l-.35-.46a1.21,1.21,0,0,0,.72-.4h-.53v.22h-.68v-.67h1.95c0-.07-.09-.18-.17-.32h-1.34V83.18h1.27a3.11,3.11,0,0,0,.29-.47l.74.15a3.19,3.19,0,0,1-.22.32h1.81v2.16h-1.75l.14.32h2Zm-1.09-2.6v-.24h-2.46v.24Zm0,.56v-.22h-2.46v.22Zm0,.58V84.7h-2.46V85Zm.42,1.42v-.26h-.78v.14c0,.08,0,.12.11.12Z" transform="translate(-1.55 -2.21)"/></g></g><line class="cls-29" x1="153.16" y1="76.51" x2="152.69" y2="76.51"/><line class="cls-30" x1="151.26" y1="76.51" x2="82.8" y2="76.51"/><line class="cls-29" x1="82.09" y1="76.51" x2="81.61" y2="76.51"/><path class="cls-4" d="M34.81,56.19s2.79-1,6.22,8c0,0,3.13,11.55,11.9,13.75a7.94,7.94,0,0,0,4.62.07l4.21,6.85S50.41,88,44.89,83.36c0,0-2.25-1-9.74-11.21" transform="translate(-1.55 -2.21)"/><path class="cls-31" d="M18.67,187.82h-.73v-1H8.55v1H7.8V177.74h5.07v-2.17h.74v2.17h5.06Zm-5.8-6V178.5H8.55v3.35Zm0,4.21V182.6H8.55v3.46Zm5.06-4.21V178.5H13.61v3.35Zm0,4.21V182.6H13.61v3.46Z" transform="translate(-1.55 -2.21)"/><path class="cls-31" d="M33.48,186.56l-.49.63a10.44,10.44,0,0,1-4-3.34,6.66,6.66,0,0,1,.1,1.21c0,1.17-.18,1.92-.55,2.24a2.79,2.79,0,0,1-1.83.48c-.26,0-.49,0-.7,0l-.24-.72a8.81,8.81,0,0,0,.92.05,2.44,2.44,0,0,0,1.12-.17,1.09,1.09,0,0,0,.42-.53,4,4,0,0,0,.15-1.34,7.52,7.52,0,0,0-.09-1.15,20.3,20.3,0,0,1-6.53,3.3l-.4-.63a17.26,17.26,0,0,0,6.72-3.48,4.12,4.12,0,0,0-.38-1.06,16.85,16.85,0,0,1-5.61,2.61l-.41-.69a14.13,14.13,0,0,0,5.7-2.59,5.75,5.75,0,0,0-.56-.82A18.3,18.3,0,0,1,22.48,182l-.39-.67a14.64,14.64,0,0,0,5.54-2.1H23.56v-.71h8v.71h-2.8a9.68,9.68,0,0,1-1.25.92,8.41,8.41,0,0,1,1.23,2.35,11.53,11.53,0,0,0,3.2-2.27l.51.51A11.64,11.64,0,0,1,29.32,183,9,9,0,0,0,33.48,186.56ZM33,179.13h-.73v-1.75H22.7v1.75H22v-2.45H27.3a6.58,6.58,0,0,0-.41-1l.72-.24q.18.41.48,1.26H33Z" transform="translate(-1.55 -2.21)"/><path class="cls-31" d="M47.87,182.35H38.3v4.37c.91-.27,2-.62,3.16-1.07l.17.7c-1.43.54-2.77,1-4,1.35l-.27-.74a.37.37,0,0,0,.23-.33v-4.28H35.69v-.68h2.23v-5.76h9.13v.69H38.67v1.23h7.64v.69H38.67v1.23h7.64v.67H38.67v1.25h9.2ZM47.81,187l-.42.67a14.27,14.27,0,0,1-4-1.53,6.32,6.32,0,0,1-2.55-2.91l.64-.29a6.61,6.61,0,0,0,1.65,2.14A14.14,14.14,0,0,0,46.11,183l.53.48a14.83,14.83,0,0,1-2.8,2.06A13.21,13.21,0,0,0,47.81,187Z" transform="translate(-1.55 -2.21)"/><path class="cls-31" d="M53.59,179.69H52.15v8.06h-.72v-8.06H49.81V179h1.62v-3.4h.72V179h1.44Zm3.7,2.34a21.77,21.77,0,0,1-.42,5,1.1,1.1,0,0,1-1.09.71h-.91L54.7,187l1.07,0c.26,0,.44-.16.53-.5a32,32,0,0,0,.27-3.84H55.18A7.59,7.59,0,0,1,53,187.82l-.59-.43a6.77,6.77,0,0,0,2.06-4.69H53.06V182h1.45c0-.64.06-1,.06-1.13h.68a8.59,8.59,0,0,1-.06,1.13Zm4.34-5.21a11.15,11.15,0,0,1-.33,2.69,1.5,1.5,0,0,1-.63.87,2.91,2.91,0,0,1-1.23.19l-1.19,0L58,179.8c.61,0,1.07,0,1.39,0a2.1,2.1,0,0,0,1-.15.89.89,0,0,0,.34-.59,11.64,11.64,0,0,0,.17-1.61H58a4.94,4.94,0,0,1-3.63,3.11l-.46-.6a4.3,4.3,0,0,0,3.3-2.51H53.84v-.67h3.54c0-.13.07-.54.14-1.25h.7a12.36,12.36,0,0,1-.11,1.25Zm.31,5.24c0,.4,0,1.29-.14,2.66a9,9,0,0,1-.3,2.32,1.83,1.83,0,0,1-.44.49,2.26,2.26,0,0,1-1.21.21,2,2,0,0,1-.36,0l-.26-.73c.39,0,.74,0,1,0,.45,0,.7-.26.76-.77s.13-1.7.21-3.54H59.86a10.07,10.07,0,0,1-.57,2.56,11.26,11.26,0,0,1-1.48,2.56l-.6-.47a8,8,0,0,0,1.94-4.65H57.84v-.67h1.35c0-.15,0-.54.05-1.16h.69l0,1.16Z" transform="translate(-1.55 -2.21)"/><path class="cls-31" d="M70.25,185.67c-1.94.6-3.94,1.15-6,1.64L64,186.6a7.39,7.39,0,0,0,1-.25V176h4.56v9.14c.22-.05.45-.12.69-.2ZM68.82,179v-2.34H65.74V179Zm0,3.23v-2.54H65.74v2.54Zm0,3.07V183H65.74v3.21C67,185.85,68,185.57,68.82,185.33Zm7.09-7.05c0,2.08,0,4-.12,5.71a16.4,16.4,0,0,1-.27,3,1.19,1.19,0,0,1-.47.6,2.49,2.49,0,0,1-1.18.2c-.29,0-.59,0-.91,0l-.25-.71h1.6a.61.61,0,0,0,.41-.18.73.73,0,0,0,.22-.5l.14-2.54c.07-1.49.11-3.11.11-4.84h-2a15.81,15.81,0,0,1-.77,4.86,14.11,14.11,0,0,1-2.25,4l-.6-.46a14.74,14.74,0,0,0,2.23-4,13.55,13.55,0,0,0,.65-4.38H70.32v-.71h2.12c.06-1.06.07-2,0-2.71h.74c0,.79,0,1.7,0,2.71Z" transform="translate(-1.55 -2.21)"/><path class="cls-31" d="M82.4,187.77h-.73v-5.54H80.34c-.09,2.56-.47,4.35-1.16,5.4l-.65-.44a9.39,9.39,0,0,0,1.08-5H78.55v-.69h3.12v-1.82H79.22v-3.46H80V179h1.71v-3.46h.73Zm7.67-10.31a10.47,10.47,0,0,1-6.68,4.39l-.48-.67a11.11,11.11,0,0,0,4.24-1.66,14.66,14.66,0,0,0-2.55-1.58c-.38.26-.75.49-1.12.7l-.57-.56a9.46,9.46,0,0,0,3.44-2.62l.68.34a6.78,6.78,0,0,1-.86.95h3.9Zm.66,5.56H89.09v3.75a.86.86,0,0,1-.38.82,3.58,3.58,0,0,1-1.56.22c-.25,0-.51,0-.78,0l-.25-.75c.58,0,1,0,1.4,0a1.65,1.65,0,0,0,.7-.09.33.33,0,0,0,.14-.27V183H83.07v-.72h5.29v-1.71h.73v1.71h1.64Zm-7.35-3v-.68a14.87,14.87,0,0,0,2.22-.19l0,.67A19.89,19.89,0,0,1,83.38,180Zm2.82,5.92-.61.43a12.89,12.89,0,0,0-1.79-2.4l.57-.41A12.12,12.12,0,0,1,86.2,185.91Zm3-8.45H85.31l0,0A28.19,28.19,0,0,1,87.72,179,8.27,8.27,0,0,0,89.18,177.46Z" transform="translate(-1.55 -2.21)"/><path class="cls-31" d="M105,183.7H99.63v3a1,1,0,0,1-.24.72,1.21,1.21,0,0,1-.81.31c-.37,0-.86.05-1.47.05l-.81,0L96,187c.4,0,.82,0,1.25,0a5.17,5.17,0,0,0,1.46-.1.42.42,0,0,0,.19-.4V183.7H92.81V183h6.08v-2.51H93.77v-.72h5.12v-2.48c-1.64.18-3.28.29-4.93.32l-.32-.71a37,37,0,0,0,10-1.25l.44.65a29.07,29.07,0,0,1-4.4.86v2.61h4.54v.72H99.63V183H105Z" transform="translate(-1.55 -2.21)"/><path class="cls-31" d="M110.86,181.41l-.55.46a13.57,13.57,0,0,0-.87-1.4v7.34h-.72v-7a20,20,0,0,1-1.36,3.24l-.4-.78a18.39,18.39,0,0,0,1.75-4.55h-1.65v-.7h1.66V175.5h.72v2.56h1v.7h-1v.75C109.94,180.11,110.41,180.75,110.86,181.41Zm8.5,4.19a5.64,5.64,0,0,1-.44,1.76.88.88,0,0,1-.79.6c-.61,0-1.28-.63-2-1.9a11.92,11.92,0,0,1-2.7,1.68l-.49-.56a8.88,8.88,0,0,0,2.88-1.71A10.36,10.36,0,0,1,115,183h-2.55l-.09.84a9.37,9.37,0,0,1,2,1.37l-.4.59a7.85,7.85,0,0,0-1.67-1.27,7,7,0,0,1-1.75,3.42l-.64-.46a6,6,0,0,0,1.83-4.49h-1.24v-.7h4.41a63.4,63.4,0,0,1-.45-6.75l.71,0a47.08,47.08,0,0,0,.48,6.72H117l-.33-.66.57-.24a3.43,3.43,0,0,1,.49.9h1.5v.7h-3.51a7.6,7.6,0,0,0,.65,2,8,8,0,0,0,1.22-1.67l.55.35a9.33,9.33,0,0,1-1.5,1.95,5.92,5.92,0,0,0,.74,1.13q.45.54.69.54c.14,0,.26-.13.36-.37a6.72,6.72,0,0,0,.32-1.6Zm-5-4.14-.63.17a4.51,4.51,0,0,0-.11-.64c-1,.09-1.84.19-2.56.28l-.11-.5a22.43,22.43,0,0,0,1.48-2L111,179l-.19-.6a17.14,17.14,0,0,0,1.43-2.84l.63.3a22.48,22.48,0,0,1-1.24,2.38,9.12,9.12,0,0,0,1.34-.22,9.22,9.22,0,0,0,.66-1.13l.6.34a23.4,23.4,0,0,1-2.32,3.24q.69,0,1.56-.15a4,4,0,0,0-.29-.93l.61-.18A8.94,8.94,0,0,1,114.37,181.46Zm4.85-.05-.63.2a4.27,4.27,0,0,0-.16-.66l-2.51.33-.19-.6a23.19,23.19,0,0,0,1.45-1.86c-.39.05-.86.12-1.42.22l-.21-.6a17.33,17.33,0,0,0,1.4-2.74l.63.28c-.39.81-.79,1.58-1.22,2.3.28,0,.73-.11,1.33-.22.18-.25.38-.58.62-1l.6.31a29,29,0,0,1-2.2,3.13l1.53-.18a4.07,4.07,0,0,0-.25-.75l.61-.2A12.12,12.12,0,0,1,119.22,181.41Z" transform="translate(-1.55 -2.21)"/><path class="cls-31" d="M133.67,178.45l-.4.7a26.78,26.78,0,0,1-3.52-1.34v.41h-4.6v-.38a30.26,30.26,0,0,1-3.44,1.29l-.43-.65a15.5,15.5,0,0,0,6.22-3l.89.28-.33.25A16.65,16.65,0,0,0,133.67,178.45Zm-.1,7.59h-5.64v.65a1.08,1.08,0,0,1-.27.82,1.5,1.5,0,0,1-1,.28l-1.1,0h-.42l-.26-.71c.38,0,1,0,1.89,0,.27,0,.4-.13.4-.38V186h-5.85v-.64h5.85v-.94h-5v-.64h5v-.91c-2.2.05-3.74.07-4.63.07l-.18-.64h1.14a56.9,56.9,0,0,0,8.33-.52l.26.59c-1.27.18-2.67.32-4.2.43v1h4.84v.64h-4.84v.94h5.64Zm-2.27-4.74h-7.71V179h7.71Zm-.74-.66v-.93h-6.23v.93Zm-1.35-3.07a15.07,15.07,0,0,1-1.73-1.08,20.58,20.58,0,0,1-1.77,1.08Z" transform="translate(-1.55 -2.21)"/><path class="cls-31" d="M147.83,187.5H135.62v-.74h5.72V184h-4.53v-.71h4.53v-1.72h.74v1.72h4.58V184h-4.58v2.75h5.75Zm-.32-10.88h-5.66a19.6,19.6,0,0,1-3.1,3.71q3.3-.2,6.09-.54a16.42,16.42,0,0,0-1.53-1.57l.65-.41a24.73,24.73,0,0,1,3.27,3.7l-.61.4c-.32-.43-.71-.91-1.18-1.47q-4,.48-8.12.74l-.2-.54a12.06,12.06,0,0,0,3.8-4h-5v-.72h11.61Z" transform="translate(-1.55 -2.21)"/><path class="cls-31" d="M155.26,182.81h-2V186c.53-.18,1.18-.44,1.95-.76V186a31.57,31.57,0,0,1-5.14,1.7l-.24-.67a6.55,6.55,0,0,0,.72-.22v-5.48h.71v5.27c.48-.12.9-.24,1.27-.37v-6h-2V176h4.25v4.2h-1.55v1.91h2Zm-1.18-3.32v-2.8h-2.76v2.8Zm8,8h-6.75v-.71h1.12v-10.2h-.79v-.7H162v.7H157.2v2.74h4.19v4.42H157.2v3h4.89ZM160.64,183v-3H157.2v3Z" transform="translate(-1.55 -2.21)"/><path class="cls-31" d="M170.8,177.28h-6.6v-.66h3.16a4.83,4.83,0,0,0-.4-.93l.64-.23a5.88,5.88,0,0,1,.43,1.16h2.77Zm-.26,9.64a1.09,1.09,0,0,1-.2.56c-.14.2-.56.31-1.27.31l-.53,0-.24-.69c.31,0,.58,0,.81,0,.51,0,.76-.16.76-.48v-3.15h-2.11c-.17.67-.33,1.3-.49,1.88.36-.06.78-.16,1.26-.29a3.36,3.36,0,0,0-.27-.67l.53-.28a7.78,7.78,0,0,1,.66,1.9l-.59.28-.12-.63c-.86.22-1.75.44-2.69.64l-.25-.61c.27,0,.52-.09.74-.14.15-.51.32-1.2.52-2.08h-1.6v4.33h-.7v-4.33h-.56v-.65h.56v-.54h.7v.54h1.73a9.84,9.84,0,0,0,.17-1.23h-2.53V178h.72v3h4.06v-3h.68v3.63h-2.22c0,.39-.12.8-.2,1.23h2.67ZM169.33,180l-.5.47a6.13,6.13,0,0,0-1-.89,12,12,0,0,1-1.41.95l-.48-.52a9.29,9.29,0,0,0,1.32-.82,10.52,10.52,0,0,0-1.18-.79l.48-.44a11.25,11.25,0,0,1,1.22.8,4.44,4.44,0,0,0,.83-.8l.54.33a4.71,4.71,0,0,1-.78.86A8.94,8.94,0,0,1,169.33,180Zm7,7.16h-4.09v.66h-.7v-7.47l-.57,1.06-.44-.66a16,16,0,0,0,1.81-5.22l.66.13c-.1.47-.28,1.23-.55,2.27h1.79a12.85,12.85,0,0,0-.57-2l.59-.25a14.39,14.39,0,0,1,.65,2.24h1.29v.68h-1.53v2.07h1.49v.66h-1.49v2.16h1.49v.63h-1.49v2.35h1.66ZM174,180.68v-2.07h-1.74v2.07Zm0,2.82v-2.16h-1.74v2.16Zm0,3v-2.35h-1.74v2.35Z" transform="translate(-1.55 -2.21)"/><path class="cls-31" d="M182.83,176.58a9.26,9.26,0,0,1-.62,1.18c-.41.74-.76,1.35-1.06,1.82v1.94a15.51,15.51,0,0,0,1.49-.71l0,.81c-.51.25-1,.49-1.52.72v4.52a.84.84,0,0,1-.29.66,1,1,0,0,1-.74.27h-.94l-.28-.73,1.23,0c.19,0,.28-.09.28-.27v-4.12c-.71.27-1.38.51-2,.69l-.11-.72a17.15,17.15,0,0,0,2.1-.79v-2.53a23.5,23.5,0,0,0,1.61-2.76h-3.33v-.68h4.14Zm7.73,10.8-.61.46a15.59,15.59,0,0,0-2.55-2.8,14.6,14.6,0,0,1-4.73,2.77l-.48-.62a12,12,0,0,0,4.33-2.44,13.19,13.19,0,0,0,3.2-4l.63.36a16.43,16.43,0,0,1-2.42,3.42A21.22,21.22,0,0,1,190.56,187.38Zm0-9.79H186.7a13.65,13.65,0,0,1-2.29,3.23c1-.1,2-.22,2.88-.35a14.44,14.44,0,0,0,1.07-1.82l.65.34a12,12,0,0,1-6.12,5.95l-.47-.59a11.07,11.07,0,0,0,4.31-3.13l-3.45.44-.19-.7a4.73,4.73,0,0,0,1.53-1.43,10.68,10.68,0,0,0,1.23-1.94h-2.67v-.71h3.24a11.87,11.87,0,0,0-.63-1.14l.69-.24a10.69,10.69,0,0,1,.75,1.38h3.33Z" transform="translate(-1.55 -2.21)"/><path class="cls-31" d="M204.94,179.13H192.77v-.63h3.9a8.33,8.33,0,0,0-.83-1.41h-2.32v-.6h5.18a2.7,2.7,0,0,0-.59-.76l.74-.3a9.31,9.31,0,0,1,.73,1.06h4.69v.6h-2.48c-.29.66-.51,1.13-.67,1.41h3.82Zm-.14,8.34H192.94v-.61h5.57v-1.18h-4.88v-.62h4.88V184h-4.32V180.1h9.38V184h-4.31v1.1h4.85v.62h-4.85v1.18h5.54Zm-6.29-5.75v-1h-3.59v1Zm0,1.62v-1h-3.59v1Zm2.45-6.25h-4.22a11,11,0,0,1,.74,1.41h2.81A9.34,9.34,0,0,0,201,177.09Zm1.89,4.62v-1h-3.59v1Zm0,1.63v-1h-3.59v1Z" transform="translate(-1.55 -2.21)"/><path class="cls-31" d="M213.12,187.1h-6.34v-1l3.08-3.1a11.29,11.29,0,0,0,1.88-2.24,3.13,3.13,0,0,0,.36-1.47,1.89,1.89,0,0,0-.53-1.44,2.12,2.12,0,0,0-1.52-.51,4,4,0,0,0-2.72,1.22v-1.21a4.4,4.4,0,0,1,2.87-1,3.09,3.09,0,0,1,2.19.76,2.65,2.65,0,0,1,.82,2.06,4,4,0,0,1-.54,2,12.55,12.55,0,0,1-2.06,2.48L208.15,186v0h5Z" transform="translate(-1.55 -2.21)"/><path class="cls-31" d="M215.29,186.46a.78.78,0,0,1,.24-.57.75.75,0,0,1,.55-.24.74.74,0,0,1,.56.24.78.78,0,0,1,.24.57.74.74,0,0,1-.24.56.76.76,0,0,1-.56.24.78.78,0,0,1-.55-.23A.75.75,0,0,1,215.29,186.46Z" transform="translate(-1.55 -2.21)"/><path class="cls-31" d="M219.19,185.6a4,4,0,0,0,2.2.7,2.59,2.59,0,0,0,1.82-.64,2.23,2.23,0,0,0,.71-1.72,2,2,0,0,0-.71-1.66,3.09,3.09,0,0,0-2-.59c-.28,0-.83,0-1.66.09v-5.27h5.07v1h-4v3.17c.39,0,.7,0,.9,0a3.79,3.79,0,0,1,2.61.84,3,3,0,0,1,.95,2.36,3.14,3.14,0,0,1-1,2.48,3.91,3.91,0,0,1-2.7.91,4.21,4.21,0,0,1-2.16-.43Z" transform="translate(-1.55 -2.21)"/><path class="cls-31" d="M12,192.62a11.88,11.88,0,0,1-4.45,6.13L7,198.19a10.8,10.8,0,0,0,4.28-5.82Zm6.36,11.74-.66.38a11.39,11.39,0,0,0-.87-1.78,48.74,48.74,0,0,1-7.88,1.37l-.21-.72a27.6,27.6,0,0,0,4.09-7.19l.71.3a31.65,31.65,0,0,1-3.71,6.77,38.46,38.46,0,0,0,6.63-1.19,28.3,28.3,0,0,0-1.71-2.59l.65-.38A26.51,26.51,0,0,1,18.34,204.36Zm1-6.28-.47.62a11,11,0,0,1-4-5.4H14v-.76h1.52A10,10,0,0,0,19.38,198.08Z" transform="translate(-1.55 -2.21)"/><path class="cls-31" d="M33.68,204l-.43.73a14.66,14.66,0,0,1-5.52-2.45,10.78,10.78,0,0,1-3.36-4.41h-.31q-.11,4.63-2.17,6.73l-.56-.53q2-2,2-6.84v-4.51h9.33v5.15H25.18a9.87,9.87,0,0,0,4,4.45A14.75,14.75,0,0,0,33.68,204Zm-1.81-6.88v-3.66H24.11v3.66Z" transform="translate(-1.55 -2.21)"/><path class="cls-31" d="M40.51,204.33h-.7v-1.21h-3v1.49h-.72v-9.93h1.3a12.9,12.9,0,0,0,1-2.41l.7.15c-.17.49-.48,1.24-1,2.26h2.39Zm-.7-5.94v-3h-3v3Zm0,4V199.1h-3v3.31Zm7.71-7.72q-.08,3.15-.3,5.85a14.69,14.69,0,0,1-.45,3.18,1.47,1.47,0,0,1-.58.68,3,3,0,0,1-1.33.2l-1.13,0-.22-.71,1.23,0c.42,0,.68,0,.8,0a.55.55,0,0,0,.36-.17.94.94,0,0,0,.28-.38,11.36,11.36,0,0,0,.22-1.61c.09-.93.16-2,.22-3.07s.11-2.2.13-3.26H43.1a19,19,0,0,1-1.69,2.77l-.58-.4a14.88,14.88,0,0,0,2.61-5.38l.71.18c-.23.75-.49,1.47-.77,2.14ZM45,201l-.59.42a14.71,14.71,0,0,0-2-3.26l.6-.39A13.94,13.94,0,0,1,45,201Z" transform="translate(-1.55 -2.21)"/><path class="cls-31" d="M55.3,199.61h-2v3.19c.53-.18,1.18-.44,2-.76v.76a31.57,31.57,0,0,1-5.14,1.7l-.24-.67a6.55,6.55,0,0,0,.72-.22v-5.48h.71v5.27c.48-.12.9-.25,1.27-.37v-6h-2v-4.2h4.25V197H53.32v1.91h2Zm-1.18-3.32v-2.8H51.36v2.8Zm8,8H55.38v-.71H56.5v-10.2h-.79v-.7H62v.7H57.24v2.74h4.19v4.42H57.24v3h4.89Zm-1.45-4.46v-3H57.24v3Z" transform="translate(-1.55 -2.21)"/><path class="cls-31" d="M70.84,194.08h-6.6v-.66H67.4a4.83,4.83,0,0,0-.4-.93l.64-.23a5.88,5.88,0,0,1,.43,1.16h2.77Zm-.26,9.64a1.09,1.09,0,0,1-.2.56c-.14.2-.56.31-1.27.31l-.53,0-.24-.68c.31,0,.58,0,.81,0,.51,0,.76-.16.76-.48v-3.15H67.8c-.17.67-.33,1.3-.49,1.88.36-.06.78-.16,1.26-.29a3.36,3.36,0,0,0-.27-.67l.53-.28a7.63,7.63,0,0,1,.66,1.9l-.59.28-.12-.63c-.86.22-1.75.44-2.69.64l-.25-.61c.27,0,.52-.09.74-.14.15-.51.32-1.2.52-2.08H65.5v4.33h-.7v-4.33h-.56v-.65h.56v-.54h.7v.54h1.73a9.84,9.84,0,0,0,.17-1.23H64.87v-3.63h.72v3h4.06v-3h.68v3.63H68.11c0,.39-.12.8-.2,1.23h2.67Zm-1.21-6.92-.5.47a6.13,6.13,0,0,0-1-.89,12,12,0,0,1-1.41,1l-.48-.52a9.29,9.29,0,0,0,1.32-.82,10.52,10.52,0,0,0-1.18-.79l.48-.44a11.25,11.25,0,0,1,1.22.8,4.44,4.44,0,0,0,.83-.8l.54.33a4.36,4.36,0,0,1-.78.85A10.14,10.14,0,0,1,69.37,196.8Zm7,7.16H72.29v.66h-.7v-7.47L71,198.21l-.44-.66a16,16,0,0,0,1.81-5.22l.66.13c-.1.47-.28,1.23-.55,2.27h1.79a11.83,11.83,0,0,0-.57-2l.59-.25a14.39,14.39,0,0,1,.65,2.24h1.29v.68H74.73v2.07h1.48v.66H74.73v2.16h1.48v.63H74.73v2.35h1.65ZM74,197.48v-2.07H72.29v2.07Zm0,2.82v-2.16H72.29v2.16Zm0,3v-2.35H72.29v2.35Z" transform="translate(-1.55 -2.21)"/><path class="cls-31" d="M84.39,199.78a.77.77,0,0,1-.5-.68.61.61,0,0,1,.17-.4.57.57,0,0,1,.48-.21c.44,0,.66.28.66.86a1.81,1.81,0,0,1-.83,1.36l-.29-.23A1.23,1.23,0,0,0,84.39,199.78Z" transform="translate(-1.55 -2.21)"/><path class="cls-31" d="M105,204.26H92.78v-.73H97.1v-7.92h-4v-.73h11.58v.73h-4v7.92H105ZM96.2,202l-.67.25a23.21,23.21,0,0,0-1.92-5.16l.64-.28A24,24,0,0,1,96.2,202Zm1.25-7.88-.65.47a7.91,7.91,0,0,0-1.7-1.84l.6-.44A8.69,8.69,0,0,1,97.45,194.14Zm2.42,9.39v-7.92h-2v7.92Zm2.83-10.83a8.45,8.45,0,0,1-1.85,1.93l-.6-.46a8.55,8.55,0,0,0,1.8-1.88Zm1.48,4.43a29.73,29.73,0,0,1-2,5.14l-.66-.28a28.94,28.94,0,0,0,2-5.11Z" transform="translate(-1.55 -2.21)"/><path class="cls-31" d="M111,204.56h-.73V199H108.9c-.09,2.56-.47,4.35-1.16,5.4l-.65-.44a9.39,9.39,0,0,0,1.08-5h-1.06v-.69h3.12v-1.82h-2.45v-3.46h.74v2.75h1.71v-3.45H111Zm7.67-10.3a10.47,10.47,0,0,1-6.68,4.39l-.48-.67a11.11,11.11,0,0,0,4.24-1.66,14.66,14.66,0,0,0-2.55-1.58c-.38.26-.75.49-1.13.7l-.56-.56a9.46,9.46,0,0,0,3.44-2.62l.68.34a7.46,7.46,0,0,1-.86,1h3.9Zm.66,5.56h-1.64v3.75a.88.88,0,0,1-.38.82,3.58,3.58,0,0,1-1.56.22c-.25,0-.51,0-.78,0l-.25-.75c.58,0,1,0,1.39,0a1.68,1.68,0,0,0,.71-.09.33.33,0,0,0,.14-.27v-3.7h-5.29v-.72h5.29v-1.71h.73v1.71h1.64Zm-7.35-3v-.68a14.87,14.87,0,0,0,2.22-.19l0,.67A19.89,19.89,0,0,1,111.94,196.79Zm2.82,5.92-.61.43a12.89,12.89,0,0,0-1.79-2.4l.57-.41A12.12,12.12,0,0,1,114.76,202.71Zm3-8.45h-3.87l0,0a28.19,28.19,0,0,1,2.45,1.55A8.6,8.6,0,0,0,117.74,194.26Z" transform="translate(-1.55 -2.21)"/><path class="cls-31" d="M133.54,200.5h-5.35v3a1,1,0,0,1-.24.72,1.21,1.21,0,0,1-.81.31c-.37,0-.86.05-1.47.05l-.81,0-.31-.76c.4,0,.82,0,1.25,0a5.17,5.17,0,0,0,1.46-.1.42.42,0,0,0,.19-.4V200.5h-6.08v-.75h6.08v-2.51h-5.12v-.72h5.12V194c-1.64.18-3.28.29-4.93.32l-.32-.71a37,37,0,0,0,10-1.25l.44.65a29.07,29.07,0,0,1-4.4.86v2.61h4.54v.72h-4.54v2.51h5.35Z" transform="translate(-1.55 -2.21)"/><path class="cls-31" d="M139.42,198.21l-.55.46a13.57,13.57,0,0,0-.87-1.4v7.34h-.72v-7a21.43,21.43,0,0,1-1.36,3.24l-.4-.78a18.39,18.39,0,0,0,1.75-4.55h-1.65v-.7h1.66V192.3H138v2.56h1v.7h-1v.75C138.5,196.91,139,197.55,139.42,198.21Zm8.5,4.19a5.64,5.64,0,0,1-.44,1.76.88.88,0,0,1-.8.6c-.61,0-1.27-.63-2-1.9a11.92,11.92,0,0,1-2.7,1.68l-.49-.56a8.88,8.88,0,0,0,2.88-1.71,10.36,10.36,0,0,1-.84-2.52H141l-.09.84a9.37,9.37,0,0,1,2,1.37l-.4.59a7.85,7.85,0,0,0-1.67-1.27,6.92,6.92,0,0,1-1.75,3.41l-.64-.45a6,6,0,0,0,1.83-4.49H139v-.7h4.41a63.4,63.4,0,0,1-.45-6.75l.71,0a47.08,47.08,0,0,0,.48,6.72h1.41l-.33-.66.57-.24a3.43,3.43,0,0,1,.49.9h1.5v.7h-3.51a7.6,7.6,0,0,0,.65,2,8,8,0,0,0,1.22-1.67l.54.35a9,9,0,0,1-1.49,2,5.56,5.56,0,0,0,.74,1.12c.3.37.53.54.69.54s.26-.12.36-.36a6.72,6.72,0,0,0,.32-1.6Zm-5-4.14-.63.17a4.51,4.51,0,0,0-.11-.64c-1,.09-1.84.19-2.56.28l-.11-.51a21,21,0,0,0,1.48-1.94l-1.45.22-.19-.6a17.14,17.14,0,0,0,1.43-2.84l.63.3a22.48,22.48,0,0,1-1.24,2.38,9.12,9.12,0,0,0,1.34-.22,9.22,9.22,0,0,0,.66-1.13l.6.33a22.9,22.9,0,0,1-2.32,3.25q.69,0,1.56-.15a4,4,0,0,0-.29-.93l.61-.18A8.94,8.94,0,0,1,142.93,198.26Zm4.85,0-.63.2a5.91,5.91,0,0,0-.16-.66l-2.51.33-.19-.6a20.79,20.79,0,0,0,1.44-1.86c-.38,0-.85.12-1.41.22l-.21-.6a17.33,17.33,0,0,0,1.4-2.74l.63.28c-.39.81-.79,1.58-1.22,2.3.28,0,.73-.11,1.33-.22.18-.25.38-.58.62-1l.6.31a29,29,0,0,1-2.2,3.13l1.53-.18a3.83,3.83,0,0,0-.25-.75l.61-.2A13.12,13.12,0,0,1,147.78,198.21Z" transform="translate(-1.55 -2.21)"/><path class="cls-31" d="M155.72,195.2h-3.53c0,.6,0,1.27,0,2H155c0,1.69,0,3.17-.12,4.42a9.08,9.08,0,0,1-.3,2.21,1.14,1.14,0,0,1-.47.5,2.78,2.78,0,0,1-1.16.16h-.69l-.24-.74c.33,0,.66,0,1,0a1.47,1.47,0,0,0,.8-.13.7.7,0,0,0,.22-.34c0-.14.09-.84.17-2.12s.1-2.36.08-3.28h-2.1a15.61,15.61,0,0,1-1.64,6.69l-.62-.47a13.28,13.28,0,0,0,1.06-2.63,13.66,13.66,0,0,0,.47-3c.05-1.09.09-2.2.1-3.31h-1.57v-.7h2.71a10.54,10.54,0,0,0-.82-1.88l.7-.26a13,13,0,0,1,.89,2.14h2.32Zm6.41,8.76-.46.65a10.51,10.51,0,0,1-3.06-2.31,12.25,12.25,0,0,1-2.81,2.31l-.5-.56a10.37,10.37,0,0,0,2.87-2.37,10.5,10.5,0,0,1-1.28-3.19l.72-.19a9.6,9.6,0,0,0,1,2.74,12.27,12.27,0,0,0,1.46-5.83h-2.41A15.52,15.52,0,0,1,156,199l-.61-.42a15.53,15.53,0,0,0,2.19-6.34l.71.18c-.15.87-.29,1.56-.43,2.09h4.17v.69h-1.21a13.86,13.86,0,0,1-1.76,6.48A8,8,0,0,0,162.13,204Z" transform="translate(-1.55 -2.21)"/><path class="cls-31" d="M176.34,204.3H164.23v-.62h1.64v-5.92h3.26l.35-1h-5.15v-.63h5.37l.27-.93h-5.08V192.7h10.73v2.51h-4.89l-.28.93h5.68v.63h-5.91l-.32,1h4.77v5.92h1.67Zm-8.12-9.66V193.3H165.6v1.34Zm5.74,4.58v-.87H166.6v.87Zm0,1.44v-.87H166.6v.87Zm0,1.53v-1H166.6v1Zm0,1.49v-.91H166.6v.91Zm-2.38-9V193.3H169v1.34Zm3.32,0V193.3h-2.59v1.34Z" transform="translate(-1.55 -2.21)"/><path class="cls-31" d="M182.83,193.38a9.26,9.26,0,0,1-.62,1.18c-.41.74-.76,1.35-1.06,1.82v1.94c.41-.17.9-.4,1.49-.71l0,.81c-.51.25-1,.49-1.52.72v4.52a.84.84,0,0,1-.29.66,1,1,0,0,1-.74.27h-.94l-.28-.73,1.23,0c.19,0,.28-.09.28-.27v-4.12c-.71.27-1.38.51-2,.69l-.11-.72a17.15,17.15,0,0,0,2.1-.79v-2.53a23.5,23.5,0,0,0,1.61-2.76h-3.33v-.68h4.14Zm7.73,10.8-.61.46a15.59,15.59,0,0,0-2.55-2.8,14.6,14.6,0,0,1-4.73,2.77l-.48-.62a12,12,0,0,0,4.33-2.44,13.19,13.19,0,0,0,3.2-4l.63.36a16.43,16.43,0,0,1-2.42,3.42A21.22,21.22,0,0,1,190.56,204.18Zm0-9.79H186.7a13.65,13.65,0,0,1-2.29,3.23c1-.1,2-.22,2.88-.35a14.44,14.44,0,0,0,1.07-1.82l.65.34a12,12,0,0,1-6.12,6l-.47-.59a11.07,11.07,0,0,0,4.31-3.13l-3.45.44-.19-.7a4.73,4.73,0,0,0,1.53-1.43,10.68,10.68,0,0,0,1.23-1.94h-2.67v-.71h3.24a11.87,11.87,0,0,0-.63-1.14l.69-.24a10.69,10.69,0,0,1,.75,1.38h3.33Z" transform="translate(-1.55 -2.21)"/><path class="cls-31" d="M204.94,195.93H192.77v-.63h3.9a8.33,8.33,0,0,0-.83-1.41h-2.32v-.6h5.18a2.7,2.7,0,0,0-.59-.76l.74-.3a9.31,9.31,0,0,1,.73,1.06h4.69v.6h-2.48c-.29.66-.51,1.13-.67,1.41h3.82Zm-.14,8.34H192.94v-.61h5.57v-1.18h-4.88v-.62h4.88v-1.1h-4.32V196.9h9.38v3.86h-4.31v1.1h4.85v.62h-4.85v1.18h5.54Zm-6.29-5.75v-1h-3.59v1Zm0,1.62v-1h-3.59v1Zm2.45-6.25h-4.22a11,11,0,0,1,.74,1.41h2.81A9.34,9.34,0,0,0,201,193.89Zm1.89,4.62v-1h-3.59v1Zm0,1.63v-1h-3.59v1Z" transform="translate(-1.55 -2.21)"/><path class="cls-31" d="M210.93,203.48h-.7v-.8h-1.94v1.15h-.7V193h3.34Zm-.7-7.61v-2.18h-1.94v2.18Zm0,3v-2.27h-1.94v2.27Zm0,3.13v-2.43h-1.94V202Zm8-3.81h-5.12v5.53a20.59,20.59,0,0,0,2.45-.91l.12.69a29.17,29.17,0,0,1-3.2,1.16l-.34-.64a.53.53,0,0,0,.28-.43V192.74h5.81Zm-.7-3.05v-1.7h-4.42v1.7Zm0,2.37v-1.71h-4.42v1.71Zm1.63,6.68-.54.56a9.2,9.2,0,0,1-3.74-5.57l.68-.21a8.8,8.8,0,0,0,.68,1.88,11.56,11.56,0,0,0,2.09-1.79l.59.41a15.76,15.76,0,0,1-2.34,2A8.51,8.51,0,0,0,219.17,204.15Z" transform="translate(-1.55 -2.21)"/><path class="cls-31" d="M10.93,219.8h-.67v-.64H8.4v1H7.68V210h3.25Zm-.69-7v-2.09H8.4v2.09Zm0,2.82v-2.12H8.4v2.12Zm0,2.87v-2.16H8.4v2.16Zm8.27,2.12a.81.81,0,0,1-.24.6,1.06,1.06,0,0,1-.75.28q-.51,0-1.23,0l-.28-.73q.36,0,1.5,0a.28.28,0,0,0,.31-.32v-1.26h-5a5.88,5.88,0,0,1-1.28,2.34l-.56-.47a5.62,5.62,0,0,0,1.37-4.14v-1.72h6.2Zm.75-6.33h-7.7v-.63H15v-1h-3v-.65h3v-1H11.77v-.65H15v-1.1h.71v1.1h3.37V211H15.75v1h3v.65h-3v1h3.51Zm-1.44,4.27v-1.09H13a6.94,6.94,0,0,1-.11,1.09Zm0-1.72v-1H13.06v1Z" transform="translate(-1.55 -2.21)"/><path class="cls-31" d="M26.29,212.31a11.72,11.72,0,0,1-4.44,7.92l-.52-.59a10.65,10.65,0,0,0,4.07-6.59H21.86v-.74Zm7.36,7.2-.5.65A14.06,14.06,0,0,1,28,214.54v5.83a1.18,1.18,0,0,1-.17.7.75.75,0,0,1-.44.28,6.29,6.29,0,0,1-1.12.06c-.46,0-.81,0-1.06,0l-.24-.75,1.93,0a.32.32,0,0,0,.36-.36v-11.2H28v3a4.22,4.22,0,0,0,.7,2.16,19.7,19.7,0,0,0,3.6-3.44l.6.5A20.93,20.93,0,0,1,29.09,215,12.07,12.07,0,0,0,33.65,219.51Z" transform="translate(-1.55 -2.21)"/><path class="cls-31" d="M47.85,216.89H42.13v4.59h-.75v-4.59H35.65v-.75h5.73v-5.88H36v-.74H47.52v.74H42.13v5.88h5.72Zm-8.46-2.06-.68.35a13.07,13.07,0,0,0-1.77-3.29l.6-.33A11.34,11.34,0,0,1,39.39,214.83Zm7.31-3a10.5,10.5,0,0,1-2,3.28l-.7-.37a10.12,10.12,0,0,0,2-3.19Z" transform="translate(-1.55 -2.21)"/><path class="cls-31" d="M53.66,209.44q-.27.63-.72,1.53l-.46.88v9.56h-.74V213.2a18.38,18.38,0,0,1-1.56,2.12l-.46-.69a19.34,19.34,0,0,0,3.19-5.46Zm8.49,11.63h-9v-.72H56a43.37,43.37,0,0,0-1.56-7.52l.48-.27H53.34v-.72h4.15a11.79,11.79,0,0,0-.84-2.47l.7-.24a18.91,18.91,0,0,1,.93,2.71h3.65v.72H60.52l.44.17a48.94,48.94,0,0,1-1.65,7.62h2.84Zm-1.94-8.51H55.15a60.79,60.79,0,0,1,1.6,7.79h1.81A42.76,42.76,0,0,0,60.21,212.56Z" transform="translate(-1.55 -2.21)"/><path class="cls-31" d="M76.38,221.1H64.27v-.62h1.64v-5.92h3.26l.35-1H64.37v-.63h5.37L70,212H64.93V209.5H75.66V212H70.77l-.28.93h5.68v.63H70.26l-.32,1h4.77v5.92h1.67Zm-8.12-9.66V210.1H65.64v1.34ZM74,216v-.87H66.64V216Zm0,1.44v-.87H66.64v.87ZM74,219v-1H66.64v1Zm0,1.49v-.91H66.64v.91Zm-2.38-9V210.1H69v1.34Zm3.32,0V210.1H72.35v1.34Z" transform="translate(-1.55 -2.21)"/></svg>