<svg id="圖層_1" data-name="圖層 1" xmlns="http://www.w3.org/2000/svg" viewBox="0 0 208.66 160.43"><defs><style>.cls-1,.cls-2{isolation:isolate;}.cls-1{font-size:16px;font-family:MicrosoftJhengHeiBold, Microsoft JhengHei;letter-spacing:0.1em;}.cls-1,.cls-2,.cls-6{fill:#00a199;}.cls-2{font-size:14px;font-family:MicrosoftJhengHeiRegular, Microsoft JhengHei;letter-spacing:0.04em;}.cls-3{fill:#d3e7ee;}.cls-4{fill:#6e2f1b;}.cls-5{fill:#4dbbb4;}.cls-7{fill:#531e10;}.cls-8{fill:#f1a379;}.cls-9{fill:#ef9569;}.cls-10{fill:#f5d7b0;}.cls-11{fill:#f3bb94;}.cls-12{fill:#662817;}.cls-13{fill:#7a3c1f;}.cls-14{fill:#901d22;}.cls-15{fill:#a41f24;}.cls-16{fill:#f4c4a0;}.cls-17{fill:#fff;}.cls-18{fill:#70341c;}.cls-19{fill:#040000;}.cls-20{fill:#71c6d4;}</style></defs><title>Demo06</title><g id="線上檢測輕鬆做_及早做好孩子的視力管理_" data-name="線上檢測輕鬆做 及早做好孩子的視力管理 "><text class="cls-1" transform="translate(86.2 137.05)">注意!</text></g><g id="返回上一步"><text class="cls-2" transform="translate(0 156.78)">檢測進行時將無法返回上一步喔!</text></g><ellipse class="cls-3" cx="107.01" cy="74.87" rx="57.17" ry="41.04"/><path class="cls-4" d="M78.09,73.18c2.1-.17-2.94-6.22,1-10.55C85.55,55.69,93,58,90,50.53s-12.89-12.08-19-8C54.46,53.38,71.08,73.75,78.09,73.18Z" transform="translate(-3.57 -7.2)"/><path class="cls-5" d="M147.94,109.11c0,7.65-16.72,13.86-37.35,13.86s-37.35-6.21-37.35-13.86S90,95.24,110.59,95.24,147.94,101.45,147.94,109.11Z" transform="translate(-3.57 -7.2)"/><path class="cls-6" d="M110.59,95.24V123c20.63,0,37.35-6.21,37.35-13.86S131.22,95.24,110.59,95.24Z" transform="translate(-3.57 -7.2)"/><path class="cls-7" d="M142.05,74.06C140,73.89,145,67.83,141,63.51c-6.4-6.94-13.87-4.63-10.82-12.11s12.89-12.08,19-8C165.68,54.26,149.06,74.62,142.05,74.06Z" transform="translate(-3.57 -7.2)"/><path class="cls-8" d="M118.07,95.77a3,3,0,0,1-3,3h-9a3,3,0,0,1-3-3V80.53a3,3,0,0,1,3-3h9a3,3,0,0,1,3,3Z" transform="translate(-3.57 -7.2)"/><path class="cls-9" d="M115.07,77.53h-4.48V98.77h4.48a3,3,0,0,0,3-3V80.53A3,3,0,0,0,115.07,77.53Z" transform="translate(-3.57 -7.2)"/><path class="cls-10" d="M137.39,51.39c0,17.25-12,36.72-26.8,36.72S83.78,68.64,83.78,51.39s12-31.21,26.81-31.21S137.39,34.15,137.39,51.39Z" transform="translate(-3.57 -7.2)"/><path class="cls-11" d="M110.59,20.18V88.11c14.8,0,26.8-19.47,26.8-36.72S125.39,20.18,110.59,20.18Z" transform="translate(-3.57 -7.2)"/><path class="cls-12" d="M139.21,54.86c-2.58,3.64-7-3.54-20.56-11-11.21-6.15-15-19.5-9.61-24.15s16.54-.54,24.87,9.15S140.55,53,139.21,54.86Z" transform="translate(-3.57 -7.2)"/><path class="cls-13" d="M80.74,54.86c2.59,3.64,7-3.54,20.57-11,11.21-6.15,15-19.5,9.6-24.15s-16.53-.54-24.86,9.15S79.41,53,80.74,54.86Z" transform="translate(-3.57 -7.2)"/><path class="cls-14" d="M115.38,77.12c0,3.31-2,6-4.38,6s-4.38-2.69-4.38-6,2-6,4.38-6S115.38,73.81,115.38,77.12Z" transform="translate(-3.57 -7.2)"/><path class="cls-15" d="M111,76.74c-1.68,0-3.14,1.3-3.87,3.19.73,1.89,2.19,3.19,3.87,3.19s3.13-1.3,3.87-3.19C114.13,78,112.68,76.74,111,76.74Z" transform="translate(-3.57 -7.2)"/><path class="cls-16" d="M104.89,58c0,2-2.31,3.69-5.16,3.69S94.56,60,94.56,58s2.31-3.69,5.17-3.69S104.89,55.93,104.89,58Z" transform="translate(-3.57 -7.2)"/><path class="cls-17" d="M104.89,58.2c0,1.72-2.31,3.12-5.16,3.12s-5.17-1.4-5.17-3.12,2.31-3.11,5.17-3.11S104.89,56.48,104.89,58.2Z" transform="translate(-3.57 -7.2)"/><path class="cls-18" d="M102.56,57.7a2.84,2.84,0,1,1-2.83-2.77A2.8,2.8,0,0,1,102.56,57.7Z" transform="translate(-3.57 -7.2)"/><path class="cls-19" d="M100.66,57.65a1.06,1.06,0,1,1-1.06-1.06A1.06,1.06,0,0,1,100.66,57.65Z" transform="translate(-3.57 -7.2)"/><path class="cls-17" d="M99.49,57.26a.23.23,0,0,1-.23.23.23.23,0,0,1-.24-.23.24.24,0,1,1,.47,0Z" transform="translate(-3.57 -7.2)"/><path class="cls-16" d="M116.31,58c0,2,2.31,3.69,5.16,3.69S126.64,60,126.64,58s-2.31-3.69-5.17-3.69S116.31,55.93,116.31,58Z" transform="translate(-3.57 -7.2)"/><path class="cls-17" d="M116.31,58.2c0,1.72,2.31,3.12,5.16,3.12s5.17-1.4,5.17-3.12-2.31-3.11-5.17-3.11S116.31,56.48,116.31,58.2Z" transform="translate(-3.57 -7.2)"/><path class="cls-18" d="M118.64,57.7a2.84,2.84,0,1,0,2.83-2.77A2.8,2.8,0,0,0,118.64,57.7Z" transform="translate(-3.57 -7.2)"/><path class="cls-19" d="M120.53,57.65a1.07,1.07,0,1,0,1.07-1.06A1.07,1.07,0,0,0,120.53,57.65Z" transform="translate(-3.57 -7.2)"/><path class="cls-17" d="M121.71,57.26a.23.23,0,0,0,.23.23.23.23,0,0,0,.24-.23.24.24,0,0,0-.24-.24A.23.23,0,0,0,121.71,57.26Z" transform="translate(-3.57 -7.2)"/><ellipse class="cls-20" cx="58.73" cy="13.44" rx="14.61" ry="13.44"/><path class="cls-20" d="M62.3,32.43s.33,5.44,10.94,3.88c0,0-4.71-.6-4-6.86" transform="translate(-3.57 -7.2)"/><path class="cls-17" d="M63.78,12.17a3.54,3.54,0,0,1,.42,2L63.47,24a1.32,1.32,0,0,1-.48.92,1.69,1.69,0,0,1-1,.31,1.45,1.45,0,0,1-1-.33,1.1,1.1,0,0,1-.44-.9l-.77-9.86a2.66,2.66,0,0,1,.55-1.94A2,2,0,0,1,62,11.38,2,2,0,0,1,63.78,12.17ZM60.33,30.08a2.08,2.08,0,0,1-.6-1.54,2.3,2.3,0,0,1,.64-1.63A2.2,2.2,0,0,1,62,26.32a2.17,2.17,0,0,1,1.59.68,2,2,0,0,1,.61,1.54,2.11,2.11,0,0,1-.61,1.56,2.16,2.16,0,0,1-1.59.64A2.19,2.19,0,0,1,60.33,30.08Z" transform="translate(-3.57 -7.2)"/></svg>