<svg id="圖層_1" data-name="圖層 1" xmlns="http://www.w3.org/2000/svg" viewBox="0 0 196.04 216.31"><defs><style>.cls-1{isolation:isolate;}.cls-2{fill:#2ea0d2;}.cls-3{fill:#eeeeef;}.cls-4{fill:#6e2f1b;}.cls-5{fill:#71c6d4;}.cls-6{fill:#531e10;}.cls-7{fill:#f1a379;}.cls-8{fill:#ef9569;}.cls-9{fill:#f5d7b0;}.cls-10{fill:#f3bb94;}.cls-11{fill:#662817;}.cls-12{fill:#7a3c1f;}.cls-13{fill:#901d22;}.cls-14{fill:#a41f24;}.cls-15{fill:#f4c4a0;}.cls-16{fill:#fff;}.cls-17{fill:#70341c;}.cls-18{fill:#040000;}.cls-19{fill:#fce7d3;}.cls-20{fill:#717070;}</style></defs><title>Demo03</title><g id="返回上一步" class="cls-1"><g class="cls-1"><path class="cls-2" d="M35.51,207.66l-5,5,5,5-.54.53-4.95-5-5,4.95-.53-.54,4.95-4.94-4.95-4.94.53-.53,5,4.94,4.95-5Zm-8.31,5a.77.77,0,0,1-.25.58.8.8,0,0,1-.58.25.82.82,0,0,1-.59-.24.78.78,0,0,1-.25-.59.81.81,0,0,1,.24-.59.83.83,0,0,1,.6-.24.85.85,0,0,1,.83.83ZM30,208.13a.82.82,0,0,1,.58.24.78.78,0,0,1,.25.59.79.79,0,0,1-.24.59.78.78,0,0,1-.59.25.82.82,0,0,1-.59-.25.8.8,0,0,1,0-1.17A.77.77,0,0,1,30,208.13Zm0,7.31a.82.82,0,0,1,.58.24.78.78,0,0,1,.25.59.81.81,0,0,1-.24.59.84.84,0,0,1-1.43-.59.78.78,0,0,1,.26-.58A.77.77,0,0,1,30,215.44Zm4.49-2.82a.78.78,0,0,1-.26.58.77.77,0,0,1-.58.25.82.82,0,0,1-.58-.24.78.78,0,0,1-.25-.59.82.82,0,0,1,.83-.83.85.85,0,0,1,.84.83Z" transform="translate(-24.53 -2.46)"/><path class="cls-2" d="M44.49,212.41,44,213a11.59,11.59,0,0,0-1.19-1.65v7.28h-.7v-7a15.92,15.92,0,0,1-1.37,3.2l-.52-.53a15.74,15.74,0,0,0,1.82-4.8H40.37v-.64H42.1v-2.39h.7v2.39H44v.64H42.8v.9A14.06,14.06,0,0,1,44.49,212.41Zm3.7,5-.46.51a11.9,11.9,0,0,0-1.59-1.33,9.48,9.48,0,0,1-1.8,2.16l-.52-.51a8.77,8.77,0,0,0,2.43-3.46l.65.27-.45.95A12.23,12.23,0,0,1,48.19,217.36Zm4.51-7.64-.4.62a11.9,11.9,0,0,1-3.9-2.9,14.51,14.51,0,0,1-3.84,3l-.53-.56a11.58,11.58,0,0,0,4.31-3.52l.69.25a2,2,0,0,1-.23.33A11.21,11.21,0,0,0,52.7,209.72Zm-4.88,4.72H44.93v-3.33h2.89Zm-.7-.67v-2h-1.5v2Zm3.21-3.67H46.42v-.69h3.91Zm2.2,8-.47.49a14.19,14.19,0,0,0-2-1.82,8.66,8.66,0,0,1-1.42,1.87l-.59-.4a9.41,9.41,0,0,0,2.1-3.5l.64.22a8.43,8.43,0,0,1-.47,1.22A14.67,14.67,0,0,1,52.53,218.08Zm-.78-3.64H48.87v-3.33h2.88Zm-.68-.67v-2H49.56v2Z" transform="translate(-24.53 -2.46)"/><path class="cls-2" d="M56.9,211.78l-.52.51a11.34,11.34,0,0,0-2.09-1.94l.48-.56A13.25,13.25,0,0,1,56.9,211.78Zm.08,2.31a24.59,24.59,0,0,1-2.09,4.53l-.54-.47a20.93,20.93,0,0,0,2-4.41Zm.39-5.92-.5.54A10.4,10.4,0,0,0,54.74,207l.41-.53A8.64,8.64,0,0,1,57.37,208.17Zm4.47,7.39H59.05l.41.28a10.86,10.86,0,0,1-2,2.84l-.57-.47a9.71,9.71,0,0,0,1.89-2.65h-1V206.7h4Zm-.69-6.24v-1.94H58.52v1.94Zm0,2.73v-2H58.52v2Zm0,2.81v-2.13H58.52v2.13ZM62.2,218l-.6.36a8.64,8.64,0,0,0-1.38-2.2l.58-.39A9.22,9.22,0,0,1,62.2,218Zm1.64-1.86h-.7v-8.79h.7Zm2.25,1.52a.84.84,0,0,1-.36.81,2.83,2.83,0,0,1-1.3.2c-.35,0-.69,0-1,0l-.18-.7a15.27,15.27,0,0,0,2-.06c.14,0,.21-.18.21-.43v-11h.7Z" transform="translate(-24.53 -2.46)"/><path class="cls-2" d="M80.64,217.69l-.17.71c-1.82,0-3.48,0-5,0a11,11,0,0,1-3.35-.48,4.69,4.69,0,0,1-1.84-1.17,9.45,9.45,0,0,1-1.56,1.9l-.55-.46a9.21,9.21,0,0,0,2.66-4.46H68.69V213a31.5,31.5,0,0,0,2.1-2.91h-2.4v-.69h3.26v.69q-.78,1.22-2,2.91h2v.69a9.22,9.22,0,0,1-1,2.43,4.13,4.13,0,0,0,1.11.83,6.44,6.44,0,0,0,1.25.47,14.63,14.63,0,0,0,2.11.21c1,.05,2.18.07,3.54.07Zm-9.42-9.38-.51.5a12,12,0,0,0-1.94-2l.46-.52A10.63,10.63,0,0,1,71.22,208.31Zm9.11,7.93H73.05v-6a10.61,10.61,0,0,1-.92,1.17l-.48-.57a13.28,13.28,0,0,0,2.49-4.61l.7.19c-.23.68-.49,1.34-.78,2h2.47a10,10,0,0,0-.62-1.75l.7-.23c.32.82.56,1.48.71,2h2.89v.68H77.05v1.57H79.9v.67H77.05V213H79.9v.69H77.05v1.86h3.28Zm-4-5.55v-1.57H73.78v1.57Zm0,2.33v-1.66H73.78V213Zm0,2.55v-1.86H73.78v1.86Z" transform="translate(-24.53 -2.46)"/><path class="cls-2" d="M86.66,209.59a14.69,14.69,0,0,1-1.36,1.92v7.16h-.73v-6.3a19,19,0,0,1-1.81,1.68l-.39-.57A16.18,16.18,0,0,0,86,209.19Zm-.32-2.78a13,13,0,0,1-3.52,2.91l-.42-.57a12.34,12.34,0,0,0,3.34-2.79Zm8.24,4.48H92.37v6.22a1,1,0,0,1-.23.72,1,1,0,0,1-.54.32,7.62,7.62,0,0,1-1.21.06q-.78,0-1.26,0l-.29-.75c.4,0,.81,0,1.25,0a9.13,9.13,0,0,0,1.36-.05.24.24,0,0,0,.14-.25v-6.27H86.66v-.74h7.92Zm-.68-3.54H87.25V207H93.9Z" transform="translate(-24.53 -2.46)"/><path class="cls-2" d="M100.23,217.94H99.5v-1.11h-2v1.42h-.73v-11h3.41Zm-.73-6.3V208h-2v3.68Zm0,4.47v-3.77h-2v3.77Zm8.76-7.48H105v2h2.88v.7h-6.55v-.7h2.94v-2h-3.43v-.74h3.43v-1.53H105v1.53h3.26Zm.32,5.17H107v3.62a1,1,0,0,1-.38.93,3.16,3.16,0,0,1-1.49.23h-.8l-.3-.75c.45,0,.85,0,1.19,0a2.29,2.29,0,0,0,.88-.1.39.39,0,0,0,.18-.37V213.8h-5.47v-.72h5.47v-1.3H107v1.3h1.55Zm-4.21,2.83-.63.37a11.56,11.56,0,0,0-1.81-2.14l.62-.42A14.86,14.86,0,0,1,104.37,216.63Z" transform="translate(-24.53 -2.46)"/><path class="cls-2" d="M114.26,218.58h-.74v-5.53H112.2q-.14,3.82-1.16,5.39l-.65-.43a9.39,9.39,0,0,0,1.08-5H110.4v-.7h3.12v-1.81h-2.44v-3.46h.73v2.75h1.71v-3.46h.74Zm7.67-10.3a10.45,10.45,0,0,1-6.68,4.38l-.48-.67a11,11,0,0,0,4.23-1.65,14.66,14.66,0,0,0-2.55-1.58c-.37.25-.75.49-1.12.7l-.56-.56a9.61,9.61,0,0,0,3.43-2.62l.68.33a6.26,6.26,0,0,1-.86,1h3.91Zm.65,5.56H121v3.75a.86.86,0,0,1-.39.82,3.58,3.58,0,0,1-1.56.22l-.77,0-.26-.75,1.4,0a1.43,1.43,0,0,0,.7-.1.29.29,0,0,0,.15-.26v-3.7h-5.29v-.73h5.29V211.4H121v1.71h1.63Zm-7.35-3v-.67a15.14,15.14,0,0,0,2.23-.2v.67A17.57,17.57,0,0,1,115.23,210.8Zm2.82,5.92-.6.43a13.25,13.25,0,0,0-1.8-2.39l.57-.42A11.66,11.66,0,0,1,118.05,216.72Zm3-8.44h-3.86l0,0a26,26,0,0,1,2.45,1.55A8.58,8.58,0,0,0,121,208.28Z" transform="translate(-24.53 -2.46)"/><path class="cls-2" d="M127,215.64a17.46,17.46,0,0,1-2,3l-.58-.45a14.17,14.17,0,0,0,2-2.85Zm9.61-.85H124.4v-.7h2.08V211.7h-1.8V211h1.8v-1.7h.71V211H129v-1.7h.72V211h1.82v-1.7h.7V211h1.86v-1.7h.69V211h1.51v.72h-1.51v2.39h1.79Zm-.49-6.09h-9.57a9.15,9.15,0,0,1-1.43,1.23l-.56-.5a14,14,0,0,0,3-3.07l.72.27c-.33.46-.71.92-1.12,1.4h8.92ZM129,214.09V211.7h-1.8v2.39Zm.56,4.38-.71.14a13.44,13.44,0,0,0-.43-3.06l.7-.16A15.05,15.05,0,0,1,129.55,218.47Zm2-4.38V211.7h-1.82v2.39Zm1.54,4.29-.69.26a17.89,17.89,0,0,0-1.09-3l.67-.25A17.35,17.35,0,0,1,133.07,218.38Zm1-4.29V211.7h-1.86v2.39Zm2.46,4.2-.64.33a15.63,15.63,0,0,0-1.72-3l.67-.34A18,18,0,0,1,136.55,218.29Z" transform="translate(-24.53 -2.46)"/><path class="cls-2" d="M141.37,213.91a26.32,26.32,0,0,1-2.48,4.69l-.61-.45a22.76,22.76,0,0,0,2.51-4.65Zm0-2.23-.52.56a10.71,10.71,0,0,0-2.31-1.82l.44-.57A11.88,11.88,0,0,1,141.36,211.68Zm.26-3.47-.51.52a12.12,12.12,0,0,0-2.27-1.81l.46-.55A11.83,11.83,0,0,1,141.62,208.21Zm8.95,4.48h-4.4a23.8,23.8,0,0,1-3,4.79,45.47,45.47,0,0,0,5.63-1,20.42,20.42,0,0,0-1.51-2.19l.61-.37a25.08,25.08,0,0,1,2.68,4.3l-.62.44a9.37,9.37,0,0,0-.8-1.56,66.31,66.31,0,0,1-6.9,1.13l-.3-.75a4.75,4.75,0,0,0,1.62-1.68,23.42,23.42,0,0,0,1.79-3.15h-3.43V212h4v-2.76h-3.37v-.7h3.37v-2.17h.71v2.17h3.32v.7h-3.32V212h3.95Z" transform="translate(-24.53 -2.46)"/><path class="cls-2" d="M164.64,217.74l-.14.72h-3.77a19.32,19.32,0,0,1-4-.3,5.23,5.23,0,0,1-2.42-1.3,12.67,12.67,0,0,1-1.57,1.91l-.57-.52a8.15,8.15,0,0,0,2.71-4.48h-2.34v-.55a32.73,32.73,0,0,0,2.11-3h-2.31v-.72h3.25v.6c-.64,1-1.29,2-2,3h2v.53a7.69,7.69,0,0,1-.93,2.72,4.43,4.43,0,0,0,2,1.15,16.05,16.05,0,0,0,3.4.27Zm-9.48-9.19-.55.48a12.18,12.18,0,0,0-1.94-2l.49-.52A14.09,14.09,0,0,1,155.16,208.55Zm9.21,7.52-.43.56-2.38-2.4a10.38,10.38,0,0,1-3.57,2.6l-.39-.64a9.28,9.28,0,0,0,3.43-2.46q-1.34-1.28-3.22-2.8a11.72,11.72,0,0,1-1.15,5.42l-.66-.3c.73-1.26,1.09-3.24,1.09-6v-3.37h7.22v.72h-6.48v2h5.71v.67a13.31,13.31,0,0,1-1.55,3.56C162.86,214.48,163.65,215.3,164.37,216.07Zm-1.65-6h-4.86q2,1.57,3.58,3A10.67,10.67,0,0,0,162.72,210.11Z" transform="translate(-24.53 -2.46)"/><path class="cls-2" d="M177.94,218.62h-.79v-1.2h-9.42v1.2H167v-12h11Zm-.79-2v-9.26h-9.42v9.26Zm-2.07-2.18h-5.32v-5h5.32Zm-.74-.73V210.2H170.5v3.56Z" transform="translate(-24.53 -2.46)"/><path class="cls-2" d="M192.54,218.27H180.39v-.72h5.22V206.39h.74v4.39h5.58v.73h-5.58v6h6.19Z" transform="translate(-24.53 -2.46)"/><path class="cls-2" d="M206.53,212.62H194.4v-.79h12.13Z" transform="translate(-24.53 -2.46)"/><path class="cls-2" d="M220.57,211.43h-5.63v4.51h-.72v-4.51h-5.87v-.72h2.26V207.2h.73v3.51h2.88v-4.38H215v1.79h4.47v.71H215v1.88h5.61Zm-7.8,1.59a12,12,0,0,1-3.88,3.07l-.5-.56a10.27,10.27,0,0,0,3.78-3Zm6.88,0a9.5,9.5,0,0,1-3.87,4.18,15.07,15.07,0,0,1-5.86,1.39l-.39-.71a14.64,14.64,0,0,0,5.77-1.2,8.52,8.52,0,0,0,3.69-4Z" transform="translate(-24.53 -2.46)"/></g></g><ellipse class="cls-3" cx="100.19" cy="84.34" rx="75.06" ry="53.89"/><path class="cls-4" d="M82.07,75.13c2.75-.22-3.86-8.17,1.38-13.85,8.41-9.11,18.22-6.08,14.22-15.89s-16.93-15.86-25-10.53C51.05,49.14,72.86,75.87,82.07,75.13Z" transform="translate(-24.53 -2.46)"/><path class="cls-5" d="M173.77,122.3c0,10-22,18.2-49,18.2s-49-8.15-49-18.2,22-18.2,49-18.2S173.77,112.25,173.77,122.3Z" transform="translate(-24.53 -2.46)"/><path class="cls-2" d="M124.74,104.1v36.4c27.08,0,49-8.15,49-18.2S151.82,104.1,124.74,104.1Z" transform="translate(-24.53 -2.46)"/><path class="cls-6" d="M166,76.28c-2.76-.22,3.86-8.17-1.38-13.85-8.41-9.1-18.22-6.08-14.21-15.89s16.92-15.86,25-10.53C197.06,50.29,175.25,77,166,76.28Z" transform="translate(-24.53 -2.46)"/><path class="cls-7" d="M134.56,104.78a4,4,0,0,1-3.94,4H118.85a3.94,3.94,0,0,1-3.94-4v-20a3.93,3.93,0,0,1,3.94-3.94h11.77a3.94,3.94,0,0,1,3.94,3.94Z" transform="translate(-24.53 -2.46)"/><path class="cls-8" d="M130.62,80.84h-5.88v27.89h5.88a4,4,0,0,0,3.94-4v-20A3.94,3.94,0,0,0,130.62,80.84Z" transform="translate(-24.53 -2.46)"/><path class="cls-9" d="M159.93,46.53c0,22.64-15.76,48.21-35.19,48.21s-35.2-25.57-35.2-48.21,15.76-41,35.2-41S159.93,23.89,159.93,46.53Z" transform="translate(-24.53 -2.46)"/><path class="cls-10" d="M124.74,5.54v89.2c19.43,0,35.19-25.57,35.19-48.21S144.17,5.54,124.74,5.54Z" transform="translate(-24.53 -2.46)"/><path class="cls-11" d="M162.32,51.07c-3.4,4.79-9.22-4.63-27-14.39C120.6,28.6,115.61,11.07,122.71,5s21.71-.71,32.64,12S164.07,48.6,162.32,51.07Z" transform="translate(-24.53 -2.46)"/><path class="cls-12" d="M85.55,51.07c3.4,4.79,9.21-4.63,27-14.39C127.27,28.6,132.25,11.07,125.16,5s-21.71-.71-32.65,12S83.8,48.6,85.55,51.07Z" transform="translate(-24.53 -2.46)"/><path class="cls-13" d="M131,80.3c0,4.35-2.58,7.88-5.76,7.88s-5.75-3.53-5.75-7.88,2.58-7.87,5.75-7.87S131,76,131,80.3Z" transform="translate(-24.53 -2.46)"/><path class="cls-14" d="M125.27,79.81c-2.2,0-4.11,1.7-5.08,4.18,1,2.49,2.88,4.19,5.08,4.19s4.12-1.7,5.09-4.19C129.39,81.51,127.48,79.81,125.27,79.81Z" transform="translate(-24.53 -2.46)"/><path class="cls-15" d="M117.25,55.16c0,2.68-3,4.85-6.78,4.85s-6.78-2.17-6.78-4.85,3-4.85,6.78-4.85S117.25,52.48,117.25,55.16Z" transform="translate(-24.53 -2.46)"/><path class="cls-16" d="M117.25,55.47c0,2.26-3,4.09-6.78,4.09s-6.78-1.83-6.78-4.09,3-4.09,6.78-4.09S117.25,53.21,117.25,55.47Z" transform="translate(-24.53 -2.46)"/><path class="cls-17" d="M114.2,54.8a3.73,3.73,0,1,1-3.73-3.63A3.68,3.68,0,0,1,114.2,54.8Z" transform="translate(-24.53 -2.46)"/><path class="cls-18" d="M111.71,54.75a1.4,1.4,0,0,1-2.79,0,1.4,1.4,0,0,1,2.79,0Z" transform="translate(-24.53 -2.46)"/><path class="cls-16" d="M110.17,54.22a.31.31,0,0,1-.31.31.31.31,0,1,1,0-.62A.31.31,0,0,1,110.17,54.22Z" transform="translate(-24.53 -2.46)"/><path class="cls-15" d="M132.25,55.16c0,2.68,3,4.85,6.78,4.85s6.78-2.17,6.78-4.85-3-4.85-6.78-4.85S132.25,52.48,132.25,55.16Z" transform="translate(-24.53 -2.46)"/><path class="cls-16" d="M132.25,55.47c0,2.26,3,4.09,6.78,4.09s6.78-1.83,6.78-4.09-3-4.09-6.78-4.09S132.25,53.21,132.25,55.47Z" transform="translate(-24.53 -2.46)"/><path class="cls-17" d="M135.3,54.8A3.73,3.73,0,1,0,139,51.17,3.68,3.68,0,0,0,135.3,54.8Z" transform="translate(-24.53 -2.46)"/><path class="cls-18" d="M137.79,54.75a1.4,1.4,0,0,0,2.79,0,1.4,1.4,0,0,0-2.79,0Z" transform="translate(-24.53 -2.46)"/><path class="cls-16" d="M139.33,54.22a.31.31,0,0,0,.31.31.31.31,0,0,0,0-.62A.31.31,0,0,0,139.33,54.22Z" transform="translate(-24.53 -2.46)"/><path class="cls-19" d="M117.61,52.65a2,2,0,0,0,2,2.08h0a2,2,0,0,0,2-2.08V30.56a2,2,0,0,0-2-2.07h0a2,2,0,0,0-2,2.07Z" transform="translate(-24.53 -2.46)"/><path class="cls-19" d="M113.07,52.42a2.17,2.17,0,0,0,2,2.31h0a2.17,2.17,0,0,0,2-2.31V27.86a2.17,2.17,0,0,0-2-2.31h0a2.17,2.17,0,0,0-2,2.31Z" transform="translate(-24.53 -2.46)"/><path class="cls-19" d="M108.54,52.42a2.17,2.17,0,0,0,2,2.31h0a2.16,2.16,0,0,0,2-2.31V27.86a2.16,2.16,0,0,0-2-2.31h0a2.17,2.17,0,0,0-2,2.31Z" transform="translate(-24.53 -2.46)"/><path class="cls-19" d="M104,52.65a2,2,0,0,0,2,2.08h0a2,2,0,0,0,2-2.08V30.56a2,2,0,0,0-2-2.07h0a2,2,0,0,0-2,2.07Z" transform="translate(-24.53 -2.46)"/><path class="cls-19" d="M99.39,62.62c.82,4.35,7,6.76,7,5.39L104,54.73l-.88-1.16V45.19c0-1.38-.84-2.49-1.87-2.49h0c-1,0-1.87,1.11-1.87,2.49Z" transform="translate(-24.53 -2.46)"/><path class="cls-19" d="M104,64.2c0,2.5,1.57,4.52,3.51,4.52h10.53c1.94,0,3.51-2,3.51-4.52V51.9c0-2.5-1.57-4.52-3.51-4.52H107.52c-1.94,0-3.51,2-3.51,4.52Z" transform="translate(-24.53 -2.46)"/><path class="cls-19" d="M104.42,125.29c0,5.39,1.89,9.77,4.23,9.77h6.68c2.33,0,4.22-4.38,4.22-9.77V73.21c0-5.39-1.89-9.77-4.22-9.77h-6.68c-2.34,0-4.23,4.38-4.23,9.77Z" transform="translate(-24.53 -2.46)"/><g id="視力自檢"><g class="cls-1"><path class="cls-20" d="M27.26,194.21a13,13,0,0,1-.9,2.7l-.64-.3a11.82,11.82,0,0,0,.91-2.61Zm4.65-.58H25.79V193h2.73V191.6H26.16V191h2.36v-1.18H26.25V185h5.24v4.76H29.22V191h2.3v.65h-2.3V193h2.69Zm-3.39-4.51v-3.45H27v3.45Zm-.28-.8-.56.24a16.05,16.05,0,0,0-.48-2l.52-.24A12.91,12.91,0,0,1,28.24,188.32Zm.39,8.37-.69.11c0-.18,0-.37,0-.57a12.42,12.42,0,0,0-.17-2l.7-.07A22.06,22.06,0,0,1,28.63,196.69Zm1.64-.27-.66.17a10.83,10.83,0,0,0-.44-2.46l.65-.12A12.07,12.07,0,0,1,30.27,196.42Zm.52-7.3v-3.45H29.22v3.45Zm-.21-2.62a10.59,10.59,0,0,1-.57,2.1l-.55-.23a9.49,9.49,0,0,0,.53-2.08Zm1.35,9.57-.62.21a10,10,0,0,0-.7-2.19l.67-.16A9.4,9.4,0,0,1,31.93,196.07Zm6-8.29H35v2.7h2.35v6.43h-.72v-1.07H33.23v1.07h-.75v-6.43h1.81v-5.77H35v2.39H38Zm-1.32,7.34v-3.93H33.23v3.93Z" transform="translate(-24.53 -2.46)"/><path class="cls-20" d="M46.13,190H43.4V191h1.68v-.5h.68v1.09H40.4v-1.09h.67v.5h1.67V190H39.8v-.59h2.94v-.57H40.42v-2.62h2.32v-.53H40v-.59h2.79v-.47h.66v.47h2.72v.59H43.4v.53h2.36v2.62H43.4v.57h2.73ZM52,195.38H46.58v.55a.86.86,0,0,1-.33.79,2.75,2.75,0,0,1-1.25.2h-.7l-.28-.68h1.5c.24,0,.36-.13.36-.38v-.47H39.82v-.6h6.06V194h-5.2v-.6h5.2v-.77c-.94,0-2.49.06-4.64.06l-.23-.61a51.85,51.85,0,0,0,9.31-.52l.34.56c-1.38.2-2.74.34-4.08.44v.84h4.68v.6H46.58v.74H52Zm-9.23-7v-.55H41.08v.55Zm0-1.06v-.51H41.09v.51Zm2.34,0v-.51H43.4v.51Zm0,1.06v-.55H43.4v.55Zm7,2.72-.32.63a10.19,10.19,0,0,1-2.62-1,10.65,10.65,0,0,1-2.66.89l-.35-.58a9.86,9.86,0,0,0,2.39-.71,6.85,6.85,0,0,1-1.41-1.67h-.43V188h4.78v.65a7.33,7.33,0,0,1-1.69,1.69A7.46,7.46,0,0,0,52,191.08Zm-.1-3.74H50.57c-.55,0-.83-.26-.83-.79v-.87H48.07a2.33,2.33,0,0,1-1.56,2l-.39-.53A2,2,0,0,0,47.43,185h3v1.5a.19.19,0,0,0,.08.14.22.22,0,0,0,.16.09h1.25Zm-1.32,1.3H47.81A5.34,5.34,0,0,0,49.13,190,5.18,5.18,0,0,0,50.62,188.64Z" transform="translate(-24.53 -2.46)"/><path class="cls-20" d="M59.22,189.24H55.09v7.61h-.71V185h4.84Zm-.73-2.48v-1h-3.4v1Zm0,1.81v-1.15h-3.4v1.15Zm5.44,4.7H61.71v3.29H61v-3.29H58.86a4.58,4.58,0,0,1-1.74,3.36l-.7-.4a4.22,4.22,0,0,0,1.72-3H55.87v-.7H58.2V191H56.35v-.67h7V191H61.71v1.61h2.22Zm-2.94-.7V191H58.93v1.61Zm4.38,3.25a.86.86,0,0,1-.33.79,2.27,2.27,0,0,1-1.19.22l-.78,0-.28-.74a11.89,11.89,0,0,0,1.54.06.28.28,0,0,0,.31-.31v-6.58H60.55V185h4.82Zm-.73-9.06v-1H61.29v1Zm0,1.81v-1.15H61.29v1.15Z" transform="translate(-24.53 -2.46)"/><path class="cls-20" d="M73.29,187.82l-.72.12a18.53,18.53,0,0,1-1.11,5.46A15,15,0,0,1,73,194.81l-.43.56c-.6-.58-1.09-1-1.47-1.34A9.5,9.5,0,0,1,68.29,197l-.49-.55a8.65,8.65,0,0,0,2.76-2.84,22.69,22.69,0,0,0-2.39-1.75c.28-1,.56-2.19.84-3.46l-1.18,0,0-.71c.3,0,.75,0,1.36,0,.29-1.51.48-2.51.55-3l.71.1c-.11.74-.27,1.68-.5,2.81.73-.05,1.38-.12,2-.21A9.18,9.18,0,0,0,72,186.2l.71,0a10.16,10.16,0,0,1,0,1l.67-.11Zm-1.44.23q-.87.15-2.07.24c-.21,1-.47,2.07-.77,3.26l1.88,1.35A14.25,14.25,0,0,0,71.85,188.05Zm8.26,2.07-.63.35a11.69,11.69,0,0,0-.55-1.14,55.07,55.07,0,0,1-5.71.74l-.15-.63a12.62,12.62,0,0,0,2.7-4.81l.7.19a12.18,12.18,0,0,1-2.32,4.45,42,42,0,0,0,4.42-.58,18.85,18.85,0,0,0-1.4-2l.6-.38A18,18,0,0,1,80.11,190.12Zm-.8,6.85H78.6v-.87H74.3V197h-.73v-5.69h5.74Zm-.71-1.59V192H74.3v3.39Z" transform="translate(-24.53 -2.46)"/><path class="cls-20" d="M85.92,190.71l-.5.56a12.43,12.43,0,0,0-1.19-1.66v7.29h-.71v-7a15.29,15.29,0,0,1-1.36,3.2l-.52-.53a15.74,15.74,0,0,0,1.82-4.8H81.8v-.64h1.72v-2.39h.71v2.39h1.2v.64h-1.2v.9A14.73,14.73,0,0,1,85.92,190.71Zm3.7,4.95-.46.51a12.6,12.6,0,0,0-1.59-1.33,9.48,9.48,0,0,1-1.8,2.16l-.52-.51A8.77,8.77,0,0,0,87.68,193l.65.27-.45.95A12.23,12.23,0,0,1,89.62,195.66ZM94.13,188l-.4.62a11.9,11.9,0,0,1-3.9-2.9,14.51,14.51,0,0,1-3.84,3l-.53-.56a11.58,11.58,0,0,0,4.31-3.52l.69.25a2,2,0,0,1-.23.33A11.21,11.21,0,0,0,94.13,188Zm-4.88,4.72h-2.9v-3.33h2.9Zm-.7-.67v-2h-1.5v2Zm3.21-3.67H87.85v-.69h3.91Zm2.2,8-.47.49a14.19,14.19,0,0,0-2-1.82,8.66,8.66,0,0,1-1.42,1.87l-.59-.4a9.41,9.41,0,0,0,2.1-3.5l.64.22a8.43,8.43,0,0,1-.47,1.22A14.67,14.67,0,0,1,94,196.38Zm-.78-3.64H90.3v-3.33h2.88Zm-.68-.67v-2H91v2Z" transform="translate(-24.53 -2.46)"/><path class="cls-20" d="M98.32,190.08l-.51.51a11.34,11.34,0,0,0-2.09-1.94l.48-.56A12.71,12.71,0,0,1,98.32,190.08Zm.09,2.31a24.59,24.59,0,0,1-2.09,4.53l-.55-.47a20.44,20.44,0,0,0,2-4.41Zm.39-5.92-.5.54a10.4,10.4,0,0,0-2.13-1.76l.4-.53A8.53,8.53,0,0,1,98.8,186.47Zm4.47,7.39h-2.79l.41.28a10.86,10.86,0,0,1-2,2.84l-.57-.47a9.71,9.71,0,0,0,1.89-2.65h-1V185h4Zm-.69-6.24v-1.94H100v1.94Zm0,2.73v-2H100v2Zm0,2.81V191H100v2.13Zm1,3.11-.6.36a8.64,8.64,0,0,0-1.38-2.2l.58-.39A9.22,9.22,0,0,1,103.63,196.27Zm1.64-1.86h-.7v-8.79h.7Zm2.25,1.52a.84.84,0,0,1-.36.81,2.83,2.83,0,0,1-1.3.2c-.35,0-.69,0-1,0l-.18-.7a15.27,15.27,0,0,0,2-.06c.14,0,.21-.18.21-.43v-11h.7Z" transform="translate(-24.53 -2.46)"/><path class="cls-20" d="M115.22,189.24h-4.13v7.61h-.71V185h4.84Zm-.73-2.48v-1h-3.4v1Zm0,1.81v-1.15h-3.4v1.15Zm5.44,4.7h-2.22v3.29H117v-3.29h-2.13a4.58,4.58,0,0,1-1.74,3.36l-.7-.4a4.22,4.22,0,0,0,1.72-3h-2.27v-.7h2.33V191h-1.85v-.67h7V191h-1.67v1.61h2.22Zm-2.94-.7V191h-2.06v1.61Zm4.38,3.25a.86.86,0,0,1-.33.79,2.27,2.27,0,0,1-1.19.22l-.78,0-.28-.74a11.89,11.89,0,0,0,1.54.06.28.28,0,0,0,.31-.31v-6.58h-4.09V185h4.82Zm-.73-9.06v-1h-3.35v1Zm0,1.81v-1.15h-3.35v1.15Z" transform="translate(-24.53 -2.46)"/><path class="cls-20" d="M129.29,187.82l-.72.12a18.53,18.53,0,0,1-1.11,5.46,15,15,0,0,1,1.56,1.41l-.43.56c-.6-.58-1.09-1-1.47-1.34a9.5,9.5,0,0,1-2.83,2.93l-.49-.55a8.65,8.65,0,0,0,2.76-2.84,22.69,22.69,0,0,0-2.39-1.75c.28-1,.56-2.19.84-3.46l-1.18,0,0-.71c.3,0,.75,0,1.36,0,.29-1.51.48-2.51.55-3l.71.1c-.11.74-.27,1.68-.5,2.81.73-.05,1.38-.12,2-.21a9.18,9.18,0,0,0,.06-1.15l.71,0a10.16,10.16,0,0,1,0,1l.67-.11Zm-1.44.23q-.87.15-2.07.24c-.21,1-.47,2.07-.77,3.26l1.88,1.35A14.25,14.25,0,0,0,127.85,188.05Zm8.26,2.07-.63.35a11.69,11.69,0,0,0-.55-1.14,55.07,55.07,0,0,1-5.71.74l-.15-.63a12.62,12.62,0,0,0,2.7-4.81l.7.19a12.18,12.18,0,0,1-2.32,4.45,42,42,0,0,0,4.42-.58,18.85,18.85,0,0,0-1.4-2l.6-.38A18,18,0,0,1,136.11,190.12Zm-.8,6.85h-.71v-.87h-4.3V197h-.73v-5.69h5.74Zm-.71-1.59V192h-4.3v3.39Z" transform="translate(-24.53 -2.46)"/><path class="cls-20" d="M150,187.56h-6.44a16.38,16.38,0,0,1-1.57,2.88h6.78V197H148v-1.11h-6V197h-.8v-5.51a19.1,19.1,0,0,1-3,2.59l-.58-.6a12.92,12.92,0,0,0,3.08-2.62,10.12,10.12,0,0,0,2-3.26h-4.78v-.74H143a17.74,17.74,0,0,0,.71-2.22l.73.16a14.12,14.12,0,0,1-.59,2.06H150Zm-2,7.5v-3.87h-6v3.87Z" transform="translate(-24.53 -2.46)"/><path class="cls-20" d="M155.7,195.79H155V195h-1.94v1.15h-.7V185.31h3.35Zm-.71-7.6V186h-1.94v2.18Zm0,3v-2.27h-1.94v2.27Zm0,3.13v-2.44h-1.94v2.44Zm8-3.81h-5.13V196a24.83,24.83,0,0,0,2.45-.91l.13.69a30.77,30.77,0,0,1-3.21,1.16l-.33-.65a.52.52,0,0,0,.28-.43v-10.8H163Zm-.71-3.05v-1.71h-4.42v1.71Zm0,2.37v-1.71h-4.42v1.71Zm1.63,6.67-.53.57a9.18,9.18,0,0,1-3.74-5.58l.67-.21a8.19,8.19,0,0,0,.69,1.89,12.23,12.23,0,0,0,2.08-1.79l.59.41a15.1,15.1,0,0,1-2.34,2A8.31,8.31,0,0,0,163.93,196.46Z" transform="translate(-24.53 -2.46)"/><path class="cls-20" d="M170.87,192.46l-.54.5a17.44,17.44,0,0,0-1.64-2.08v6H168v-5.27c-.36.4-.92.95-1.66,1.64l-.53-.51a12.88,12.88,0,0,0,3.78-4.77h-3.45v-.7h4.22v.7a17.4,17.4,0,0,1-1.29,2.32A13.12,13.12,0,0,1,170.87,192.46Zm-1.76-5.88-.69.28a10.12,10.12,0,0,0-1.16-1.85l.65-.34A8.89,8.89,0,0,1,169.11,186.58Zm8.87,7.79a4.31,4.31,0,0,1-.19,1.42,1.46,1.46,0,0,1-.49.73,1.92,1.92,0,0,1-1,.18c-.7,0-1.13-.11-1.31-.33a1.12,1.12,0,0,1-.26-.68v-3.3h-1.51a4.9,4.9,0,0,1-.52,2.26,4.35,4.35,0,0,1-1.37,1.66,3,3,0,0,1-1.08.61h0l-.45-.59a4,4,0,0,0,2.73-3.94h-1.33v-7.31h5.83v7.31H175.5v3.21c0,.27.28.41.84.41a.78.78,0,0,0,.68-.28,4,4,0,0,0,.28-1.6Zm-1.68-7.09v-1.51H172v1.51Zm0,2.17V188H172v1.48Zm0,2.24v-1.56H172v1.56Z" transform="translate(-24.53 -2.46)"/><path class="cls-20" d="M191.17,187.28c0,2.24,0,4.15-.13,5.7a14.37,14.37,0,0,1-.35,2.94,1.39,1.39,0,0,1-.63.82,4.48,4.48,0,0,1-1.73.22c-.38,0-.85,0-1.4,0l-.26-.78c.64,0,1.19.05,1.65.05a3,3,0,0,0,1.32-.16.94.94,0,0,0,.34-.51,21.35,21.35,0,0,0,.27-2.74q.17-2.37.18-4.74h-4.28a11.42,11.42,0,0,1-1.55,5.63,10.62,10.62,0,0,1-4,3.31l-.53-.67a8.9,8.9,0,0,0,2.58-1.58,7.39,7.39,0,0,0,1.81-2.41,12.46,12.46,0,0,0,.87-4.28h-4.89v-.76h4.94c.06-.85.08-1.71.08-2.61h.76c0,.74,0,1.6-.09,2.61Z" transform="translate(-24.53 -2.46)"/><path class="cls-20" d="M204.7,196.92h-.76v-1h-8.09v1h-.76V186.29h3.85a6.55,6.55,0,0,0,.76-1.69l.74.18a9.89,9.89,0,0,1-.68,1.51h4.94Zm-.76-7.82V187h-8.09v2.06Zm0,3v-2.21h-8.09v2.21Zm0,3.16v-2.43h-8.09v2.43Z" transform="translate(-24.53 -2.46)"/><path class="cls-20" d="M211.92,190.71l-.5.56a12.43,12.43,0,0,0-1.19-1.66v7.29h-.71v-7a15.29,15.29,0,0,1-1.36,3.2l-.52-.53a15.74,15.74,0,0,0,1.82-4.8H207.8v-.64h1.72v-2.39h.71v2.39h1.2v.64h-1.2v.9A14.73,14.73,0,0,1,211.92,190.71Zm3.7,4.95-.46.51a12.6,12.6,0,0,0-1.59-1.33,9.48,9.48,0,0,1-1.8,2.16l-.52-.51a8.77,8.77,0,0,0,2.43-3.46l.65.27-.45.95A12.23,12.23,0,0,1,215.62,195.66Zm4.51-7.64-.4.62a11.9,11.9,0,0,1-3.9-2.9,14.51,14.51,0,0,1-3.84,3l-.53-.56a11.58,11.58,0,0,0,4.31-3.52l.69.25a2,2,0,0,1-.23.33A11.21,11.21,0,0,0,220.13,188Zm-4.88,4.72h-2.9v-3.33h2.9Zm-.7-.67v-2h-1.5v2Zm3.21-3.67h-3.91v-.69h3.91Zm2.2,8-.47.49a14.19,14.19,0,0,0-2-1.82,8.66,8.66,0,0,1-1.42,1.87l-.59-.4a9.41,9.41,0,0,0,2.1-3.5l.64.22a8.43,8.43,0,0,1-.47,1.22A14.67,14.67,0,0,1,220,196.38Zm-.78-3.64H216.3v-3.33h2.88Zm-.68-.67v-2H217v2Z" transform="translate(-24.53 -2.46)"/></g></g><g id="線上檢測輕鬆做_及早做好孩子的視力管理_" data-name="線上檢測輕鬆做 及早做好孩子的視力管理 " class="cls-1"><g class="cls-1"><path class="cls-20" d="M97.46,173.79l-.49,1.6c-3.56,0-6,0-7.37,0a10.23,10.23,0,0,1-3.22-.52,6.59,6.59,0,0,1-2.06-1.19,18,18,0,0,1-1.62,2.07l-1.24-1a10.14,10.14,0,0,0,2.93-5H81.78v-1.48a32.64,32.64,0,0,0,2.27-3.12H81.58v-1.51H86v1.51c-.48.78-1.22,1.82-2.19,3.12H86v1.48a16,16,0,0,1-.93,2.65,5.16,5.16,0,0,0,1.62,1,5.7,5.7,0,0,0,1.68.45c.52.06,1.63.09,3.32.09C93.81,173.93,95.73,173.88,97.46,173.79ZM85.85,162l-1.17,1.08A12.52,12.52,0,0,0,82,160.84L83,159.73A14.45,14.45,0,0,1,85.85,162Zm11,.62H88.43v4.5a12.54,12.54,0,0,1-1.2,6l-1.33-1a11.32,11.32,0,0,0,1-5v-6h4.21a5.22,5.22,0,0,0-.47-1.19l1.76-.2a9.28,9.28,0,0,1,.48,1.39h3.93Zm-6.37,7.27a13.51,13.51,0,0,1-1.18,3.58L88,172.78a11.86,11.86,0,0,0,1.13-3.32ZM97,165.94H95.59v2.93H90v-2.93H88.89v-1.51H90v-1.34h1.52v1.34H94v-1.34h1.58v1.34H97Zm-4.57,7.32-1.52.11c0-.49,0-.94,0-1.36a18.52,18.52,0,0,0-.11-2l1.34-.14A22.38,22.38,0,0,1,92.44,173.26ZM94,167.4v-1.46H91.56v1.46Zm.86,5.72-1.53.18a16.81,16.81,0,0,0-.6-3.27l1.39-.28A24.12,24.12,0,0,1,94.87,173.12Zm2.43-.26-1.48.44a15.93,15.93,0,0,0-1.15-3.41l1.37-.48A20.61,20.61,0,0,1,97.3,172.86Z" transform="translate(-24.53 -2.46)"/><path class="cls-20" d="M108.48,160.14c-.19.57-.49,1.31-.89,2.22l-.59,1.33v11.87h-1.64v-9a9.9,9.9,0,0,1-1.19,1.59l-.86-1.73a23,23,0,0,0,3.63-6.69Zm10.63,15.23H107.72v-1.55h4.88v-4h-4.18v-1.54h4.18v-3.59H108v-1.55h4.58a14.29,14.29,0,0,0-1-2.9l1.64-.44a18.73,18.73,0,0,1,1.09,3.34H119v1.55h-4.68v3.59h4.23v1.54h-4.23v4h4.84Z" transform="translate(-24.53 -2.46)"/><path class="cls-20" d="M141.16,175.17H127.54V173.6h6v-4.53h-3.8a17,17,0,0,1-3.38,4.3l-1.1-1.33a17,17,0,0,0,4.73-7.9H125.7v-1.58h4.74a19.4,19.4,0,0,0,.52-2.85l1.69.22c-.1.65-.26,1.53-.5,2.63H141v1.58h-9.2a34.31,34.31,0,0,1-1.22,3.36h9.58v1.57h-4.91v4.53h5.93Z" transform="translate(-24.53 -2.46)"/><path class="cls-20" d="M152.66,174.41h-1.53v-.86h-1.7v1.26h-1.57V160.7h4.8Zm-1.53-10v-2.2h-1.7v2.2Zm0,3.72v-2.29h-1.7v2.29Zm0,3.94v-2.48h-1.7v2.48ZM162,167.75h-6.34v5.82a15.83,15.83,0,0,0,2.54-1l.18,1.56a39.27,39.27,0,0,1-4.27,1.49l-.41-1.42a.84.84,0,0,0,.38-.74V160.32H162Zm-1.6-4.44v-1.53h-4.74v1.53Zm0,3v-1.57h-4.74v1.57Zm2.84,8.25-1.06,1.18a10.35,10.35,0,0,1-5-7.09l1.53-.33a9.84,9.84,0,0,0,.76,2.32,11.4,11.4,0,0,0,2.27-2.28l1.19,1a12.82,12.82,0,0,1-2.69,2.54A10.64,10.64,0,0,0,163.25,174.53Z" transform="translate(-24.53 -2.46)"/></g></g></svg>