<svg id="圖層_1" data-name="圖層 1" xmlns="http://www.w3.org/2000/svg" viewBox="0 0 30.64 29.25"><defs><style>.cls-1{fill:none;stroke:#2ca6e0;stroke-miterlimit:10;stroke-width:1px;}.cls-2{fill:#2ca6e0;}</style></defs><title>Icon01</title><path class="cls-1" d="M30.92,14.16c0-6.63-6.65-12-14.82-12S1.28,7.53,1.28,14.16c0,5.95,5.27,10.93,12.39,11.87.49.1,1.14.32,1.31.73a3,3,0,0,1,0,1.34s-.18,1-.21,1.27-.3,1.46,1.28.8,8.53-5,11.64-8.61h0a10.68,10.68,0,0,0,3.18-7.4" transform="translate(-0.78 -1.64)"/><path class="cls-2" d="M13,11h-1a.29.29,0,0,0-.29.29V17.7a.29.29,0,0,0,.29.29h1a.29.29,0,0,0,.29-.29V11.25A.29.29,0,0,0,13,11" transform="translate(-0.78 -1.64)"/><path class="cls-2" d="M20.14,11h-1a.29.29,0,0,0-.29.29v3.83l-3-4,0,0h0l0,0h0l0,0H14.57a.29.29,0,0,0-.29.29V17.7a.29.29,0,0,0,.29.29h1a.29.29,0,0,0,.29-.29V13.87l3,4,.07.07h0l0,0h1.18a.29.29,0,0,0,.29-.29V11.25a.29.29,0,0,0-.29-.29" transform="translate(-0.78 -1.64)"/><path class="cls-2" d="M10.48,16.38H7.65V11.25A.29.29,0,0,0,7.36,11h-1a.29.29,0,0,0-.29.29V17.7H6a.29.29,0,0,0,.09.2h0a.32.32,0,0,0,.2.08h4.16a.28.28,0,0,0,.28-.29v-1a.28.28,0,0,0-.28-.28" transform="translate(-0.78 -1.64)"/><path class="cls-2" d="M25.88,12.58a.29.29,0,0,0,.29-.29v-1a.29.29,0,0,0-.29-.29H21.72a.32.32,0,0,0-.2.08h0a.28.28,0,0,0-.08.2h0V17.7h0a.28.28,0,0,0,.08.2h0a.27.27,0,0,0,.19.08h4.16a.29.29,0,0,0,.29-.29v-1a.29.29,0,0,0-.29-.28H23.05v-1.1h2.83a.28.28,0,0,0,.29-.28V14a.29.29,0,0,0-.29-.29H23.05V12.58Z" transform="translate(-0.78 -1.64)"/></svg>