<svg id="圖層_1" data-name="圖層 1" xmlns="http://www.w3.org/2000/svg" viewBox="0 0 22.72 31.29"><defs><style>.cls-1{fill:none;stroke:#2ca6e0;stroke-miterlimit:10;stroke-width:1.09px;}</style></defs><title>Icon02</title><path class="cls-1" d="M26.7,9.82a10.55,10.55,0,0,0-3.07-5.6,10.93,10.93,0,0,0-6.41-3,10.64,10.64,0,0,0-6.83,1.57A10.48,10.48,0,0,0,7.68,5.18a10.85,10.85,0,0,0-2,9.6,16.69,16.69,0,0,0,1.4,3.28C9.3,22.45,13.22,28.5,14.8,31a.89.89,0,0,0,1.46,0c2-2.74,7.44-10.15,9.24-13.61A11.17,11.17,0,0,0,26.7,9.82ZM16.09,18.46A6.49,6.49,0,1,1,22.58,12,6.49,6.49,0,0,1,16.09,18.46Z" transform="translate(-4.74 -0.61)"/></svg>