<svg id="圖層_1" data-name="圖層 1" xmlns="http://www.w3.org/2000/svg" viewBox="0 0 107.47 19.8"><defs><style>.cls-1,.cls-3{fill:#009cdb;}.cls-1{fill-rule:evenodd;}.cls-2{fill:#fff;}</style></defs><title>Logo</title><path class="cls-1" d="M20.4,10a9.9,9.9,0,1,0-9.9,9.9A9.9,9.9,0,0,0,20.4,10" transform="translate(-0.6 -0.1)"/><path class="cls-2" d="M11.89,14.11A5.13,5.13,0,0,1,8,12.33v0A6.43,6.43,0,0,0,13.15,9.7v0a3.55,3.55,0,0,0-4.7-5.17l-.05,0A6.27,6.27,0,0,0,6.3,12.75l0,.06a6.08,6.08,0,0,0,5.56,2.89,7,7,0,0,0,2-.38l.33-1.67,0-.09a5.07,5.07,0,0,1-2.3.55M7.42,10.73c0-.22,0-.43,0-.65A5.36,5.36,0,0,1,9,6.23l.05,0A1.85,1.85,0,0,1,11.77,8.7l0,.05-.07.07-.05.06L11.55,9a5.57,5.57,0,0,1-4.08,1.77Z" transform="translate(-0.6 -0.1)"/><path class="cls-3" d="M37.29,7.65a14.56,14.56,0,0,0,2.14,5.08,15.42,15.42,0,0,0,4.64,4.6l-1.53,1.82q-5.35-3.51-7.34-11.5h-.32a17.24,17.24,0,0,1-8,11.54l-1.51-1.88a16.16,16.16,0,0,0,4.84-4.23A12.25,12.25,0,0,0,32.7,7.67H25.86V5.56H33a37.4,37.4,0,0,0,.26-5h2.08c0,2.28-.05,3.94-.16,5h8.41V7.67Z" transform="translate(-0.6 -0.1)"/><path class="cls-3" d="M61.51,11.36V12.8a24.25,24.25,0,0,1-4.3,1.73h8.23v1.61H57.21V17c0,1.42-.6,2.13-1.81,2.13H52.49L52,17.47l2.72.08a.52.52,0,0,0,.59-.6v-.81H46.73V14.53h8.61v-.85a33.39,33.39,0,0,0,3.48-.85H50.46V11.36Zm1.77-.86H49v2.92H47.19V8.94h1L48,1.32A18.59,18.59,0,0,0,52.33.74l.87,1.47a15.31,15.31,0,0,1-3.53.54l.06,1h3.09V5.11h-3l0,1.13h3V7.61h-3l0,1.33H62.31l0-1.33H59.55V6.24h2.84l0-1.13H59.55V3.76h2.92l0-1.09H59.33V1.1h4.9L64,8.94h1.06v4.48H63.28ZM56.4,3.36a16.77,16.77,0,0,1-2.33,1.21l-1-1.33a8.32,8.32,0,0,0,2.19-.81A15,15,0,0,0,53.9,1.5L55,.56c.51.33,1,.7,1.56,1.09A4.83,4.83,0,0,0,57.75.58l1,.9a4.51,4.51,0,0,1-1.17,1.07q.39.36,1,1.05l-1.21.89c-.53-.75-.87-1.13-1-1.13m.11,4.07a9.3,9.3,0,0,1-2.32,1.11l-.85-1.33A7.34,7.34,0,0,0,55.4,6.5c-.26-.2-.7-.52-1.33-1l1-.87c.25.17.48.32.69.44s.53.37.83.61A6.8,6.8,0,0,0,58,4.49l1,.89a13.16,13.16,0,0,1-1.34,1.2c.38.33.76.68,1.13,1l-1.27,1c-.61-.78-1-1.17-1.06-1.17" transform="translate(-0.6 -0.1)"/><path class="cls-3" d="M74.57,1.54V18.3H72.81V17.13H70.53v1.61H68.76V1.54ZM72.81,3.12H70.53v3h2.28ZM70.53,10.7h2.28V7.57H70.53Zm0,4.84h2.28V12.25H70.53Zm15-14.08v9h-4a8.83,8.83,0,0,0,.93,2.82,11.37,11.37,0,0,0,2.32-2.26l1.35,1.19a20.81,20.81,0,0,1-2.78,2.52c0,.13.34.5,1,1.09a15.3,15.3,0,0,0,2.37,1.69l-1.37,1.64a11.33,11.33,0,0,1-5.62-8.69H78v6c1.12-.37,2-.69,2.71-1l.18,1.71A43.9,43.9,0,0,1,75.53,19l-.7-1.75,1.27-.32V1.46ZM78,5.07h5.71v-2H78Zm0,3.81h5.71V6.64H78Z" transform="translate(-0.6 -0.1)"/><path class="cls-3" d="M93.19,3.44a28.14,28.14,0,0,1-3.08.34L89.7,2.11A24.74,24.74,0,0,0,97.33.68L98,2.31a22.7,22.7,0,0,1-3,.81v2.8h3V7.63H95v.18q2.22,2.06,3.36,3.29l-1.12,1.71a18.07,18.07,0,0,0-1.18-1.51c-.35-.41-.7-.86-1.06-1.33v9.2l-1.82.08V11.1a19.55,19.55,0,0,1-2.7,4.44l-1.11-1.78a20.06,20.06,0,0,0,3.75-6.13H89.5V5.92h3.69Zm4.6,11.37V13l6.65-1V.56h1.84V11.75l1.79-.29v1.8l-1.79.3v5.69h-1.84V13.8Zm4.31-4a29.41,29.41,0,0,0-3.61-2.64l1.17-1.33a27.64,27.64,0,0,1,3.67,2.44ZM102.45,6a37.21,37.21,0,0,0-3.57-2.6l1.19-1.31a40.53,40.53,0,0,1,3.63,2.42Z" transform="translate(-0.6 -0.1)"/></svg>