<svg id="圖層_1" data-name="圖層 1" xmlns="http://www.w3.org/2000/svg" viewBox="0 0 321.14 276.44"><defs><style>.cls-1{fill:#fff;}.cls-2{isolation:isolate;}.cls-3{fill:#2ca6e0;}.cls-4{fill:#717070;}.cls-5{fill:#c5e4f6;}.cls-6{fill:#036eb7;}.cls-7,.cls-8{fill:none;stroke-miterlimit:10;}.cls-7{stroke:#fff;stroke-width:1.21px;}.cls-8{stroke:#eeeeef;stroke-width:0.87px;}</style></defs><title>visiontable</title><rect class="cls-1" x="159.74" y="22.54" width="159.74" height="56" rx="8"/><g id="視力自檢"><g class="cls-2"><path class="cls-3" d="M19.66,17.77l-.54.7a19.17,19.17,0,0,1-6.51-4.26,23.92,23.92,0,0,1-6.48,4.28l-.53-.72a19.28,19.28,0,0,0,7-4.78l.82.32a1,1,0,0,1-.24.35A18.92,18.92,0,0,0,19.66,17.77Zm-2,9.41H16.8V26.12H8.44v1.06H7.57V20.82H17.65Zm-.85-1.9V21.67H8.44v3.61Zm0-6.68H8.48v-.85h8.29Z" transform="translate(-5.09 -12.99)"/><path class="cls-3" d="M26.73,19.52l-.6.58A7.52,7.52,0,0,0,25,18.44V27.1h-.81V19.18a16.71,16.71,0,0,1-2.08,3.63l-.56-.71a15.75,15.75,0,0,0,2.58-4.84H22v-.82h2.23V13.16H25v3.28h1.62v.82H25v.09A10.52,10.52,0,0,1,26.73,19.52Zm9,.65-.51.74a20,20,0,0,1-4-2,17.82,17.82,0,0,1-4.16,2l-.47-.7a16.31,16.31,0,0,0,3.91-1.83,7.89,7.89,0,0,1-1.74-2c-.37.31-.72.59-1.06.83L27,16.64A10.81,10.81,0,0,0,30.53,13l.83.26a6.2,6.2,0,0,1-.78,1.16h4.11v.79A13.57,13.57,0,0,1,32,18.42,15.92,15.92,0,0,0,35.71,20.17ZM34.5,27.1h-.82v-.69H28.76v.69h-.84V21.23H34.5Zm-.82-1.5V22.07H28.76V25.6Zm0-10.39H30a7.38,7.38,0,0,1-.56.61,7,7,0,0,0,1.86,2.08A9.86,9.86,0,0,0,33.68,15.21Z" transform="translate(-5.09 -12.99)"/><path class="cls-3" d="M42.58,20.15,42,20.7a10.67,10.67,0,0,0-1.26-2.1v8.54h-.82V19.37a23.42,23.42,0,0,1-1.72,3.34L37.57,22a17.17,17.17,0,0,0,2.23-4.83h-2v-.79h2.1V13.16h.82v3.26H42.3v.79H40.69v.19A15.27,15.27,0,0,1,42.58,20.15Zm3,4.13a14.08,14.08,0,0,1-2.85,2.53l-.56-.64A12.23,12.23,0,0,0,45,23.74Zm6-1.42H47.46v4.28h-.84V22.86H42.4v-.77h9.19Zm0-8.59H48.62v1.21h2.45V19H42.94V15.48h2.42V14.27H42.5v-.79h9ZM51,20.85H43.07v-.76H51Zm-5.65-2.63v-2H43.77v2Zm2.45-2.74V14.27H46.18v1.21Zm0,2.74v-2H46.18v2Zm3.84,8-.6.57a16.91,16.91,0,0,0-2.63-2.43l.56-.58A23.52,23.52,0,0,1,51.65,26.22Zm-1.38-10H48.62v2h1.65Z" transform="translate(-5.09 -12.99)"/><path class="cls-3" d="M67.62,24.49H61.05v2.72h-.82V24.49H53.69v-.8h6.54V22.21H58.66V17a15.56,15.56,0,0,1-1.22,1.28l-.51-.68a12.31,12.31,0,0,0,3-4.44l.79.26A17.31,17.31,0,0,1,60,15.05h3.12a6,6,0,0,0-.7-1.62l.77-.23a9.38,9.38,0,0,1,.78,1.85h3.3v.77H63.51v1.32h3.11v.78H63.51v1.33h3.11V20H63.51V21.4h3.92v.81H61.05v1.48h6.57ZM56.67,18l-.49.65a10.26,10.26,0,0,0-2.47-1.32l.47-.69A11,11,0,0,1,56.67,18Zm.92,1.9a12.16,12.16,0,0,1-3.33,3.07l-.48-.65a13,13,0,0,0,3.24-3Zm.1-4.85-.47.69a12.51,12.51,0,0,0-2.6-1.76l.5-.65A12.55,12.55,0,0,1,57.69,15Zm5,2.14V15.82h-3.2v1.32Zm0,2.11V17.92h-3.2v1.33Zm0,2.15V20h-3.2V21.4Z" transform="translate(-5.09 -12.99)"/><path class="cls-3" d="M83.75,21.32l-.36.78a14.25,14.25,0,0,1-6.78-2.55A18.58,18.58,0,0,1,70.13,22l-.56-.76a16.35,16.35,0,0,0,7.12-2.77l.67.2-.16-.46a7.23,7.23,0,0,0,2-2.32l.75.28a9.19,9.19,0,0,1-1.33,1.85c1.33-.12,2.41-.24,3.25-.39a4,4,0,0,0-.72-.88l.66-.46a12.35,12.35,0,0,1,1.7,2.34l-.71.46a7,7,0,0,0-.45-.8c-1.95.27-3.56.46-4.83.58a.63.63,0,0,1-.18.14A14.75,14.75,0,0,0,83.75,21.32Zm-7.65-3-.66.5a2.77,2.77,0,0,0-.28-.4c-1.11.26-2.77.53-5,.83l-.22-.69a10.42,10.42,0,0,0,2.29-2.42l.86.18a9.26,9.26,0,0,1-1.68,2c.88-.11,2-.28,3.25-.5a2.62,2.62,0,0,0-.66-.71l.62-.51A8.6,8.6,0,0,1,76.1,18.32ZM82,23.37q-3.54,3.36-10.13,3.84l-.53-.82q6.24-.24,9.91-3.42ZM77.68,21.1a13.76,13.76,0,0,1-5.79,2.36l-.5-.73a13.26,13.26,0,0,0,5.51-2.09Zm2.1,1.18a16.66,16.66,0,0,1-7.83,3l-.49-.78A14.41,14.41,0,0,0,79,21.82ZM81,15.46l-.69.49a2.27,2.27,0,0,0-.6-.67q-2.67.41-6.79.68l-.19-.7a11,11,0,0,0,2.92-2.16l1,.19a10.14,10.14,0,0,1-2.14,1.81c1.75-.11,3.31-.26,4.69-.45a3.75,3.75,0,0,0-.77-.73l.6-.52A10.86,10.86,0,0,1,81,15.46Z" transform="translate(-5.09 -12.99)"/><path class="cls-3" d="M99.55,18.36H94.67a27.13,27.13,0,0,1-2.9,1.78h6.67V21H91.81l-.53,1.92h7.14A9.78,9.78,0,0,1,97.68,26a1.85,1.85,0,0,1-1.21.95,15.49,15.49,0,0,1-3,.18c-.59,0-1.21,0-1.84-.05l-.35-.84c1.08,0,2,.06,2.86.06a9.67,9.67,0,0,0,2.14-.13,1.16,1.16,0,0,0,.65-.61,6.66,6.66,0,0,0,.48-1.88h-7.3l.91-3.24q-3.13,1.43-5,2.07l-.49-.74a33.81,33.81,0,0,0,7.63-3.44H86v-.84h5.24v-2.1H87.16V14.6h4.11V13.16h.85V14.6H96v.82h-3.9v2.1H94.4a21.7,21.7,0,0,0,4-3.86l.64.53a25.35,25.35,0,0,1-3.29,3.33h3.75Z" transform="translate(-5.09 -12.99)"/><path class="cls-3" d="M110.23,16.46h-1.08v1.83h-2.77v.95h2.78v2.45h-2.82a12.23,12.23,0,0,1-.82,1.2h2a4,4,0,0,0,.23-.57l.8.19a1.52,1.52,0,0,1-.11.38h1.69v.71h-2a5.41,5.41,0,0,1-1.45,1.79c.91.41,1.68.8,2.3,1.14l-.52.6a22.48,22.48,0,0,0-2.51-1.21,9.51,9.51,0,0,1-3.8,1.21l-.3-.76a9.86,9.86,0,0,0,3.17-.84,22.35,22.35,0,0,0-2.13-.78c.28-.3.62-.68,1-1.15h-2.21v-.71h2.83c.32-.42.61-.82.86-1.2h-2.56V19.24h2.81v-.95h-2.81V16.46h-1.13v-.74h1.13V14h2.81v-.86h.79V14h2.77v1.69h1.08Zm-4.64-.74v-1h-2v1Zm0,1.85V16.46h-2v1.11Zm0,3.39V20h-2v1Zm1.5,2.64h-2.15l-.71.85c.46.14,1,.32,1.53.55A4.17,4.17,0,0,0,107.09,23.6Zm1.27-7.88v-1h-2v1Zm0,1.85V16.46h-2v1.11Zm0,3.39V20h-2v1Zm7.22-4.45h-.74a17.37,17.37,0,0,1-1.68,7.74,9,9,0,0,0,2.39,2.28l-.47.66a8.3,8.3,0,0,1-2.46-2.27,12.38,12.38,0,0,1-2.75,2.27l-.48-.66a12,12,0,0,0,2.75-2.3,12.94,12.94,0,0,1-1.34-4.48l.75-.26a13.73,13.73,0,0,0,1.13,4,10,10,0,0,0,1.06-3.29,32.77,32.77,0,0,0,.33-3.66h-2.18a12.38,12.38,0,0,1-1.73,3.16l-.64-.47A15.7,15.7,0,0,0,112,13.1l.78.15a19.68,19.68,0,0,1-.62,2.47h3.44Z" transform="translate(-5.09 -12.99)"/><path class="cls-3" d="M121.68,13.35l-1.06,2.42V27.11h-.82V17.4a22,22,0,0,1-1.86,2.81l-.45-.82a23.17,23.17,0,0,0,3.41-6.34Zm9.92,13.4H121.33v-.82h1.4V16.85h2.71a9.1,9.1,0,0,0,.48-1.45h-4v-.8h4.24c.11-.43.21-.94.3-1.52l.85.08a11.63,11.63,0,0,1-.31,1.43h4.26v.81H126.8c-.12.42-.28.9-.48,1.45h3.87v9.08h1.41Zm-2.24-7.7V17.63h-5.77v1.42Zm0,2.21V19.82h-5.77v1.44Zm0,2.24V22h-5.77V23.5Zm0,2.43V24.28h-5.77v1.65Z" transform="translate(-5.09 -12.99)"/></g></g><g id="視力自檢-2" data-name="視力自檢"><g class="cls-2"><path class="cls-3" d="M11.62,130.64l-.57.64a14.37,14.37,0,0,0-1.36-1.89v8.32h-.8v-8a18.69,18.69,0,0,1-1.57,3.67l-.59-.61a18,18,0,0,0,2.08-5.49H6.92v-.73h2v-2.74h.8v2.74h1.37v.73H9.69v1A17.43,17.43,0,0,1,11.62,130.64Zm4.23,5.67-.53.57a15.37,15.37,0,0,0-1.81-1.52,10.49,10.49,0,0,1-2.06,2.47l-.6-.58a10.14,10.14,0,0,0,2.79-3.95l.74.3-.52,1.09A13.61,13.61,0,0,1,15.85,136.31ZM21,127.57l-.45.7A13.49,13.49,0,0,1,16.09,125a16.49,16.49,0,0,1-4.38,3.39l-.61-.64a13.43,13.43,0,0,0,4.93-4l.78.29a1.84,1.84,0,0,1-.26.36A12.65,12.65,0,0,0,21,127.57ZM15.43,133H12.12v-3.8h3.31Zm-.8-.76v-2.28H12.92v2.28Zm3.66-4.2H13.83v-.78h4.46Zm2.52,9.13-.53.55A16.37,16.37,0,0,0,18,135.6a10.09,10.09,0,0,1-1.61,2.14l-.67-.46a10.7,10.7,0,0,0,2.39-4l.74.26a10.89,10.89,0,0,1-.55,1.39A15.68,15.68,0,0,1,20.81,137.13ZM19.92,133H16.63v-3.8h3.29Zm-.78-.76v-2.28H17.42v2.28Z" transform="translate(-5.09 -12.99)"/><path class="cls-3" d="M25.8,129.92l-.59.58a13.31,13.31,0,0,0-2.39-2.21l.55-.64A15.82,15.82,0,0,1,25.8,129.92Zm.09,2.64a27.21,27.21,0,0,1-2.38,5.18l-.62-.54a23.67,23.67,0,0,0,2.27-5Zm.46-6.76-.58.62a12.2,12.2,0,0,0-2.43-2l.46-.6A9.84,9.84,0,0,1,26.35,125.8Zm5.1,8.44H28.26l.47.32a12.35,12.35,0,0,1-2.26,3.25l-.66-.54a10.75,10.75,0,0,0,2.16-3H26.85V124.12h4.6Zm-.78-7.13V124.9h-3v2.21Zm0,3.12v-2.32h-3v2.32Zm0,3.22V131h-3v2.44ZM31.86,137l-.69.42a9.34,9.34,0,0,0-1.57-2.51l.66-.45A10.27,10.27,0,0,1,31.86,137Zm1.88-2.12h-.81V124.82h.81Zm2.57,1.74a1,1,0,0,1-.41.93,3.41,3.41,0,0,1-1.49.23c-.4,0-.79,0-1.19,0l-.2-.8a16.51,16.51,0,0,0,2.25-.07c.16-.05.24-.21.24-.49V123.8h.8Z" transform="translate(-5.09 -12.99)"/><path class="cls-3" d="M40.58,134a13.52,13.52,0,0,1-1,3.65l-.78-.41a11.3,11.3,0,0,0,1-3.43Zm4.21-1-.73.38a4.47,4.47,0,0,0-.32-.93,42.12,42.12,0,0,1-4.6.9l-.22-.78a13.56,13.56,0,0,0,3.18-3.3c-1.24.14-2.19.23-2.85.26l-.15-.72A15.81,15.81,0,0,0,42,123.83l.73.32a17.27,17.27,0,0,1-2.38,4.38,22.77,22.77,0,0,0,2.32-.19c.37-.58.68-1.15,1-1.7l.74.4a19,19,0,0,1-3.88,5.22,25.32,25.32,0,0,0,2.89-.61,4.81,4.81,0,0,0-.46-.9l.74-.35A11.94,11.94,0,0,1,44.79,132.93Zm-2.15,4.23-.89.12a17.66,17.66,0,0,0-.29-3.25l.77-.18A15.13,15.13,0,0,1,42.64,137.16Zm2.15-.69-.78.3a15.92,15.92,0,0,0-.79-2.75l.7-.31A11.18,11.18,0,0,1,44.79,136.47Zm8-9.7H49.06v2.45h3.17V130h-7v-.78h3.07v-2.45H44.74V126h3.52v-2.19h.8V126h3.68Zm-.93,11H51v-.91H46.42v.91H45.6v-5.87h6.21ZM51,136v-3.34H46.42V136Z" transform="translate(-5.09 -12.99)"/><path class="cls-3" d="M68.85,136.4l-.39.73a14.14,14.14,0,0,1-3.33-1.89,15,15,0,0,1-2.84-2.66v5.16h-.83v-5.18a16.65,16.65,0,0,1-6.16,4.5l-.57-.74a15.23,15.23,0,0,0,5.88-4H54.9v-.8h6.56V130H56.39v-5.84h11V130H62.29v1.53h6.49v.8H63.14A13.8,13.8,0,0,0,68.85,136.4Zm-7.39-9.77V125H57.22v1.65Zm0,2.54v-1.75H57.22v1.75Zm5-2.54V125h-4.2v1.65Zm0,2.54v-1.75h-4.2v1.75Z" transform="translate(-5.09 -12.99)"/><path class="cls-3" d="M76.15,126.27H71l0-.81h2.4a9.93,9.93,0,0,0-.65-1.52l.79-.24a13.85,13.85,0,0,1,.77,1.76h1.92Zm-.41,2.33H71.32v-.84h4.42Zm0,2.19H71.32V130h4.42Zm-.15,6.57h-.85v-.83H72.28v1.21h-.86v-5.32h4.17Zm-.85-1.66v-2.45H72.28v2.45Zm10.1-1.49a6.68,6.68,0,0,1-.43,2.78,1.26,1.26,0,0,1-1.13.55H82a.9.9,0,0,1-.65-.3,1,1,0,0,1-.29-.69v-4.87H79.56a6.88,6.88,0,0,1-3,6.23l-.66-.61A5.33,5.33,0,0,0,78.06,135a6.91,6.91,0,0,0,.7-3.27H77.17v-4.26h6.49v4.26H81.89v4.76c0,.05,0,.1.12.17a.32.32,0,0,0,.2.09h1.06c.3,0,.49-.18.55-.56A20.73,20.73,0,0,0,84,134Zm-5.13-10a13.39,13.39,0,0,1-3,3.14l-.69-.63a11.23,11.23,0,0,0,3-3Zm3.08,6.55v-2.47H78v2.47Zm2.06-4.1-.65.62a16.42,16.42,0,0,0-3.09-2.91l.58-.62A25,25,0,0,1,84.85,126.69Z" transform="translate(-5.09 -12.99)"/><path class="cls-3" d="M92.17,135.51h-.83v-1.07H88.21v1.47h-.82V124.42h4.78Zm-.83-6.59v-3.68H88.21v3.68Zm0,4.7v-3.88H88.21v3.88Zm9,2.83a1.35,1.35,0,0,1-.25.81,1.13,1.13,0,0,1-.63.43,13.51,13.51,0,0,1-2.37.05l-.35-.81c.36,0,.76,0,1.18,0a5.63,5.63,0,0,0,1.43-.09.35.35,0,0,0,.17-.33v-3.9H94.76A12.18,12.18,0,0,1,93,137.8l-.76-.49q1.83-2.53,1.83-7.5v-5.69h6.22Zm-.82-4.64v-3.15H95c0,1.08,0,2.13-.1,3.15Zm0-4v-2.94H95v2.94Z" transform="translate(-5.09 -12.99)"/></g></g><path class="cls-1" d="M8,22.54H159.74a0,0,0,0,1,0,0v56a0,0,0,0,1,0,0H8a8,8,0,0,1-8-8v-40a8,8,0,0,1,8-8Z"/><rect class="cls-1" y="135.15" width="321.14" height="141.29" rx="10"/><g id="視力自檢-3" data-name="視力自檢"><g class="cls-2"><path class="cls-4" d="M107.14,50.44a8.11,8.11,0,0,1,.91-4.25,2.94,2.94,0,0,1,2.64-1.44q3.3,0,3.3,5.43a7.6,7.6,0,0,1-.91,4.07,2.92,2.92,0,0,1-2.63,1.44A2.71,2.71,0,0,1,108,54.31,7.36,7.36,0,0,1,107.14,50.44Zm1.16-.07q0,4.35,2.27,4.35t2.25-4.41c0-3.06-.73-4.58-2.19-4.58S108.3,47.28,108.3,50.37Z" transform="translate(-5.09 -12.99)"/><path class="cls-4" d="M116.83,54.88a.82.82,0,0,1,.8-.81.76.76,0,0,1,.56.24.81.81,0,0,1,.23.57.82.82,0,0,1-.79.8.8.8,0,0,1-.56-.23A.75.75,0,0,1,116.83,54.88Z" transform="translate(-5.09 -12.99)"/><path class="cls-4" d="M127.5,46.14a3.76,3.76,0,0,0-1.73-.41A2.6,2.6,0,0,0,123.48,47a6.14,6.14,0,0,0-.84,3.42h0a2.49,2.49,0,0,1,2.42-1.52,2.87,2.87,0,0,1,2.22.91,3.37,3.37,0,0,1,.83,2.37,3.54,3.54,0,0,1-.93,2.51,3.09,3.09,0,0,1-2.38,1,2.85,2.85,0,0,1-2.52-1.29,6.33,6.33,0,0,1-.86-3.53,7.93,7.93,0,0,1,1.13-4.41,3.57,3.57,0,0,1,3.16-1.71,4,4,0,0,1,1.75.31Zm-4.78,5.91a3,3,0,0,0,.6,1.9,2,2,0,0,0,3.08.09,2.6,2.6,0,0,0,.57-1.72,2.67,2.67,0,0,0-.56-1.8,2,2,0,0,0-1.54-.64,2.06,2.06,0,0,0-1.52.63A2.09,2.09,0,0,0,122.72,52.05Z" transform="translate(-5.09 -12.99)"/></g></g><g id="視力自檢-4" data-name="視力自檢"><g class="cls-2"><path class="cls-4" d="M107.14,78.13a8.07,8.07,0,0,1,.91-4.24,2.93,2.93,0,0,1,2.64-1.45q3.3,0,3.3,5.43a7.62,7.62,0,0,1-.91,4.08,2.92,2.92,0,0,1-2.63,1.44A2.71,2.71,0,0,1,108,82,7.4,7.4,0,0,1,107.14,78.13Zm1.16-.06q0,4.35,2.27,4.35T112.82,78q0-4.59-2.19-4.59T108.3,78.07Z" transform="translate(-5.09 -12.99)"/><path class="cls-4" d="M116.83,82.57a.78.78,0,0,1,.24-.57.8.8,0,0,1,.56-.23.79.79,0,0,1,.56.23.81.81,0,0,1,.23.57.78.78,0,0,1-.24.57.73.73,0,0,1-.55.23.79.79,0,0,1-.56-.22A.78.78,0,0,1,116.83,82.57Z" transform="translate(-5.09 -12.99)"/><path class="cls-4" d="M128.06,73l-4.23,10.25h-1.17l4-9.55h-5.36v-1h6.79Z" transform="translate(-5.09 -12.99)"/></g></g><g id="視力自檢-5" data-name="視力自檢"><g class="cls-2"><path class="cls-4" d="M268,50.44a8,8,0,0,1,.91-4.25,2.94,2.94,0,0,1,2.64-1.44q3.3,0,3.3,5.43a7.6,7.6,0,0,1-.91,4.07,2.92,2.92,0,0,1-2.63,1.44,2.73,2.73,0,0,1-2.47-1.38A7.46,7.46,0,0,1,268,50.44Zm1.16-.07q0,4.35,2.27,4.35t2.25-4.41c0-3.06-.73-4.58-2.2-4.58S269.13,47.28,269.13,50.37Z" transform="translate(-5.09 -12.99)"/><path class="cls-4" d="M277.66,54.88a.78.78,0,0,1,.24-.57.75.75,0,0,1,.55-.24.74.74,0,0,1,.56.24.78.78,0,0,1,.24.57.74.74,0,0,1-.24.56.76.76,0,0,1-.56.24.78.78,0,0,1-.55-.23A.75.75,0,0,1,277.66,54.88Z" transform="translate(-5.09 -12.99)"/><path class="cls-4" d="M284.51,49.94a2.84,2.84,0,0,1-1.91-2.59,2.32,2.32,0,0,1,.89-1.88,3.37,3.37,0,0,1,2.2-.72,3,3,0,0,1,2,.67,2.19,2.19,0,0,1,.81,1.77,3,3,0,0,1-2,2.75v0c1.55.59,2.32,1.54,2.32,2.87a2.52,2.52,0,0,1-1,2.11,4.1,4.1,0,0,1-2.58.75,3.24,3.24,0,0,1-2.2-.76,2.51,2.51,0,0,1-.89-2,3.15,3.15,0,0,1,2.3-3Zm.93.58c-1.37.54-2.05,1.33-2.05,2.36a1.64,1.64,0,0,0,.61,1.35,2.47,2.47,0,0,0,1.57.48,2.33,2.33,0,0,0,1.51-.48,1.62,1.62,0,0,0,.59-1.3C287.67,51.86,286.93,51.05,285.44,50.52Zm1.87-3.18a1.49,1.49,0,0,0-.48-1.18,1.77,1.77,0,0,0-1.26-.43,1.86,1.86,0,0,0-1.25.45,1.42,1.42,0,0,0-.54,1.13c0,.94.58,1.65,1.75,2.13C286.72,48.94,287.31,48.24,287.31,47.34Z" transform="translate(-5.09 -12.99)"/></g></g><g id="視力自檢-6" data-name="視力自檢"><g class="cls-2"><path class="cls-4" d="M268,78.13a8,8,0,0,1,.91-4.24,2.93,2.93,0,0,1,2.64-1.45q3.3,0,3.3,5.43a7.62,7.62,0,0,1-.91,4.08,2.92,2.92,0,0,1-2.63,1.44A2.73,2.73,0,0,1,268.81,82,7.5,7.5,0,0,1,268,78.13Zm1.16-.06q0,4.35,2.27,4.35T273.65,78q0-4.59-2.2-4.59T269.13,78.07Z" transform="translate(-5.09 -12.99)"/><path class="cls-4" d="M277.66,82.57a.8.8,0,0,1,.79-.8A.77.77,0,0,1,279,82a.8.8,0,0,1,0,1.14.75.75,0,0,1-.56.23.77.77,0,0,1-.55-.22A.78.78,0,0,1,277.66,82.57Z" transform="translate(-5.09 -12.99)"/><path class="cls-4" d="M282.74,81.92a3.83,3.83,0,0,0,1.87.5,2.62,2.62,0,0,0,2.26-1.18,5.92,5.92,0,0,0,.81-3.36,0,0,0,0,1,0,0,2.42,2.42,0,0,1-2.38,1.39,2.92,2.92,0,0,1-2.23-.94,3.34,3.34,0,0,1-.87-2.36,3.57,3.57,0,0,1,.93-2.52,3.16,3.16,0,0,1,2.45-1A2.78,2.78,0,0,1,288,73.69a6.42,6.42,0,0,1,.84,3.59,7.82,7.82,0,0,1-1.11,4.49,3.6,3.6,0,0,1-3.16,1.62,4.25,4.25,0,0,1-1.82-.36Zm.6-6.12a2.57,2.57,0,0,0,.58,1.77,2.2,2.2,0,0,0,3.09.07,2,2,0,0,0,.59-1.44,3.19,3.19,0,0,0-.59-2,1.86,1.86,0,0,0-1.57-.8,1.88,1.88,0,0,0-1.51.69A2.51,2.51,0,0,0,283.34,75.8Z" transform="translate(-5.09 -12.99)"/></g></g><path class="cls-5" d="M8,22.54H76.78a0,0,0,0,1,0,0v56a0,0,0,0,1,0,0H8a8,8,0,0,1-8-8v-40a8,8,0,0,1,8-8Z"/><rect class="cls-5" x="159.74" y="22.54" width="76.78" height="56"/><g id="視力自檢-7" data-name="視力自檢"><g class="cls-2"><path class="cls-6" d="M36.89,52.67H35.52v2.84H34.38V52.67h-5v-.75l4.73-7h1.41v6.8h1.37Zm-2.51-.94V47.06c0-.32,0-.69,0-1.1h0a8.1,8.1,0,0,1-.4.82l-3.33,4.95Z" transform="translate(-5.09 -12.99)"/><path class="cls-6" d="M54.05,53.61c-.24,1.81-.75,2.71-1.52,2.71a1.37,1.37,0,0,1-1-.56,4.46,4.46,0,0,1-.8-1.34,11.94,11.94,0,0,1-2.38,1.91l-.55-.52a10.66,10.66,0,0,0,2.66-2.14,20.9,20.9,0,0,1-.64-4.61H43.68a28.54,28.54,0,0,1-.2,4.34,7.49,7.49,0,0,1-1,2.89l-.6-.43a6.29,6.29,0,0,0,.9-2.38A29.71,29.71,0,0,0,43,48.4h6.88c0-.21,0-.6,0-1.16H42.05v-.67h2.49V44.51h.69v2.06h2.48V44h.7v.92h4.68v.63H48.41v1h5.44v.67H50.56c0,.15,0,.33,0,.53s0,.42,0,.63h3.29v.66H50.61a17.84,17.84,0,0,0,.47,3.88,12.18,12.18,0,0,0,1.58-3l.63.32a13.37,13.37,0,0,1-2,3.53,5,5,0,0,0,.6,1.25c.26.36.47.55.64.55s.26-.18.43-.54a6.36,6.36,0,0,0,.42-1.72Zm-8.12-1.4a9.3,9.3,0,0,1-1.46,2.45l-.6-.35a8.55,8.55,0,0,0,1.43-2.42Zm3.5.08a8.67,8.67,0,0,1-4.31,4l-.47-.52a10.91,10.91,0,0,0,2-1.19v-3.5h-2.3v-.64h5v.64H47.32V54a8.3,8.3,0,0,0,1.48-2ZM53,47.71l-.3.52a6.78,6.78,0,0,0-1.13-.32l.31-.56A7.76,7.76,0,0,1,53,47.71Z" transform="translate(-5.09 -12.99)"/></g></g><g id="視力自檢-8" data-name="視力自檢"><g class="cls-2"><path class="cls-6" d="M30.5,81.71a4,4,0,0,0,2.2.71,2.61,2.61,0,0,0,1.83-.65,2.2,2.2,0,0,0,.7-1.71,2,2,0,0,0-.7-1.66,3.11,3.11,0,0,0-2-.59c-.28,0-.84,0-1.66.08V72.62h5.07v1h-4v3.17l.9,0a3.8,3.8,0,0,1,2.62.84,3,3,0,0,1,1,2.35,3.18,3.18,0,0,1-1,2.49,3.88,3.88,0,0,1-2.69.91A4.22,4.22,0,0,1,30.5,83Z" transform="translate(-5.09 -12.99)"/><path class="cls-6" d="M54.05,81.3C53.81,83.11,53.3,84,52.53,84a1.35,1.35,0,0,1-1-.57,4.41,4.41,0,0,1-.8-1.33A11.93,11.93,0,0,1,48.4,84l-.55-.52a10.61,10.61,0,0,0,2.66-2.14,20.81,20.81,0,0,1-.64-4.6H43.68a28.62,28.62,0,0,1-.2,4.34,7.38,7.38,0,0,1-1,2.88l-.6-.42a6.53,6.53,0,0,0,.9-2.38A29.78,29.78,0,0,0,43,76.1h6.88c0-.22,0-.61,0-1.16H42.05v-.68h2.49V72.2h.69v2.06h2.48V71.67h.7v.93h4.68v.63H48.41v1h5.44v.68H50.56c0,.15,0,.33,0,.53s0,.42,0,.63h3.29v.66H50.6a18.26,18.26,0,0,0,.48,3.87,12.1,12.1,0,0,0,1.58-3l.63.32a13.37,13.37,0,0,1-2,3.53,4.6,4.6,0,0,0,.6,1.24c.26.37.47.56.64.56s.26-.18.43-.54A6.53,6.53,0,0,0,53.39,81Zm-8.12-1.39a9.47,9.47,0,0,1-1.46,2.45l-.6-.35a8.69,8.69,0,0,0,1.43-2.42Zm3.5.08a8.75,8.75,0,0,1-4.31,4l-.48-.52a11.21,11.21,0,0,0,2-1.19v-3.5h-2.3v-.64h5v.64H47.32v2.88a8.49,8.49,0,0,0,1.48-2ZM53,75.41l-.3.52a5.46,5.46,0,0,0-1.13-.32l.31-.56A6.69,6.69,0,0,1,53,75.41Z" transform="translate(-5.09 -12.99)"/></g></g><g id="視力自檢-9" data-name="視力自檢"><g class="cls-2"><path class="cls-6" d="M197.28,46.14a3.79,3.79,0,0,0-1.73-.41,2.62,2.62,0,0,0-2.3,1.27,6.06,6.06,0,0,0-.83,3.42h0a2.51,2.51,0,0,1,2.43-1.52,2.86,2.86,0,0,1,2.21.91,3.33,3.33,0,0,1,.83,2.37,3.54,3.54,0,0,1-.93,2.51,3.08,3.08,0,0,1-2.37,1,2.85,2.85,0,0,1-2.52-1.29,6.25,6.25,0,0,1-.86-3.53,7.93,7.93,0,0,1,1.12-4.41,3.6,3.6,0,0,1,3.17-1.71,4,4,0,0,1,1.75.31Zm-4.78,5.91a3,3,0,0,0,.6,1.9,2,2,0,0,0,3.07.09,2.61,2.61,0,0,0,.58-1.72,2.67,2.67,0,0,0-.56-1.8,2,2,0,0,0-1.54-.64,2,2,0,0,0-1.52.63A2.09,2.09,0,0,0,192.5,52.05Z" transform="translate(-5.09 -12.99)"/><path class="cls-6" d="M215.18,53.61c-.25,1.81-.75,2.71-1.52,2.71a1.37,1.37,0,0,1-1-.56,4.67,4.67,0,0,1-.8-1.34,11.94,11.94,0,0,1-2.38,1.91l-.54-.52a10.61,10.61,0,0,0,2.65-2.14,21.52,21.52,0,0,1-.64-4.61h-6.18a29.92,29.92,0,0,1-.2,4.34,7.65,7.65,0,0,1-1,2.89l-.6-.43a6.64,6.64,0,0,0,.9-2.38,32,32,0,0,0,.22-5.07H211c0-.22,0-.61,0-1.17h-7.77v-.67h2.49V44.51h.69v2.06h2.47V44h.71v.93h4.67v.62h-4.67v1H215v.67h-3.29a4.11,4.11,0,0,0,0,.53c0,.21,0,.42,0,.64H215v.65h-3.25a17.21,17.21,0,0,0,.48,3.88,12.52,12.52,0,0,0,1.58-3l.63.32a13.1,13.1,0,0,1-2,3.53A4.69,4.69,0,0,0,213,55c.25.37.47.55.64.55s.25-.18.42-.54a6.36,6.36,0,0,0,.42-1.72Zm-8.13-1.4a9.28,9.28,0,0,1-1.45,2.45l-.6-.35a8.79,8.79,0,0,0,1.43-2.42Zm3.5.08a8.67,8.67,0,0,1-4.31,4l-.47-.52a10.44,10.44,0,0,0,2-1.19v-3.5h-2.3v-.64h5v.64h-2.09V54a8.3,8.3,0,0,0,1.49-2Zm3.53-4.58-.29.52a7.25,7.25,0,0,0-1.14-.32l.31-.56A7,7,0,0,1,214.08,47.71Z" transform="translate(-5.09 -12.99)"/></g></g><g id="視力自檢-10" data-name="視力自檢"><g class="cls-2"><path class="cls-6" d="M183.83,73l-4.22,10.25h-1.18l4-9.55H177v-1h6.79Z" transform="translate(-5.09 -12.99)"/><path class="cls-6" d="M201.17,81.3c-.24,1.81-.74,2.72-1.51,2.72a1.35,1.35,0,0,1-1-.57,4.41,4.41,0,0,1-.8-1.33,11.93,11.93,0,0,1-2.38,1.9L195,83.5a10.27,10.27,0,0,0,2.66-2.14,21.42,21.42,0,0,1-.64-4.6H190.8a28.85,28.85,0,0,1-.19,4.34,7.71,7.71,0,0,1-1,2.88l-.6-.42a6.52,6.52,0,0,0,.89-2.38,30.64,30.64,0,0,0,.23-5.08H197c0-.22,0-.61,0-1.16h-7.77v-.68h2.49V72.2h.69v2.06h2.47V71.67h.7v.93h4.68v.63h-4.68v1H201v.68h-3.29a3.94,3.94,0,0,0,0,.52c0,.21,0,.43,0,.64H201v.66h-3.25a17,17,0,0,0,.48,3.87,12.44,12.44,0,0,0,1.58-3l.63.32a13.26,13.26,0,0,1-2,3.53,4.92,4.92,0,0,0,.6,1.24c.26.37.47.55.65.55s.25-.18.42-.54a6.37,6.37,0,0,0,.42-1.71Zm-8.12-1.39a9.22,9.22,0,0,1-1.45,2.44L191,82a8.66,8.66,0,0,0,1.42-2.42Zm3.5.08a8.71,8.71,0,0,1-4.31,4l-.47-.52a11.14,11.14,0,0,0,2-1.19v-3.5h-2.29v-.65h5v.65h-2.09v2.88a8.22,8.22,0,0,0,1.48-2Zm3.53-4.58-.29.52a5.57,5.57,0,0,0-1.14-.32l.31-.56A5.66,5.66,0,0,1,200.08,75.41Z" transform="translate(-5.09 -12.99)"/><path class="cls-6" d="M209,79.67a42.94,42.94,0,0,1-5.88,3.66l-.29-.67,1.31-.71V71.8h.75v9.7a43.47,43.47,0,0,0,4-2.63Zm1.25-3.28-.67.35A19,19,0,0,0,207,72.89l.71-.34A20.15,20.15,0,0,1,210.29,76.39Zm4.79,7.07-.56.51a24.55,24.55,0,0,0-2.76-3.35,14.35,14.35,0,0,1-4,3.4l-.55-.6a13,13,0,0,0,3.32-2.54,7.89,7.89,0,0,0,1.88-3.57,28.26,28.26,0,0,0,.57-5.69h.78q-.15,6.1-1.63,8.37A32.86,32.86,0,0,1,215.08,83.46Z" transform="translate(-5.09 -12.99)"/><path class="cls-6" d="M229.16,83.57H217v-.72h5.22V71.68H223v4.39h5.58v.74H223v6h6.19Z" transform="translate(-5.09 -12.99)"/></g></g><line class="cls-7" y1="51.21" x2="99.17" y2="51.21"/><line class="cls-8" x1="76.78" y1="51.21" x2="159.74" y2="51.21"/><line class="cls-7" x1="159.3" y1="51.21" x2="258.47" y2="51.21"/><line class="cls-8" x1="236.09" y1="51.21" x2="319.04" y2="51.21"/><path class="cls-8" d="M164.83,118" transform="translate(-5.09 -12.99)"/><path class="cls-8" d="M81.87,118" transform="translate(-5.09 -12.99)"/><path class="cls-7" d="M104.26,118" transform="translate(-5.09 -12.99)"/><path class="cls-7" d="M5.09,118" transform="translate(-5.09 -12.99)"/><path class="cls-4" d="M32.86,175l-.52.58A14.77,14.77,0,0,1,27.25,170h-.09v6.25h-.75V170h-.07a13.19,13.19,0,0,1-5.22,5.53l-.51-.6A11.42,11.42,0,0,0,25.54,170H20.76v-.71h5.66v-2.74h-4.9v-.72h4.9V164h.74v1.87H32v.72H27.16v2.74h5.57V170H28A13.4,13.4,0,0,0,32.86,175Z" transform="translate(-5.09 -12.99)"/><path class="cls-4" d="M47.51,175.32l-.21.72H42.24c-2.39,0-4.07-.54-5-1.63a10.4,10.4,0,0,1-1.57,1.91l-.57-.49a8.36,8.36,0,0,0,2.62-4.6H35.43v-.74a33.51,33.51,0,0,0,2.12-2.8H35.19V167h3.2v.67c-.63.93-1.34,1.9-2.12,2.89h2.16v.68a12.56,12.56,0,0,1-.86,2.51,3.91,3.91,0,0,0,1.55,1.17,7.59,7.59,0,0,0,2.83.41ZM38,166l-.53.56a8.84,8.84,0,0,0-1.93-2l.54-.52A13.45,13.45,0,0,1,38,166Zm9.34,7.42H43.59v1.51h-.73v-1.51H39v-.69h3.84V171.6h-3v-.67h3v-1.08h-3.5v-.69h2a9,9,0,0,0-.63-1.28H39.06v-.69h3.79V165.9H39.49v-.67h3.36V164h.72v1.21h3.27v.67H43.57v1.29h3.77v.69H45.65a9.64,9.64,0,0,1-.66,1.28h2.07v.69H43.59v1.08h3v.67h-3v1.09h3.79Zm-2.55-5.5H41.56a8.93,8.93,0,0,1,.56,1.28h2.07A5.25,5.25,0,0,0,44.83,167.88Z" transform="translate(-5.09 -12.99)"/><path class="cls-4" d="M62,168.07l-.47.61A16.6,16.6,0,0,1,55.82,165a21.1,21.1,0,0,1-5.66,3.75l-.47-.63a17,17,0,0,0,6.12-4.19l.71.28a.72.72,0,0,1-.2.31A16.49,16.49,0,0,0,62,168.07Zm-1.77,8.24H59.5v-.93H52.17v.93h-.75v-5.57h8.81Zm-.73-1.67v-3.15H52.17v3.15Zm0-5.84H52.22v-.75h7.25Z" transform="translate(-5.09 -12.99)"/><path class="cls-4" d="M68.74,169.6l-.52.51a6.8,6.8,0,0,0-1-1.45v7.57h-.71v-6.92a15.05,15.05,0,0,1-1.82,3.17l-.49-.62a14.07,14.07,0,0,0,2.25-4.24H64.59v-.71h2V164h.71v2.88h1.41v.71H67.25v.09A9.65,9.65,0,0,1,68.74,169.6Zm7.86.57-.45.65a18.63,18.63,0,0,1-3.46-1.75,15.71,15.71,0,0,1-3.63,1.73l-.41-.61a14.66,14.66,0,0,0,3.42-1.6,6.79,6.79,0,0,1-1.53-1.74c-.32.27-.63.52-.93.73l-.6-.5a9.59,9.59,0,0,0,3.06-3.18l.72.22a4.88,4.88,0,0,1-.68,1H75.7v.69a11.81,11.81,0,0,1-2.36,2.81A14.29,14.29,0,0,0,76.6,170.17Zm-1.06,6.06h-.72v-.6H70.51v.6h-.73V171.1h5.76Zm-.72-1.31v-3.09H70.51v3.09Zm0-9.09H71.56a6.13,6.13,0,0,1-.49.53,6.06,6.06,0,0,0,1.62,1.82A8.64,8.64,0,0,0,74.82,165.83Z" transform="translate(-5.09 -12.99)"/><path class="cls-4" d="M83.17,170.15l-.55.48a8.9,8.9,0,0,0-1.11-1.83v7.47H80.8v-6.8a21.08,21.08,0,0,1-1.51,2.93l-.5-.59a14.94,14.94,0,0,0,1.94-4.23H79v-.69H80.8V164h.71v2.86h1.42v.69H81.51v.17A13.21,13.21,0,0,1,83.17,170.15Zm2.66,3.62A13,13,0,0,1,83.34,176l-.49-.56a10.89,10.89,0,0,0,2.43-2.13Zm5.22-1.25H87.44v3.75h-.73v-3.75H83v-.67h8ZM91,165H88.46v1.05H90.6v3.06H83.49v-3.06H85.6V165H83.1v-.7H91Zm-.48,5.75H83.6v-.66h6.94Zm-4.94-2.3v-1.75H84.21v1.75Zm2.15-2.4V165H86.32v1.05Zm0,2.4v-1.75H86.32v1.75Zm3.35,7-.52.5a14.91,14.91,0,0,0-2.3-2.12l.49-.51A19.83,19.83,0,0,1,91.1,175.46Zm-1.2-8.75H88.46v1.75H89.9Z" transform="translate(-5.09 -12.99)"/><path class="cls-4" d="M105.64,174H99.89v2.38h-.72V174H93.45v-.7h5.72V172H97.8V167.4c-.3.34-.65.72-1.06,1.12l-.46-.6A10.62,10.62,0,0,0,98.92,164l.69.23a14.35,14.35,0,0,1-.68,1.43h2.73a5.11,5.11,0,0,0-.62-1.42l.68-.2a8.49,8.49,0,0,1,.68,1.62h2.89v.67H102v1.16h2.73v.68H102v1.16h2.73V170H102v1.21h3.43v.7H99.89v1.3h5.75Zm-9.58-5.72-.43.57a9,9,0,0,0-2.16-1.16l.41-.6A9.28,9.28,0,0,1,96.06,168.23Zm.8,1.66A10.76,10.76,0,0,1,94,172.58l-.42-.57a11.6,11.6,0,0,0,2.84-2.64Zm.09-4.24-.41.6a10.94,10.94,0,0,0-2.27-1.54l.44-.57A11.27,11.27,0,0,1,97,165.65Zm4.37,1.87v-1.16H98.53v1.16Zm0,1.84V168.2H98.53v1.16Zm0,1.89V170H98.53v1.21Z" transform="translate(-5.09 -12.99)"/><path class="cls-4" d="M120.17,175.92H108v-.72h4.31v-7.93h-4v-.73h11.58v.73h-4v7.93h4.34Zm-8.76-2.23-.67.24a23.64,23.64,0,0,0-1.93-5.16l.65-.28A25,25,0,0,1,111.41,173.69Zm1.24-7.88-.64.47a8.24,8.24,0,0,0-1.71-1.85l.6-.44A8.77,8.77,0,0,1,112.65,165.81Zm2.43,9.39v-7.93h-2v7.93Zm2.82-10.84a8.45,8.45,0,0,1-1.85,1.93l-.6-.46a8.67,8.67,0,0,0,1.81-1.88Zm1.48,4.44a27.85,27.85,0,0,1-2,5.13l-.66-.28a28.39,28.39,0,0,0,2-5.1Z" transform="translate(-5.09 -12.99)"/><path class="cls-4" d="M134.94,172.45l-.46.6a34.87,34.87,0,0,0-5.42-3.66v7h-.78v-7.89a24.43,24.43,0,0,1-5.34,4.58l-.49-.64c3.44-2.06,5.77-4.48,7-7.29h-6.72v-.75h11.9v.75h-4.32a23.11,23.11,0,0,1-1.25,2.29v1.12A42,42,0,0,1,134.94,172.45Z" transform="translate(-5.09 -12.99)"/><path class="cls-4" d="M149.28,172.81h-2.53V175c0,.56-.13.92-.4,1.08a3.12,3.12,0,0,1-1.46.24c-.32,0-.67,0-1,0l-.3-.72,1.29,0c.43,0,.74,0,.91,0s.27-.16.27-.43v-2.27h-8.9v-.71H146v-1.3h-7.61v-.67h4.48v-1.26h-5.14v-.69h5.14v-.94h.72v.94h5.06v.69h-5.06v1.26h4.45v.67h-1.31v1.3h2.53Zm-6.2-6.81h-3.9a10,10,0,0,1-1.41,1.47l-.57-.5a7.55,7.55,0,0,0,2.36-3l.73.24c-.19.36-.4.73-.65,1.12h3.44Zm-1.7,1.49-.7.3a5.25,5.25,0,0,0-.9-1.08l.64-.29A4,4,0,0,1,141.38,167.49Zm1.11,7.67-.59.45a12.23,12.23,0,0,0-2.09-1.88l.57-.48A11.81,11.81,0,0,1,142.49,175.16ZM149.1,166h-4.43a6.16,6.16,0,0,1-.86.85l-.56-.42A6.26,6.26,0,0,0,145,164l.69.26a7.85,7.85,0,0,1-.55,1.06h4Zm-1.73,1.47-.7.34a5.28,5.28,0,0,0-1-1.1l.69-.33A4.82,4.82,0,0,1,147.37,167.47Z" transform="translate(-5.09 -12.99)"/><path class="cls-4" d="M157.37,167.06H154c0,.91,0,1.57-.07,2h2.75c0,1.46,0,2.85-.13,4.16a9.11,9.11,0,0,1-.35,2.32,1.22,1.22,0,0,1-.56.54,4,4,0,0,1-1.59.13l-.22-.74c.56.05.91.07,1.06.07a.92.92,0,0,0,.58-.21c.18-.14.31-.82.38-2.05s.1-2.08.1-2.57c0-.33,0-.64,0-.94h-2a16.47,16.47,0,0,1-1.71,6.57l-.59-.42A12.92,12.92,0,0,0,153,172a34.81,34.81,0,0,0,.33-4.93h-1.44v-.71h2.53a8.12,8.12,0,0,0-.77-2.09l.64-.27a15.67,15.67,0,0,1,.89,2.36h2.24Zm6.6,1.53-.46.61a12.81,12.81,0,0,1-3.15-3.75,15.2,15.2,0,0,1-3,3.75l-.48-.48a14.48,14.48,0,0,0,3.38-4.75l.68.24c0,.09-.11.26-.22.52A12.58,12.58,0,0,0,164,168.59Zm-1.2,7.11-.47.53A27.23,27.23,0,0,0,158,173l.46-.6A25.49,25.49,0,0,1,162.77,175.7Zm-.28-4.17-.5.54a16.33,16.33,0,0,0-3.28-2.51l.44-.54A16.31,16.31,0,0,1,162.49,171.53Z" transform="translate(-5.09 -12.99)"/><path class="cls-4" d="M178.58,175.35l-.24.72H173.9a10.82,10.82,0,0,1-3.61-.47,4.9,4.9,0,0,1-2-1.24,12.69,12.69,0,0,1-1.72,1.91l-.52-.54a8.49,8.49,0,0,0,2.81-4.47h-2.34v-.67l2.27-2.86h-2.49V167h3.39v.71l-2.22,2.85h2.14v.68a9,9,0,0,1-1,2.52q1.48,1.58,4.83,1.57Zm-9.35-9.29-.54.54a11.29,11.29,0,0,0-2-2l.52-.52A13.56,13.56,0,0,1,169.23,166.06Zm9.12,2.54h-2.28v6.28h-.7V168.6h-3.25c-.1,2.67-.62,4.63-1.54,5.89L170,174a7.56,7.56,0,0,0,1.07-2.4,16.68,16.68,0,0,0,.34-3.8V164.9a36.08,36.08,0,0,0,5.72-.83l.41.67a37.18,37.18,0,0,1-5.38.78v2.37h6.2Z" transform="translate(-5.09 -12.99)"/><path class="cls-4" d="M185.87,171.81l-.54.5a16.68,16.68,0,0,0-1.64-2.08v6H183v-5.27c-.37.4-.92.95-1.66,1.64l-.53-.51a12.88,12.88,0,0,0,3.78-4.77h-3.45v-.71h4.22v.71a17.4,17.4,0,0,1-1.29,2.32A13.12,13.12,0,0,1,185.87,171.81Zm-1.76-5.88-.69.28a9.78,9.78,0,0,0-1.16-1.85l.65-.34A8.64,8.64,0,0,1,184.11,165.93Zm8.87,7.78a4.34,4.34,0,0,1-.19,1.43,1.38,1.38,0,0,1-.49.72,1.8,1.8,0,0,1-1,.19c-.7,0-1.13-.11-1.31-.33a1.08,1.08,0,0,1-.26-.68v-3.3h-1.51a5,5,0,0,1-.52,2.25,4.39,4.39,0,0,1-1.37,1.67,3,3,0,0,1-1.08.61h0l-.45-.59a4,4,0,0,0,2.73-3.94h-1.33v-7.31h5.83v7.31h-1.56v3.2c0,.28.29.42.85.42a.76.76,0,0,0,.68-.29,3.86,3.86,0,0,0,.28-1.59Zm-1.68-7.08v-1.52H187v1.52Zm0,2.17v-1.48H187v1.48Zm0,2.23v-1.55H187V171Z" transform="translate(-5.09 -12.99)"/><path class="cls-4" d="M200.05,177.49l.9-3.61h1.1l-1.19,3.61Zm1.36-9.65a.74.74,0,0,1,.57.23.77.77,0,0,1,.23.56.79.79,0,0,1-.23.56.82.82,0,0,1-1.12,0,.79.79,0,0,1,.55-1.35Z" transform="translate(-5.09 -12.99)"/><path class="cls-4" d="M222.23,175.32,222,176H217q-3.59,0-5-1.63a10.4,10.4,0,0,1-1.57,1.91l-.57-.49a8.36,8.36,0,0,0,2.62-4.6h-2.27v-.74a33.51,33.51,0,0,0,2.12-2.8h-2.36V167h3.2v.67c-.63.93-1.34,1.9-2.12,2.89h2.16v.68a12.56,12.56,0,0,1-.86,2.51,3.91,3.91,0,0,0,1.55,1.17,7.59,7.59,0,0,0,2.83.41ZM212.77,166l-.54.56a8.84,8.84,0,0,0-1.93-2l.54-.52A14,14,0,0,1,212.77,166Zm9.33,7.42h-3.79v1.51h-.73v-1.51h-3.84v-.69h3.84V171.6h-3v-.67h3v-1.08h-3.5v-.69h2a9,9,0,0,0-.63-1.28h-1.67v-.69h3.79V165.9h-3.36v-.67h3.36V164h.73v1.21h3.26v.67H218.3v1.29h3.76v.69h-1.69a9.64,9.64,0,0,1-.66,1.28h2.07v.69h-3.47v1.08h3v.67h-3v1.09h3.79Zm-2.55-5.5h-3.27a8.93,8.93,0,0,1,.56,1.28h2.07A5.25,5.25,0,0,0,219.55,167.88Z" transform="translate(-5.09 -12.99)"/><path class="cls-4" d="M236.72,168.07l-.47.61a16.6,16.6,0,0,1-5.71-3.73,21.1,21.1,0,0,1-5.66,3.75l-.47-.63a17,17,0,0,0,6.12-4.19l.71.28a.72.72,0,0,1-.2.31A16.49,16.49,0,0,0,236.72,168.07ZM235,176.31h-.73v-.93h-7.33v.93h-.75v-5.57H235Zm-.73-1.67v-3.15h-7.33v3.15Zm0-5.84h-7.25v-.75h7.25Z" transform="translate(-5.09 -12.99)"/><path class="cls-4" d="M243.46,169.6l-.52.51a6.8,6.8,0,0,0-1-1.45v7.57h-.71v-6.92a15.05,15.05,0,0,1-1.82,3.17l-.49-.62a14.07,14.07,0,0,0,2.25-4.24h-1.89v-.71h1.95V164H242v2.88h1.41v.71H242v.09A9.29,9.29,0,0,1,243.46,169.6Zm7.86.57-.45.65a18.23,18.23,0,0,1-3.45-1.75,15.78,15.78,0,0,1-3.64,1.73l-.41-.61a14.66,14.66,0,0,0,3.42-1.6,6.79,6.79,0,0,1-1.53-1.74c-.32.27-.63.52-.93.73l-.6-.5a9.49,9.49,0,0,0,3.06-3.18l.72.22a4.88,4.88,0,0,1-.68,1h3.59v.69a11.81,11.81,0,0,1-2.36,2.81A14.29,14.29,0,0,0,251.32,170.17Zm-1.06,6.06h-.72v-.6h-4.31v.6h-.73V171.1h5.76Zm-.72-1.31v-3.09h-4.31v3.09Zm0-9.09h-3.26a4.83,4.83,0,0,1-.49.53,6.1,6.1,0,0,0,1.63,1.82A8.76,8.76,0,0,0,249.54,165.83Z" transform="translate(-5.09 -12.99)"/><path class="cls-4" d="M257.89,170.15l-.55.48a8.9,8.9,0,0,0-1.11-1.83v7.47h-.71v-6.8A21.08,21.08,0,0,1,254,172.4l-.5-.59a14.94,14.94,0,0,0,1.94-4.23h-1.77v-.69h1.84V164h.71v2.86h1.42v.69h-1.42v.17A13.21,13.21,0,0,1,257.89,170.15Zm2.66,3.62a13,13,0,0,1-2.49,2.21l-.49-.56a10.89,10.89,0,0,0,2.43-2.13Zm5.22-1.25h-3.61v3.75h-.73v-3.75h-3.7v-.67h8Zm0-7.51h-2.56v1.05h2.14v3.06h-7.11v-3.06h2.11V165h-2.5v-.7h7.92Zm-.48,5.75h-6.94v-.66h6.94Zm-4.94-2.3v-1.75h-1.39v1.75Zm2.15-2.4V165H261v1.05Zm0,2.4v-1.75H261v1.75Zm3.35,7-.52.5a15.39,15.39,0,0,0-2.3-2.12l.49-.51A19.83,19.83,0,0,1,265.82,175.46Zm-1.2-8.75h-1.44v1.75h1.44Z" transform="translate(-5.09 -12.99)"/><path class="cls-4" d="M280.36,174h-5.75v2.38h-.72V174h-5.72v-.7h5.72V172h-1.37V167.4c-.3.34-.65.72-1.06,1.12l-.46-.6a10.62,10.62,0,0,0,2.64-3.89l.69.23a14.35,14.35,0,0,1-.68,1.43h2.73a5.11,5.11,0,0,0-.62-1.42l.68-.2a9.19,9.19,0,0,1,.68,1.62H280v.67h-3.25v1.16h2.73v.68h-2.73v1.16h2.73V170h-2.73v1.21h3.43v.7h-5.58v1.3h5.75Zm-9.58-5.72-.43.57a9,9,0,0,0-2.16-1.16l.41-.6A9.28,9.28,0,0,1,270.78,168.23Zm.8,1.66a10.76,10.76,0,0,1-2.91,2.69l-.42-.57a11.6,11.6,0,0,0,2.84-2.64Zm.09-4.24-.41.6a10.94,10.94,0,0,0-2.27-1.54l.44-.57A11.27,11.27,0,0,1,271.67,165.65Zm4.37,1.87v-1.16h-2.79v1.16Zm0,1.84V168.2h-2.79v1.16Zm0,1.89V170h-2.79v1.21Z" transform="translate(-5.09 -12.99)"/><path class="cls-4" d="M285.54,168.05a21.85,21.85,0,0,1-2.14,5.58l-.71-.35a21.8,21.8,0,0,0,2.14-5.4Zm9.29-1.45h-4v8.6a1.34,1.34,0,0,1-.23.83c-.16.19-.6.29-1.33.29-.36,0-.74,0-1.13,0l-.32-.79c.57,0,1.12.07,1.64.07s.65-.12.65-.35v-8.6h-2.4v3.11a7.38,7.38,0,0,1-3.3,6.62l-.67-.52a7.9,7.9,0,0,0,2.43-2.38,6.58,6.58,0,0,0,.8-3.44V166.6h-4.05v-.75h5.67a12,12,0,0,0-.79-1.54l.67-.34a13.77,13.77,0,0,1,.95,1.88h5.44Zm0,7-.73.24a26.39,26.39,0,0,0-2.06-5.77l.71-.3A28.15,28.15,0,0,1,294.86,173.56Z" transform="translate(-5.09 -12.99)"/><path class="cls-4" d="M309.66,172.45l-.46.6a34.87,34.87,0,0,0-5.42-3.66v7H303v-7.89a24.43,24.43,0,0,1-5.34,4.58l-.49-.64c3.44-2.06,5.77-4.48,7-7.29h-6.72v-.75h11.9v.75H305a23.11,23.11,0,0,1-1.25,2.29v1.12A42,42,0,0,1,309.66,172.45Z" transform="translate(-5.09 -12.99)"/><path class="cls-4" d="M32.8,193.16H26.31a9,9,0,0,1-1.34,1.5v3.53a15.8,15.8,0,0,0,3.22-1l.16.7a24.68,24.68,0,0,1-4,1.16l-.39-.61a.42.42,0,0,0,.27-.41v-2.77a18.18,18.18,0,0,1-3.14,1.84l-.46-.61a13,13,0,0,0,4.78-3.35H20.64v-.67h5.8v-1.56H21.58v-.7h4.86v-1.5H21V188h5.49v-1.17h.72V188h5.38v.69H27.16v1.5h4.69v.7H27.16v1.56H32.8Zm.09,5.31-.4.65a10.44,10.44,0,0,1-3.21-1.84,8.64,8.64,0,0,1-2.14-3.13l.62-.37a8.36,8.36,0,0,0,1.38,2.32A12.46,12.46,0,0,0,31.59,194l.58.46a16.09,16.09,0,0,1-2.53,2.14A9.15,9.15,0,0,0,32.89,198.47Z" transform="translate(-5.09 -12.99)"/><path class="cls-4" d="M39.22,193.22a20.73,20.73,0,0,1-3.6,4.55l-.56-.53a17.43,17.43,0,0,0,3.48-4.41Zm8.09-2H41.63v7.84h-.76v-7.84H35.1v-.74H47.31Zm-1.52-3.4H36.62v-.75h9.17Zm1.55,9.52-.61.36a23.48,23.48,0,0,0-3.42-4.45l.67-.42A22.37,22.37,0,0,1,47.34,197.38Z" transform="translate(-5.09 -12.99)"/><path class="cls-4" d="M52.87,192.27l-.45.57A17.48,17.48,0,0,0,49.68,191l.46-.57A14.16,14.16,0,0,1,52.87,192.27Zm.39,2.23a24,24,0,0,1-3.06,4.62l-.51-.59a22.78,22.78,0,0,0,3-4.5Zm.32-5.9-.46.61a13.91,13.91,0,0,0-2.78-1.78l.46-.6A17.34,17.34,0,0,1,53.58,188.6ZM62,198.48l-.43.68a16.22,16.22,0,0,1-4-1.78,14.77,14.77,0,0,1-4.39,1.69l-.37-.67a13.93,13.93,0,0,0,4.1-1.46,8.74,8.74,0,0,1-2.58-3.19h-.56v-.69H61v.61A7.86,7.86,0,0,1,58.24,197,14.55,14.55,0,0,0,62,198.48Zm-.71-10.24a9.53,9.53,0,0,1-.42,3.13,1.32,1.32,0,0,1-1.33.8H57.77l-.29-.75,1.12,0a5.9,5.9,0,0,0,1.28-.07.58.58,0,0,0,.31-.25,2.15,2.15,0,0,0,.21-.73,13,13,0,0,0,.14-1.44H56.16a11.51,11.51,0,0,1-2,3.36l-.62-.49a11.1,11.1,0,0,0,2.5-5l.73.14c0,.2-.15.64-.34,1.32Zm-1.2,5.51H55.18a8,8,0,0,0,2.42,2.78A7.28,7.28,0,0,0,60.1,193.75Z" transform="translate(-5.09 -12.99)"/><path class="cls-4" d="M76.66,198.15l-.24.72H72a10.82,10.82,0,0,1-3.61-.47,4.9,4.9,0,0,1-2-1.24,12.69,12.69,0,0,1-1.72,1.91l-.52-.54A8.49,8.49,0,0,0,67,194.06H64.64v-.67l2.27-2.86H64.42v-.71h3.39v.71l-2.22,2.85h2.14v.68a9,9,0,0,1-1,2.52q1.48,1.57,4.83,1.57Zm-9.35-9.29-.54.54a11.29,11.29,0,0,0-2-2l.52-.53A14.06,14.06,0,0,1,67.31,188.86Zm9.12,2.54H74.15v6.28h-.7V191.4H70.2c-.1,2.67-.62,4.63-1.54,5.89l-.59-.45a7.56,7.56,0,0,0,1.07-2.4,16.68,16.68,0,0,0,.34-3.8V187.7a36.08,36.08,0,0,0,5.72-.83l.41.67a37.18,37.18,0,0,1-5.38.78v2.37h6.2Z" transform="translate(-5.09 -12.99)"/><path class="cls-4" d="M84,194.61l-.54.5A16.68,16.68,0,0,0,81.77,193v6h-.71v-5.27c-.37.4-.92,1-1.66,1.64l-.53-.51a12.88,12.88,0,0,0,3.78-4.77H79.2v-.71h4.22v.71a18,18,0,0,1-1.29,2.32A13.12,13.12,0,0,1,84,194.61Zm-1.76-5.88-.69.28a9.78,9.78,0,0,0-1.16-1.85l.65-.34A8.64,8.64,0,0,1,82.19,188.73Zm8.87,7.78a4.34,4.34,0,0,1-.19,1.43,1.38,1.38,0,0,1-.49.72,1.8,1.8,0,0,1-.95.19c-.7,0-1.13-.11-1.31-.33a1.08,1.08,0,0,1-.26-.68v-3.3H86.35a5,5,0,0,1-.52,2.25,4.39,4.39,0,0,1-1.37,1.67,3,3,0,0,1-1.08.61h0l-.45-.59a4,4,0,0,0,2.73-3.94H84.3v-7.31h5.83v7.31H88.57v3.2c0,.28.29.42.85.42a.76.76,0,0,0,.68-.29,3.88,3.88,0,0,0,.28-1.6Zm-1.68-7.08v-1.52H85v1.52Zm0,2.17v-1.48H85v1.48Zm0,2.23v-1.55H85v1.55Z" transform="translate(-5.09 -12.99)"/><path class="cls-4" d="M99.52,191.58a1.39,1.39,0,0,1,1,.4,1.35,1.35,0,0,1,.42,1,1.39,1.39,0,0,1-.39,1,1.31,1.31,0,0,1-1,.4,1.46,1.46,0,0,1-1-.36,1.31,1.31,0,0,1-.42-1.07,1.27,1.27,0,0,1,.43-1A1.42,1.42,0,0,1,99.52,191.58Zm.85,1.42a.74.74,0,0,0-.24-.58.88.88,0,0,0-.6-.23.72.72,0,0,0-.57.25.8.8,0,0,0-.23.56.93.93,0,0,0,.22.57.72.72,0,0,0,.6.26.8.8,0,0,0,.59-.23A.81.81,0,0,0,100.37,193Z" transform="translate(-5.09 -12.99)"/><path class="cls-4" d="M32.93,219.23l-.51.58a14.7,14.7,0,0,1-5.22-7.08v6h3.05v.73H27.2V222h-.78v-2.51H23.3v-.73h3.12v-6a15.94,15.94,0,0,1-2.11,3.93A15.57,15.57,0,0,1,21,219.77l-.48-.61a13.26,13.26,0,0,0,5.05-6.43H20.89V212h5.53v-2.4h.78V212h5.37v.72H28A13.28,13.28,0,0,0,32.93,219.23Z" transform="translate(-5.09 -12.99)"/><path class="cls-4" d="M39.32,215.66l-.5.56a12.43,12.43,0,0,0-1.19-1.66v7.28h-.71v-7a15.52,15.52,0,0,1-1.36,3.2l-.52-.53a15.48,15.48,0,0,0,1.81-4.8H35.2v-.64h1.72v-2.4h.71v2.4h1.2v.64h-1.2v.9A14.73,14.73,0,0,1,39.32,215.66Zm3.69,5-.45.51A13.4,13.4,0,0,0,41,219.79a9.48,9.48,0,0,1-1.8,2.16l-.52-.51A8.84,8.84,0,0,0,41.08,218l.65.27-.45.95A12.16,12.16,0,0,1,43,220.61ZM47.53,213l-.4.62a11.9,11.9,0,0,1-3.9-2.9,14.41,14.41,0,0,1-3.84,3l-.53-.56a11.66,11.66,0,0,0,4.31-3.51l.68.25a1.21,1.21,0,0,1-.22.32A11.09,11.09,0,0,0,47.53,213Zm-4.88,4.72h-2.9v-3.33h2.9ZM42,217v-2h-1.5v2Zm3.2-3.67h-3.9v-.69h3.9Zm2.2,8-.46.49a13.67,13.67,0,0,0-2-1.82,8.94,8.94,0,0,1-1.41,1.87l-.59-.4A9.41,9.41,0,0,0,45,218l.64.22a7.76,7.76,0,0,1-.48,1.22A12.82,12.82,0,0,1,47.35,221.33Zm-.77-3.64H43.7v-3.33h2.88ZM45.9,217v-2H44.39v2Z" transform="translate(-5.09 -12.99)"/><path class="cls-4" d="M52.28,215l-.52.5a11.25,11.25,0,0,0-2.08-1.93l.48-.56A12.71,12.71,0,0,1,52.28,215Zm.09,2.31a24.59,24.59,0,0,1-2.09,4.53l-.55-.47a20.44,20.44,0,0,0,2-4.41Zm.39-5.92-.5.54a10.78,10.78,0,0,0-2.13-1.77l.4-.52A8.49,8.49,0,0,1,52.76,211.42Zm4.47,7.39H54.44l.41.28a11.28,11.28,0,0,1-2,2.84l-.57-.48a9.28,9.28,0,0,0,1.88-2.64h-1V210h4Zm-.69-6.24v-1.94H53.91v1.94Zm0,2.72v-2H53.91v2Zm0,2.82V216H53.91v2.13Zm1.05,3.1-.6.37a8.64,8.64,0,0,0-1.38-2.2l.58-.39A9.3,9.3,0,0,1,57.59,221.21Zm1.64-1.86h-.71v-8.79h.71Zm2.25,1.53a.85.85,0,0,1-.36.81,3,3,0,0,1-1.3.2c-.35,0-.7,0-1,0l-.18-.7a15.27,15.27,0,0,0,2-.06c.14,0,.21-.19.21-.43v-11h.7Z" transform="translate(-5.09 -12.99)"/><path class="cls-4" d="M76.19,216.5a22.86,22.86,0,0,1-.14,2.64,9.45,9.45,0,0,1-.29,1.66,1.74,1.74,0,0,1-.42.63,1.63,1.63,0,0,1-.73.38,6.5,6.5,0,0,1-1.48.12l-.28-.8c.21,0,.64,0,1.3,0a1.13,1.13,0,0,0,.59-.15.92.92,0,0,0,.35-.43,6.93,6.93,0,0,0,.22-1.17,17.86,17.86,0,0,0,.16-2.2h-8.6a17.27,17.27,0,0,1-2.19,2.17l-.43-.68a11.89,11.89,0,0,0,4.27-6.32H64.8v-.73h3.89c.21-.92.35-1.62.41-2.1l.71.16c-.07.51-.19,1.16-.36,1.94H74.6c-.13.79-.3,1.6-.49,2.44H75.5a22,22,0,0,1-.43,2.41ZM67.7,211l-.64.4A10,10,0,0,0,65.88,210l.63-.4A10.57,10.57,0,0,1,67.7,211Zm.36,7.28a13.17,13.17,0,0,1-1.5,3.38l-.67-.36a12.89,12.89,0,0,0,1.51-3.2Zm6.57-3.5H68.4a13.19,13.19,0,0,1-1,1.7h6.92C74.45,215.87,74.55,215.3,74.63,214.8Zm-.9-2.42H69.28a15,15,0,0,1-.58,1.71h4.65C73.47,213.6,73.6,213,73.73,212.38Zm-3.64,9.1-.77.14a14.61,14.61,0,0,0-.36-3.35l.69-.15A23.5,23.5,0,0,1,70.09,221.48Zm2.23-.74-.72.26a13.14,13.14,0,0,0-.76-2.75l.67-.23A22.83,22.83,0,0,1,72.32,220.74Zm2-.77-.66.31a12.41,12.41,0,0,0-.92-2.14l.62-.31A12.17,12.17,0,0,1,74.32,220Z" transform="translate(-5.09 -12.99)"/><path class="cls-4" d="M90.48,213.25H81.07v2.18a10.67,10.67,0,0,1-1.68,6.36l-.6-.45a9.36,9.36,0,0,0,1.55-5.59V210H90.48Zm-.74-.7v-1.88H81.07v1.88Zm1.31,3.28H86.57v1.84h3.6v4.23h-.75v-.74H83v.74h-.74v-4.23h3.61v-1.84H81.59v-.68h4.25v-1.38h.73v1.38h4.48Zm-1.63,4.63v-2.09H83v2.09Z" transform="translate(-5.09 -12.99)"/><path class="cls-4" d="M105.53,220.63l-.5.63a10.55,10.55,0,0,1-4-3.35,6.77,6.77,0,0,1,.1,1.22c0,1.17-.18,1.91-.55,2.23a2.79,2.79,0,0,1-1.83.48l-.7,0-.24-.73a6.67,6.67,0,0,0,.92.06,2.44,2.44,0,0,0,1.12-.17,1.16,1.16,0,0,0,.42-.54,3.94,3.94,0,0,0,.15-1.33,7.65,7.65,0,0,0-.09-1.16,20.51,20.51,0,0,1-6.53,3.31l-.4-.63a17.39,17.39,0,0,0,6.72-3.49,4,4,0,0,0-.38-1.06,16.85,16.85,0,0,1-5.61,2.62l-.41-.69a14.13,14.13,0,0,0,5.7-2.59,5.76,5.76,0,0,0-.56-.83,18.77,18.77,0,0,1-4.38,1.52l-.39-.68a14.44,14.44,0,0,0,5.55-2.1H95.6v-.71h8v.71h-2.8a9.89,9.89,0,0,1-1.25.93,7.8,7.8,0,0,1,1.23,2.35,11.38,11.38,0,0,0,3.2-2.28l.52.51a11.5,11.5,0,0,1-3.09,2.26A9.14,9.14,0,0,0,105.53,220.63Zm-.48-7.43h-.73v-1.75H94.75v1.75H94v-2.46h5.32a6.58,6.58,0,0,0-.41-1l.72-.24q.18.41.48,1.26h4.92Z" transform="translate(-5.09 -12.99)"/><path class="cls-4" d="M113.94,211.17h-4a8.92,8.92,0,0,1-1.53,1.36L108,212a12.21,12.21,0,0,0,2.42-2.49l.65.27c-.09.14-.26.39-.52.73h3.43Zm-.49,5.05h-4v5.62h-.68v-9h4.69Zm-.7-2.05v-.71h-3.31v.71Zm0,1.39v-.79h-3.31v.79Zm-.53-3.32-.69.22a7.28,7.28,0,0,0-.45-.81l.65-.2Zm4.62,8.36h-5.53V217h5.53Zm-.7-2.18v-.73H112v.73Zm0,1.52v-.88H112v.88Zm3.84-8.77h-4.64a7.78,7.78,0,0,1-1.12,1.23l-.52-.48a9.3,9.3,0,0,0,1.89-2.33l.63.2a3.68,3.68,0,0,1-.42.73H120Zm-.64,9.78a.79.79,0,0,1-.31.71,1.65,1.65,0,0,1-.92.21h-.53l-.25-.71q.36,0,.72,0c.41,0,.61-.13.61-.41v-4.56h-3.93V212.8h4.61Zm-.68-6.78v-.71h-3.23v.71Zm0,1.39v-.79h-3.23v.79Zm-.77-3.33-.7.25a3.61,3.61,0,0,0-.58-.84l.72-.22A9.26,9.26,0,0,1,117.89,212.23Z" transform="translate(-5.09 -12.99)"/><path class="cls-4" d="M134.17,215.9c0,1.27-.08,2.43-.19,3.46a4.07,4.07,0,0,1-.44,1.87,2.36,2.36,0,0,1-.54.46,3.06,3.06,0,0,1-1.24.15h-1l-.3-.75c.57,0,1,.06,1.36.06a2,2,0,0,0,.85-.12.77.77,0,0,0,.32-.4,9.15,9.15,0,0,0,.26-1.53c.09-.84.15-1.68.17-2.52h-1.39c-1,2.16-3,3.92-6,5.28l-.43-.63q4.21-1.81,5.61-4.65h-2.22a11,11,0,0,1-5.62,3.43l-.43-.63a10.7,10.7,0,0,0,5.16-2.8H125.1a12.41,12.41,0,0,1-2,1.12l-.51-.56a9,9,0,0,0,3.58-2.5h-1.92V210H133v4.68h-5.95A7.1,7.1,0,0,1,126,215.9ZM132.28,212v-1.33H125V212Zm0,2v-1.37H125V214Z" transform="translate(-5.09 -12.99)"/><path class="cls-4" d="M148,221.87h-.76v-1h-8.09v1h-.76V211.23h3.85a6.34,6.34,0,0,0,.76-1.68l.74.17a9.08,9.08,0,0,1-.68,1.51H148Zm-.76-7.82V212h-8.09v2.06Zm0,2.95v-2.2h-8.09V217Zm0,3.17v-2.43h-8.09v2.43Z" transform="translate(-5.09 -12.99)"/><path class="cls-4" d="M155.8,215.66l-.5.56a12.43,12.43,0,0,0-1.19-1.66v7.28h-.71v-7A15.52,15.52,0,0,1,152,218l-.52-.53a15.74,15.74,0,0,0,1.82-4.8h-1.66v-.64h1.72v-2.4h.71v2.4h1.2v.64h-1.2v.9A14.73,14.73,0,0,1,155.8,215.66Zm3.69,5-.45.51a12.6,12.6,0,0,0-1.59-1.33,9.48,9.48,0,0,1-1.8,2.16l-.52-.51a8.84,8.84,0,0,0,2.43-3.46l.65.27-.45.95A11.63,11.63,0,0,1,159.49,220.61ZM164,213l-.4.62a11.9,11.9,0,0,1-3.9-2.9,14.41,14.41,0,0,1-3.84,3l-.53-.56a11.66,11.66,0,0,0,4.31-3.51l.69.25a1.68,1.68,0,0,1-.23.32A11.09,11.09,0,0,0,164,213Zm-4.88,4.72h-2.9v-3.33h2.9Zm-.7-.67v-2h-1.5v2Zm3.2-3.67h-3.9v-.69h3.9Zm2.21,8-.47.49a13.67,13.67,0,0,0-2-1.82,8.94,8.94,0,0,1-1.41,1.87l-.59-.4a9.41,9.41,0,0,0,2.1-3.5l.64.22a7.76,7.76,0,0,1-.48,1.22A13.25,13.25,0,0,1,163.84,221.33Zm-.78-3.64h-2.88v-3.33h2.88Zm-.68-.67v-2h-1.51v2Z" transform="translate(-5.09 -12.99)"/><path class="cls-4" d="M172.11,217a.77.77,0,0,1-.5-.67.63.63,0,0,1,.17-.41.57.57,0,0,1,.48-.21c.44,0,.66.29.66.86a1.8,1.8,0,0,1-.83,1.36l-.29-.22A1.25,1.25,0,0,0,172.11,217Z" transform="translate(-5.09 -12.99)"/><path class="cls-4" d="M184.92,215.66l-.5.56a12.43,12.43,0,0,0-1.19-1.66v7.28h-.71v-7a15.52,15.52,0,0,1-1.36,3.2l-.52-.53a15.74,15.74,0,0,0,1.82-4.8H180.8v-.64h1.72v-2.4h.71v2.4h1.2v.64h-1.2v.9A14.73,14.73,0,0,1,184.92,215.66Zm3.69,5-.45.51a12.6,12.6,0,0,0-1.59-1.33,9.48,9.48,0,0,1-1.8,2.16l-.52-.51a8.84,8.84,0,0,0,2.43-3.46l.65.27-.45.95A11.63,11.63,0,0,1,188.61,220.61Zm4.52-7.64-.4.62a11.9,11.9,0,0,1-3.9-2.9,14.41,14.41,0,0,1-3.84,3l-.53-.56a11.66,11.66,0,0,0,4.31-3.51l.69.25a1.68,1.68,0,0,1-.23.32A11.09,11.09,0,0,0,193.13,213Zm-4.88,4.72h-2.9v-3.33h2.9Zm-.7-.67v-2h-1.5v2Zm3.2-3.67h-3.9v-.69h3.9Zm2.21,8-.47.49a13.67,13.67,0,0,0-2-1.82,8.94,8.94,0,0,1-1.41,1.87l-.59-.4a9.41,9.41,0,0,0,2.1-3.5l.64.22a7.76,7.76,0,0,1-.48,1.22A13.25,13.25,0,0,1,193,221.33Zm-.78-3.64H189.3v-3.33h2.88Zm-.68-.67v-2H190v2Z" transform="translate(-5.09 -12.99)"/><path class="cls-4" d="M197.88,215l-.52.5a11.25,11.25,0,0,0-2.08-1.93l.48-.56A13.12,13.12,0,0,1,197.88,215Zm.09,2.31a24.59,24.59,0,0,1-2.09,4.53l-.55-.47a20.44,20.44,0,0,0,2-4.41Zm.39-5.92-.5.54a10.78,10.78,0,0,0-2.13-1.77l.4-.52A8.49,8.49,0,0,1,198.36,211.42Zm4.47,7.39H200l.41.28a11.28,11.28,0,0,1-2,2.84l-.57-.48a9.28,9.28,0,0,0,1.88-2.64h-1V210h4Zm-.69-6.24v-1.94h-2.63v1.94Zm0,2.72v-2h-2.63v2Zm0,2.82V216h-2.63v2.13Zm1.05,3.1-.6.37a8.64,8.64,0,0,0-1.38-2.2l.58-.39A9.3,9.3,0,0,1,203.19,221.21Zm1.64-1.86h-.71v-8.79h.71Zm2.25,1.53a.85.85,0,0,1-.36.81,3,3,0,0,1-1.3.2c-.35,0-.7,0-1,0l-.18-.7a15.27,15.27,0,0,0,2-.06c.14,0,.21-.19.21-.43v-11h.7Z" transform="translate(-5.09 -12.99)"/><path class="cls-4" d="M217.41,212.53h-.95v1.6H214V215h2.42v2.15H214a11.63,11.63,0,0,1-.72,1.05H215a2.35,2.35,0,0,0,.21-.5l.7.17a1.26,1.26,0,0,1-.1.33h1.48v.62h-1.77a4.72,4.72,0,0,1-1.27,1.57c.8.36,1.47.69,2,1l-.46.52a18.53,18.53,0,0,0-2.19-1.06,8.33,8.33,0,0,1-3.33,1.06l-.26-.67a8.66,8.66,0,0,0,2.77-.73q-1-.44-1.86-.69l.9-1h-1.94v-.62h2.48c.29-.37.54-.72.76-1.05h-2.24V215h2.46v-.82h-2.46v-1.6h-1v-.65h1V210.4h2.46v-.76H214v.76h2.42v1.48h.95Zm-4.06-.65V211h-1.77v.87Zm0,1.61v-1h-1.77v1Zm0,3v-.87h-1.76v.87Zm1.31,2.31h-1.89l-.61.74c.4.13.84.29,1.33.49A3.65,3.65,0,0,0,214.66,218.77Zm1.11-6.89V211H214v.87Zm0,1.61v-1H214v1Zm0,3v-.87H214v.87Zm6.31-3.89h-.64a15.09,15.09,0,0,1-1.48,6.76,8,8,0,0,0,2.1,2l-.41.57a7.39,7.39,0,0,1-2.16-2,10.75,10.75,0,0,1-2.4,2l-.42-.57a10.48,10.48,0,0,0,2.4-2,11.27,11.27,0,0,1-1.16-3.92l.65-.23a11.53,11.53,0,0,0,1,3.47,8.8,8.8,0,0,0,.93-2.87,29,29,0,0,0,.28-3.2h-1.9a11.06,11.06,0,0,1-1.52,2.76l-.56-.41a13.91,13.91,0,0,0,2.16-5.33l.67.12a15.09,15.09,0,0,1-.54,2.17h3Z" transform="translate(-5.09 -12.99)"/><path class="cls-4" d="M228,209.81l-.92,2.11v9.92h-.73v-8.49a19.2,19.2,0,0,1-1.62,2.45l-.39-.72a20.18,20.18,0,0,0,3-5.54Zm8.68,11.71h-9v-.71h1.23v-7.95h2.38a8,8,0,0,0,.41-1.26h-3.51v-.7h3.71c.1-.38.19-.83.27-1.33l.74.06a11.78,11.78,0,0,1-.27,1.26h3.72v.71h-3.88c-.11.36-.25.78-.43,1.26h3.39v7.95h1.23Zm-2-6.73v-1.25h-5v1.25Zm0,1.93v-1.26h-5v1.26Zm0,2v-1.28h-5v1.28Zm0,2.12v-1.44h-5v1.44Z" transform="translate(-5.09 -12.99)"/><path class="cls-4" d="M242.39,209.78a15.76,15.76,0,0,1-.55,1.68l-.4,1v9.34h-.73V214.1a21,21,0,0,1-1.29,2.16l-.42-.67a22.44,22.44,0,0,0,2.71-6.07Zm8.81,11.73h-9v-.64h4.2v-1.15h-3.69v-.65h3.69V218h-3.89v-.65h3.89v-1h-3.56v-2.42h3.56v-.81h-2.13v-1.5h-1.82v-.64h1.82v-1.3H245v1.3h3.44v-1.3h.72v1.3H251v.64h-1.85v1.5h-2v.81h3.44v2.42h-3.44v1h3.8V218h-3.8v1.1h3.6v.65h-3.6v1.15h4.06Zm-4.78-5.88v-1.09h-2.81v1.09Zm2-3.21v-.85H245v.85Zm1.41,3.21v-1.09h-2.72v1.09Z" transform="translate(-5.09 -12.99)"/><path class="cls-4" d="M257.18,209.82a16.36,16.36,0,0,1-.69,1.56l-.46.93v9.52h-.72v-8.29a24.28,24.28,0,0,1-1.48,2l-.38-.74a19.05,19.05,0,0,0,3.05-5.22Zm3.14,8.43a15.29,15.29,0,0,1-3.06,3.7l-.56-.5a15.89,15.89,0,0,0,3-3.54Zm5.38-1.14h-9v-.71h2.38v-3.23H257v-.72h2.17v-2.78h.74v2.78h2.69v-2.78h.77v2.78h2.05v.72h-2.05v3.23h2.38Zm-3.15-.71v-3.23h-2.69v3.23Zm3.19,5-.6.43a22.78,22.78,0,0,0-3.19-3.59l.61-.42A19.59,19.59,0,0,1,265.74,221.45Z" transform="translate(-5.09 -12.99)"/><path class="cls-4" d="M280.47,216.78l-.31.68a12.55,12.55,0,0,1-5.94-2.23,16.38,16.38,0,0,1-5.66,2.18l-.5-.67a14.22,14.22,0,0,0,6.23-2.42l.59.17-.14-.4a6.52,6.52,0,0,0,1.73-2l.65.24a7.63,7.63,0,0,1-1.16,1.62c1.16-.1,2.11-.21,2.84-.33a3.85,3.85,0,0,0-.62-.78l.57-.4a10.9,10.9,0,0,1,1.48,2l-.61.41c-.08-.16-.21-.39-.4-.7-1.71.24-3.12.4-4.22.51a.92.92,0,0,1-.16.12A12.94,12.94,0,0,0,280.47,216.78Zm-6.69-2.63-.57.44a2.12,2.12,0,0,0-.26-.35c-1,.23-2.42.46-4.37.72l-.19-.6a9,9,0,0,0,2-2.12l.76.16a8.34,8.34,0,0,1-1.48,1.75c.77-.09,1.72-.24,2.85-.44a2.63,2.63,0,0,0-.58-.62l.55-.44A7.48,7.48,0,0,1,273.78,214.15Zm5.16,4.42q-3.09,2.94-8.86,3.36l-.46-.72a13.64,13.64,0,0,0,8.66-3Zm-3.78-2a12.06,12.06,0,0,1-5.06,2.07l-.44-.64a11.6,11.6,0,0,0,4.82-1.83Zm1.84,1a14.72,14.72,0,0,1-6.85,2.66l-.43-.69a12.65,12.65,0,0,0,6.62-2.38Zm1.1-6-.6.42a2.05,2.05,0,0,0-.53-.58q-2.33.36-5.94.6l-.16-.62a9.48,9.48,0,0,0,2.55-1.89l.86.17a9.57,9.57,0,0,1-1.87,1.58c1.52-.09,2.89-.22,4.1-.39a3.64,3.64,0,0,0-.67-.64l.52-.45A9.33,9.33,0,0,1,278.1,211.65Z" transform="translate(-5.09 -12.99)"/><path class="cls-4" d="M294.86,214.19h-4.27a24.47,24.47,0,0,1-2.54,1.55h5.83v.72h-5.79l-.47,1.68h6.25a8.56,8.56,0,0,1-.65,2.76,1.63,1.63,0,0,1-1.06.83,14.14,14.14,0,0,1-2.58.15c-.52,0-1.05,0-1.61,0l-.31-.74c.95,0,1.78.06,2.51.06a9.16,9.16,0,0,0,1.87-.11,1.06,1.06,0,0,0,.57-.54,6,6,0,0,0,.42-1.65h-6.38l.79-2.83c-1.83.83-3.28,1.44-4.36,1.81l-.43-.65a30,30,0,0,0,6.68-3H283v-.74h4.58v-1.84H284v-.71h3.6v-1.27h.74v1.27h3.42v.71h-3.42v1.84h2a19,19,0,0,0,3.55-3.38l.56.47a22.7,22.7,0,0,1-2.89,2.91h3.29Z" transform="translate(-5.09 -12.99)"/><path class="cls-4" d="M303.15,217a.77.77,0,0,1-.5-.67.63.63,0,0,1,.17-.41.57.57,0,0,1,.48-.21c.44,0,.66.29.66.86a1.8,1.8,0,0,1-.83,1.36l-.29-.22A1.25,1.25,0,0,0,303.15,217Z" transform="translate(-5.09 -12.99)"/><path class="cls-4" d="M32.81,244.32H20.63v-.72h4.31v-7.92h-4v-.74H32.5v.74h-4v7.92h4.34Zm-8.76-2.23-.67.24a23.64,23.64,0,0,0-1.93-5.16l.65-.28A25.17,25.17,0,0,1,24.05,242.09Zm1.24-7.88-.64.47a8.24,8.24,0,0,0-1.71-1.85l.6-.44A8.77,8.77,0,0,1,25.29,234.21Zm2.43,9.39v-7.92h-2v7.92Zm2.82-10.84a8.25,8.25,0,0,1-1.85,1.93l-.6-.46a8.67,8.67,0,0,0,1.81-1.88ZM32,237.2a27.85,27.85,0,0,1-2,5.13l-.66-.28a29.15,29.15,0,0,0,2-5.1Z" transform="translate(-5.09 -12.99)"/><path class="cls-4" d="M40.34,237.08a22.08,22.08,0,0,1-.2,3.39,5.23,5.23,0,0,1-1.06,2.31,6.15,6.15,0,0,1-2.44,1.88l-.41-.62a5.88,5.88,0,0,0,2.07-1.54,4.42,4.42,0,0,0,1.09-2.11c-1.23.38-2.55.72-4,1.05l-.31-.73a34.37,34.37,0,0,0,4.39-1.15,10.41,10.41,0,0,0,.07-1.56H35.51v-.7h4.11v-2.12H35.36v-.74h4.26v-2h.72Zm7,4.13H43.12v3.48h-.75V232.41h.75v2h4v.74h-4v2.29h3.66v.72H43.12v2.3h4.22Z" transform="translate(-5.09 -12.99)"/><path class="cls-4" d="M62,239.16H57.44v.75h3.41v4.76h-.7v-.5H51.7v.5H51v-4.76h3.59c0-.36,0-.61,0-.75H49.82v-.63H62Zm-5.56-5.88H52.84l.38.24a2.6,2.6,0,0,1-.23.37h2.88v.58H54.33c0,.15,0,.36-.1.6h1.9v.61H54.37a11,11,0,0,1,1.5,1l-.41.46A8.37,8.37,0,0,0,53.79,236a3.87,3.87,0,0,1-1.84,1.1l-.38-.54a3.29,3.29,0,0,0,1.69-.9H51.57v-.61h2a1.38,1.38,0,0,0,.13-.6H52.45a5.23,5.23,0,0,1-.47.35l-.52-.4a3.75,3.75,0,0,0,1.14-1.14H51.11V237a.34.34,0,0,0,.33.33h4.41v.6H51.46a.91.91,0,0,1-1-1v-3.63H50v-.63h6.4Zm3.74,10.28v-1.64H57.77a1,1,0,0,1-.84-.29,1.29,1.29,0,0,1-.2-.74v-.35H55.1c-.31.9-1.23,1.52-2.75,1.84l-.35-.65a3.12,3.12,0,0,0,2.38-1.19H51.7v3ZM58.78,243H53v-.6h5.76Zm-2.05-3.09v-.75H55.31a5.14,5.14,0,0,1-.06.75Zm5.13-5.38H60.58c-.5,0-.75-.27-.75-.82v-.41h-2a2.4,2.4,0,0,1-.95,1.49l-.56-.41a1.63,1.63,0,0,0,.85-1.69H60.5v1.05a.18.18,0,0,0,.2.19h1.16Zm-.09,3.2-.37.52a18.79,18.79,0,0,0-1.9-1.05,9.74,9.74,0,0,1-2.83,1l-.31-.57a10.32,10.32,0,0,0,2.38-.77,14.66,14.66,0,0,0-1.85-.77l.28-.38h-.6v-.63h4.74v.63a5.33,5.33,0,0,1-1.2,1.1C60.48,237,61,237.3,61.77,237.73Zm-1.62,3.57v-.76H57.44v.51c0,.17.08.25.24.25Zm.21-5.6H57.59q1.62.68,1.83.78A4.94,4.94,0,0,0,60.36,235.7Z" transform="translate(-5.09 -12.99)"/><path class="cls-4" d="M76.46,242.35H70.75v1.4a.76.76,0,0,1-.26.62.88.88,0,0,1-.61.22H68.22l-.24-.69.8,0a3.51,3.51,0,0,0,1.11-.09c.11-.05.16-.16.16-.33v-1.16H64.31v-.66h5.74v-.56a23.7,23.7,0,0,0,2.27-.91H66.69v-.66h7.13v.66c-1,.48-2,.93-3.07,1.35v.12h5.71Zm-.29-1.89h-.73V238.7H65.32v1.76h-.71V238h.74l-.06-5a10.4,10.4,0,0,0,2.62-.67l.32.56a9.75,9.75,0,0,1-2.24.65v1h2.25v.64H66l0,1.08h2.21v.66H66l0,1.12h8.58l0-1.12H72.44v-.66h2.23v-1.08H72.44v-.64h2.27l0-1H72.32v-.64h3.13L75.33,238h.84Zm-4-3.21-.46.46c-.12-.13-.53-.47-1.23-1a9.85,9.85,0,0,1-1.69,1l-.35-.57a13.66,13.66,0,0,0,1.52-.84,4.72,4.72,0,0,0-.59-.45,5.73,5.73,0,0,1-.51-.35l.41-.43c.68.47,1.09.75,1.21.85a4.57,4.57,0,0,0,.91-.81l.53.37a9.08,9.08,0,0,1-.92.86C71.23,236.45,71.62,236.76,72.2,237.25Zm0-2.67-.46.4a10,10,0,0,0-1.19-1,11.26,11.26,0,0,1-1.6.9l-.3-.56A9.91,9.91,0,0,0,70,233.6a8.17,8.17,0,0,0-1-.77l.47-.41c.55.41.91.67,1.06.8a6,6,0,0,0,1-.94l.53.28a6.38,6.38,0,0,1-1,1.07A10.29,10.29,0,0,1,72.16,234.58Z" transform="translate(-5.09 -12.99)"/><path class="cls-4" d="M83,238.46l-.5.56a12.43,12.43,0,0,0-1.19-1.66v7.28H80.6v-7a15.52,15.52,0,0,1-1.36,3.2l-.52-.53a15.74,15.74,0,0,0,1.82-4.8H78.88v-.64H80.6v-2.39h.71v2.39h1.2v.64h-1.2v.9A14.73,14.73,0,0,1,83,238.46Zm3.69,4.95-.45.51a12.6,12.6,0,0,0-1.59-1.33,9.48,9.48,0,0,1-1.8,2.16l-.52-.51a8.84,8.84,0,0,0,2.43-3.46l.65.27L85,242A11.63,11.63,0,0,1,86.69,243.41Zm4.52-7.64-.4.62a11.9,11.9,0,0,1-3.9-2.9,14.41,14.41,0,0,1-3.84,3l-.53-.56a11.66,11.66,0,0,0,4.31-3.51l.69.25a1.68,1.68,0,0,1-.23.32A11.09,11.09,0,0,0,91.21,235.77Zm-4.88,4.72h-2.9v-3.33h2.9Zm-.7-.67v-2h-1.5v2Zm3.2-3.67h-3.9v-.69h3.9Zm2.21,8-.47.49a13.67,13.67,0,0,0-2-1.82,8.94,8.94,0,0,1-1.41,1.87l-.59-.4a9.41,9.41,0,0,0,2.1-3.5l.64.22a7.76,7.76,0,0,1-.48,1.22A14.24,14.24,0,0,1,91,244.13Zm-.78-3.64H87.38v-3.33h2.88Zm-.68-.67v-2H88.07v2Z" transform="translate(-5.09 -12.99)"/><path class="cls-4" d="M94.43,240.35a20.68,20.68,0,0,1-.39,3.4l-.65-.15a17.47,17.47,0,0,0,.43-3.31Zm4-6.88H96.89v1.35h1.32v.66H96.89v1.31h1.32v.69H96.89v1.39h1.32c0,.78,0,1.41,0,1.89,0,1,0,1.78-.09,2.38a2.51,2.51,0,0,1-.3,1.16.92.92,0,0,1-.52.34,5.88,5.88,0,0,1-1.16.08L96,244l.84,0a.62.62,0,0,0,.61-.39,10.57,10.57,0,0,0,.18-2.73c0-.5,0-1,0-1.35H94.1v-6.76h4.37Zm-3.08,10.1-.58.08c0-.43,0-.86,0-1.28,0-.72,0-1.38-.08-2l.53-.08q.12,2,.12,2.49C95.41,243.09,95.4,243.33,95.39,243.57Zm.79-8.76v-1.34H94.81v1.34Zm0,2v-1.3H94.81v1.3Zm0,2.08v-1.39H94.81v1.39Zm.29,4.14-.56.08a15,15,0,0,0-.3-2.73l.52-.11A20,20,0,0,1,96.47,243Zm.87-.74-.48.11a18.46,18.46,0,0,0-.42-2.19l.45-.11A16.93,16.93,0,0,1,97.34,242.27Zm8.32-6.47-.36.6a9.7,9.7,0,0,1-3.39-3,12.66,12.66,0,0,1-3.18,2.92l-.43-.59a10.55,10.55,0,0,0,3.45-3.39l.71.22c0,.07-.07.15-.13.26A9.7,9.7,0,0,0,105.66,235.8Zm-3.89,7.57-.5.52a8.72,8.72,0,0,0-1-1.19,11.07,11.07,0,0,1-1.32,2l-.58-.39a9.75,9.75,0,0,0,1.85-3.44l.66.23c-.14.4-.25.72-.35.95A11.55,11.55,0,0,1,101.77,243.37Zm-.18-2.84H98.92V237.2h2.67Zm-.67-.66v-2H99.57v2Zm2.83-3.65H100v-.67h3.74Zm1.9,8-.52.48a10.43,10.43,0,0,0-1.7-1.78,11,11,0,0,1-1.28,1.87l-.57-.44a9.48,9.48,0,0,0,1.94-3.51l.69.24a11.67,11.67,0,0,1-.49,1.2A12.47,12.47,0,0,1,105.65,244.19Zm-.63-3.66h-2.7V237.2H105Zm-.66-.66v-2H103v2Z" transform="translate(-5.09 -12.99)"/><path class="cls-4" d="M120.2,244.13l-.43.64a18.06,18.06,0,0,1-3.63-2.18,14.58,14.58,0,0,1-4.64,2.16l-.47-.67a12.61,12.61,0,0,0,4.53-2,16,16,0,0,1-2.94-4.7h-.26a13.15,13.15,0,0,1-3.93,7.21l-.55-.57a14.23,14.23,0,0,0,3-4.23,20.64,20.64,0,0,0,1.18-6.3H109v-.74h9.17c-.34,1.05-.8,2.35-1.37,3.89h2.57a11.18,11.18,0,0,1-2.62,5.45A16.22,16.22,0,0,0,120.2,244.13Zm-3.11-10.63h-4.27c-.12,1.4-.22,2.46-.31,3.15H116C116.45,235.43,116.81,234.38,117.09,233.5Zm1.32,3.89h-5a13.61,13.61,0,0,0,2.73,4.23A9.32,9.32,0,0,0,118.41,237.39Z" transform="translate(-5.09 -12.99)"/><path class="cls-4" d="M134.77,239.16h-4.53v.75h3.41v4.76H133v-.5H124.5v.5h-.72v-4.76h3.59c0-.36,0-.61,0-.75h-4.79v-.63h12.15Zm-5.56-5.88h-3.57l.38.24a2.6,2.6,0,0,1-.23.37h2.88v.58h-1.54c0,.15,0,.36-.1.6h1.9v.61h-1.76a11,11,0,0,1,1.5,1l-.41.46a8.37,8.37,0,0,0-1.67-1.15,3.87,3.87,0,0,1-1.84,1.1l-.38-.54a3.29,3.29,0,0,0,1.69-.9h-1.69v-.61h2a1.38,1.38,0,0,0,.13-.6h-1.22a5.23,5.23,0,0,1-.47.35l-.52-.4a3.75,3.75,0,0,0,1.14-1.14h-1.49V237a.34.34,0,0,0,.33.33h4.41v.6h-4.39a.91.91,0,0,1-1-1v-3.63h-.43v-.63h6.4ZM133,243.56v-1.64h-2.38a1,1,0,0,1-.84-.29,1.29,1.29,0,0,1-.2-.74v-.35H127.9c-.31.9-1.23,1.52-2.75,1.84l-.35-.65a3.12,3.12,0,0,0,2.38-1.19H124.5v3Zm-1.37-.56h-5.76v-.6h5.76Zm-2.05-3.09v-.75H128.1a5.05,5.05,0,0,1,0,.75Zm5.13-5.38h-1.28c-.5,0-.75-.27-.75-.82v-.41h-2a2.4,2.4,0,0,1-.95,1.49l-.56-.41a1.63,1.63,0,0,0,.85-1.69h3.29v1.05a.18.18,0,0,0,.2.19h1.16Zm-.09,3.2-.37.52a18.79,18.79,0,0,0-1.9-1.05,9.74,9.74,0,0,1-2.83,1l-.31-.57a10.32,10.32,0,0,0,2.38-.77,14.66,14.66,0,0,0-1.85-.77l.28-.38h-.6v-.63h4.74v.63a5.33,5.33,0,0,1-1.2,1.1C133.28,237,133.83,237.3,134.57,237.73ZM133,241.3v-.76h-2.71v.51c0,.17.08.25.24.25Zm.21-5.6h-2.77q1.62.68,1.83.78A4.94,4.94,0,0,0,133.16,235.7Z" transform="translate(-5.09 -12.99)"/><path class="cls-4" d="M149.32,234.23h-9.54v3.88a10.63,10.63,0,0,1-2.07,6.51l-.57-.52a9,9,0,0,0,1.89-4.9c-.92.66-1.47,1-1.64,1.14l-.36-.62a17.85,17.85,0,0,0,2.07-1.43v-4.75h4.66a7,7,0,0,0-.53-.91l.71-.26c.15.26.35.65.62,1.17h4.76ZM138.59,237l-.63.38a9.93,9.93,0,0,0-.91-2.43l.62-.37A16.25,16.25,0,0,1,138.59,237Zm4.22,5.64a9.91,9.91,0,0,1-2.52,1.71l-.54-.56a8.9,8.9,0,0,0,2.53-1.6Zm6.52-3.84-.38.65a13.13,13.13,0,0,1-1.3-.65v2.85H145v2a.79.79,0,0,1-.38.79,2.64,2.64,0,0,1-1.1.18h-.66l-.24-.71c.33,0,.62,0,.87,0a1.36,1.36,0,0,0,.68-.1.34.34,0,0,0,.13-.31v-1.94h-2.72v-2.85c-.45.29-.82.51-1.11.67l-.45-.59a8.93,8.93,0,0,0,1.61-1,7.84,7.84,0,0,0-1.21-1l.5-.5a10.4,10.4,0,0,1,1.25,1,4.91,4.91,0,0,0,1.17-1.43h-2.67v-.67h3a8.67,8.67,0,0,0,.37-.79l.75.12a7.12,7.12,0,0,1-.32.67H149V236h-3.37a6.39,6.39,0,0,0,1.18,1.36,6.13,6.13,0,0,0,1.34-1.06l.52.52a7.46,7.46,0,0,1-1.29,1A6.86,6.86,0,0,0,149.33,238.77Zm-2.39.5v-.92h-4.69v.92Zm0,1.7v-1h-4.69v1Zm-.76-3.26a6.29,6.29,0,0,1-1.33-1.71h-.73a9.94,9.94,0,0,1-1.27,1.71Zm3,6.17-.49.55a14.05,14.05,0,0,0-2.67-1.62l.43-.53A12.16,12.16,0,0,1,149.19,243.88Z" transform="translate(-5.09 -12.99)"/><path class="cls-4" d="M154.57,236.76a5.25,5.25,0,0,1,1.16,3.23,1.57,1.57,0,0,1-.32,1,1.72,1.72,0,0,1-1.38.41l-.52,0-.28-.74.78,0a1.4,1.4,0,0,0,.83-.17.63.63,0,0,0,.2-.51,5.11,5.11,0,0,0-1.23-3.15c.31-.92.66-2.06,1.06-3.4h-2.05v11.21h-.72V232.75h3.53v.71C155.3,234.56,155,235.66,154.57,236.76Zm9.31,5.17a6.18,6.18,0,0,1-.17,1.66,1.19,1.19,0,0,1-.5.75,2.89,2.89,0,0,1-1.34.2c-.79,0-1.19-.29-1.19-.87v-4.3h-1.59a6.41,6.41,0,0,1-1,3.46,6.22,6.22,0,0,1-2.43,1.83l-.53-.62a5.17,5.17,0,0,0,2.37-1.66,4.88,4.88,0,0,0,.81-3h-2.09v-.7h7.4v.7h-2.24v4.14a.32.32,0,0,0,.09.21c.06.08.27.11.62.11a2.08,2.08,0,0,0,.62-.06.6.6,0,0,0,.23-.17,2.07,2.07,0,0,0,.14-.68,11.71,11.71,0,0,0,0-1.22Zm-.28-5.29h-.73v-2.09H157v2.09h-.73v-2.82h3.25a7.8,7.8,0,0,0-.49-1.28l.74-.2a9.49,9.49,0,0,1,.54,1.48h3.33Zm-1.29.27h-4.76v-.69h4.76Z" transform="translate(-5.09 -12.99)"/><path class="cls-4" d="M172,233.07a14.57,14.57,0,0,1-4.16,1.07v1.67h3.67v4.08h-3.68a11.18,11.18,0,0,1-1.11,4.69l-.61-.43a10.28,10.28,0,0,0,1-4.73v-5.85a14.56,14.56,0,0,0,4.55-1.13Zm-1.2,6.11V236.5h-3v2.68Zm7.63-1.63h-1.6v7.17h-.69v-7.17h-2.51a13.93,13.93,0,0,1-.48,4.26,12.9,12.9,0,0,1-1.48,2.91l-.59-.48a9.28,9.28,0,0,0,1.51-3,15.8,15.8,0,0,0,.32-3.52v-4.28a15.17,15.17,0,0,0,5-1l.38.63a15.92,15.92,0,0,1-4.63,1v2.78h4.8Z" transform="translate(-5.09 -12.99)"/><path class="cls-4" d="M185.13,234.55H180.8v-.71h1.88a8.19,8.19,0,0,0-.56-1.29l.63-.24a8,8,0,0,1,.67,1.53h1.71Zm-.27,2h-3.75v-.7h3.75Zm0,2h-3.75v-.7h3.75Zm-.26,5.73h-.7v-.76h-1.85v1.09h-.7v-4.7h3.25Zm-.7-1.46v-2.19h-1.85v2.19Zm2.77-2.71a14.2,14.2,0,0,1-1.08,3.4l-.64-.28a13.61,13.61,0,0,0,1-3.3Zm5.78-7.38q-.06,1.55-.18,3a12.86,12.86,0,0,1-.22,1.73,1.23,1.23,0,0,1-.31.49,1.54,1.54,0,0,1-.64.32,5.45,5.45,0,0,1-1.41.06l-.21-.75c.45,0,.77,0,1,0a1,1,0,0,0,.93-.41,16.67,16.67,0,0,0,.35-3.77h-1.9c-.18,2.84-1.5,4.65-4,5.42l-.43-.57a5.94,5.94,0,0,0,2.58-1.63,8.52,8.52,0,0,0-1.75-1.5l.46-.49a8.56,8.56,0,0,1,1.69,1.4,6,6,0,0,0,.71-2.63h-3.48v-.71Zm-1.39,9.15a6.46,6.46,0,0,1-.27,1.9,1,1,0,0,1-.51.55,4,4,0,0,1-1.3.13,2.17,2.17,0,0,1-1.25-.26,1.09,1.09,0,0,1-.35-.93v-3.35h.7v3.42a.37.37,0,0,0,.18.32,2.52,2.52,0,0,0,1,.12c.43,0,.7-.08.82-.24a5.54,5.54,0,0,0,.3-1.84Zm-.86-1.58-.51.49a12.23,12.23,0,0,0-1.59-1.89l.46-.5A9.84,9.84,0,0,1,190.2,240.32Zm2.77,2.73-.67.31a15.56,15.56,0,0,0-1.07-3.25l.6-.26A16.73,16.73,0,0,1,193,243.05Z" transform="translate(-5.09 -12.99)"/><path class="cls-4" d="M206.91,243.61a.85.85,0,0,1-.48.89,4.34,4.34,0,0,1-1,.13h-1.61l-.3-.73c.25,0,1,0,2.3,0,.25,0,.38-.12.38-.36V233.46h-9.42v11.21h-.72V232.76h10.85ZM205,235.89H198v-.71H205Zm-.79,5.92h-5.48v-4.15h5.48Zm-.76-.75v-2.68h-4v2.68Z" transform="translate(-5.09 -12.99)"/><path class="cls-4" d="M222.19,243.72l-.29.75h-5.14a4,4,0,0,1-3.34-1.31,33,33,0,0,1-2.94,1.53L210,244a27.65,27.65,0,0,0,6.26-3.75,21.41,21.41,0,0,0,4.15-4.84h-9.71v-.78h5.34a8.21,8.21,0,0,0-1.08-2l.78-.3a12.5,12.5,0,0,1,1.13,2.27h4.45v.78a21.23,21.23,0,0,1-7.26,7.33,3.45,3.45,0,0,0,2.7.95Z" transform="translate(-5.09 -12.99)"/><path class="cls-4" d="M236.72,236.47l-.47.61a16.6,16.6,0,0,1-5.71-3.73,21.1,21.1,0,0,1-5.66,3.75l-.47-.63a17,17,0,0,0,6.12-4.19l.71.28a.72.72,0,0,1-.2.31A16.49,16.49,0,0,0,236.72,236.47ZM235,244.71h-.73v-.93h-7.33v.93h-.75v-5.57H235Zm-.73-1.67v-3.15h-7.33V243Zm0-5.84h-7.25v-.75h7.25Z" transform="translate(-5.09 -12.99)"/><path class="cls-4" d="M243.46,238l-.52.51a7.06,7.06,0,0,0-1-1.45v7.57h-.71v-6.92a15.05,15.05,0,0,1-1.82,3.17l-.49-.62A14.07,14.07,0,0,0,241.2,236h-1.89v-.71h1.95v-2.87H242v2.87h1.41V236H242v.09A9.29,9.29,0,0,1,243.46,238Zm7.86.57-.45.65a17.66,17.66,0,0,1-3.45-1.75,15.78,15.78,0,0,1-3.64,1.73l-.41-.61a14.66,14.66,0,0,0,3.42-1.6,6.79,6.79,0,0,1-1.53-1.74c-.32.27-.63.52-.93.73l-.6-.5a9.49,9.49,0,0,0,3.06-3.18l.72.22a4.88,4.88,0,0,1-.68,1h3.59v.69a11.61,11.61,0,0,1-2.36,2.81A14.29,14.29,0,0,0,251.32,238.57Zm-1.06,6.06h-.72V244h-4.31v.6h-.73V239.5h5.76Zm-.72-1.31v-3.09h-4.31v3.09Zm0-9.09h-3.26a4.83,4.83,0,0,1-.49.53,6.1,6.1,0,0,0,1.63,1.82A8.76,8.76,0,0,0,249.54,234.23Z" transform="translate(-5.09 -12.99)"/><path class="cls-4" d="M261.09,235.33h-.95v1.6h-2.42v.82h2.42v2.15h-2.46a11.63,11.63,0,0,1-.72,1h1.71a2.35,2.35,0,0,0,.21-.5l.7.17a1.15,1.15,0,0,1-.1.33H261v.62h-1.77a4.63,4.63,0,0,1-1.27,1.57c.8.36,1.47.69,2,1l-.46.52a18.53,18.53,0,0,0-2.19-1.06,8.33,8.33,0,0,1-3.33,1.06l-.26-.67a8.66,8.66,0,0,0,2.77-.73q-1-.44-1.86-.69l.9-1h-1.94V241h2.48c.29-.37.54-.72.76-1h-2.25v-2.15H257v-.82h-2.47v-1.6h-1v-.65h1V233.2H257v-.76h.69v.76h2.42v1.48h.95Zm-4.06-.65v-.87h-1.77v.87Zm0,1.61v-1h-1.77v1Zm0,3v-.87h-1.76v.87Zm1.31,2.31h-1.89l-.61.74c.4.13.84.29,1.33.49A3.65,3.65,0,0,0,258.34,241.57Zm1.11-6.89v-.87h-1.73v.87Zm0,1.61v-1h-1.73v1Zm0,3v-.87h-1.73v.87Zm6.31-3.89h-.64a15.17,15.17,0,0,1-1.48,6.77,8.2,8.2,0,0,0,2.09,2l-.41.57a7.48,7.48,0,0,1-2.15-2,10.75,10.75,0,0,1-2.4,2l-.42-.57a10.48,10.48,0,0,0,2.4-2,11.27,11.27,0,0,1-1.16-3.92l.65-.23a11.53,11.53,0,0,0,1,3.47,9,9,0,0,0,.93-2.87,29,29,0,0,0,.28-3.2h-1.9a11.06,11.06,0,0,1-1.52,2.76l-.56-.41a13.91,13.91,0,0,0,2.16-5.33l.67.12a15.09,15.09,0,0,1-.54,2.17h3Z" transform="translate(-5.09 -12.99)"/><path class="cls-4" d="M271.91,238.74c-.35.19-.81.4-1.37.64v4.33a.79.79,0,0,1-.31.75,2.72,2.72,0,0,1-1.26.19l-.39,0-.22-.71.88,0a.89.89,0,0,0,.49-.09.34.34,0,0,0,.11-.27v-3.89c-.61.25-1.14.44-1.58.57l-.24-.7a16.52,16.52,0,0,0,1.82-.65v-3.35h-1.69v-.66h1.69v-2.48h.7v2.48h1.28v.66h-1.28v3.07c.33-.14.72-.32,1.16-.55Zm8.14-4.25a10.11,10.11,0,0,1-.59,2.12l-.64-.17a12.17,12.17,0,0,0,.43-1.3h-3.39v.73l2.4-.14,0,.6-2.42.14v.41a.35.35,0,0,0,.09.23.28.28,0,0,0,.22.12h3.3v.65H276c-.54,0-.81-.3-.81-.89v-.46l-1.61.11-.06-.6,1.67-.1v-.8h-2.07v2.37a21.7,21.7,0,0,1-.37,4.66,7.81,7.81,0,0,1-.92,2.45l-.62-.38A7.79,7.79,0,0,0,272,242a17.91,17.91,0,0,0,.34-4.05v-3.48h3.09v-2.08h.73v.67h3.26v.66H276.2v.75Zm.35,9.39-.45.51a12.49,12.49,0,0,1-2-1.83,3.39,3.39,0,0,1-.21,1.57c-.18.36-.61.53-1.29.53a6.05,6.05,0,0,1-.63,0l-.18-.66a6.62,6.62,0,0,0,.85.05.73.73,0,0,0,.64-.26,2.56,2.56,0,0,0,.13-1.23,13.38,13.38,0,0,1-3.85,1.94l-.38-.59a12.24,12.24,0,0,0,4.12-2,2,2,0,0,0-.21-.7,11.67,11.67,0,0,1-3.36,1.64l-.37-.56a11.08,11.08,0,0,0,3.43-1.64,3.27,3.27,0,0,0-.37-.42,11.68,11.68,0,0,1-2.58,1l-.38-.59a9.84,9.84,0,0,0,3.44-1.38h-3.13v-.68h6.56v.68h-2.5a8.92,8.92,0,0,1-.85.67,3.94,3.94,0,0,1,.68,1,9.89,9.89,0,0,0,2.19-1l.4.53a12.61,12.61,0,0,1-2.31,1.09A10.75,10.75,0,0,0,280.4,243.88Z" transform="translate(-5.09 -12.99)"/><path class="cls-4" d="M288.59,239.85a.8.8,0,0,1-.5-.68.63.63,0,0,1,.17-.41.57.57,0,0,1,.48-.21c.44,0,.66.29.66.86a1.8,1.8,0,0,1-.83,1.36l-.29-.22A1.25,1.25,0,0,0,288.59,239.85Z" transform="translate(-5.09 -12.99)"/><path class="cls-4" d="M303.61,235.4c-.3.07-.59.13-.87.17a12.15,12.15,0,0,1-1.33,5.84c.76.57,1.42,1.09,2,1.57l-.5.56A22.2,22.2,0,0,0,301,242a12.86,12.86,0,0,1-3.18,2.69l-.53-.57a10.8,10.8,0,0,0,3.09-2.54c-.73-.53-1.57-1.08-2.53-1.64a31.37,31.37,0,0,0,.94-3.82c-.5.06-1,.1-1.47.14l0-.76q.75,0,1.65-.15a21.27,21.27,0,0,0,.43-3h.75c-.11.91-.25,1.86-.43,2.86.76-.08,1.55-.19,2.35-.32a4.85,4.85,0,0,0,0-.58c0-.15,0-.36,0-.61h.71a8.67,8.67,0,0,1,0,1,5.62,5.62,0,0,0,.8-.15Zm-1.58.32c-.76.12-1.58.24-2.47.34-.34,1.68-.62,2.88-.85,3.59q.85.49,2.1,1.32A11.88,11.88,0,0,0,302,235.72Zm6.87,8.41h-.75v-1.19h-3.3v1.19h-.77V233.67h4.82Zm-.75-2v-7.76h-3.3v7.76Z" transform="translate(-5.09 -12.99)"/><path class="cls-4" d="M32.82,257.56H25.89a15.83,15.83,0,0,1-1,1.57h6.88v7.3a.89.89,0,0,1-.39.84,4.52,4.52,0,0,1-1.84.23c-.36,0-.73,0-1.08,0l-.35-.73c.42,0,.88.06,1.36.06a5.24,5.24,0,0,0,1.36-.1.36.36,0,0,0,.22-.36V264.5H24.13a6,6,0,0,1-1.55,3.06l-.7-.41c1.16-1,1.73-2.84,1.73-5.43,0-.27,0-.62,0-1a17,17,0,0,1-2.53,2.13l-.56-.55a14.42,14.42,0,0,0,4.52-4.7H20.64v-.73h4.81a18.22,18.22,0,0,0,.81-1.65l.75.21c-.27.6-.5,1.08-.71,1.44h6.52ZM31,263.82v-1.68H24.31a14.61,14.61,0,0,1-.07,1.68Zm0-2.41v-1.6H24.35v1.6Z" transform="translate(-5.09 -12.99)"/><path class="cls-4" d="M41.28,263.47H38.86a5.77,5.77,0,0,1-.2.7,18.51,18.51,0,0,1,1.85,1.69l-.48.54a10.3,10.3,0,0,0-1.65-1.53,6.4,6.4,0,0,1-2.69,2.61l-.53-.52a5,5,0,0,0,2.93-3.49H35.3v-.67h2.89c0-.36.08-.9.09-1.6H36.81a11.8,11.8,0,0,1-.93,1.19L35.3,262a7.81,7.81,0,0,0,1.61-2.5l.64.28a6.36,6.36,0,0,1-.33.75h3.52v.69H39a14.85,14.85,0,0,1-.07,1.6h2.37Zm-.34-4.27H36.88a.93.93,0,0,1-.68-.27.9.9,0,0,1-.27-.64v-3.06h.73v1.15h3.93v.69H36.66v1.18c0,.2.11.29.33.29h3.95Zm6.52,7.27-.19.77a8.35,8.35,0,0,1-3.23-.47,3.61,3.61,0,0,1-1.68-1.65,7.81,7.81,0,0,1-1.5,2.39l-.52-.5a6.53,6.53,0,0,0,1.51-2.63,12.65,12.65,0,0,0,.27-2.8h.7a14.57,14.57,0,0,1-.22,2.51A3.42,3.42,0,0,0,44,265.91v-5.67H41.24v-.69H44.7a14.38,14.38,0,0,0-2.47-1.9l.48-.52c.44.29.91.62,1.38,1a9.22,9.22,0,0,0,2-1.89H41.67v-.69H46.9v.69a10.23,10.23,0,0,1-2.25,2.33c.26.22.48.42.66.59l-.35.4h2.17v.69a13.3,13.3,0,0,1-.78,1.7l-.64-.31a7.08,7.08,0,0,0,.65-1.39H44.72v2.45h2.07v.69H44.72v2.86a4.75,4.75,0,0,0,1.91.25Z" transform="translate(-5.09 -12.99)"/><path class="cls-4" d="M61.73,257.16a13,13,0,0,1-.92,2.21l-.67-.22a9.38,9.38,0,0,0,.59-1.34H55.52v.84l3.86-.19,0,.62-3.91.2v.31c0,.2.13.31.39.31h4.43v.63H55.7a.77.77,0,0,1-.88-.87v-.32l-2.27.09,0-.62,2.32-.12v-.88H51.75v2.42a14,14,0,0,1-1.48,7.09l-.59-.4A13.68,13.68,0,0,0,51,260.23v-3.07h4v-1.93h.72v.58h5.31v.65H55.76v.7Zm-8.17,8.12a8.79,8.79,0,0,1-1.24,2l-.58-.38a11.77,11.77,0,0,0,1.2-1.9Zm7.39-.83H52.89v-3.3H61Zm-4.37-2v-.66h-3v.66Zm0,1.35v-.71h-3v.71Zm3.18,2.27a1.6,1.6,0,0,1-.5,1.09,1.88,1.88,0,0,1-1.19.31H55.44c-.63,0-.94-.32-.94-1V265h.72v1.44q0,.3.18.36a3.74,3.74,0,0,0,1,.07,19.37,19.37,0,0,0,2.14-.07c.35-.05.54-.36.58-.95Zm-1.8-.52-.41.57a9.13,9.13,0,0,0-1.53-.87l.41-.54A7.16,7.16,0,0,1,58,265.56Zm2.3-3.1v-.66h-3v.66Zm0,1.35v-.71h-3v.71Zm1.67,2.9-.58.39a10.59,10.59,0,0,0-1.4-1.8l.59-.39A10.62,10.62,0,0,1,61.93,266.71Z" transform="translate(-5.09 -12.99)"/><path class="cls-4" d="M68.51,257.33H64.27v-.69h2.08a8,8,0,0,0-.63-1.23l.64-.3a12.92,12.92,0,0,1,.74,1.53h1.41Zm-.17,2H64.6v-.72h3.74Zm0,2.1H64.6v-.73h3.74Zm-.21,5.68h-.71v-.75H65.48v1.1h-.69v-4.62h3.34Zm-.71-1.46v-2.12H65.48v2.12Zm9-5.38H68.79v-.65h3.5v-1h-2.9V258h2.9v-1H69.1v-.64h3.19v-1.11H73v1.11h3.13V257H73v1h2.81v.64H73v1h3.41Zm-.86,6.09a1.1,1.1,0,0,1-.32.83c-.22.21-.93.29-2.13.25l-.25-.71H74.4a.41.41,0,0,0,.28-.12.36.36,0,0,0,.14-.27v-1.15H70.3a6.45,6.45,0,0,1-1,2.33l-.53-.48a6.11,6.11,0,0,0,.95-3.7v-2.19h5.81Zm-.73-1.83v-1.06H70.41a5.42,5.42,0,0,1,0,1.06Zm0-1.7v-1H70.43v1Z" transform="translate(-5.09 -12.99)"/><path class="cls-4" d="M86.35,260.67l-.62.39a12.4,12.4,0,0,0-.76-1.41l-1.91.31v2.19h2.71v.72H83.06v2.86c1.09-.15,2.12-.33,3.1-.55v.73c-2.4.49-4.81.88-7.24,1.14l-.16-.71c1.58-.19,2.77-.35,3.58-.46v-3H79.15v-.72h3.19v-2.1c-1.13.15-2.18.24-3.15.28l-.12-.6a8.94,8.94,0,0,0,2.71-3.44H79v-.74h7.18v.74H82.66a14.8,14.8,0,0,1-2.25,3.24,36.65,36.65,0,0,0,4.17-.54c-.25-.39-.56-.84-1-1.36l.63-.36A17.5,17.5,0,0,1,86.35,260.67Zm1.53,4.16h-.73v-8.68h.73Zm2.81,1.32a1.08,1.08,0,0,1-1.19,1.24H87.6l-.29-.74c.69,0,1.37.05,2,.05.41,0,.61-.21.61-.63V255.17h.73Z" transform="translate(-5.09 -12.99)"/><path class="cls-4" d="M105.68,266.92l-.5.63a13,13,0,0,1-3.61-3.34,13.3,13.3,0,0,1-2-4.7,11.7,11.7,0,0,1-5.72,8l-.48-.64A14.72,14.72,0,0,0,95.74,265a11.71,11.71,0,0,0,1.91-2.32,10.24,10.24,0,0,0,1.16-3.35h-5.2v-.73h5.33a28,28,0,0,0,.24-3.4h.8c0,1.22-.13,2.36-.26,3.4h5.73v.73h-5.19a12.61,12.61,0,0,0,2.07,4.7A12,12,0,0,0,105.68,266.92Z" transform="translate(-5.09 -12.99)"/><path class="cls-4" d="M120.14,265.15h-5.71v1.4a.78.78,0,0,1-.26.62.88.88,0,0,1-.61.22H111.9l-.24-.69.81,0a3.47,3.47,0,0,0,1.1-.09c.11-.05.16-.16.16-.33v-1.16H108v-.66h5.74v-.56A23.7,23.7,0,0,0,116,263h-5.63v-.66h7.13V263c-1,.48-2,.93-3.07,1.35v.12h5.71Zm-.29-1.89h-.73V261.5H109v1.76h-.7v-2.42H109l-.06-5a10.4,10.4,0,0,0,2.62-.67l.32.56a9.75,9.75,0,0,1-2.24.65v1h2.26V258h-2.25l0,1.08h2.21v.66h-2.19l0,1.12h8.58l0-1.12h-2.22v-.66h2.23V258h-2.24v-.64h2.27l0-1H116v-.64h3.13l-.12,5.15h.84Zm-4-3.21-.45.46c-.13-.13-.54-.47-1.24-1a9.85,9.85,0,0,1-1.69,1l-.35-.57a14.43,14.43,0,0,0,1.53-.84,5.83,5.83,0,0,0-.6-.45,5.73,5.73,0,0,1-.51-.35l.41-.43c.68.47,1.09.75,1.21.85a4.93,4.93,0,0,0,.91-.81l.53.37a9.08,9.08,0,0,1-.92.86C114.91,259.25,115.3,259.56,115.88,260.05Zm0-2.67-.46.4a10,10,0,0,0-1.19-1,11.7,11.7,0,0,1-1.59.9l-.31-.56a10.56,10.56,0,0,0,1.39-.76,8,8,0,0,0-1-.77l.47-.41c.55.41.91.67,1.06.8a6,6,0,0,0,1-.94l.54.28a7,7,0,0,1-1,1.07A9.4,9.4,0,0,1,115.84,257.38Z" transform="translate(-5.09 -12.99)"/><path class="cls-4" d="M126.46,266.34h-.71v-.8h-1.94v1.15h-.7V255.86h3.35Zm-.71-7.61v-2.18h-1.94v2.18Zm0,3v-2.26h-1.94v2.26Zm0,3.14v-2.44h-1.94v2.44Zm8-3.81h-5.13v5.53a24.83,24.83,0,0,0,2.45-.91l.13.69a30.86,30.86,0,0,1-3.21,1.15l-.34-.64a.5.5,0,0,0,.28-.43V255.6h5.82Zm-.71-3v-1.71h-4.42V258Zm0,2.36v-1.7h-4.42v1.7Zm1.63,6.68-.54.56a9.16,9.16,0,0,1-3.73-5.57l.67-.21a8.19,8.19,0,0,0,.69,1.89,12.23,12.23,0,0,0,2.08-1.79l.59.41a15.67,15.67,0,0,1-2.34,2A8.51,8.51,0,0,0,134.69,267Z" transform="translate(-5.09 -12.99)"/><path class="cls-4" d="M142.73,255.71a12.64,12.64,0,0,1-2.18.72v2.24h2.07v.71h-2.07v.72a15.93,15.93,0,0,1,2.07,2.4l-.52.59a12.68,12.68,0,0,0-1.55-2v6.34h-.71v-6.56a19.67,19.67,0,0,1-2.27,3.53l-.5-.62a15,15,0,0,0,2.7-4.4h-2.65v-.71h2.72v-2.05c-.39.09-1.07.21-2,.36l-.39-.69a17.82,17.82,0,0,0,4.83-1.16Zm6.66,8-1.43.22v3.51h-.74v-3.39l-4.61.69-.05-.72,4.66-.72v-8.09H148v8l1.4-.18Zm-3.33-1.81-.51.56A11.81,11.81,0,0,0,143,260l.47-.56A12.24,12.24,0,0,1,146.06,261.9Zm.32-3.77-.45.63a13.49,13.49,0,0,0-2.51-2.18l.42-.56A13.41,13.41,0,0,1,146.38,258.13Z" transform="translate(-5.09 -12.99)"/><path class="cls-4" d="M155.13,255.34c-.18.5-.43,1.12-.75,1.87l-.48,1.08v9.18h-.71v-7.81q-.63,1.11-1.17,1.89l-.45-.71a22.83,22.83,0,0,0,2.89-5.73Zm4,2.64v.69h-1.81v2.81h1.42V266h-3.52v-4.47h1.4v-2.81h-2V258h2v-2.77h.7V258ZM158,265.26v-3.09H156v3.09Zm5.92,1.61-.49.57a11.62,11.62,0,0,1-2-2.29,10.46,10.46,0,0,1-2.45,2.33l-.56-.52a8.66,8.66,0,0,0,2.6-2.51,13.54,13.54,0,0,1-1-3.77l.67-.26a11.41,11.41,0,0,0,.78,3.24,9.4,9.4,0,0,0,.81-4.36c0-.33,0-.7,0-1.08h-1.67a12,12,0,0,1-1.46,2.9l-.56-.41a16.5,16.5,0,0,0,2.13-5.53l.69.18a16.87,16.87,0,0,1-.59,2.17h3.06v.69H163a12.48,12.48,0,0,1-1.08,6.26A9.57,9.57,0,0,0,164,266.87Z" transform="translate(-5.09 -12.99)"/><path class="cls-4" d="M178.44,262.39h-4.61v3.81a.26.26,0,0,0,.16.26,6.61,6.61,0,0,0,1.6.09,6.14,6.14,0,0,0,1.53-.1c.17-.07.27-.76.31-2.07l.75.28a3.86,3.86,0,0,1-.43,2.22,3.16,3.16,0,0,1-2,.41,11.48,11.48,0,0,1-2.06-.09.85.85,0,0,1-.41-.35,1.18,1.18,0,0,1-.17-.65v-3.81h-2.27q0,4-4.12,5.08l-.5-.66c2.65-.58,3.93-2.05,3.82-4.42h-3.8v-.71h12.21Zm-.51-2.46h-.77v-2.49h-9.67v2.49h-.78v-3.22h5.19c-.36-.73-.6-1.19-.7-1.37l.77-.26a12.67,12.67,0,0,1,.8,1.63h5.16Zm-1.75-.29h-7.71V259h7.71Z" transform="translate(-5.09 -12.99)"/><path class="cls-4" d="M187.36,256.73h-2.79v.89h2.28v2.32h-2.28v.3a14,14,0,0,1,2.06,1l-.31.63a16.68,16.68,0,0,0-1.75-1v1.43h-.69v-1.71a12.72,12.72,0,0,1-2.63,1.76l-.48-.58a10.51,10.51,0,0,0,2.89-1.91h-2.18v-2.32h2.4v-.89h-3v-.68h3v-.75h.69v.75h2.79ZM193,267.27H180.8v-.67h2.46v-2.2H184v2.2h2.66v-3h-5.47V263H192.7v.66h-5.34v1.08h4.82v.63h-4.82v1.24H193Zm-9.1-8v-1H182.2v1Zm2.27,0v-1h-1.58v1Zm6.9,2.48-.37.66a7.11,7.11,0,0,1-2.48-1.26,13.16,13.16,0,0,1-2.69,1.28l-.5-.6a9.77,9.77,0,0,0,2.7-1.2,6,6,0,0,1-1-1.61l.63-.31a4.72,4.72,0,0,0,.9,1.47,4.31,4.31,0,0,0,1.23-2.69h-2.26a7.4,7.4,0,0,1-1.59,1.89l-.5-.46a7.74,7.74,0,0,0,2.39-3.69l.63.27a6.81,6.81,0,0,1-.54,1.32h3.3v.67h-.75a5,5,0,0,1-1.43,3.18A6.17,6.17,0,0,0,193.05,261.75Z" transform="translate(-5.09 -12.99)"/><path class="cls-4" d="M200.17,257.44h-4.85v-.73h2.16a6.61,6.61,0,0,0-.56-1.25l.7-.28a7.72,7.72,0,0,1,.61,1.53h1.94Zm-.37,2h-4.08v-.7h4.08Zm0,2h-4.08v-.69h4.08Zm-.26,5.73h-.76v-.74h-2.13v1h-.73v-4.65h3.62Zm-.76-1.45v-2.21h-2.13v2.21Zm8.75-1.28H204.2v3h-.73v-3h-3.3v-.7h3.3v-2.17h-2.69v-.7h2.69v-2.06h-3v-.7h6.74v.7h-3v2.06h2.71v.7H204.2v2.17h3.33Zm-4.59-7.19-.69.32a8.11,8.11,0,0,0-1.15-2l.63-.41A10.65,10.65,0,0,1,202.94,257.29Zm3.68-1.79a11.67,11.67,0,0,1-1.4,2.05l-.69-.38a9,9,0,0,0,1.43-2Z" transform="translate(-5.09 -12.99)"/><path class="cls-4" d="M211.51,264.21a17.14,17.14,0,0,1-1,3.23l-.7-.26a14.18,14.18,0,0,0,1-3.15Zm3.75-6.81a37.32,37.32,0,0,1-3.87,5.25c.52-.09,1.41-.29,2.69-.59a8.14,8.14,0,0,0-.34-.82l.62-.26a8.75,8.75,0,0,1,.84,2.27l-.64.25c0-.06-.09-.34-.24-.85a37.34,37.34,0,0,1-3.93.88l-.22-.62a21,21,0,0,0,2.82-3.39,20.62,20.62,0,0,1-2.44.48l-.2-.63a17.08,17.08,0,0,0,2.44-4.15l.72.23a27.5,27.5,0,0,1-2.15,3.71,17.68,17.68,0,0,0,2.16-.4c.31-.45.67-1,1.08-1.67Zm-2,9.64-.72.1a16.15,16.15,0,0,0-.25-3l.64-.11A13.54,13.54,0,0,1,213.22,267Zm1.92-.45-.68.2a12.55,12.55,0,0,0-.59-2.69l.67-.18A15,15,0,0,1,215.14,266.59Zm6.6.87h-.69v-.93h-4.52v.94h-.71V255.56h5.92Zm-3.31-7v-4.19h-1.9v4.19Zm0,5.36v-4.64h-1.9v4.64Zm2.62-5.36v-4.19h-1.89v4.19Zm0,5.36v-4.64h-1.89v4.64Z" transform="translate(-5.09 -12.99)"/><path class="cls-4" d="M229.31,267.19h-.7V266h-3v1.48h-.71v-9.92h1.3a13.24,13.24,0,0,0,1-2.41l.7.14a24,24,0,0,1-1,2.27h2.39Zm-.7-5.93v-3h-3v3Zm0,4V262h-3v3.32Zm7.72-7.72c-.06,2.1-.16,4-.31,5.84a14.31,14.31,0,0,1-.44,3.18,1.47,1.47,0,0,1-.58.68,3,3,0,0,1-1.34.2c-.29,0-.66,0-1.13,0l-.22-.71c.38,0,.79,0,1.24,0h.79a.67.67,0,0,0,.37-.18.81.81,0,0,0,.27-.37,9.91,9.91,0,0,0,.22-1.61c.09-.93.17-1.95.23-3.07s.1-2.21.13-3.26H231.9a19.16,19.16,0,0,1-1.69,2.77l-.57-.41a14.94,14.94,0,0,0,2.6-5.38l.71.19c-.23.75-.48,1.46-.76,2.14Zm-2.58,6.27-.59.42a14.94,14.94,0,0,0-2-3.26l.6-.39A13.94,13.94,0,0,1,233.75,263.83Z" transform="translate(-5.09 -12.99)"/><path class="cls-4" d="M244.11,263l-.54.5a16.68,16.68,0,0,0-1.64-2.08v6h-.71v-5.27c-.37.4-.92.95-1.66,1.64l-.53-.51a12.88,12.88,0,0,0,3.78-4.77h-3.45v-.71h4.22v.71a17.4,17.4,0,0,1-1.29,2.32A13.12,13.12,0,0,1,244.11,263Zm-1.76-5.88-.69.28a9.78,9.78,0,0,0-1.16-1.85l.65-.34A8.64,8.64,0,0,1,242.35,257.13Zm8.87,7.78a4.34,4.34,0,0,1-.19,1.43,1.38,1.38,0,0,1-.49.72,1.8,1.8,0,0,1-.95.19c-.7,0-1.13-.11-1.31-.33a1.08,1.08,0,0,1-.26-.68v-3.3h-1.51a4.83,4.83,0,0,1-.52,2.25,4.3,4.3,0,0,1-1.37,1.67,3,3,0,0,1-1.08.61h0l-.45-.59a4,4,0,0,0,2.73-3.94h-1.33v-7.31h5.83v7.31h-1.56v3.21c0,.27.29.41.85.41a.76.76,0,0,0,.68-.29,3.86,3.86,0,0,0,.28-1.59Zm-1.68-7.08v-1.52h-4.35v1.52Zm0,2.17v-1.48h-4.35V260Zm0,2.23v-1.55h-4.35v1.55Z" transform="translate(-5.09 -12.99)"/><path class="cls-4" d="M265,257.83c0,2.24-.05,4.14-.13,5.7a14.48,14.48,0,0,1-.35,2.94,1.48,1.48,0,0,1-.63.82,4.48,4.48,0,0,1-1.73.22c-.38,0-.85,0-1.4,0l-.27-.78c.65,0,1.2.05,1.66.05a3,3,0,0,0,1.32-.16.94.94,0,0,0,.34-.51,23.64,23.64,0,0,0,.27-2.74c.11-1.58.17-3.16.18-4.75h-4.29a11.33,11.33,0,0,1-1.54,5.64,10.8,10.8,0,0,1-4,3.31l-.53-.67a9.41,9.41,0,0,0,2.58-1.58,7.39,7.39,0,0,0,1.81-2.41,12.47,12.47,0,0,0,.87-4.29h-4.89v-.75h4.94c0-.85.08-1.72.08-2.61h.75c0,.73,0,1.6-.08,2.61Z" transform="translate(-5.09 -12.99)"/><path class="cls-4" d="M272.28,261.26l-.5.56a12.43,12.43,0,0,0-1.19-1.66v7.28h-.71v-7a15.52,15.52,0,0,1-1.36,3.2l-.52-.53a15.48,15.48,0,0,0,1.81-4.8h-1.65v-.64h1.72v-2.39h.71v2.39h1.2v.64h-1.2v.9A14.73,14.73,0,0,1,272.28,261.26Zm3.69,4.95-.45.51a13.4,13.4,0,0,0-1.59-1.33,9.48,9.48,0,0,1-1.8,2.16l-.52-.51a8.84,8.84,0,0,0,2.43-3.46l.65.27-.45.95A12.16,12.16,0,0,1,276,266.21Zm4.52-7.64-.4.62a11.9,11.9,0,0,1-3.9-2.9,14.41,14.41,0,0,1-3.84,3l-.53-.56a11.66,11.66,0,0,0,4.31-3.51l.68.25a1.21,1.21,0,0,1-.22.32A11.09,11.09,0,0,0,280.49,258.57Zm-4.88,4.72h-2.9V260h2.9Zm-.7-.67v-2h-1.5v2Zm3.2-3.67h-3.9v-.69h3.9Zm2.2,8-.46.49a13.67,13.67,0,0,0-2-1.82,8.94,8.94,0,0,1-1.41,1.87l-.59-.4a9.41,9.41,0,0,0,2.1-3.5l.64.22a7.76,7.76,0,0,1-.48,1.22A13.26,13.26,0,0,1,280.31,266.93Zm-.77-3.64h-2.88V260h2.88Zm-.68-.67v-2h-1.51v2Z" transform="translate(-5.09 -12.99)"/><path class="cls-4" d="M295,260l-.43.64a28.43,28.43,0,0,0-5.37-2.36v2h4.15v4.92h-9v-4.92h4.12v-2.74a16.26,16.26,0,0,1-5.37,3.13l-.5-.64a14.56,14.56,0,0,0,5.3-2.87h-5.15v-.7h5.72v-1.33h.71v1.33h5.72v.7h-5.72v.38A31.81,31.81,0,0,1,295,260Zm0,7.11H282.71v-.7h12.23Zm-2.38-4.74V261h-7.5v1.38Zm0,2.11v-1.4h-7.5v1.4Z" transform="translate(-5.09 -12.99)"/><path class="cls-4" d="M303.36,260a1.39,1.39,0,0,1,1,.4,1.35,1.35,0,0,1,.42,1,1.39,1.39,0,0,1-.39,1,1.31,1.31,0,0,1-1,.4,1.46,1.46,0,0,1-1-.36,1.31,1.31,0,0,1-.42-1.07,1.27,1.27,0,0,1,.43-1A1.42,1.42,0,0,1,303.36,260Zm.85,1.42a.74.74,0,0,0-.24-.58.88.88,0,0,0-.6-.23.76.76,0,0,0-.57.25.8.8,0,0,0-.23.56.93.93,0,0,0,.22.57.72.72,0,0,0,.6.26A.8.8,0,0,0,304,262,.81.81,0,0,0,304.21,261.4Z" transform="translate(-5.09 -12.99)"/></svg>